<!-- https://lab.streamlineicons.com/?ref=lapaninja -->
<svg xmlns="http://www.w3.org/2000/svg" viewBox="0 0 300 300">
  <defs>
    <style>
      .a,.b,.d,.e{fill-rule:evenodd}.b{fill:#010101}.d{fill:#FF7EB6}.e{fill:#010000}
    </style>
  </defs>
  <path class="a" d="M117.05 150.25a7.01 7.01 0 012.73 3.41 9.75 9.75 0 01.44 1.4 10.73 10.73 0 01-.1 5.3 6.01 6.01 0 01-5.14 4.77c.8 5.03 1.56 8.36 1.72 9.16.79 3.37.73 2.53.62 3.35l-.41.34-.53-.07-.34-.42c0-.1-1.07-3.16-2.05-7.51-1.4-6.16-1.25-5.77-1.09-6.18a1.04 1.04 0 01.46-.45c.43-.16.96-.13 1.95-.44a3.1 3.1 0 001.72-1.18 7.95 7.95 0 00.68-7.13 4.6 4.6 0 00-2.28-2.66c-1.22-.67-.18-1.32-1.04-5.96-3.07-15.8-20.62-16.24-27.75-6.77l-.45.28-.5-.1h-.01l-.27-.43c.1-.62.07-.5.15-.62 8.66-13.32 31.33-9.37 31.49 11.91z"/>
  <path class="a" d="M94.4 145.45a3.22 3.22 0 012.29.88 2.18 2.18 0 01.73 1.12l-.1.46c-1.52.16-.64.11-1.53-.04a3.87 3.87 0 00-.47-.07h-.02a3.63 3.63 0 00-1.62.01l-.03.01a2.08 2.08 0 00-.81.52c-.13.18-.25.2-.83.57-.1.08.04 0-.94.43-.43-1-.38-.87-.4-.97a2.21 2.21 0 01.32-1.33 4.18 4.18 0 011.93-1.35 4.54 4.54 0 011.48-.24z"/>
  <ellipse cx="94.45" cy="153.85" rx="2.3" ry="2.03" transform="rotate(-87.5 94.45 153.85)"/>
  <path class="a" d="M94.47 171.45l-.56-.15a134.6 134.6 0 00-1.68-.82 7.85 7.85 0 01-.7-.37 5.04 5.04 0 00-1.41-.54 2 2 0 00-.35-.03h-.19l-.02.02v.02h-.01a.7.7 0 00-.04.07l-.03.03v.01l-.01.02h-.01l-.03.04-.01.01-.05.06a1.7 1.7 0 00-.19.26 3.01 3.01 0 00-.25.43v.01l-.7.68c-.76-.79-.68-.58-.86-1.36a4.3 4.3 0 01-.02-.58 1.91 1.91 0 01.13-.59 2.62 2.62 0 01.97-1.1 2.8 2.8 0 011.68-.39 7.07 7.07 0 013.39 1.36 7.72 7.72 0 011.46 1.64l.18.54-.15.46zm-8.24 4.1a18 18 0 001.22.89 10.08 10.08 0 005.56 2.07 10.42 10.42 0 003.01-.27c.78-.17 1.55-.6 2.1.5a45.41 45.41 0 012.2 6.08c.37 1.1.3.69.3 1.42l-.33.39h-.53c-.5-.43-.3-.08-1.43-2.24-.05-.09-1.3-2.62-1.88-3.93a12.05 12.05 0 01-2.59.32 12.32 12.32 0 01-7-2.01 7.3 7.3 0 01-2.18-2.17v-.01a11.07 11.07 0 01-.75-1.33l-.07-.55.25-.4h.01l.47-.08c.85.46-.01-.09 1.64 1.32z"/>
  <path class="a" d="M89.31 178.82c-1.77-.64-4.12-1.33-4.62-3.14a39.87 39.87 0 01-.9-3.96 20.82 20.82 0 01-.19-5.28c.03-.2-.05-.69.12-.58 1.72 1.16.79 4.08 5.36 12.81"/>
  <path class="a" d="M87.67 176.64a6.64 6.64 0 003.16.62c-.58-1.41-2.18-5.37-.67-5.15.48.07.84.57 1.09.94.66.97.9 2.44 1.83 3.22.82.7 2.93-.27 3.75-.6.55-.22 1.9-.5 2.1-1.2.2-.76-.46-1.76-.74-2.42-.6-1.45-1.25-2.9-1.94-4.32a7.15 7.15 0 00-1.5-2.39c-1.43-1.27-2.45-.51-3.38-1.14-.59-.4-.87-1.08-.03-1.42a4.12 4.12 0 012.3.03 6.39 6.39 0 012.1.72c1.93 1.18 2.9 3.5 4.77 6.43 1.4 2.25 1.34 4.14 4.67.46 4.88-5.36 2.98-7.51 4.52-12.77.1-.33.34-1.31.86-1.2.8.2 1.05 1.41 1.13 2.09a19.58 19.58 0 01-.12 6.57 13.6 13.6 0 01-2.38 5.51c-1.4 1.75-4.83 5.24-8.52 6.76-.81.34-3.65 1.6-4.32 1.78-5.1 1.3-9.4-.77-10.08-2.28-.13-.3 0-.59.36-.57a3.8 3.8 0 011.08.34"/>
  <path class="b" d="M58.32 144.95c.44.47.3.09 1.08 2.47 6.2 20.98-4.25 35.9-2.29 67.25.73 9.66 2.48 17.84 7.51 26a41.41 41.41 0 0015.56 14.27c.52.02 14.52 9.49 35.38 2.4l.54.03.37.38-.03.54-.39.37a49.13 49.13 0 01-12.9 2.95 43.33 43.33 0 01-42.78-23.93c-6.88-13.86-6.53-34.02-4.48-49.34 1.27-10.8 5.12-26.36 2.69-37.89a38.22 38.22 0 00-1.2-4.65l.05-.53.38-.35zm6.98-1.55l.43.35c1.28 1.75 1.48 3.08 2.04 5.83a29.28 29.28 0 01.54 5.3 21.22 21.22 0 01-.36 3.18l-.27.5-.46.18-.45-.23-.22-.51c-.07-.72-.4-3.1-.55-4.75-.37-4.31-1.2-5.92-1.43-7.81l-.13-1.2.1-.56.3-.33h.02zm8.08-.8a2.31 2.31 0 01.78.94 7.45 7.45 0 01.74 1.53 29.41 29.41 0 01.89 5.5 15.3 15.3 0 01-.33 5.1c-.1.47-.38 1.29-.38 1.4l-.33.45-.48.14-.41-.28-.17-.54c0-1.24-.12-5.37-.14-5.9a29.56 29.56 0 00-.84-5.4c-.08-.45-.21-2.04-.2-2.11l.1-.55.3-.33h.01zm8.03 2.93c.36.52.37.24.9 3.6a75.52 75.52 0 01.26 12.89 53.78 53.78 0 00.42 10.37c2.4 13.8 12.48 28.92 18.2 45.03a1.6 1.6 0 01.16 1.07l-.39.37-.52-.03c-.5-.51-.22-.04-1.07-2.08-6.04-13.48-15.66-29.51-18.34-42.63-1.88-9.62.27-17.42-.53-26.8-.16-1.33-.17-.96-.01-1.62l.43-.29z"/>
  <path class="b" d="M107.44 207.98l.39.3-.01.49c-1.32 1.7-4.03 2.53-7.07 4.3a4.88 4.88 0 01-1.88.69c-.2.06 0 .07-1.11-.16.22-1.11.16-.91.3-1.09a4.23 4.23 0 011.57-1.41 66 66 0 014.48-2.3 18.58 18.58 0 011.81-.6 3.07 3.07 0 011.52-.22zm-91.28-42.94l.35.38c-.03.88.1.1-.86 2.5-3.73 9-5.94 19.9-7.19 29.73-.7 6.25-1.04 11.73-1.16 15.7a46.95 46.95 0 001.37 14.18 50.33 50.33 0 001.76 5.27 31.94 31.94 0 0015.15 16.15 31.06 31.06 0 0013.6 3.03 42.02 42.02 0 0015.53-3.23 62.2 62.2 0 003.93-1.79l.54-.04.4.35.05.53c-.46.56.02.28-3.32 1.92a46.48 46.48 0 01-11.17 3.63 39.64 39.64 0 01-7.76.62c-.6 0-1.21-.06-1.6-.08a32.13 32.13 0 01-5.47-.87 31.7 31.7 0 01-5.24-1.83 32.44 32.44 0 01-10.1-7.36 32.05 32.05 0 01-6.13-9c-4.52-10.11-4.14-18.76-3.35-29.8 1.23-14.42 3.13-26.64 9.75-39.67l.4-.34zm21.82 5.1l.44.24.18.5c0 .15-.02 1.87.05 3.16 0 .7.1 2.27.12 2.6a87.94 87.94 0 001.18 11.58c1.1 7.32 4.58 17.4 7.35 24.2 2.5 6.12 2.17 4.75 2.21 5.7l-.34.4-.53.03c-.55-.46-.3-.14-1.13-1.67-.58-1.11-2.28-4.27-3.66-7.54a95.18 95.18 0 01-6.5-23.05c-1.46-9.72-.17-14.6-.13-15.52l.27-.47.47-.16z"/>
  <path class="b" d="M53.4 207.24l.37.29-.03.47-.38.48a10.24 10.24 0 01-2.3 1.45c-.11 0-.83.4-3.2 1.26a2.04 2.04 0 01-.7.2c-.1 0-.45.02-.52.01-.66-.04-.35.05-1.42-.45.5-1.07.32-.78.8-1.24a2.63 2.63 0 011.05-.64c.2.01 3.74-1.63 5-1.75a3.11 3.11 0 011.33-.08z"/>
  <ellipse cx="221.42" cy="143.26" rx="2.53" ry="2.76" transform="rotate(-4.02 221.42 143.26)"/>
  <path class="b" d="M222.35 132.99a5.9 5.9 0 01.81.4c.1.07.01-.02.46.47l.05.47-.34.33-.57.09a4.24 4.24 0 00-.63-.02 8.1 8.1 0 00-1.44.18 4.94 4.94 0 00-1.47.41 5.77 5.77 0 00-1.68 1.16 2.77 2.77 0 01-.56.5 3.16 3.16 0 01-1.76.78l-.24-.95a4.83 4.83 0 01.35-1.14 2.48 2.48 0 01.63-.8 8.13 8.13 0 012.18-1.54 7.74 7.74 0 012.3-.67 4.79 4.79 0 011.9.33zm-1.49 26.75l.36.33.1.56a8.16 8.16 0 01-.64 2.3c-.06.1.14-.29-.28.53a11.59 11.59 0 01-4.2 3.9 7.48 7.48 0 01-1.81.77 5.16 5.16 0 01-1.57.04c-.37-.06-.14.07-1.05-.65.88-1.11.23-.49 1.92-1.48a10.16 10.16 0 002.57-1.4 12.32 12.32 0 002.33-2.4c.14-.17.6-.73.86-1.13a7.49 7.49 0 00.53-.88l.39-.4.48-.08zM101.9 35.64l.44.26c.3.91.08-.32.13 4.34.05 4.83.03 4.6-.25 5.03-.93 1-1.47-.2-3.71.5a4 4 0 00-1.93 1.33 3.47 3.47 0 00-.68 2.54v.05c.02.02.04.1.06.17a2.39 2.39 0 001.06 1.2c1.49.86 4.2.39 5.05.62.94.42.63.93 1.03 2.54a7.51 7.51 0 002.53 4.36c1.7 1.34 1.68-.55 1.41 6.46-.06 1.96 0 1.53-.26 2.18l-.48.22c-.86-.36-.68.25-1.06-6.72-2-.93-3.7-2.91-4.45-6.5l-.07-.36a9.45 9.45 0 01-4.76-.82 4.87 4.87 0 01-1.92-1.94 4.12 4.12 0 01-.43-2.1 6.14 6.14 0 016.63-5.7 47.08 47.08 0 01.52-5c.4-2.41.33-1.98.66-2.51l.48-.15zm20.56.76l.45.2.23.49c.02.67.49 4.63.54 6.86a7.76 7.76 0 013.5.78 4.76 4.76 0 012.37 4.25 5.65 5.65 0 01-.07.92c-.56 3.2-3.28 4.32-6.55 4.38-.2 0-.1-.07-.22.36A8.7 8.7 0 01119 60.2c-.15.1-.05-.26-.25 2.73-.21 3.02-.04 2.26-.36 3l-.47.22h-.01l-.48-.2c-.33-.7-.2-.19-.32-2.14l-.12-3.95a1.01 1.01 0 01.36-.95 6.3 6.3 0 002.04-2c0-.02.08-.13.1-.15a9.6 9.6 0 00.95-2.3c.38-1.29.1-1.67.74-2.23.6-.36.9-.12 2.52-.24a4.5 4.5 0 002.84-1 2.98 2.98 0 00.46-3.33c-.62-1.23-2-1.4-3.4-1.45-1.01-.04-1.64.15-2.07-.74a2.6 2.6 0 01-.08-.88 61.9 61.9 0 01.32-7.51l.23-.48.46-.2zm-8.36 15.94c-.06 1.04 0 .96-.27 1.37a2.78 2.78 0 01-1.11 1.03 3.8 3.8 0 01-3.4-.23c-.38-.22-.4-.22-.67-.7-.1-.22-.15-.4-.16-.4l-.1-.98c2.07-.2 1.68.02 2.41.27.7.23.91-.05 1.47-.15 1.22-.3.3-.26 1.84-.2zm-2.16-10.14c.54 1.41.35.69.27 4.07a10.86 10.86 0 01-.33 3.18 2.02 2.02 0 01-.34.9l-.4.23h-.01l-.43-.2-.3-.5c-.62-2.06-.5-2.57-.37-5.59a3.07 3.07 0 01.29-1.66c.3-.62.1-.37.96-1.16l.66.73z"/>
  <ellipse cx="106.48" cy="42.88" rx="1.84" ry="1.38" transform="rotate(-87.5 106.48 42.88)"/>
  <ellipse cx="116.14" cy="43.3" rx="1.84" ry="1.38" transform="rotate(-87.5 116.14 43.3)"/>
  <path d="M123.21 155.44c4.6-1.06 12.52-7.38 11.47 4.28-.62 6.83-2.57 14.64.05 21.31" fill="none"/>
  <path class="a" d="M105.94 59.32a9.23 9.23 0 011.08.14 6.77 6.77 0 002.23.58c.66.06 1 .02 1.39.07 1.93.24 1.43.15 2.12.37l.29.36-.13.46-.45.38a5.13 5.13 0 01-2.58.66 10.24 10.24 0 01-3.14-.56 2.31 2.31 0 01-1.41-1c-.29-.45-.18-.11-.38-1.3 1.32-.22.87-.17.98-.16zm-4.61-14.36a9.92 9.92 0 01-.79-10.24c-3.36-.76-6.3-3.97-7.24-7.24 6.7 3.96 19.27-6.95 27.47-2.41 3.25 1.8 4.6 5.85 3.95 9.4 4.74 2.22 3.27 6.54.83 11.18a8.46 8.46 0 00-2.96-.44c-.22-3.43.2-6.87-.08-10.3a28.1 28.1 0 01-5.57 1c-4.27.5-9 .66-13.19-.5a19.16 19.16 0 00-2.26 9.95"/>
  <path class="a" d="M93.97 26.56c5.53 2.85 14.5-4.24 22.95-3.68 5.86.37 9.05 4.62 9.09 9.9 0 1.76-.45.48 1.15 1.94 2.9 2.92 1.85 6.4.08 10.12-.6 1.19-.8 2.06-1.92 1.92a7.08 7.08 0 00-2.75-.42c-1.22-.13-1.11-1.16-1.15-2.23-.08-1.82.11-5.96.05-7.77a26.42 26.42 0 01-2.65.42c-10.09 1.2-13.96-.21-14.28-.23l-.34-.08a21.86 21.86 0 00-1.03 2.48 17.4 17.4 0 00-1 5.46c-.05 1.04.15.56-.16 1.43l-.47.25-.5-.17-.25-.48v-.05l-.04-.02a11.4 11.4 0 01-2.15-7.24 10.13 10.13 0 01.58-2.75 11.17 11.17 0 01-5.06-3.83 11.51 11.51 0 01-1.77-3.31 1.78 1.78 0 01-.15-1 1.13 1.13 0 011.12-.88 1.23 1.23 0 01.65.22zm7.5 7.83a.95.95 0 010 .65 8.72 8.72 0 00-.7 7.07c.07.2.02.18.1-.31a21.17 21.17 0 011.42-5.27c.68-1.59.71-1.78 1.24-1.96.11 0-.05-.03.3-.03a24.61 24.61 0 005.27.75 58.84 58.84 0 0011.32-.96 19.48 19.48 0 001.92-.5 1.1 1.1 0 011.18.65c.37 1.13.09 6.45.15 9.65a9.37 9.37 0 011.3.18c.12-.2.35-.7.46-.91a12.87 12.87 0 001.06-2.86c.59-2.61-.15-3.77-1.62-4.72-.71-.4-.72-.29-1.06-.67-.59-.93.25-.85-.22-4.1a7.24 7.24 0 00-3-4.76c-6.78-4.29-17.75 4.29-25.23 3.1a9.79 9.79 0 004.66 4.14c.82.32 1.15.2 1.45.86z"/>
  <path class="d" d="M144.4 81.85s-9.79 9.65-30.75 12.47c-8.53 1.14-17.24-1.47-24.9-5.25-3.68-1.82-8.11-4.01-10.75-7.24.84-2.56 3.32-4.92 5.36-6.58 4.94-4.05 11.16-7.35 17.6-8.08a8.96 8.96 0 004.7 4.1c5.95 2.64 12.3.6 16.08-4.53 8.8 1 18.6 7.92 22.65 15.11z"/>
  <path class="d" d="M139.3 86.61a60.07 60.07 0 01-18.5 7.56c-11 2.51-19.93 2.68-35.62-5.64a26.67 26.67 0 01-7.78-5.66 1.47 1.47 0 01-.53-1.02 6.93 6.93 0 011-2.37 14.99 14.99 0 011.41-1.91 38.24 38.24 0 018.33-6.73 33.07 33.07 0 0112.91-4.75 1.26 1.26 0 011.28.33 6.61 6.61 0 002.42 2.76c4.65 3.14 11.2 3.16 16.12-2.35.97-1.16.77-1.24 2.38-.98 8.1 1.34 17.46 7.41 22.24 15.57a.73.73 0 01-.08.94v-.01a36.78 36.78 0 01-5.58 4.26zm-18.42-17.3a13.98 13.98 0 01-11.42 4.15c-4.26-.48-7.9-2.9-9.13-5.06a32.27 32.27 0 00-13.05 5.34 33.06 33.06 0 00-6.45 5.5 10.3 10.3 0 00-1.53 2.37 18.55 18.55 0 003.44 2.86 75.3 75.3 0 0011.78 5.9c8.03 3.08 14.07 3.5 19.46 2.76 9.3-1.32 19.56-4.44 27.48-9.88a24.59 24.59 0 002.03-1.54c-4.33-6.77-13.15-12.75-21.29-13.88a16.42 16.42 0 01-1.32 1.49z"/>
  <path class="a" d="M128.74 15.23c9.92.79 28.3 3.2 37.74 7.88a30.29 30.29 0 0112.95 11.64 23.65 23.65 0 012.48 6.2c1.9 8.2-.78 15.91-5.88 22.7a96.1 96.1 0 01-10.08 10.8 144.94 144.94 0 01-16.37 13.03c-6.77 4.65-6.65 3.97-5.17 3.9a23.04 23.04 0 018.74 1.25c4.01 1.37 5.35 5.18 3.8 8.32-4.05 8.18-23.45 6.34-26.82-.5a5.01 5.01 0 01-.46-1.3c-14.2 1.26-32.16 4.7-55.82-8.15-6.1-3.36-11.52-6.96-15.52-12.63a37.98 37.98 0 01-3.87-6.7 37.38 37.38 0 01-1.56-26.5c8.82-27.74 46.91-32.3 75.84-29.94zm10.92 77.28c.16-.7-.02-.26 3.3-2.4 11.47-7.29 30.31-22.23 35.42-34.08a23.83 23.83 0 002.14-9.71 21.88 21.88 0 00-6.9-15.62c-4.47-4.24-8.82-6.31-14.72-8.12-6.77-2.04-16.42-3.55-22.9-4.34-21.65-2.61-52.57-2.15-69.6 11.52A33.68 33.68 0 0054.37 64.3c2.62 10.57 8.13 17.1 16.23 22.17 17.3 10.76 32.3 12.94 50.95 11.26 9.3-.87 9.38-1.18 10.03-.39a1.06 1.06 0 01.19.76l-.01.17v.02c-.22 4.97 16.49 9.29 22.77 3.06 2.26-2.65 1.38-5.6-1.1-6.85a22.96 22.96 0 00-6.05-1.57 28.74 28.74 0 00-6.92.28.7.7 0 01-.8-.7z"/>
  <path class="d" d="M152.77 183.94c-4.02-3.17-9.29-4.95-14.2-6.06-6.22-1.42-18.73-.41-18.85-.3-4.82 4.55-9.25 9.41-15.03 12.87-2.3 1.38-7.48 2.24-6.22-2.1a14.76 14.76 0 00-5.41 3.68c2.5 5.54 4.63 10.01 7.15 15.52 2.62-1.07 4.4-1.4 7.02-2.46 7.92 5.34 13.28 15.2 16.18 24.13 1.13-1.91 2.27-3.87 3.55-5.68-1.48-4.17-3.31-12.54 3.46-12.9-.35-5.2 1.27-11.04 7.57-10.34-.23-2.66-.22-5.66 1.3-7.98 1.93-2.93 6.03-1.56 7.94.53a235.5 235.5 0 015.54-8.91z"/>
  <path class="d" d="M149.67 190.28c-1.95 3.2-1.76 3.41-2.55 3.38-.42-.1-.45-.25-.65-.42a6.55 6.55 0 00-2.6-1.52 4.2 4.2 0 00-2.09-.13h-.05a2.6 2.6 0 00-1.08.54l-.02.02a7.33 7.33 0 00-1.76 4.75c-.13 3.1.32 3.19-.04 3.91a1 1 0 01-1 .44 5.82 5.82 0 00-3.3.55 5.65 5.65 0 00-2.56 3.52 11.05 11.05 0 00-.37 1.69c-.45 3.56.37 3.84-.62 4.56-1 .45-5.16-.38-4.11 7.03a26.3 26.3 0 001.16 4.56c.26 1-.16.65-3.22 5.9-.44.75-.56 1.18-1.33 1.28a1.13 1.13 0 01-1.13-.78 59.37 59.37 0 00-5.97-12.96 35.26 35.26 0 00-9.3-10.24c-.85.27 1.04-.3-3.42 1.16-1.9.6-2.87 1.03-3.2 1.13a1.13 1.13 0 01-1.27-.63c-4.9-10.78-7.25-15.31-7.25-16.1a1.09 1.09 0 01.32-.68 14.69 14.69 0 014.09-3.12 13.2 13.2 0 012.02-.9 1.13 1.13 0 011.16.71c.16.54.05.56-.07 1.18a1.63 1.63 0 00-.04.61v.04a.5.5 0 00.02.06v.02a1.23 1.23 0 00.04.12v.02l.02.02v.01a.38.38 0 01.02.04v.02l.03.04h.02v.01h.01l.02.02.02.01.02.02h.01l.03.02.01.01.05.02.01.01.06.02.01.01.2.07h.03l.05.01h.03l.04.01h.02l.02.01c2.68.12 4.23-1.06 6.4-2.6 5.9-4.33 11.46-10.5 12.52-11.22 1.02-.44 13.03-1.05 18.99.21 5.05 1.12 11.06 3.29 15.04 6.6v-.01c.72.66.36.6-3.49 6.94zm-2.62 1.28c.4-.74 4.58-7.25 4.77-7.46-3.66-2.68-9.03-4.38-13.46-5.3-3.14-.76-10.01-.6-13.23-.49-.9.05-4 .22-4.9.33-6.56 6.32-8.16 8.09-13.05 11.56a12.33 12.33 0 01-5.08 2.37c-1.32.23-3.04.19-4-.74a2.81 2.81 0 01-.9-1.61 12.32 12.32 0 00-2.8 2.06c1.54 3.43 5.78 12.46 6.4 13.83 1-.4 4.33-1.4 5.32-1.8 1.36-.5 1.14-.62 2.88.65a37.4 37.4 0 018.9 9.84 61.56 61.56 0 015.79 11.75 71.3 71.3 0 012.02-3.19c-1.17-3.64-2.24-8.8.22-11.8a5.56 5.56 0 013.38-1.88 12.58 12.58 0 012.2-7.95 6.55 6.55 0 011.47-1.34 6.94 6.94 0 013.98-1.12c-.16-3.14.45-7.4 3.15-8.92 1.61-.92 4.28-.87 6.94 1.2zm-15.9 91.06a25.54 25.54 0 01-10.9-24.44c-8.5 4.8-17.42 7.28-27.11 5 1.5 6.64 3.03 13.3 4.49 19.95 3.78-.14 22.42-.36 33.86-.3"/>
  <path class="d" d="M120.44 257.06a1.14 1.14 0 01.94 1.08c-.01.21-.09.82-.1.93a23.74 23.74 0 00.63 8.47 25.8 25.8 0 004.61 9.66h.01a29 29 0 005.1 4.98l.37.16c.67 1.58.74 1.14-13.72 1.43-14.96.43-4.62.03-20.6.48a1.12 1.12 0 01-1.15-.89c-4.77-21.45-4.59-19.89-4.47-20.51a1.14 1.14 0 011.15-.8 31.45 31.45 0 0011.04.62 38.13 38.13 0 0011.71-3.54c3.89-1.82 3.62-2.12 4.48-2.06zm-23.72 7.89c-.1-.02-1.99-.26-2.1-.32.78 3.4 3.17 13.94 3.91 17.34.87-.25 25.84.03 30.57.1-.11-.06-.99-.76-1.52-1.22a24.14 24.14 0 01-2.47-2.49 25.58 25.58 0 01-6.19-18.17c-6.93 3.6-14.4 5.72-22.2 4.76z"/>
  <path class="a" d="M203.85 177.02a9.35 9.35 0 001.6.93l.63.33a10.2 10.2 0 003.4 1.26 13.19 13.19 0 003.47.17A21.57 21.57 0 00217 179a7.13 7.13 0 001.37-.56l.54-.1.44.24.1.5-.25.5a9.44 9.44 0 01-1.47 1.05 10.65 10.65 0 01-4.18 1.3 15.26 15.26 0 01-6.28-.63 11.74 11.74 0 01-2.35-1.09l-.36-.26a7.94 7.94 0 01-1.72-2l-.13-.53.17-.44.45-.13z"/>
  <path class="a" d="M206.6 178.97c.34.64.2.15.48 1.86a26.77 26.77 0 01.19 5.79 1.36 1.36 0 01-.17.77c-.5.72-.95.53-2.2.59a87.72 87.72 0 00-10.7 1.21c-1.69.31-1 .32-1.87.2l-.35-.37.06-.52.4-.37a26.22 26.22 0 019.12-2.21c3.75-.3 3.45-.12 3.46-.27l.01-1.6a16.96 16.96 0 01.22-3.22l.21-1.37.25-.49.44-.2zm33.85-40.63a13.02 13.02 0 011.24.74c5.08 3.7 4.76 9.9-.37 13.48a14.65 14.65 0 01-5 2.23 37.32 37.32 0 01-1.84 11.95 27.93 27.93 0 01-4.52 8.62c.01.13.08 5.3.37 9.81a89.22 89.22 0 0110.93 3.83c1.17.55.88.35 1.34.86l-.01.53-.4.37-.54-.01a90.6 90.6 0 00-12.2-3.69 1.35 1.35 0 01-.57-.15c-.54-.35-.53-.72-.6-1.38-.23-2.2-.46-5.31-.56-9.57.01-1.76-.01-1.28.87-2.5l.38-.53a25.53 25.53 0 002.48-4.5 34.23 34.23 0 002.6-14.53 1.13 1.13 0 01.8-1.12 12.67 12.67 0 002.4-.6c3.25-1.34 6-3.5 5.8-6.98v-.16a6.03 6.03 0 00-1.05-2.82 7.68 7.68 0 00-2.43-2.28 8.02 8.02 0 00-4.1-1.23l-.49-.2-.22-.47.19-.48c.56-.27.4-.23.87-.25a9.82 9.82 0 014.63 1.03z"/>
  <path class="a" d="M195.3 120.58c2.9 1.52 5.7 3.25 8.92 4.02 7.21 1.7 15.58-1.17 20.97-6.08.78 8.03 2.37 17.09 11.05 19.27.57-4.99-.02-10.92-2.24-15.5-2.54-5.2-8.03-9.05-13.6-10.33a25.72 25.72 0 00-14.37.7c-1.9.72-3.58 1.99-5.56 2.53-.82.23-1.99-.14-1.86-1.2a4.8 4.8 0 011.64-2.98 23.34 23.34 0 019.4-4.2c5.02-.93 12.88.07 17.4 2.6a28.2 28.2 0 0110.55 11.52c2.07.1 3.3.45 5.04-1 2.1-1.73 1.03-5.4-6.33-6.3a16.1 16.1 0 003.9-1.8 7.59 7.59 0 003.1-2.82c1.31-2.64-.54-5.19-3.33-5.48-2.94-.32-6.2 1.86-8.19 3.87 1.45-2.27 3.29-4.35 4.1-6.96 1.05-3.35-.4-5.62-3.73-3.94-2.66 1.34-4.35 4.33-5.96 6.7a22.74 22.74 0 002.22-5.58c.6-3 .08-9.23-4.65-7.78-4 1.22-6.21 5.83-7.49 9.8.33-3.03 1.58-10.2.15-13.14a2.88 2.88 0 00-4.64-.97 7.31 7.31 0 00-1.27 1.49c-2.45 3.7-2.48 8.35-2.8 12.61-.7-3-1.64-6.4-3.96-8.6-3.57-3.36-6.53 1.24-6.76 4.66-.22 3.36 1.08 6.4 2.14 9.5-1.91-2.8-3.31-6.94-6.26-8.9-3.08-2.04-5.54 1.02-5.52 4.14.03 3.65 2.78 7.32 4.75 10.27-2.33-2.18-5.36-5.26-8.85-5.14-2.42.08-4.96 5.4-.23 10.56 3.24 3.54 7.64 3.6 12.01 3.99"/>
  <path class="a" d="M236.67 96.03c1.38 2.07.46 4.93-.72 7.11.03 0 .13-.05.17-.07 7.86-3.06 11.62 4.97 6.15 8.75a29.3 29.3 0 01-2.27 1.46 11.28 11.28 0 011.96.84c3 1.64 4.02 5.02.74 7.17-1.58 1.02-2.78.92-4.61.8-.7-.04-.7-.02-1.04-.18-.7-.45-.14-.33-2.02-3.24a28.53 28.53 0 00-7.44-7.6c-5.35-3.46-14.35-4.19-19.13-2.83a23.03 23.03 0 00-6.77 3.1 4.44 4.44 0 00-1.42 1.34 3.7 3.7 0 00-.54 1.4.73.73 0 00.34.04 21.89 21.89 0 003.96-1.8c9.24-4.63 24.76-2.32 30.85 9.22a23.91 23.91 0 012.16 6.64 33.22 33.22 0 01.36 9.12c-.08.68-.05.75-.27 1.13a1.12 1.12 0 01-1.27.4 13.96 13.96 0 01-2.34-.83c-5.83-2.81-7.68-8.35-8.75-14.75-.1-.6-.31-2.12-.37-2.83a26.42 26.42 0 01-15.49 5.5c-7.02.04-11.08-3.42-13.94-4.73-.57-.7.28-.23-3.79-.7-4.51-.52-7.76-1.91-10.2-5.79a11.04 11.04 0 01-.8-1.56 8.14 8.14 0 01-.62-3.45c.1-2.28 1.4-4.9 3.76-4.96a8.74 8.74 0 014.91 1.6c-1.24-2.37-2.2-4.84-1.64-7.47.82-3.03 2.63-4.19 4.35-4.18 2.12.02 3.77 1.72 5.09 3.38-.05-.16-.1-1.22-.1-1.33-.07-5.73 4.19-10.12 8.22-6.78a11.84 11.84 0 012.92 4.02 17.12 17.12 0 012.82-8.02c1.36-1.94 3.43-2.93 5.57-1.96 3.06 1.55 2.83 5.53 2.68 8.96a14.24 14.24 0 011.01-1.3c3.64-3.92 8.46-4.52 10.03.12a12.3 12.3 0 01.49 5.08 8.58 8.58 0 012.98-1.77c2-.62 3.34-.06 4.02.95zm-22.52 9.31c4.43.07 9.86 1.02 13.65 3.2a29.54 29.54 0 018.36 7.8 25.27 25.27 0 012.17 3.5 8.93 8.93 0 002.1 0 3.4 3.4 0 001.85-1.18l.02-.01.02-.04v-.02l.03-.05v-.01l.02-.02v-.03l.06-.14v-.07l.01-.01v-.05l.02-.17v-.12l-.04-.16v-.06l-.01-.02v-.02l-.04-.08c-.02-.15-.37-1.03-2.24-1.85a14.62 14.62 0 00-3.76-.95 1.17 1.17 0 01-1.07-.67 1.12 1.12 0 01.35-1.38c.35-.22.86-.3 1.99-.79 1.14-.5 3.83-2.02 4.46-3.08a2.56 2.56 0 00-1.46-4.05 6.09 6.09 0 00-4.57.78 14.82 14.82 0 00-3.46 2.6 1.13 1.13 0 01-.69.34 1.15 1.15 0 01-.74-.19 1.13 1.13 0 01-.41-1.38c.86-1.64 5-6.22 4.26-9.2l-.03-.02a.54.54 0 00-.01-.05l-.01-.02v-.05l-.02-.01v-.02l-.16-.3-.01-.02-.01-.01v-.01h-.01v-.02h-.01l-.01-.02h-.01v-.01h-.03v-.01l-.02-.01-.03-.02a1.06 1.06 0 00-.42-.06 5.51 5.51 0 00-3.15 1.59c-3.74 3.74-3.48 6.1-5.24 5.6a1.13 1.13 0 01-.73-1.2c.17-.74 2.07-3.67 2.36-6.4.17-1.7.04-4.48-1.3-5.57-1.1-.87-3.07.13-4.14.98-2.01 1.49-3.45 4.53-4.28 6.9-.44 1.21-.37 1.39-1 1.72a1.14 1.14 0 01-.76.03c-1.75-.7.05-2.61.02-10.69-.01-1.39-.24-3.42-1.5-4.01a1.59 1.59 0 00-.94-.13 3.18 3.18 0 00-1.86 1.45c-2.37 3.5-2.5 7.25-2.81 11.77-.05.72-.03 1-.47 1.4a1.1 1.1 0 01-1.36 0c-.7-.68-.27-1.3-1.7-5.06-.06-.13-.26-.64-.44-.97-.63-1.34-2.14-3.5-3.63-3.54a2.63 2.63 0 00-1.96 1.3c-2.6 3.81-.71 8.1.74 12.47a1.03 1.03 0 01-.24 1.24 1.01 1.01 0 01-1.27.05c-1.32-1.16-3.76-8.28-6.98-9.3a1.87 1.87 0 00-1.77.28c-4.7 4.27 3.03 12.4 3.2 13.66a.88.88 0 01-1.23.88c-.92-.5-4.47-5.1-8.33-5.13a1.27 1.27 0 00-.78.2c-2.54 1.94-1.66 6.97 1.67 9.72 2.72 2.52 6.77 2.74 10.38 3.06.51.04.32-.01.89.29l.1.33c3.78 2.02 6.94 3.81 10.77 4.18a22.58 22.58 0 0011.35-1.99 25.05 25.05 0 006.73-4.38.96.96 0 011.2-.07c.7.6.17.7 1.1 5.76a27.52 27.52 0 002.02 6.74c1.54 3.01 3.17 4.86 6.4 6.1a30.73 30.73 0 00-1.11-10.54 17.66 17.66 0 00-2.25-4.86c-3.89-5.58-10.8-9.11-19.58-8.47-6.09.46-7.7 2.4-10.73 3.55a3.44 3.44 0 01-2.8.12 2.42 2.42 0 01-.77-.54 2.14 2.14 0 01-.54-1.25 5 5 0 01.68-2.52 7.11 7.11 0 012.94-2.8 26.01 26.01 0 016.28-2.82 21.7 21.7 0 016.73-.89z"/>
  <path class="d" d="M184.78 186.85c.3.65.2.21.35 1.65a81.95 81.95 0 01.45 9.3c.24 12.18.34 11.24.42 19.82-.1 8.24 0 7.37-.8 7.78l-.48-.21c-.3-.67-.22-.29-.34-1.7-.72-8.72-.64-9.9-.81-15.14-.35-15-.38-14.72-.2-17.51.07-1.4.25-3.4.26-3.5l.23-.49.46-.2zm64.77-2.85l.45.22.22.5c.48 4.7.31 23.78.28 24.82a93.51 93.51 0 01-1.11 13.85c-.27 1.81-.22 1.5-.54 2.04l-.5.15c-.91-.54-.53.24-.31-7.33.6-21.7-.21-23.77.69-32.64.14-1.16.04-.8.35-1.42l.46-.2z"/>
  <path class="a" d="M217.34 218.03c.63 1.2.37.47.63 3.52a6.12 6.12 0 01-.24 2.87l-.28.55-.38.25h-.01c-.51-.27-.34-.1-.73-.73a6.88 6.88 0 01-.56-2.15c-.02-.13-.26-2.97-.2-3.34a2.74 2.74 0 01.23-.64c.2-.42.01-.17.83-1.02l.71.69zm-87.18-4.42c2.44 2.67.34.33 4.13 5.26 5.84 6.74 5.52 6.02 5.25 6.97l-.47.2-.55-.16c.44 0-2.5-.8-7.23-7.2a16.12 16.12 0 01-1.75-2.7 12.13 12.13 0 01-.58-1.7c.03-.7-.1-.4.26-.93h.01l.46-.03zm4.97-8.34a19.12 19.12 0 011.6 2.09c2.93 5.27 3.49 5.82 4.63 7.7 2.04 3.68 1.69 2.81 1.86 3.65l-.23.44-.5.1-.5-.26a33.6 33.6 0 01-2.11-2.32 72.74 72.74 0 01-5.16-8.3 15.8 15.8 0 01-.81-2.46c.03-.69-.07-.45.3-.93l.45-.01zm12.97 3.63l-.51-.23a22.69 22.69 0 01-2.38-2.41 29.97 29.97 0 01-3.54-6.11 7.25 7.25 0 01-.8-3.61c0-.29-.04-.12.16-.76l.36-.29.45.11c.44.48.37.38.48.6.07.13.86 1.57.93 1.82 1.57 4.14 2.57 4.9 4.87 8.86.67 1.12.5.68.68 1.44l-.2.46zm9.57-13.1h.01l.34.37c.02 2.44-6.75 15.15-5.95 34.88.06 3.04.47 7.48.61 9.2 1.26 12.09 1.73 11.32 1.46 12.55l-.44.3-.51-.11-.31-.45a121.18 121.18 0 01-2.77-16.06 97.63 97.63 0 01.27-18.7c.29-2.76 1.1-6.71 1.12-6.82a52.34 52.34 0 014.22-12.73c1.14-2.39 1-2.05 1.44-2.44z"/>
  <path class="a" d="M128.03 228.82l.35.37c.03 1.73-.3-.51-1.87 8.16-1.36 7.41-5 18.23-2.4 29.33a23.13 23.13 0 004.25 9.07 19.11 19.11 0 008.14 5.96 19.88 19.88 0 008.8 1.27 24.8 24.8 0 006.83-1.8c6.38-2.6 10.37-8.36 13.67-14.3 3.4-6.24 2.44-5.14 3.24-5.84l.53.02.36.4c-.03.7.04.36-.38 1.33-2.17 4.83-5.25 11.19-9.02 15.02a23.55 23.55 0 01-18.38 7.45 21.88 21.88 0 01-19.26-14.81 37.92 37.92 0 01-1.8-15.72c.93-9.45 2.04-11.36 3.14-16.01.28-1.04 1.44-6.67 2.89-9.54l.38-.36h.52zm51.3-37.38l.25.47-.17.5c-.53.29-.41.25-.72.3-4.27.6-8.97 3.72-12.39 6.36-5.9 4.54-9.48 9.6-13.8 15.5l-.44.32-.5-.05h-.01l-.3-.4c.04-.65.01-.5.11-.72a33.85 33.85 0 016.45-9.72 52.9 52.9 0 019.19-8.26 26.04 26.04 0 016.22-3.35c.1-.03 1.78-.6 1.94-.6a17.42 17.42 0 013.65-.52zm74.17 1.63c6.66 1.81 13.81 4.66 19.2 9.12 4.51 3.63 7.64 7.46 10.85 14.66 6.34 13.51 8.66 27.31 9.76 42.2.18 3.25.85 6.8 1.41 11.67a37.53 37.53 0 01.2 6.96l-.24.49-.5.18h-.01l-.48-.24-.18-.5c.2-4.74-1.11-10.25-1.7-14.07-1.03-6.33-1.13-14.33-3.7-25.87a90.35 90.35 0 00-5-16.25c-1.86-4.35-4.45-10.03-7.67-13.55a33.61 33.61 0 00-2.91-2.87c-5.08-4.57-12.57-8.21-19.44-10.6l-.4-.35-.06-.52.34-.4zm10.77 90.07c-.44-.51-.33-.24-1.11-2.03-.5-1.16-.34-.7-2.05-6.57a5.54 5.54 0 01-.25-2.45l.48-.85.86.48a10.86 10.86 0 01.88 1.53c.05.16 1.66 5.59 1.8 6.3.09.35.25 1.55.27 1.72.1 1.3.13.88-.03 1.65l-.36.33-.49-.1z"/>
  <path class="d" d="M174.55 282.29c-2.16-18.3-5.99-37.34 2.83-54.52 8.89-2.05 62.71-2.28 80.2-.8 6.14 18.72 1.97 37.77-1.65 56.52"/>
  <path class="d" d="M256.6 225.76c1.28.09 1.28.1 1.6.27.47.36.46.6.74 1.48 5.61 18.35 1.65 36.4-2.14 55.24-.22 1.05-.1.76-.48 1.33l-.52.11h-.01l-.45-.3c-.15-.75-.17-.18.22-2.3 3.25-17.86 2.74-16.76 2.84-16.76 1.84-13.43 2.09-24.18-1.66-36.8l-4.2-.26a787.8 787.8 0 00-48.25-.46c-3.4.06-22.9.52-26.14 1.46a49.58 49.58 0 00-4.74 16.55c-1.76 15.99 2.32 35.25 1.68 37.4l-.45.26h-.01l-.5-.15-.27-.46c-2.59-18.6-6.48-37.8 2.31-54.7.54-1.1.59-.98 3.24-1.38 16.15-1.84 63.24-1.7 77.19-.53z"/>
  <path class="e" d="M121.31 112.56c.12.08.01.08.55-.08 3.87.33 8.07 5.25 7.12 8.94l-.01.06c-1.38 5.32-8.66 3.66-11.53-1.07a7.17 7.17 0 01-1.09-3 4.51 4.51 0 01.28-2.26 3.99 3.99 0 014.68-2.59zm-.17 1.37a2.52 2.52 0 00-1.18.26 2.7 2.7 0 00-1.35 2.17.7.7 0 01-.01.13c-.26 1.68 1.33 4.61 4.67 5.8a3.86 3.86 0 002.03.2 2.1 2.1 0 001.48-1.57 3.1 3.1 0 00-.11-1.81 9.22 9.22 0 00-.9-1.92 7 7 0 00-4.23-3.4zm10.69-7.11c1.97.04 4.04 2.38 3.93 4.83-.12 2.96-4.09 4.7-6.64.93a3.58 3.58 0 01-.26-3.7 3.02 3.02 0 01.42-.6c.85-.79.59-.37.79-.78a2.46 2.46 0 011.76-.68zm-.7 1.7l-.07.15a1.72 1.72 0 00-.38.71v.05a1.46 1.46 0 00-.04.23v.51a.44.44 0 00.01.05l.01.05v.02l.04.18v.01l.02.13v.02l.02.05v.04l.01.02v.03l.01.02v.02c.44 1.19 1.27 1.69 1.83 1.65a1.17 1.17 0 00.62-.24l.05-.05a.68.68 0 00.06-.08v-.02l.02-.01v-.01l.04-.07v-.02l.02-.01v-.03l.02-.06v-.01l.01-.03v-.03l.01-.02v-.05l.01-.01v-.48c-.13-1.13-1.22-3.06-2.32-2.7zm26.94 2.98a7.66 7.66 0 011.6.25 5 5 0 013.63 2.92c1.08 2.4-.61 4.71-3.92 4.12a8.07 8.07 0 01-3.7-1.6c-2.43-2.19-1.22-5.7 2.39-5.68zm.55 1.87a4.5 4.5 0 00-1.16.38 2.02 2.02 0 00-.2.1c-.4.23-.39.26-.48.37a.42.42 0 00-.03.04v.01l-.02.01v.05l-.01.01v.36l.01.03v.02l.04.12v.02l.02.04v.01l.01.03.01.02v.04l.04.04v.01l.05.09.01.01.02.03.01.01v.02l.02.01.01.01.03.03v.02c.93.97 3.4 1.62 4.19 1.15l.04-.02.02-.01v-.01h.02l.04-.05.01-.01.01-.01v-.09l.02-.02v-.16a1.8 1.8 0 00-.16-.87 3.8 3.8 0 00-1.57-1.9 3.3 3.3 0 00-1 .07z"/>
  <path class="a" d="M167.06 179.43a11.4 11.4 0 01-4.84-3.18c-3.26 5.1-6.35 9.32-10.36 14.96-.9 1.26-2.88 4.34-1.87 5.98 1.67 2.73 4.84-1.48 5.98-3.05a382.3 382.3 0 0111.11-14.78"/>
  <path class="e" d="M162.4 175.25c.46.13.49.23.8.59a10.88 10.88 0 003.82 2.81l.51.13.25.47c-.1.34-.08.25-.06.4l-.06.07-.02.07c-10.37 14.3-10.82 15.4-12.66 17.35a5.77 5.77 0 01-3.44 2.07 2.68 2.68 0 01-2.4-1.26 3.86 3.86 0 01-.29-3.49c.76-2.45 2.68-4.7 6.91-10.69 6.07-8.72 5.68-8.6 6.64-8.52zm-11.31 19.67a3.03 3.03 0 00-.22 1.45v.02l.04.13.02.02v.03a1.7 1.7 0 00.14.19l.08.09h.02v.02h.04l.01.02h.02l.02.01h.19l.01-.02h.07l.04-.02h.01l.06-.02.02-.01a1.83 1.83 0 00.27-.13c1.53-.9 3.18-3.4 4.25-4.89 2.86-3.96 6.66-8.55 9.6-12.1a11.94 11.94 0 01-1.52-.68 10.82 10.82 0 01-1.85-1.22c-4.49 7.45-10.5 14.52-11.33 17.1z"/>
  <path class="e" d="M182.78 120.14a31.3 31.3 0 0130.45 31.34 33.45 33.45 0 01-1.02 8.21v.01a32.23 32.23 0 01-34.6 24 30.61 30.61 0 01-7.83-1.82 32.25 32.25 0 01-21.02-29.58 31.42 31.42 0 013.05-14.08 32.02 32.02 0 015.54-8.11 31.62 31.62 0 0125.43-9.97zm-4.98 2.53a29.17 29.17 0 00-22.77 16.75 28.81 28.81 0 00-2.5 14.52 28.52 28.52 0 0056.93-1.25 30.1 30.1 0 00-.25-5.05 28.1 28.1 0 00-2.99-9.25 29.5 29.5 0 00-12.78-12.8 25.94 25.94 0 00-15.64-2.92zm4.98-2.53c-.44 0-.44 0 0 0z"/>
  <ellipse cx="186.65" cy="148.2" rx="5.52" ry="4.14" transform="rotate(-87.5 186.65 148.2)"/>
  <path class="e" d="M186.8 141.5a5.87 5.87 0 012.04.27c2.32.89 3.97 3.26 3.83 6.5a9.35 9.35 0 01-.45 2.64 6.7 6.7 0 01-4.4 4.51 5.17 5.17 0 01-4.87-1.3 7.09 7.09 0 01-1.75-2.67c-1.77-4.57 1.1-10.15 5.6-9.96zm.05 2.34c-2.23.4-2.87 3.56-2.31 5.76a2.86 2.86 0 001.76 2.22h.11l.02.01h.26a2.74 2.74 0 001.84-1.76c1.08-2.38-.22-5.82-1.67-6.25zm.16-2.32zm15.77.14l.14.53a52.37 52.37 0 01-.52 6.2c-.41 3.23-.4 4.89-1.35 12.89a11 11 0 00-.35 2.7v.06a1.27 1.27 0 00.08.28v.02l.02.01v.03h.01c.13.22.5.38 1.1.5.35.07.13-.02.74.32l.17.48-.24.46c-.56.22-.45.21-.82.2a2.92 2.92 0 01-2.58-1.23 3.33 3.33 0 01-.4-1.46c-.13-2.71.74-8.56.94-11.07.14-1.25.02-1.25.62-5.92a23.81 23.81 0 011.22-4.75l.34-.42.47-.11c.02 0 .4.27.4.28zm-25.41-14.21a6.33 6.33 0 013.17.83 3.38 3.38 0 011.64 2.36c.64 4.1-6.18 8.27-9.17 10.82-1.72 1.51-3.23 2.93-5.5 3.25-3.16.17-4.17-2.93-3.67-6.01a7.39 7.39 0 01.84-2.4 17.2 17.2 0 018.77-7.98c1.44-.59 1.23-.5 1.74-.48l.24-.17a7.86 7.86 0 011.94-.22zm-1.66 1.6l-.3-.06a24.05 24.05 0 00-6.59 5.27 14.45 14.45 0 00-2.45 3.75 5.21 5.21 0 00.02 4.02v.01l.02.02.01.03h.01l.02.03v.01l.02.02.01.02.01.01h.01l.01.02.02.02.03.04h.01l.02.02h.02l.01.01h.01l.01.01.03.02.1.06h.01a.19.19 0 00.04.02h.01a.1.1 0 01.02 0h.04a.1.1 0 00.02.02h.09l.18.01h.11a4.02 4.02 0 001.33-.46 10.92 10.92 0 001.95-1.41c4.82-4.12 7.27-5.37 9.1-8.03a4.92 4.92 0 00.4-.73 2.25 2.25 0 00.18-.6v-.1l.01-.13v-.16l-.02-.04v-.01l-.03-.15v-.01l-.01-.04-.01-.01v-.02l-.01-.02v-.01a.33.33 0 01-.02-.04v-.02a1.72 1.72 0 00-.6-.7 3.83 3.83 0 00-.34-.21l-.03-.01-.02-.02a5.92 5.92 0 00-3.46-.45zm-11.97 21.65c.54.32.45.24.5.4.24-.02.1-.04.36.04a4.23 4.23 0 01.92.42 4.9 4.9 0 012.18 3.53 6.82 6.82 0 01-.4 3.55 4.9 4.9 0 01-7.55 2.4c-2.01-1.37-2.52-4.26-1.7-6.54a5.38 5.38 0 013.4-3.68 4.56 4.56 0 012.3-.12zm-.18 1.38a3.02 3.02 0 00-1.28.39 4.58 4.58 0 00-1.46 1.46 4.37 4.37 0 00-.53 1 8.07 8.07 0 00-.23.78c-.34 1.4.06 3.13 1.36 3.68a2.85 2.85 0 002.05.2 3.1 3.1 0 001.75-1.84 5.52 5.52 0 00.31-.88 5.73 5.73 0 00.18-1.45 3.9 3.9 0 00-.33-1.6 2.73 2.73 0 00-1.42-1.41l-.34-.34a.27.27 0 01-.06.01zM25.88 134.56a24.88 24.88 0 018.17 1.65c3.55 1.28 2.93 1 3.45 1.46l.06.5v.01l-.33.39-.53.07a53.15 53.15 0 00-10.14-1.8 5.35 5.35 0 00-2.78.38l-.02.01a4.6 4.6 0 00-1.56 1.58 17.21 17.21 0 00-1.77 4.83 44.35 44.35 0 00-.96 13.2c.19 2.64.62 5.93 2.66 7.6 2.5 2.05 7.51 1.5 10.74.99 2.76-.4 2-.46 2.88-.26l.3.44-.12.52-.45.3a57.6 57.6 0 01-7.14 1.32c-3.16.33-6.93-.3-8.82-2.83-3.33-3.99-2.63-15.8-1.48-20.92.7-3.11 1.65-6.8 4.31-8.56a5.17 5.17 0 011.53-.68 7.5 7.5 0 012-.2z"/>
  <path class="e" d="M26.44 138.21a8.28 8.28 0 011.81 2.8c.86 2.22.96 5.63.97 8a40.37 40.37 0 01-1.15 9.02v.01c-.32 1.24-.22.81-.33 1.22-.59 1.74-1.16 3.5-2.72 4.6l-.53.14-.46-.25-.12-.5.24-.48c.9-.81 1.38-2.81 1.58-4 .9-4.9 1.59-8.4 1.08-13.65a35.69 35.69 0 00-.56-3.5 8.29 8.29 0 00-.89-2.56l-.1-.54.22-.43.48-.12z"/>
  <path class="a" d="M27.27 141.4c-2.56 3.9-2.94 7.87-3.15 12.01a18.42 18.42 0 00.05 2.62c.07.8.1 3.3.87 3.9.1.09.6-.37.69-.47 1.98-2.14 2.12-10.39 2.12-13.32 0-.54.03-4.05-1.15-3.57"/>
  <path class="e" d="M27.65 140.82l.28.42c-.1.7-.03.43-.23.85.89.7 1.05 3.16 1.08 4.3.22 3.46.04 10.26-1.76 13.24-.62.95-1.68 1.86-2.64 1.21-.92-.69-1.15-2.21-1.24-3.44a31.08 31.08 0 01-.16-3.62c.22-5.16.58-8.68 3.72-12.76l.46-.28zm-2.27 10.42a33.38 33.38 0 00-.15 3.76c0 .17.16 2.49.21 2.78 1.17-3.05 1.63-12 1.46-13.82a29.92 29.92 0 00-1.52 7.28zm30.32-18.3c.05.01 18.61 4.76 19.18 4.92 5.18 1.41 6.37 1.75 7.64 2.36a6.95 6.95 0 012.57 2.02c1.39 1.8 1.8 4.52 1.9 6.79a15.18 15.18 0 01-.28 3.78 40.2 40.2 0 01-1.45 4.59l-.35.4-.51.05-.4-.34c-.11-.96-.17.2.87-4a13.06 13.06 0 00.3-2.2c.1-2.31-.43-6.43-1.98-7.9-1.09-1.8-11.43-3.97-22.4-6.8-4.01-1.05-10.01-2.87-14.15-2.54a3.54 3.54 0 00-2.18 1.07 15.77 15.77 0 00-1.4 1.58 20.85 20.85 0 00-2.56 4.4 31.4 31.4 0 00-2.33 9.81 29.6 29.6 0 00.72 9.58 9.3 9.3 0 001.73 3.67c2.81 3.39 10.1 2.48 14.46 2.05l.52.16.26.45v.01l-.14.51-.47.27c-.46-.02-6.3 1.2-10.88.46-6.14-.98-7.48-5.55-8.36-11.57a32.28 32.28 0 013.73-18.89 16.35 16.35 0 014.22-4.97 6.08 6.08 0 011.75-.7c2.8-.58 6.23.17 9.99.98z"/>
  <path class="e" d="M35.16 146.25v-.02l.03.01.03.01v-.02l.06.03v-.03a.25.25 0 00.05.02v-.02h.05l-.01-.02.04.01v-.02h.04l-.01-.02h.03v-.03l.01.01h.02l-.01-.02h.02l-.01-.03h.01a.25.25 0 00-.01-.02l-.01-.01.01.01h.01l.01.01h.01l.04.03a6.29 6.29 0 00.82.21c.23.1.26.17.44.26.48.38-.1-.19 1.05.97-.88.66-.95.79-1.7.97a.97.97 0 01-.39-.02 3.36 3.36 0 01-2.14-1.13 1.12 1.12 0 01.05-1.1l1.39-.1zm2.03 9.52c.3.17 0-.09.9.82a4.29 4.29 0 01-1.38 1.03l-.14.06a1 1 0 00-.14.05 2.76 2.76 0 00-1.04.34h-.02l-.01.02-.03.01-.01.01-.03.02-.02.01-.01.01-.03.02-.03.04h-.02l-.03.04h-.07l-.39.02c-.25-.01.1.18-1.29-.78.04-.83.15-.88.6-1.22a4 4 0 011.12-.56 2.32 2.32 0 012.07.06zm10.89-19.8l.03.04h.01a10.78 10.78 0 012.3 3.86c.27.95.22.62.21.72l.15.65a32.29 32.29 0 01.55 8.48 29.08 29.08 0 01-1.98 9.1c-.9 2.17-2.03 5.18-4.37 5.4-.6-.02-.36.08-1.01-.3l-.16-.5.26-.45.52-.17h.19l.04-.02h.02l.13-.04.01-.01a.12.12 0 00.02 0l.02-.02h.01l.05-.02v-.01c.19-.05.56-.42.97-1.14v-.01a18.56 18.56 0 001.16-3.1 32.3 32.3 0 001.66-6.7 31.75 31.75 0 00.05-7.86 28.98 28.98 0 00-.62-3.39 14 14 0 00-1.32-3.67l-.1-.53.24-.44.48-.1z"/>
  <path class="a" d="M48.62 139.2c-2.88 1.43-4.03 4.67-4.72 7.6-.48 2.02-.93 7.25-.54 9.08.37 1.87 1.76 5.63 3.35 4.32 3.1-2.57 3.21-11.79 3.06-15.82-.05-1.58-.15-3.65-1.35-4.87"/>
  <path class="e" d="M49.24 138.88v.01l.03.5a6.34 6.34 0 011.23 3.14 42.6 42.6 0 01.32 4.34 33.2 33.2 0 01-.98 9.88c-.54 1.99-1.9 4.94-3.91 4.86-1.73-.08-2.74-2.38-3.28-4.02-.58-2.02-.73-2.57-.43-6.98.05-1.05.34-2.82.38-3.14.73-3.74 2.16-7.3 5.64-8.86.11-.04 0-.03.6-.05zm-4.41 9a38.41 38.41 0 00-.47 4.77 21.44 21.44 0 00.07 2.83 9.28 9.28 0 001.58 3.8l.01.02a3.09 3.09 0 00.4-.42c2.31-2.64 2.75-14.75 2.27-17.13a4.84 4.84 0 00-.28-.94 3.13 3.13 0 00-.23-.46c-1.99 1.83-2.75 4.65-3.35 7.53z"/>
  <path d="M48.1 143.99a3.77 3.77 0 01-.32 1.77c-1.3 3.53-.53 2.5-1.9 6.07l-.34.47-.44.16-.4-.26a2.28 2.28 0 01-.25-1.1 9.38 9.38 0 010-1.78 24.24 24.24 0 011.23-4.38 2.8 2.8 0 01.86-1.28c.41-.38.14-.24 1.26-.6zm-21 5.74a5.43 5.43 0 01-.51 2.16c-.22.49-.01.22-.92 1.06-.72-.92-.62-.72-.73-1.2a7.73 7.73 0 01.03-3.36c.13-1.23.13-1.25.23-1.47a6.17 6.17 0 01.46-.7l.77-.6c1.16 1.45.98 1.16.67 4.1z" fill="#fff" fill-rule="evenodd"/>
  <path class="a" d="M87.43 149.45a3.08 3.08 0 012.07.63c1.62 1.19 1.9 3.7 1.63 5.65-.46 3.2-2.55 4.77-4.9 4.67a3.82 3.82 0 01-1.19-.3l-.4-.37-.06-.5.34-.37c1.02-.16 1.05 0 1.6-.21a2.65 2.65 0 00.87-.5 4.2 4.2 0 001.23-1.67c.45-1.08.52-3.7-.31-4.43l-.02-.02-.01-.03-.15-.12a1.8 1.8 0 01-.16-.12h-.01a3.56 3.56 0 00-.41-.25 2.69 2.69 0 00-.56-.25c-.25-.1-.76-.25-.87-.28l-.47-.3-.19-.42.23-.4.5-.26h.02a5.77 5.77 0 011.22-.15zm39.03 43.27c.15.86.35.53-2.86 3.28a172.12 172.12 0 01-13.03 9.55l-.52.17-.46-.15-.17-.45.16-.53c.1-.12-.02-.02.83-1.1a14.26 14.26 0 013.29-2.8c5.3-3.76 5.84-4.79 11.75-8.13l.56-.1zm86.18 70.18a9.6 9.6 0 011.49 1.04c2.1 2.39 3.63 3.3 5.44 5.13.78.78.43.3.89 1.06l-.04.48-.42.26-.58-.05a12.66 12.66 0 01-2.73-1.39 33.02 33.02 0 01-3.43-3.12 5.52 5.52 0 01-1.66-2.5v-.02l.08-.97z"/>
</svg>
