<svg xmlns="http://www.w3.org/2000/svg" height="585.35" width="582.4">
  <rect width="100%" height="100%" fill="#497acc" />
  <path d="M127.63 525.9v56.95h175.15v-56.96H127.63" fill="#f3f2f1"/>
  <path d="M120.28 509.97v15.92H308.9v-15.92H120.28" fill="#dadbd8"/>
  <path d="M214.6 582.85h88.18v-56.96h6.13v-15.92h-98v14.45l3.68 58.43M152.12 535.08v8.57h35.52v-8.57h-35.52" fill="#dadbd8"/>
  <path d="M193.16 572.47h-45.6v-18.1h45.6v18.1" fill="#fff"/>
  <path d="M147.74 466.22v43.75h134.55v-43.75H147.74" fill="#f3f2f1"/>
  <path d="M142.1 453.99v12.23H287v-12.23H142.08" fill="#dadbd8"/>
  <path d="M214.54 509.97h67.75v-43.75h4.7v-12.23h-75.27v11.1l2.82 44.88" fill="#e7e8e5"/>
  <path d="M166.55 473.27v6.59h27.3v-6.59h-27.3" fill="#dadbd8"/>
  <path d="M198.08 502h-35.04v-13.9h35.04V502" fill="#fff"/>
  <path d="M414.02 581.4c-29.45-20.12-36.48-57.97-35.68-92.06.14-5.7-.55-11.69 2.1-16.7 2.66-5.03 8.94-8.5 14.06-6.16 4.24 1.95 6.14 6.84 8.54 10.88a33.3 33.3 0 0013.48 12.6c3.64 1.85 8.13 2.95 11.7.94 4.87-2.75 5.38-9.54 5.28-15.2l-.52-31.64c-.1-5.65-.17-11.43 1.53-16.82 1.7-5.4 5.54-10.42 10.91-11.98 5.37-1.57 12.06 1.47 13.25 7 .5 2.3.05 4.7.23 7.04.19 2.35 1.3 4.93 3.55 5.57 2.26.63 4.5-1 6.18-2.67 5.78-5.77 9.67-13.17 13.3-20.53 3.63-7.36 7.14-14.89 12.38-21.18 5.23-6.28 12.51-11.3 20.61-11.84 8.1-.54 16.79 4.37 18.92 12.3 2.13 7.96-2.43 16.1-7.43 22.61a126.36 126.36 0 01-26.04 25.34c-1.77 1.29-3.7 2.68-4.35 4.78-1.2 3.79 2.42 7.5 6.16 8.7 4.23 1.36 8.8.87 13.22 1.34 4.42.48 9.22 2.37 10.93 6.53 2.38 5.76-2.4 11.87-7.11 15.89a108.2 108.2 0 01-31.83 18.82c-4.15 1.57-8.52 2.95-11.84 5.9-3.33 2.97-5.3 8.07-3.23 12.04 2.07 3.97 7.29 5.19 11.64 4.33 4.35-.85 8.23-3.26 12.37-4.87 7.74-3.01 17.79-2.58 22.84 4.09 3.32 4.38 3.67 10.53 2.07 15.81-1.6 5.28-4.91 9.85-8.43 14.07-12.31 14.76-28.15 26.7-46.12 33.14-17.98 6.44-34.67 8.3-52.67 1.94" fill="#f3f2f1"/>
  <path d="M422.6 559.95c4.83-17.25 11.7-35.73 19.56-54.8l5.86-14.1c1.94-4.62 3.86-9.21 6.01-13.58a252.78 252.78 0 0113.82-24.4 550.5 550.5 0 0114.1-21.03 365.5 365.5 0 0113.13-17.74 200.7 200.7 0 0128.16-29.13l1.73-1.43c.4-.32.6-.48.61-.47.02.02-.17.2-.54.55l-1.67 1.51a301.42 301.42 0 00-6.35 5.88 212.21 212.21 0 00-21.37 23.55 375.98 375.98 0 00-12.99 17.78 570.12 570.12 0 00-14 21.06 256.38 256.38 0 00-13.71 24.33c-2.14 4.34-4.04 8.9-5.98 13.53l-5.85 14.1c-7.85 19.05-14.73 37.47-19.6 54.66" fill="#dadbd8"/>
  <path d="M454.33 477.43c-.07 0-.27-.85-.58-2.41-.31-1.56-.7-3.83-1.12-6.65a650.44 650.44 0 01-2.76-22.05c-.98-8.62-2.01-16.4-2.95-21.99-.47-2.8-.86-5.06-1.16-6.62-.29-1.56-.41-2.44-.34-2.45.07-.02.33.82.73 2.36.42 1.54.93 3.79 1.49 6.58a274.8 274.8 0 013.26 22l2.46 22.07.8 6.68c.17 1.58.24 2.46.17 2.48" fill="#dadbd8"/>
  <path d="M526.94 463.07c0 .08-1.03.2-2.9.38-1.86.19-4.56.44-7.89.86-6.66.79-15.81 2.2-25.84 4.2a380.24 380.24 0 00-25.5 6.02c-3.24.87-5.85 1.64-7.65 2.17-1.8.53-2.8.8-2.83.73-.02-.07.94-.47 2.7-1.12 1.77-.65 4.35-1.53 7.57-2.5a274.75 274.75 0 0125.5-6.34c10.07-2 19.28-3.3 25.97-3.9 3.35-.33 6.07-.47 7.95-.53 1.88-.05 2.91-.04 2.92.03M423.48 558.6c-.04.02-.2-.29-.51-.88l-1.27-2.62c-1.1-2.28-2.6-5.62-4.39-9.77a846.8 846.8 0 01-13.11-32.8c-4.92-12.9-9.41-24.54-12.83-32.9l-4.08-9.9-1.09-2.7a3.8 3.8 0 01-.32-.97c.04-.01.2.3.51.89l1.27 2.61c1.1 2.28 2.6 5.62 4.39 9.77 3.6 8.3 8.2 19.92 13.12 32.81 4.9 12.9 9.4 24.54 12.82 32.9l4.08 9.9 1.09 2.7c.24.61.35.95.32.96" fill="#dadbd8"/>
  <path d="M519.83 526.44c.01.03-.32.17-.96.4-.75.26-1.67.59-2.8.97l-10.31 3.46c-8.71 2.93-20.7 7.11-33.94 11.75a1152.67 1152.67 0 01-34.05 11.45 386.54 386.54 0 01-10.42 3.15c-1.14.3-2.09.57-2.86.78-.65.17-1 .24-1.01.2-.01-.03.32-.17.95-.4l2.8-.97 10.32-3.47c8.71-2.92 20.7-7.1 33.94-11.74 13.24-4.64 25.27-8.7 34.04-11.45 4.4-1.38 7.95-2.46 10.43-3.15l2.85-.78c.66-.17 1-.24 1.02-.2M549.84 79.83c4.73-1.99 8.1-6.87 8.13-12.63.03-7.54-5.68-13.67-12.74-13.7-7.07-.04-12.83 6.04-12.86 13.58-.02 5.81 3.37 10.75 8.16 12.75-19.7 2.96-18.8 24.37-18.8 24.37l46.57.21s1.06-21.64-18.46-24.58M547.6 256.06a9.23 9.23 0 1013.28 12.82 9.23 9.23 0 00-13.28-12.82zm-4.58-11.46a21.11 21.11 0 015.14-2.23l1.06-5.1 8.6-.15 1.24 5.05c1.8.45 3.56 1.13 5.22 2.06l4.35-2.85 6.19 5.97-2.7 4.45a21.1 21.1 0 012.24 5.14l5.09 1.06.15 8.6-5.05 1.24a21.01 21.01 0 01-2.06 5.22l2.85 4.35-5.97 6.18-4.44-2.69a21.08 21.08 0 01-5.15 2.23l-1.06 5.1-8.6.15-1.24-5.05a21.07 21.07 0 01-5.22-2.06l-4.34 2.85-6.2-5.97 2.7-4.45a21.05 21.05 0 01-2.23-5.14l-5.1-1.06-.14-8.6 5.04-1.24a21.1 21.1 0 012.06-5.22l-2.85-4.35 5.97-6.18 4.45 2.69" fill="#dadbd8"/>
  <path d="M547.6 256.06s.49-.68 1.72-1.5a9.29 9.29 0 0113.42 3.76c.4.78.69 1.66.84 2.58a9.5 9.5 0 01-2.5 8.16 9.5 9.5 0 01-10.7 2.05 9.45 9.45 0 01-5.43-7.22 9.19 9.19 0 011.2-6.06c.79-1.26 1.45-1.77 1.45-1.77.05.04-.55.6-1.26 1.87a9.2 9.2 0 00.56 9.75 9.05 9.05 0 0013.8 1.01 9.03 9.03 0 00-5.4-15.2 9.2 9.2 0 00-5.87 1.24c-1.24.75-1.78 1.38-1.83 1.33" fill="#dadbd8"/>
  <path d="M543.02 244.6s-.1-.04-.29-.15l-.85-.5-3.35-1.97.1-.02-5.93 6.23.01-.17 2.87 4.34.05.07-.05.09a21 21 0 00-2.02 5.18l-.02.1-.1.03-5.05 1.25.14-.18.18 8.6-.17-.2 5.1 1.05.12.02.04.13a20.9 20.9 0 002.22 5.08l.07.12-.07.12-2.7 4.45-.03-.3 6.2 5.98-.3-.03c1.34-.9 2.83-1.87 4.34-2.86l.12-.08.14.07c1.51.85 3.29 1.57 5.15 2.03l.15.03.04.16 1.24 5.04-.26-.2 8.6-.15-.25.21 1.06-5.09.03-.16.16-.04a20.9 20.9 0 005.07-2.2l.15-.09.13.08 4.45 2.7-.33.04 5.97-6.19-.03.33-2.84-4.35-.09-.13.08-.14a20.8 20.8 0 002.03-5.15l.04-.15.15-.04 5.05-1.23-.2.25-.14-8.6.2.23-5.1-1.07-.13-.03-.04-.13a20.9 20.9 0 00-2.2-5.1l-.08-.11.08-.12 2.7-4.44.03.27-6.17-5.99.25.03-4.36 2.84-.1.06-.1-.06a20.95 20.95 0 00-5.16-2.05l-.1-.02-.03-.1-1.22-5.06.16.12-8.6.11.1-.1-1.08 5.1-.02.04-.04.02c-1.82.5-3.1 1.1-3.94 1.51l-.92.48c-.21.12-.31.17-.31.16l.29-.2c.2-.12.49-.3.9-.52.82-.43 2.1-1.06 3.93-1.6l-.06.07 1.03-5.1.01-.1h.1l8.6-.18h.12l.03.12 1.26 5.04-.13-.12a21.2 21.2 0 015.27 2.05h-.2l4.35-2.85.13-.1.12.12 6.2 5.96.12.13-.09.15-2.68 4.44v-.23a21.37 21.37 0 012.26 5.2l-.18-.17 5.1 1.05.19.04v.2l.16 8.6v.2l-.2.05-5.04 1.24.19-.19a21.32 21.32 0 01-2.08 5.28v-.26l2.84 4.34.12.18-.15.15-5.97 6.19-.15.15-.18-.11-4.44-2.7h.27a21.35 21.35 0 01-5.2 2.27l.18-.2-1.06 5.09-.05.2h-.2l-8.6.15h-.21l-.05-.2-1.24-5.04.19.18a21.4 21.4 0 01-5.28-2.08h.26l-4.35 2.84-.16.1-.14-.13-6.19-5.98-.13-.13.1-.17 2.7-4.43v.23a21.31 21.31 0 01-2.25-5.2l.16.15-5.09-1.07-.16-.03v-.17c-.05-3.01-.1-5.89-.13-8.6v-.15l.14-.04 5.05-1.22-.12.13c.48-1.94 1.21-3.7 2.08-5.25v.16l-2.82-4.36-.06-.1.07-.07 6.01-6.15.05-.05.06.03 3.27 2.04.84.54.29.19M89.13 56.03c3.33 1.06 6.84.16 9.49-2.04a178.29 178.29 0 009.86 12.83 10.25 10.25 0 00-5.29 12.1 156.93 156.93 0 00-13.97 5.1 10.29 10.29 0 10-.04 6.05c.37-1.17.48-2.36.43-3.52a158.3 158.3 0 0014.59-5.39 10.22 10.22 0 005.78 4.67 10.3 10.3 0 106.2-19.63c-1.7-.54-3.41-.57-5.04-.25a201 201 0 00-10.9-13.59c.9-1.12 1.61-2.44 2.08-3.91 1.86-5.9-1.03-12.07-6.45-13.78-5.43-1.71-11.33 1.68-13.2 7.58-1.85 5.9 1.03 12.07 6.46 13.78M28.38 298.12l10.4 12.82c.4.49 1 .75 1.62.7l16.46-1.3a1.9 1.9 0 011.74 2.92l-8.98 13.86a1.9 1.9 0 00-.16 1.76l6.33 15.24a1.9 1.9 0 01-2.25 2.57l-15.95-4.26a1.9 1.9 0 00-1.72.4l-12.55 10.72a1.9 1.9 0 01-3.13-1.35l-.88-16.48a1.9 1.9 0 00-.9-1.52l-14.08-8.62a1.9 1.9 0 01.31-3.39l15.4-5.93a1.9 1.9 0 001.17-1.33l3.85-16.05a1.9 1.9 0 013.32-.76M399.43 355.35a8.2 8.2 0 110-16.4 8.2 8.2 0 010 16.4zm18.62-8.11a18.62 18.62 0 10-34.67 9.4h-.01l.05.07c.71 1.2 1.6 2.07 2.51 3.33l10.81 14.32a3.36 3.36 0 005.37 0l10.63-14.08s1.99-2.37 2.7-3.58l.04-.05a18.52 18.52 0 002.57-9.41" fill="#dadbd8"/>
  <path d="M276.9 257.6c.02 0-.15.28-.49.8l-1.52 2.25a1100.9 1100.9 0 01-25.33 34.7 625.53 625.53 0 01-20.57 25.79 228.1 228.1 0 01-8.5 9.46 5.2 5.2 0 01-.68.65 4.7 4.7 0 01.59-.75l1.77-2.06c1.56-1.76 3.74-4.39 6.44-7.62 5.38-6.5 12.6-15.65 20.39-25.9 7.8-10.23 14.73-19.6 19.73-26.39l5.94-8.04 1.63-2.17c.38-.5.58-.74.6-.73M314.88 97.66c.2.03-.65 7.17-1.88 15.96-1.23 8.79-2.38 15.89-2.57 15.86-.19-.03.66-7.17 1.88-15.96 1.23-8.78 2.38-15.89 2.57-15.86M448.4 88.4c.02.02-.28.28-.88.78l-2.63 2.12-9.73 7.72-32.27 25.23-32.39 25.08-9.86 7.53-2.7 2.02c-.63.46-.96.69-.98.67-.01-.02.3-.28.89-.78l2.62-2.12 9.73-7.71 32.28-25.25 32.4-25.07 9.86-7.54 2.7-2.02c.62-.45.95-.68.97-.66M512.93 176.18c.02.2-32.66 2.9-72.97 6.06-40.32 3.15-73.01 5.55-73.03 5.36-.01-.19 32.66-2.9 72.98-6.05 40.31-3.16 73-5.56 73.02-5.37M422.67 256.45c-.09.17-13.95-6.73-30.95-15.4-17-8.69-30.72-15.86-30.63-16.03.09-.17 13.94 6.73 30.95 15.4 17 8.68 30.71 15.86 30.63 16.03M257.4 145.52c-.03 0-.26-.27-.7-.83l-1.84-2.43c-1.6-2.12-3.88-5.22-6.67-9.06a1363.4 1363.4 0 01-47.97-70.73l-1.6-2.61a6.1 6.1 0 01-.52-.93c.02-.02.24.28.63.85l1.72 2.54 6.21 9.37c5.25 7.91 12.54 18.82 20.72 30.78 8.2 11.95 15.73 22.7 21.2 30.44l6.5 9.19 1.74 2.51c.4.58.6.9.57.9M239.8 170.73c-.08.18-9.16-3.93-20.28-9.16-11.11-5.24-20.06-9.63-19.98-9.8.08-.18 9.16 3.93 20.28 9.17 11.11 5.23 20.06 9.62 19.98 9.8M234.63 195.47c-.02.2-30.63-2.4-68.37-5.78-37.75-3.38-68.33-6.28-68.31-6.47.01-.2 30.62 2.4 68.37 5.78 37.74 3.39 68.32 6.28 68.3 6.47M245.56 232.05c.08.18-18.1 8.09-40.59 17.67-22.5 9.58-40.79 17.2-40.86 17.03-.08-.18 18.1-8.08 40.59-17.67 22.49-9.58 40.79-17.2 40.86-17.03" fill="#f03d5f"/>
  <path d="M367.88 195.47a66.62 66.62 0 11-133.25 0 66.62 66.62 0 01133.25 0" fill="#f03d5f"/>
  <path d="M301.25 262.1a66.56 66.56 0 01-66.62-66.63 66.62 66.62 0 1166.62 66.63m-2.85-102.2a26.46 26.46 0 00-3.65 52.68l1.98 6.39 22.14-6.9s-.98-3.62-1.92-6.83a26.45 26.45 0 00-18.55-45.33" fill="#fbcbd7"/>
  <path d="M323.66 178.5a26.46 26.46 0 10-28.91 34.1l1.98 6.37 22.14-6.9s-.98-3.62-1.92-6.83a26.45 26.45 0 006.7-26.73" fill="#f03d5f"/>
  <path d="M310.83 214.46l-.07-.32a148.52 148.52 0 01-.8-4.59 74.48 74.48 0 01-.7-5.8c-.18-2.27-.26-4.89.1-7.75.17-1.43.42-2.91.9-4.42.24-.75.61-1.52 1.24-2.1a2.73 2.73 0 012.42-.66 1.84 1.84 0 011.4 2.08c-.13.92-.7 1.7-1.42 2.29a7.24 7.24 0 01-10.25-1.84 5.55 5.55 0 01-1.05-2.87c-.07-1.05.6-2.23 1.75-2.47a1.7 1.7 0 011.56.49c.4.4.64.93.69 1.5a5.17 5.17 0 01-1 3.06 7.89 7.89 0 01-5.35 3.54 6.88 6.88 0 01-6.02-2.12 4 4 0 01-1.13-3c.05-.56.3-1.13.76-1.47a1.99 1.99 0 011.6-.34c.54.1 1.04.38 1.41.78.38.38.64.85.84 1.33a7.87 7.87 0 01-6.73 10.7c-.9.08-1.86 0-2.65-.5-.77-.5-1.25-1.5-.9-2.39.18-.43.56-.74.97-.9.4-.17.85-.21 1.27-.15.87.14 1.54.7 2.1 1.25 1.05 1.18 1.98 2.35 2.89 3.46a228.02 228.02 0 0110.33 13.85l.54.8c.12.17.17.27.17.27l-.2-.26-.56-.77-2.17-3c-1.9-2.58-4.66-6.3-8.29-10.74-.91-1.1-1.86-2.29-2.9-3.43a3.6 3.6 0 00-1.94-1.17c-.75-.12-1.65.17-1.96.9-.3.72.12 1.62.8 2.05.7.45 1.6.52 2.48.45a7.58 7.58 0 006.46-10.3c-.35-.9-1.04-1.75-2.02-1.92a1.66 1.66 0 00-1.35.29 1.7 1.7 0 00-.63 1.23c-.08 1 .34 2.02 1.05 2.76a6.56 6.56 0 005.73 2.02c2.12-.3 4-1.66 5.13-3.4a4.87 4.87 0 00.95-2.86 2.07 2.07 0 00-.6-1.3 1.38 1.38 0 00-1.27-.4c-.46.1-.87.4-1.13.8-.27.39-.38.87-.37 1.35.03.97.46 1.9 1 2.7a6.95 6.95 0 009.81 1.8 3.49 3.49 0 001.33-2.11 1.56 1.56 0 00-1.2-1.78 2.47 2.47 0 00-2.18.6 4.64 4.64 0 00-1.18 1.98 25.14 25.14 0 00-.9 4.37 39.5 39.5 0 00-.16 7.7c.16 2.27.42 4.22.65 5.8l.57 3.65.14.95c.04.22.04.33.04.33M318.45 216.7l-19.02 5.92a1.5 1.5 0 11-.88-2.85l19-5.92a1.5 1.5 0 11.9 2.85M318.84 217.95l-19.02 5.92a1.5 1.5 0 00.9 2.85l2.08-.65 4.4 4.41c.51.5 1.26.69 1.94.47l6.8-2.11c.68-.22 1.19-.8 1.31-1.5l1.06-6.1 1.42-.44a1.5 1.5 0 10-.9-2.85" fill="#17282f"/>
  <path d="M281.82 200.39c-.24 0-.7-.24-1.34-.74-.79-.63-1.8-1.69-2.8-3.2-1-1.5-1.96-3.47-2.58-5.81a20.62 20.62 0 01-.5-7.86l2.54-7.44a19.48 19.48 0 014.02-4.94 14.05 14.05 0 013.54-2.35c.6-.26 1.06-.38 1.33-.38.15 0 .24.03.28.1.25.42-1.46 1.7-3.5 4.22a22.96 22.96 0 00-5 11.22c-.62 4.78.56 9.2 1.88 12.14 1.32 2.97 2.62 4.65 2.27 5-.03.02-.08.04-.14.04M290.73 167.3c-.76 0-1.35-.2-1.6-.65-.2-.4-.04-.94.43-1.47a5.57 5.57 0 013.81-1.58c.36 0 .69.05.97.12.69.18 1.12.54 1.18.98l-2.8 2.26c-.7.21-1.4.33-2 .33" fill="#f2577a"/>
  <path d="M317.04 227.9c0 .05-.56-.02-1.43 0a11.3 11.3 0 00-6.36 2.19c-.71.52-1.1.9-1.14.87-.03-.02.3-.47.99-1.06a9.67 9.67 0 016.5-2.23c.9.04 1.44.19 1.44.22M318.37 221.3c.02.08-3.4 1.22-7.63 2.54-4.24 1.32-7.7 2.32-7.73 2.24-.02-.1 3.4-1.23 7.63-2.55 4.24-1.32 7.7-2.32 7.73-2.24M317.88 223.92c.01.04-.68.34-1.81.77a103.48 103.48 0 01-9.04 2.96c-1.17.32-1.9.49-1.92.44 0-.04.7-.29 1.86-.66l4.51-1.47 4.5-1.48c1.17-.38 1.88-.6 1.9-.56" fill="#33535f"/>
  <path d="M212.33 33c-.02 0-.04-.18-.07-.53l-.1-1.55-.08-1.14c-.05-.42-.14-.87-.22-1.37-.16-.98-.3-2.13-.69-3.37a31.21 31.21 0 00-3.64-8.66 32.48 32.48 0 00-8.29-9.21 32.28 32.28 0 00-13.67-6.05 32.56 32.56 0 00-17.03 1.43c-1.46.46-2.83 1.18-4.23 1.86-1.33.8-2.74 1.55-3.98 2.55-1.31.9-2.46 2.04-3.67 3.13-1.1 1.2-2.24 2.39-3.18 3.76a31.43 31.43 0 00-4.63 8.93A34.67 34.67 0 00147.18 33c.05 3.51.62 6.97 1.67 10.22a31.4 31.4 0 004.63 8.93c.94 1.37 2.09 2.56 3.18 3.76 1.2 1.1 2.35 2.22 3.67 3.13 1.24 1 2.65 1.75 3.98 2.56 1.4.67 2.77 1.4 4.23 1.86a32.6 32.6 0 0017.03 1.43c5.36-.95 10-3.3 13.68-6.06a32.5 32.5 0 008.28-9.2 31.29 31.29 0 003.64-8.67c.38-1.24.53-2.38.7-3.37.07-.5.16-.94.2-1.36l.08-1.15.11-1.55c.03-.35.05-.53.07-.53v.53l-.04 1.56-.04 1.15c-.04.43-.12.88-.18 1.38-.14 1-.27 2.15-.64 3.4a31.01 31.01 0 01-3.56 8.8 32.7 32.7 0 01-8.33 9.4 32.7 32.7 0 01-13.86 6.23c-5.4.95-11.53.8-17.36-1.4-1.49-.46-2.89-1.2-4.32-1.88-1.36-.82-2.8-1.57-4.06-2.6-1.35-.92-2.53-2.07-3.76-3.18-1.11-1.23-2.28-2.44-3.25-3.83a32.06 32.06 0 01-4.73-9.12A35.27 35.27 0 01146.49 33c.04-3.6.63-7.12 1.7-10.44a32 32 0 014.75-9.11c.96-1.4 2.13-2.6 3.24-3.84 1.24-1.1 2.41-2.26 3.76-3.18 1.27-1.02 2.7-1.78 4.06-2.6 1.43-.68 2.83-1.41 4.32-1.88a33.09 33.09 0 0117.36-1.4c5.44 1 10.15 3.4 13.86 6.23a32.67 32.67 0 018.32 9.4 30.96 30.96 0 013.57 8.8c.37 1.25.5 2.4.64 3.4.06.5.14.96.18 1.38l.04 1.15.04 1.56V33" fill="#f03d5f"/>
  <path d="M186.65 29.58c-.06 0 .01-.92-.38-2.5a10.15 10.15 0 00-15.87-5.63c-.41.3-.77.65-1.15.99-.34.37-.7.74-.98 1.17a10.16 10.16 0 00-1.97 5.97c.02 2.19.72 4.31 1.97 5.96.29.43.64.8.98 1.18.38.33.74.69 1.15.97a10.16 10.16 0 0015.87-5.63c.4-1.57.32-2.49.38-2.48v.66c0 .2-.02.47-.07.79-.04.3-.08.67-.2 1.06a10.22 10.22 0 01-8.07 7.68 10.4 10.4 0 01-8.09-1.84c-.42-.29-.8-.65-1.18-1-.35-.39-.72-.76-1.02-1.2-1.29-1.7-2.01-3.9-2.03-6.15.02-2.26.74-4.45 2.03-6.15.3-.44.67-.82 1.02-1.2.39-.36.76-.72 1.18-1a10.4 10.4 0 0112.44.12 10.25 10.25 0 013.72 5.71c.12.4.16.76.2 1.07.05.31.06.58.06.8l.01.48v.17" fill="#17282f"/>
  <path d="M183.42 37.04c.06-.06 2.3 2.08 4.98 4.77 2.7 2.7 4.83 4.93 4.77 4.99-.06.06-2.3-2.07-4.99-4.77-2.7-2.69-4.83-4.92-4.76-4.99" fill="#17282f"/>
  <path d="M97.95 177.94a43.79 43.79 0 11-87.58 0 43.79 43.79 0 0187.58 0" fill="#fff"/>
  <path d="M97.95 177.94s-.04-.24-.07-.7l-.14-2.08-.1-1.53c-.06-.56-.18-1.17-.28-1.83-.2-1.32-.4-2.85-.91-4.52a41.75 41.75 0 00-4.86-11.6 43.49 43.49 0 00-11.09-12.35 43.24 43.24 0 00-18.31-8.12c-1.8-.25-3.62-.62-5.5-.63-.94-.03-1.89-.13-2.84-.11l-2.87.15c-.49.03-.97.03-1.46.1l-1.45.22c-.96.16-1.95.27-2.92.47-1.92.53-3.9.92-5.8 1.7-1.95.63-3.78 1.6-5.67 2.5-.91.5-1.8 1.08-2.7 1.62-.93.51-1.77 1.15-2.62 1.8-1.77 1.22-3.31 2.73-4.93 4.2-1.46 1.61-3 3.2-4.26 5.03a42.09 42.09 0 00-6.21 11.97c-1.42 4.36-2.18 9-2.24 13.7.06 4.72.82 9.35 2.24 13.72a42.06 42.06 0 006.2 11.97c1.27 1.84 2.8 3.42 4.27 5.04 1.61 1.46 3.16 2.98 4.92 4.19.85.65 1.7 1.3 2.63 1.8.9.55 1.79 1.13 2.7 1.63 1.89.9 3.72 1.86 5.67 2.49 1.9.79 3.88 1.18 5.8 1.7.97.2 1.96.32 2.92.48l1.45.22c.49.06.97.06 1.46.1l2.88.14c.95.02 1.9-.07 2.83-.1 1.88-.01 3.7-.38 5.5-.64a43.25 43.25 0 0018.32-8.12 43.49 43.49 0 0011.08-12.35 41.74 41.74 0 004.86-11.6c.5-1.67.7-3.2.91-4.51.1-.66.22-1.27.28-1.83l.1-1.53.14-2.08c.03-.47.07-.7.07-.7v.7l-.07 2.09-.06 1.53c-.05.57-.16 1.18-.25 1.84-.2 1.33-.37 2.88-.86 4.56-.74 3.4-2.3 7.44-4.78 11.73a43.67 43.67 0 01-11.13 12.54 43.64 43.64 0 01-18.5 8.3c-1.82.26-3.67.64-5.58.66-.95.03-1.9.13-2.87.12l-2.92-.15c-.49-.03-.98-.02-1.47-.09l-1.47-.22c-.98-.16-1.98-.27-2.97-.48-1.95-.52-3.97-.91-5.89-1.7-1.98-.64-3.84-1.61-5.75-2.53-.94-.5-1.83-1.09-2.75-1.64-.95-.52-1.8-1.17-2.67-1.83-1.8-1.23-3.37-2.76-5.01-4.25-1.49-1.64-3.05-3.24-4.33-5.1a42.7 42.7 0 01-6.32-12.16 47.05 47.05 0 01-2.28-13.94c.07-4.78.84-9.49 2.28-13.92a42.7 42.7 0 016.32-12.15c1.28-1.87 2.84-3.47 4.33-5.11 1.65-1.48 3.22-3.02 5.01-4.25a22.6 22.6 0 012.67-1.83c.92-.55 1.81-1.13 2.75-1.64 1.91-.91 3.77-1.88 5.75-2.52 1.92-.8 3.94-1.19 5.89-1.71.99-.2 1.98-.31 2.97-.47l1.47-.23c.49-.06.98-.06 1.47-.09l2.92-.14c.96-.02 1.92.08 2.87.12 1.91.01 3.75.4 5.57.66a43.63 43.63 0 0118.51 8.29 43.67 43.67 0 0111.13 12.54 41.5 41.5 0 014.78 11.74c.49 1.68.67 3.22.86 4.55.09.66.2 1.28.25 1.84l.06 1.54.07 2.08v.71" fill="#f03d5f"/>
  <path d="M77.64 179.02a23.35 23.35 0 11-46.7 0 23.35 23.35 0 0146.7 0" fill="#f3f2f1"/>
  <path d="M77.64 179.02s-.05-.51-.1-1.48c-.02-.5-.06-1.1-.2-1.8-.11-.7-.22-1.52-.48-2.4a22.26 22.26 0 00-2.59-6.2 23.2 23.2 0 00-5.91-6.6 23.07 23.07 0 00-9.78-4.34 23.3 23.3 0 00-18.08 4.17c-.94.65-1.77 1.46-2.63 2.24-.78.86-1.6 1.7-2.28 2.69a23.31 23.31 0 00-4.51 13.72 23.3 23.3 0 004.51 13.72c.67.98 1.5 1.83 2.28 2.7.86.77 1.69 1.58 2.63 2.23a23.31 23.31 0 0018.08 4.17 23.1 23.1 0 009.78-4.34 23.2 23.2 0 005.91-6.6 22.23 22.23 0 002.59-6.2c.26-.88.37-1.7.48-2.4.14-.7.18-1.3.2-1.8.05-.97.1-1.48.1-1.48s0 .51-.05 1.5c0 .48-.04 1.09-.17 1.8-.1.7-.2 1.52-.46 2.42a23.3 23.3 0 01-8.48 12.92c-2.65 2-6 3.71-9.86 4.41a23.52 23.52 0 01-18.28-4.18c-.95-.66-1.79-1.48-2.66-2.27-.8-.87-1.63-1.73-2.3-2.72a23.56 23.56 0 01-4.58-13.88 23.56 23.56 0 014.57-13.88c.69-1 1.52-1.85 2.3-2.72.88-.8 1.72-1.6 2.67-2.26a23.5 23.5 0 0118.27-4.19c3.88.7 7.22 2.4 9.87 4.41a23.29 23.29 0 018.48 12.93c.26.9.36 1.71.46 2.42.13.7.16 1.31.17 1.8l.05 1.5" fill="#17282f"/>
  <path d="M54.29 163.77s1.36-.18 3.75.35a15.2 15.2 0 018.56 5.53 15.32 15.32 0 012.31 14.68 14.64 14.64 0 01-2.1 3.94 15.6 15.6 0 01-12.51 6.35 15.6 15.6 0 01-15.28-18.47 15.34 15.34 0 012.95-6.5 15.2 15.2 0 018.56-5.53c2.4-.53 3.76-.35 3.76-.35 0 .1-1.36 0-3.7.6a15.24 15.24 0 00-11 11.89 14.99 14.99 0 0014.7 17.67 14.98 14.98 0 0011.92-23.98 15.22 15.22 0 00-8.23-5.57c-2.33-.6-3.7-.52-3.7-.61" fill="#f03d5f"/>
  <path d="M54.29 174.18c0-.03.43-.12 1.21.02.77.14 1.92.6 2.83 1.75a5.06 5.06 0 01.8 4.83 5.18 5.18 0 01-4.84 3.43 5.18 5.18 0 01-4.85-3.43 5.06 5.06 0 01.8-4.84 4.82 4.82 0 012.83-1.74c.78-.14 1.22-.05 1.22-.02 0 .06-.43.07-1.15.28-.7.22-1.73.72-2.5 1.78a4.57 4.57 0 003.65 7.27 4.57 4.57 0 003.65-7.27 4.85 4.85 0 00-2.5-1.78c-.72-.21-1.15-.22-1.15-.28" fill="#f03d5f"/>
  <path d="M29.4 195.85c8.08-5.63 16.82-11.2 24.89-16.83" fill="#f3f2f1"/>
  <path d="M54.29 179.02c.04.07-5.5 3.89-12.36 8.53a404.73 404.73 0 01-12.52 8.3c-.05-.06 5.49-3.88 12.36-8.53a409.82 409.82 0 0112.52-8.3" fill="#17282f"/>
  <path d="M32.15 194.22c0 .08-1.3.1-2.89.04-1.59-.06-2.88-.17-2.88-.25 0-.07 1.3-.09 2.89-.03 1.6.06 2.88.17 2.88.24" fill="#17282f"/>
  <path d="M31.17 198.01c-.08-.02.05-.9.28-1.97a7.2 7.2 0 01.56-1.92c.07.02-.06.9-.29 1.97a7.27 7.27 0 01-.55 1.92M32.58 197.57c-.08-.02.03-.94.23-2.06.2-1.13.42-2.03.5-2.02.08.02-.03.94-.23 2.06a7.8 7.8 0 01-.5 2.02M29.27 192.56c.01-.07.91.07 2 .33 1.09.26 1.96.53 1.94.6-.02.08-.92-.07-2-.33a7.55 7.55 0 01-1.94-.6" fill="#17282f"/>
  <path d="M205.9 135.1a25.38 25.38 0 11-50.76 0 25.38 25.38 0 0150.76 0" fill="#fff"/>
  <path d="M205.9 135.1s-.03-.15-.05-.42l-.1-1.2a12.5 12.5 0 00-.23-1.94c-.13-.77-.25-1.65-.54-2.61a24.26 24.26 0 00-2.83-6.7 25.17 25.17 0 00-6.42-7.12 24.99 24.99 0 00-23.75-3.56 23.54 23.54 0 00-6.34 3.42c-1.01.7-1.9 1.57-2.84 2.42-.84.93-1.72 1.84-2.45 2.9a25.16 25.16 0 00-4.87 14.8 25.15 25.15 0 004.87 14.8c.72 1.06 1.61 1.98 2.45 2.91.93.84 1.82 1.72 2.84 2.42a25.19 25.19 0 0019.5 4.53 24.99 24.99 0 0010.59-4.68 25.17 25.17 0 006.42-7.11 24.3 24.3 0 002.83-6.7c.3-.96.41-1.85.54-2.61.15-.76.2-1.41.23-1.94l.1-1.2c.02-.28.04-.42.05-.42.01 0 .02.14.02.42l-.03 1.2c0 .54-.03 1.2-.16 1.97-.11.77-.21 1.67-.49 2.64a25.36 25.36 0 01-9.21 14.14 25.37 25.37 0 01-10.77 4.85 25.71 25.71 0 01-20.01-4.56c-1.05-.72-1.96-1.61-2.92-2.48-.87-.95-1.78-1.89-2.53-2.97a25.78 25.78 0 01-5.01-15.2c.05-5.59 1.84-11 5.01-15.21.75-1.09 1.66-2.02 2.53-2.98.96-.86 1.87-1.76 2.92-2.47a25.7 25.7 0 0120-4.56c4.24.77 7.9 2.64 10.78 4.84a25.35 25.35 0 019.21 14.14c.28.98.38 1.88.49 2.65.13.77.16 1.43.16 1.96l.03 1.21c0 .27 0 .41-.02.41" fill="#f03d5f"/>
  <path d="M182.61 135.47a5.93 5.93 0 003.54-5.48c.01-3.28-2.47-5.95-5.54-5.96-3.07-.02-5.57 2.63-5.59 5.9a5.92 5.92 0 003.55 5.54c-8.56 1.3-8.17 10.6-8.17 10.6l20.24.09s.46-9.4-8.03-10.69" fill="#f3f2f1"/>
  <path d="M182.61 135.47c0 .09 1.5 0 3.74 1.3a8.84 8.84 0 013.08 3.45 13.2 13.2 0 011.32 5.95v.1h-.11l-20.24-.07h-.14v-.13c-.02-1.9.39-3.89 1.26-5.72a8.73 8.73 0 012.94-3.46c1.25-.85 2.68-1.3 4.09-1.55l-.03.26a6.05 6.05 0 01-3.61-5.31 6.2 6.2 0 012.54-5.38 5.42 5.42 0 015.28-.53 5.9 5.9 0 013.13 3.42c.49 1.36.43 2.73.14 3.81a6 6 0 01-2.82 3.6c-.35.2-.56.25-.57.26-.04-.02.87-.28 1.93-1.42a6.23 6.23 0 001.15-6.2 5.71 5.71 0 00-3.04-3.28 5.2 5.2 0 00-5.06.54 5.97 5.97 0 00-2.43 5.17 5.79 5.79 0 003.46 5.07l.43.17-.46.09c-1.38.25-2.77.69-3.98 1.51-1.2.81-2.18 2-2.84 3.35a12.9 12.9 0 00-1.24 5.6l-.13-.14 20.24.12-.1.1a13.1 13.1 0 00-1.27-5.85 8.78 8.78 0 00-2.98-3.42 7.63 7.63 0 00-1.5-.76c-.45-.2-.84-.33-1.19-.4l-.99-.25" fill="#17282f"/>
  <path d="M167.13 282.85a44.23 44.23 0 11-88.46 0 44.23 44.23 0 0188.46 0" fill="#fff"/>
  <path d="M167.13 282.85l-.07-.71-.14-2.1-.1-1.55c-.05-.56-.17-1.17-.27-1.84-.22-1.33-.42-2.88-.93-4.56a42.2 42.2 0 00-4.9-11.72 43.91 43.91 0 00-11.2-12.48 43.69 43.69 0 00-18.5-8.2c-1.82-.26-3.66-.63-5.56-.64-.95-.03-1.9-.12-2.86-.1l-2.91.14c-.49.04-.98.03-1.47.1l-1.46.22c-.98.17-1.98.28-2.96.48-1.94.53-3.94.93-5.85 1.72-1.97.64-3.82 1.6-5.73 2.52-.93.5-1.81 1.1-2.73 1.64-.94.52-1.8 1.16-2.65 1.82-1.79 1.23-3.34 2.76-4.98 4.23-1.48 1.64-3.03 3.24-4.3 5.1A42.54 42.54 0 0081.29 269a46.9 46.9 0 00-2.27 13.85c.06 4.76.83 9.44 2.26 13.85a42.53 42.53 0 006.28 12.1c1.27 1.85 2.82 3.45 4.3 5.08 1.63 1.48 3.2 3.01 4.98 4.24.86.65 1.71 1.3 2.65 1.82.91.55 1.8 1.13 2.73 1.64 1.9.91 3.76 1.89 5.73 2.52 1.9.8 3.91 1.19 5.85 1.72.99.2 1.98.31 2.96.48l1.46.22c.49.07.98.06 1.47.1l2.9.15c.97.01 1.92-.08 2.87-.11 1.9-.01 3.74-.39 5.56-.64a43.69 43.69 0 0018.5-8.2c5-3.78 8.66-8.22 11.2-12.48a42.2 42.2 0 004.9-11.72c.51-1.68.71-3.23.93-4.56.1-.67.22-1.28.28-1.85a1488.7 1488.7 0 00.24-3.64l.06-.72s.02.25 0 .72l-.07 2.1-.06 1.56c-.05.57-.16 1.19-.25 1.86-.2 1.34-.37 2.9-.87 4.6a41.86 41.86 0 01-4.83 11.85 44.12 44.12 0 01-11.23 12.67 44.07 44.07 0 01-18.7 8.37c-1.84.27-3.7.65-5.62.67-.96.04-1.93.13-2.9.12l-2.95-.14c-.5-.04-1-.03-1.5-.1l-1.48-.22c-.99-.16-2-.28-3-.48-1.96-.53-4-.93-5.94-1.73-2-.64-3.88-1.62-5.82-2.55-.94-.5-1.84-1.1-2.78-1.65a22.7 22.7 0 01-2.69-1.85c-1.81-1.24-3.4-2.8-5.06-4.3-1.5-1.65-3.08-3.27-4.37-5.15a43.13 43.13 0 01-6.38-12.28 47.56 47.56 0 01-2.3-14.07c.06-4.84.85-9.6 2.3-14.06 1.4-4.5 3.72-8.6 6.38-12.28 1.3-1.88 2.87-3.5 4.37-5.16 1.67-1.5 3.25-3.05 5.06-4.3.88-.66 1.75-1.31 2.7-1.84.93-.55 1.83-1.14 2.77-1.65 1.94-.93 3.82-1.91 5.82-2.55 1.94-.8 3.98-1.2 5.94-1.73 1-.2 2-.32 3-.48l1.49-.22c.5-.07.99-.06 1.48-.1l2.95-.14c.98-.01 1.94.08 2.9.12 1.93.01 3.8.4 5.63.67a44.05 44.05 0 0118.7 8.37 44.09 44.09 0 0111.23 12.67 41.9 41.9 0 014.83 11.85c.5 1.7.68 3.26.87 4.6.09.67.2 1.29.25 1.86l.06 1.55.07 2.1c.02.48 0 .72 0 .72" fill="#f03d5f"/>
  <path d="M99.35 281.09a23.5 23.5 0 1146.9 3.08 23.5 23.5 0 01-46.9-3.08" fill="#f3f2f1"/>
  <path d="M99.35 281.09l.02.38.01 1.12v.82c.01.3.06.63.1.99.06.71.12 1.54.33 2.45.3 1.83 1.01 4.02 2.2 6.36a23.32 23.32 0 005.5 6.98 23.17 23.17 0 0021.76 4.75c1.07-.27 2.08-.72 3.11-1.13 1-.52 2.03-.98 2.97-1.65.98-.58 1.86-1.34 2.77-2.06.84-.81 1.71-1.6 2.45-2.54a22.47 22.47 0 003.73-6.17c.91-2.28 1.48-4.72 1.68-7.24.13-2.51-.11-5.01-.71-7.39a22.56 22.56 0 00-2.9-6.6c-.6-1.03-1.37-1.93-2.1-2.84-.8-.84-1.58-1.7-2.48-2.41-.83-.78-1.8-1.38-2.72-2.02-.97-.55-1.92-1.13-2.94-1.53a23.16 23.16 0 00-22.2 1.86 23.34 23.34 0 00-6.35 6.2 22.45 22.45 0 00-3.02 6.02c-.33.88-.5 1.69-.66 2.39l-.22.96-.1.82-.16 1.1a2.1 2.1 0 01-.07.38l.01-.38.1-1.12.09-.82c.04-.3.12-.62.2-.98.14-.7.29-1.53.6-2.41a23.47 23.47 0 019.37-12.49 23.47 23.47 0 0110.24-3.81 23.8 23.8 0 0112.38 1.81c1.04.41 2 1 3 1.56.94.65 1.93 1.26 2.8 2.05.92.73 1.7 1.6 2.54 2.46.74.94 1.52 1.86 2.15 2.9a22.99 22.99 0 012.97 6.76c.62 2.43.87 5 .73 7.57-.2 2.57-.79 5.08-1.72 7.4a23 23 0 01-3.82 6.32c-.76.95-1.66 1.76-2.51 2.59-.94.74-1.84 1.5-2.85 2.1-.95.68-2.02 1.16-3.03 1.68-1.06.42-2.1.88-3.18 1.15a23.78 23.78 0 01-12.52.18 23.46 23.46 0 01-9.64-5.12 23.46 23.46 0 01-7.66-13.6c-.2-.93-.24-1.76-.3-2.48l-.06-1 .03-.82.04-1.12.04-.38" fill="#17282f"/>
  <path d="M133.47 283.35c0 .02-.3.04-.83.06-.58 0-1.35.02-2.28.04-1.94.03-4.64.05-7.69.05h-.15v-.15-1.52a747 747 0 01.1-11.36c0-.62.03-.97.05-.97.02 0 .04.35.06.97l.05 2.64c.03 2.23.04 5.31.04 8.72v1.52l-.15-.15c3.05 0 5.75.02 7.69.05l2.28.05c.54.01.83.03.83.05M122.74 262.99c.09 0 .15.88.15 1.97 0 1.1-.06 1.97-.15 1.97-.08 0-.15-.88-.15-1.97 0-1.1.07-1.97.15-1.97M133.45 266.16c.06.06-.5.72-1.27 1.48a6.34 6.34 0 01-1.48 1.27c-.06-.06.5-.72 1.27-1.48a6.42 6.42 0 011.48-1.27M139.71 273c.04.07-.7.52-1.62 1.08-.91.55-1.65 1-1.7.94-.05-.07.62-.64 1.55-1.2.92-.57 1.74-.9 1.77-.82M143.38 283.15c0 .08-1.2.15-2.69.15-1.48 0-2.69-.07-2.69-.15 0-.09 1.2-.15 2.7-.15 1.48 0 2.68.06 2.68.15M106.05 282.79c0 .08-1.14.15-2.54.15-1.4 0-2.55-.07-2.55-.15 0-.08 1.14-.15 2.55-.15 1.4 0 2.54.07 2.54.15M108.7 290.35c.05.06-.82.84-1.93 1.74a11.3 11.3 0 01-2.11 1.5c-.05-.06.8-.84 1.92-1.74 1.1-.9 2.05-1.57 2.11-1.5M115.2 296.2c.07.04-.56 1.02-1.3 2.26-.75 1.23-1.31 2.25-1.4 2.22a8.53 8.53 0 011.14-2.38 8.5 8.5 0 011.56-2.1M122.74 303.73c-.08 0-.15-1.2-.15-2.7 0-1.48.07-2.68.15-2.68.09 0 .15 1.2.15 2.69s-.06 2.69-.15 2.69M134.35 300.14c-.04.07-1.1-.54-2.22-1.52a7.89 7.89 0 01-1.81-1.99c.06-.06.9.8 2 1.76 1.11.97 2.08 1.68 2.03 1.75M139.8 294.28c-.07.06-.86-.65-1.79-1.57a9.32 9.32 0 01-1.57-1.78c.06-.06.86.64 1.79 1.56a9.47 9.47 0 011.56 1.79M108.44 275.55c-.06.06-.76-.55-1.57-1.36a7.24 7.24 0 01-1.36-1.57c.06-.06.77.55 1.57 1.36a7.2 7.2 0 011.36 1.57M115.17 268.47c-.06.06-.76-.54-1.55-1.33a7 7 0 01-1.33-1.54c.06-.06.75.54 1.54 1.33.8.79 1.4 1.48 1.34 1.54" fill="#17282f"/>
  <path d="M228.62 347.8c-.11.01.02-1.78-.76-4.84a19.08 19.08 0 00-2.23-5.25 19.75 19.75 0 00-28.6-5.66 19.71 19.71 0 00-7.95 15.75 19.7 19.7 0 0012.91 18.43 19.72 19.72 0 0025.87-13.6c.78-3.05.65-4.84.76-4.83.01 0 .02.1.02.32 0 .26 0 .57-.02.95 0 .42-.02.94-.12 1.55-.08.6-.15 1.31-.37 2.08a19.93 19.93 0 01-7.23 11.15 19.99 19.99 0 01-8.49 3.82 20.24 20.24 0 01-10.64-38.9 20.25 20.25 0 0110.64-.84c3.33.6 6.21 2.09 8.48 3.82a19.9 19.9 0 017.24 11.15c.21.77.3 1.47.37 2.08.1.6.13 1.12.12 1.54l.02.96c0 .21 0 .32-.02.32" fill="#f03d5f"/>
  <path d="M212.6 352.4c-1.1 0-2.07.6-2.65 1.51a56.42 56.42 0 00-4.18-2.9 3.22 3.22 0 00.43-4.14 51.47 51.47 0 003.7-2.86 3.23 3.23 0 10-.35-.72 48.39 48.39 0 00-3.86 3 3.22 3.22 0 00-5.41 2.4 3.24 3.24 0 004.77 2.82 61.69 61.69 0 004.57 3.04c-.17.42-.26.89-.26 1.38 0 1.94 1.46 3.52 3.25 3.51 1.79 0 3.24-1.58 3.23-3.52 0-1.95-1.45-3.53-3.24-3.53" fill="#f3f2f1"/>
  <path d="M212.6 352.4s.45-.1 1.21.21a3.5 3.5 0 012.05 2.72c.13.76.02 1.66-.43 2.48a3.3 3.3 0 01-2.4 1.7 3.22 3.22 0 01-3.04-1.32 3.9 3.9 0 01-.48-3.68l.05.14c-1.45-.92-3.02-1.9-4.58-3.03h.13c-.98.57-2.3.57-3.3-.04a3.36 3.36 0 01.34-6 3.36 3.36 0 013.63.6h-.18l1.9-1.55 1.97-1.45-.05.16a3.34 3.34 0 012.24-4.4 3.38 3.38 0 014.16 2.3 3.37 3.37 0 01-6 2.84l.16.02a65.3 65.3 0 01-3.72 2.85l.03-.14c1 1.47.56 3.33-.46 4.25l-.02-.13c1.76 1.12 3.1 2.17 4.17 2.94l-.08.01a3.27 3.27 0 011.88-1.4c.53-.13.82-.09.82-.09 0 .02-.29 0-.8.15-.5.15-1.26.53-1.8 1.4l-.04.05-.05-.04c-1.08-.74-2.43-1.77-4.19-2.88l-.1-.06.09-.07a3.15 3.15 0 00.4-4.01l-.05-.09.08-.06a66.18 66.18 0 003.7-2.85l.1-.09.06.1a3.13 3.13 0 003.76 1.13 3.13 3.13 0 001.8-3.76 3.12 3.12 0 00-3.83-2.1 3.1 3.1 0 00-2.05 4.03l.04.1-.1.06-1.94 1.45-1.9 1.54-.1.08-.08-.08a3.1 3.1 0 10-3.67 4.96c.94.57 2.15.58 3.06.05l.07-.03.07.04c1.55 1.14 3.1 2.12 4.54 3.04l.09.06-.04.08a3.69 3.69 0 00.44 3.47 3.03 3.03 0 002.85 1.26 3.14 3.14 0 002.28-1.6 3.7 3.7 0 00.44-2.37 3.44 3.44 0 00-1.94-2.67c-.74-.32-1.2-.25-1.2-.29" fill="#17282f"/>
  <path d="M508.66 279.76l-.07-.75-.14-2.18-.1-1.6c-.06-.6-.2-1.23-.3-1.92-.22-1.39-.42-3-.95-4.74a43.89 43.89 0 00-5.1-12.18 45.64 45.64 0 00-11.64-12.97 45.4 45.4 0 00-19.23-8.52c-1.88-.27-3.8-.66-5.77-.67-.98-.03-1.98-.13-2.98-.11l-3.02.15c-.5.04-1.01.04-1.52.1l-1.52.24c-1.02.17-2.05.28-3.07.5-2.02.54-4.1.95-6.09 1.78-2.05.66-3.97 1.67-5.95 2.62-.96.52-1.89 1.13-2.84 1.7-.97.54-1.86 1.21-2.75 1.9-1.86 1.27-3.48 2.86-5.18 4.4-1.53 1.7-3.15 3.35-4.47 5.28a44.17 44.17 0 00-6.52 12.57 48.78 48.78 0 00-2.35 14.39c.06 4.95.86 9.81 2.35 14.4 1.43 4.6 3.8 8.8 6.52 12.56 1.32 1.93 2.93 3.6 4.47 5.3 1.7 1.53 3.32 3.12 5.17 4.4.9.68 1.79 1.35 2.76 1.9.95.56 1.88 1.17 2.84 1.69 1.98.95 3.9 1.96 5.95 2.62 1.99.83 4.07 1.24 6.09 1.79 1.02.2 2.05.33 3.07.5l1.52.23c.5.07 1.02.06 1.53.1l3.02.15c1 .02 1.99-.08 2.97-.11 1.98 0 3.89-.4 5.78-.67a45.4 45.4 0 0019.23-8.52c5.18-3.92 9-8.55 11.63-12.97a43.85 43.85 0 005.1-12.18c.53-1.75.73-3.35.95-4.74.1-.69.24-1.33.3-1.91l.1-1.61.14-2.18.07-.74v.74l-.07 2.19-.07 1.61c-.05.6-.17 1.23-.26 1.93-.2 1.4-.39 3.02-.9 4.78a43.57 43.57 0 01-5.03 12.31 45.83 45.83 0 01-11.67 13.16 45.77 45.77 0 01-19.42 8.7c-1.9.28-3.84.68-5.84.7-1 .03-2 .13-3.02.12l-3.06-.15c-.51-.04-1.03-.03-1.55-.1l-1.54-.23c-1.03-.17-2.08-.3-3.11-.5-2.05-.55-4.16-.97-6.18-1.8-2.07-.66-4.03-1.68-6.04-2.64-.98-.53-1.92-1.15-2.88-1.72a23.74 23.74 0 01-2.8-1.92c-1.88-1.3-3.53-2.9-5.26-4.46-1.56-1.72-3.2-3.4-4.54-5.36a44.77 44.77 0 01-6.63-12.76 49.4 49.4 0 01-2.39-14.61c.07-5.02.88-9.96 2.4-14.61a44.75 44.75 0 016.62-12.75c1.35-1.96 2.99-3.64 4.55-5.36 1.72-1.56 3.37-3.17 5.25-4.46.9-.69 1.81-1.37 2.8-1.92.97-.57 1.9-1.19 2.88-1.72 2.01-.96 3.97-1.98 6.04-2.64 2.02-.83 4.13-1.25 6.18-1.8 1.03-.2 2.08-.33 3.11-.5l1.54-.23c.52-.07 1.04-.06 1.55-.1l3.06-.15c1.01-.01 2.02.09 3.01.13 2 .01 3.94.41 5.85.7a45.76 45.76 0 0119.42 8.7 45.8 45.8 0 0111.67 13.15 43.57 43.57 0 015.03 12.31c.51 1.76.7 3.38.9 4.78.1.7.2 1.34.26 1.93l.07 1.61.07 2.2v.74" fill="#f03d5f"/>
  <path d="M490.93 303.24a6 6 0 01-1.01.07l-2.91.06-10.7.1-35.3.1h-2.86v-.33l.11-33.62.1-10.1.06-2.74c.02-.63.05-.95.07-.95.02 0 .04.32.06.95l.06 2.74.1 10.1c.04 8.61.07 20.43.11 33.62l-.33-.33H441l35.3.1 10.7.1 2.9.06a5.7 5.7 0 011.02.07" fill="#17282f"/>
  <path d="M485.1 267.33c.04.04-.52.57-1.56 1.5l-4.43 3.88c-3.75 3.26-8.97 7.73-14.77 12.63l-.87.75-.23.19-.21-.2-6.57-6.1h.4l-9.64 7.96-2.8 2.24c-.66.51-1.03.77-1.05.75-.02-.03.3-.34.92-.9l2.68-2.38 9.5-8.14.2-.18.2.19 6.6 6.07-.43-.01.87-.75c5.8-4.9 11.06-9.31 14.9-12.48l4.56-3.72a13.3 13.3 0 011.74-1.3" fill="#17282f"/>
  <path d="M485.1 278.32c-.08 0-.17-1.25-.23-3.27-.05-2.03-.1-4.84-.1-7.98l.34.34h-.57a315 315 0 01-8.35-.1c-2.14-.06-3.46-.14-3.46-.24 0-.09 1.32-.17 3.46-.23 2.13-.06 5.09-.1 8.35-.1H485.44v.33c0 3.14-.04 5.95-.1 7.98-.06 2.02-.15 3.27-.23 3.27" fill="#17282f"/>
  <path d="M582.4 175.14c-.02 0-.04-.19-.07-.56l-.12-1.64-.07-1.2c-.05-.45-.15-.93-.23-1.45-.17-1.04-.33-2.25-.73-3.57a33.09 33.09 0 00-3.85-9.16 34.4 34.4 0 00-8.76-9.74c-3.89-2.92-8.8-5.4-14.46-6.4-5.63-.97-11.97-.8-18.02 1.5-1.54.5-2.99 1.26-4.47 1.97-1.41.86-2.9 1.64-4.2 2.7-1.4.96-2.62 2.16-3.9 3.32-1.15 1.27-2.36 2.52-3.35 3.97a33.24 33.24 0 00-4.9 9.44 36.67 36.67 0 00-1.77 10.82c.05 3.72.65 7.37 1.76 10.82a33.24 33.24 0 004.9 9.44c1 1.45 2.21 2.7 3.36 3.98 1.28 1.15 2.5 2.35 3.9 3.3 1.3 1.07 2.79 1.86 4.2 2.71 1.48.72 2.93 1.48 4.47 1.97 6.05 2.3 12.4 2.47 18.02 1.5 5.67-1 10.57-3.47 14.46-6.4a34.35 34.35 0 008.76-9.74 33.05 33.05 0 003.85-9.16c.4-1.31.56-2.52.73-3.56.08-.52.18-1 .23-1.45l.07-1.2.12-1.65.06-.56c.02 0 .02.2.01.57l-.05 1.64-.04 1.22c-.04.45-.12.93-.2 1.46-.14 1.05-.28 2.27-.67 3.6-.58 2.7-1.8 5.9-3.77 9.3a34.55 34.55 0 01-8.8 9.93 34.53 34.53 0 01-14.65 6.57c-5.72 1.01-12.18.86-18.35-1.47-1.57-.5-3.04-1.27-4.56-2-1.44-.86-2.95-1.66-4.3-2.74-1.41-.97-2.66-2.2-3.96-3.37-1.18-1.3-2.42-2.57-3.43-4.04a33.85 33.85 0 01-5.01-9.64 37.24 37.24 0 01-1.8-11.03c.04-3.8.66-7.52 1.8-11.03a33.8 33.8 0 015-9.63c1.02-1.48 2.26-2.75 3.44-4.05 1.3-1.17 2.55-2.4 3.97-3.36 1.34-1.09 2.85-1.89 4.29-2.75 1.52-.73 3-1.5 4.56-2 6.17-2.32 12.63-2.47 18.34-1.47a34.56 34.56 0 0114.66 6.58 34.55 34.55 0 018.8 9.93c1.96 3.4 3.2 6.6 3.77 9.3.39 1.33.53 2.55.68 3.6.07.53.15 1 .19 1.46l.04 1.21.05 1.65v.56" fill="#f03d5f"/>
  <path d="M548.86 156.64l4.63 9.38c.17.36.5.6.9.66l10.36 1.5a1.2 1.2 0 01.66 2.06l-7.49 7.3a1.2 1.2 0 00-.35 1.06l1.77 10.32a1.2 1.2 0 01-1.74 1.26l-9.26-4.86a1.2 1.2 0 00-1.12 0l-9.26 4.86a1.2 1.2 0 01-1.75-1.26l1.77-10.32a1.2 1.2 0 00-.35-1.06l-7.49-7.3a1.2 1.2 0 01.67-2.06l10.35-1.5c.4-.06.73-.3.9-.66l4.64-9.38a1.2 1.2 0 012.16 0" fill="#fafaf9"/>
  <path d="M548.86 156.64c-.02 0-.06-.1-.2-.25s-.4-.35-.8-.37c-.4-.02-.92.19-1.14.75l-.9 1.87a12952.08 12952.08 0 01-3.25 6.7l-.4.82c-.17.3-.46.54-.8.64-1.29.22-2.58.4-3.98.6l-4.34.65-2.3.35c-.68.12-1.02 1.06-.54 1.6l7.52 7.3c.4.33.6 1 .46 1.48l-.24 1.4-.48 2.83-1 5.85a.96.96 0 001 1.21c.2-.01.37-.1.61-.23l2.74-1.45 5.6-2.94.72-.38c.3-.14.63-.18.94-.11.34.08.55.24.79.35l.7.37 2.78 1.46 5.43 2.85c.37.18.83.07 1.1-.24a.9.9 0 00.23-.53c.02-.18-.04-.42-.08-.67l-.5-2.9-.94-5.6-.24-1.37c-.12-.51.14-1.12.52-1.41l1.92-1.86 3.66-3.56 1.75-1.69c.57-.44.45-1.36-.13-1.66-.26-.16-.67-.15-1.04-.23l-1.1-.16-2.12-.32a804.66 804.66 0 01-5.77-.87c-.3-.05-.57-.06-.9-.15-.3-.1-.56-.31-.72-.58l-2.5-5.14-1.55-3.26-.4-.85-.11-.3.16.27.44.83 1.64 3.22 2.56 5.08c.13.21.34.38.58.45.23.07.56.09.84.14l1.82.25 3.96.56 2.13.3 1.1.15c.36.08.74.04 1.17.26a1.42 1.42 0 01.22 2.3l-1.73 1.7-3.65 3.58-1.9 1.86c-.33.28-.47.62-.4 1.02.09.45.17.9.24 1.36l.97 5.6.5 2.9c.04.23.12.48.09.8a1.44 1.44 0 01-2.01 1.18l-5.47-2.86-2.78-1.46-.7-.37c-.25-.12-.48-.27-.66-.3a.94.94 0 00-.62.07l-.7.36-5.6 2.95-2.74 1.44c-.2.1-.5.27-.82.29a1.46 1.46 0 01-1.52-1.79l1.01-5.85.5-2.83.23-1.4c.1-.42 0-.78-.32-1.06l-7.52-7.38a1.4 1.4 0 01.78-2.25 2173.67 2173.67 0 0110.62-1.52c.26-.08.49-.26.62-.49l.4-.8.78-1.54 2.56-5.1.94-1.86c.25-.6.87-.83 1.28-.78.43.04.7.27.84.44.13.17.16.28.16.28" fill="#17282f"/>
  <path d="M489.93 68.8l-.06-.41-.1-1.2a12.5 12.5 0 00-.22-1.95c-.13-.76-.25-1.64-.55-2.6a24.28 24.28 0 00-2.83-6.7 25.21 25.21 0 00-6.42-7.12 24.99 24.99 0 00-23.74-3.56 23.58 23.58 0 00-6.34 3.41c-1.02.7-1.9 1.58-2.84 2.42-.84.93-1.73 1.85-2.45 2.9a25.17 25.17 0 00-4.87 14.8 25.16 25.16 0 004.86 14.81c.73 1.06 1.61 1.97 2.46 2.9.93.85 1.82 1.72 2.84 2.42a25.22 25.22 0 0019.5 4.53 25 25 0 0010.58-4.67 25.2 25.2 0 006.42-7.12 24.26 24.26 0 002.83-6.7c.3-.96.42-1.84.55-2.6.15-.77.2-1.42.23-1.95l.1-1.2c.02-.27.04-.41.05-.41l.01.41-.02 1.21c0 .53-.04 1.2-.17 1.96-.1.78-.2 1.67-.49 2.65a25.34 25.34 0 01-9.21 14.14 25.37 25.37 0 01-10.77 4.85 25.69 25.69 0 01-20-4.56c-1.05-.72-1.97-1.62-2.93-2.48-.87-.95-1.78-1.9-2.52-2.98a25.78 25.78 0 01-5.02-15.2c.05-5.58 1.85-11 5.02-15.2.75-1.1 1.66-2.03 2.52-2.98.96-.87 1.88-1.76 2.92-2.48a25.7 25.7 0 0120-4.56c4.24.77 7.9 2.65 10.78 4.85a25.36 25.36 0 019.21 14.14c.28.98.39 1.87.5 2.64.12.78.15 1.43.16 1.97l.02 1.2-.01.42" fill="#f03d5f"/>
  <path d="M464.24 70.78a5.1 5.1 0 110-10.19 5.1 5.1 0 010 10.19zm11.58-5.04a11.59 11.59 0 00-22.98-2.05c-.5 2.9.1 5.64 1.42 7.9l.03.04c.44.75 1 1.28 1.56 2.07l6.72 8.9c.84 1.11 2.5 1.11 3.34 0l6.6-8.75s1.24-1.47 1.69-2.23l.02-.03c1-1.72 1.6-3.71 1.6-5.85" fill="#f3f2f1"/>
  <path d="M464.24 70.78c0-.03.45 0 1.23-.21a5 5 0 00-1.23-9.84 5 5 0 00-1.23 9.84c.78.2 1.23.18 1.23.21 0 0-.46.07-1.26-.1a5.19 5.19 0 011.26-10.22 5.19 5.19 0 011.26 10.22c-.8.17-1.26.1-1.26.1" fill="#17282f"/>
  <path d="M475.82 65.74s.05.56-.08 1.6a11.49 11.49 0 01-1.46 4.29l-.06-.12h.15l-.09.12-.02.03-7.93 10.58c-.35.53-.89 1.15-1.63 1.27a2.23 2.23 0 01-2.06-.63c-.91-1.15-1.77-2.33-2.7-3.54l-5.77-7.64v.02l-.03-.05-.16-.22h.28l-.12.2a11.7 11.7 0 0110.62-17.6c2.15.13 4.1.82 5.64 1.79a11.56 11.56 0 015.03 6.78c.16.48.2.93.27 1.32.08.39.1.72.1.99l.02.81c-.07 0 .04-1.14-.5-3.1a11.53 11.53 0 00-17-6.71 11.5 11.5 0 00-4.94 13.4c.27.78.61 1.53 1 2.19l.12.2h-.24l.1-.21.04.04v.01l5.75 7.62 2.67 3.53c.47.49 1.19.7 1.83.56.67-.12 1.11-.62 1.5-1.18l7.98-10.5.01-.02.02-.03.06.12h-.13l.06-.1c1-1.68 1.36-3.2 1.52-4.23.07-.51.1-.91.12-1.18l.03-.41" fill="#17282f"/>
  <path d="M366.61 53.37l-.07-.73-.14-2.12-.1-1.57c-.06-.57-.18-1.2-.28-1.87-.22-1.35-.42-2.92-.94-4.62a42.75 42.75 0 00-4.97-11.88 44.55 44.55 0 00-11.35-12.64 44.28 44.28 0 00-18.75-8.31c-1.84-.27-3.7-.64-5.63-.66-.96-.03-1.93-.12-2.9-.1l-2.95.15c-.5.03-1 .03-1.49.1l-1.48.22c-1 .17-2 .28-3 .49-1.96.54-4 .93-5.93 1.74-2 .64-3.87 1.63-5.8 2.55-.94.51-1.84 1.1-2.77 1.66-.95.53-1.82 1.19-2.69 1.85-1.8 1.24-3.39 2.8-5.04 4.29-1.5 1.66-3.07 3.28-4.36 5.16a43.08 43.08 0 00-6.36 12.25 47.5 47.5 0 00-2.3 14.03c.07 4.83.85 9.57 2.3 14.04 1.4 4.5 3.7 8.58 6.36 12.26 1.29 1.88 2.86 3.5 4.36 5.16 1.65 1.5 3.23 3.05 5.04 4.29.87.66 1.74 1.32 2.69 1.85.93.55 1.83 1.14 2.77 1.65 1.93.93 3.8 1.92 5.8 2.56 1.94.8 3.97 1.2 5.94 1.74 1 .2 2 .32 3 .49l1.48.23c.49.06.99.06 1.48.1l2.95.14c.97.02 1.94-.07 2.9-.1 1.93-.02 3.8-.4 5.63-.66a44.25 44.25 0 0018.75-8.31 44.5 44.5 0 0011.35-12.64 42.77 42.77 0 004.97-11.88c.52-1.7.72-3.27.94-4.62.1-.68.22-1.3.28-1.87l.1-1.57.14-2.13.07-.72s.02.25 0 .73l-.07 2.13-.06 1.57c-.05.58-.17 1.2-.26 1.89-.2 1.36-.38 2.94-.88 4.65a42.47 42.47 0 01-4.9 12.01 44.69 44.69 0 01-11.38 12.84 44.65 44.65 0 01-18.94 8.49c-1.87.27-3.75.66-5.7.68-.98.03-1.96.13-2.94.12l-3-.15c-.5-.03-1-.03-1.5-.1l-1.5-.22c-1-.17-2.03-.28-3.04-.49-2-.53-4.06-.94-6.03-1.75-2.02-.65-3.93-1.64-5.89-2.58-.95-.52-1.87-1.12-2.81-1.68-.97-.53-1.85-1.2-2.73-1.87-1.84-1.26-3.45-2.83-5.13-4.35-1.52-1.68-3.12-3.32-4.43-5.23a43.69 43.69 0 01-6.47-12.44 48.12 48.12 0 01-2.33-14.26c.07-4.9.86-9.71 2.34-14.25a43.71 43.71 0 016.46-12.44c1.31-1.9 2.91-3.55 4.43-5.23 1.68-1.51 3.3-3.09 5.13-4.34.88-.68 1.77-1.34 2.73-1.88.94-.55 1.86-1.15 2.81-1.67 1.96-.94 3.87-1.93 5.9-2.58 1.96-.81 4.02-1.22 6.02-1.75 1-.2 2.03-.33 3.03-.49l1.51-.23c.5-.06 1-.06 1.5-.1l3-.14c.98-.01 1.96.09 2.93.12 1.96.02 3.84.4 5.7.68a44.64 44.64 0 0118.95 8.49c5.1 3.89 8.82 8.46 11.38 12.83a42.46 42.46 0 014.9 12.01c.5 1.72.69 3.3.88 4.66.1.68.2 1.3.26 1.88l.06 1.58.07 2.13c.02.48 0 .73 0 .73" fill="#f03d5f"/>
  <path d="M319.95 44.24a7.05 7.05 0 012.24-.16c1.43.1 3.62.7 5.53 2.55a9.25 9.25 0 01-.05 13.29 9.39 9.39 0 01-5.24 2.56 9.37 9.37 0 01-9.54-4.96 9.26 9.26 0 01.21-8.91 8.98 8.98 0 016.27-4.33c.38-.05.58-.06.58-.04.02.08-.79.16-2.09.7a9 9 0 00-4.31 3.92 8.78 8.78 0 003.48 11.93 8.73 8.73 0 005.3.97 8.72 8.72 0 005.03-14.77 8.98 8.98 0 00-5.2-2.62c-1.4-.19-2.2-.05-2.2-.13" fill="#17282f"/>
  <path d="M323.37 32.67a174.93 174.93 0 00-.5-1.17l-1.38-3.55.12.08-8.32 1.2.16-.17-.42 5.06-.01.13-.12.05a20.5 20.5 0 00-4.67 2.75l-.12.1-.13-.07-4.63-2.09.31-.08-5.07 6.71v-.35l3.27 3.88.11.14-.06.17a20.27 20.27 0 00-1.37 5.23l-.03.18-.17.07-4.76 1.79.2-.35 1.15 8.33-.3-.29 5.06.44.2.02.09.2a20.35 20.35 0 002.72 4.64l.13.17-.09.2-2.1 4.62-.11-.43 6.7 5.1h-.46l3.9-3.27.16-.14.2.09c1.59.65 3.38 1.15 5.21 1.37l.3.24v.01l.01.02.02.04.03.07.05.15.11.3.23.6.44 1.2.89 2.37-.4-.24 8.34-1.12-.3.32.44-5.06.02-.22.2-.08c1.69-.7 3.25-1.62 4.66-2.7l.17-.14.2.09 4.61 2.11-.42.1c1.75-2.27 3.45-4.5 5.1-6.68l.02.42-3.26-3.9-.13-.15.08-.18c.7-1.7 1.16-3.47 1.39-5.22l.02-.19.18-.07 4.76-1.76-.2.32-1.1-8.33.25.24-5.06-.47-.16-.01-.06-.15a20.5 20.5 0 00-2.7-4.69l-.1-.11.07-.13 2.13-4.62.06.26-6.66-5.13h.2l-3.92 3.22-.06.05-.06-.03a21.69 21.69 0 00-3.92-1.23l-1-.2a1.4 1.4 0 01-.34-.08l.34.02a19.73 19.73 0 015 1.28l-.11.01 3.87-3.3.1-.08.1.08 6.72 5.05.14.1-.07.16-2.09 4.63-.03-.24a20.8 20.8 0 012.82 4.78l-.22-.16 5.06.43.22.02.03.22 1.16 8.33.03.24-.23.09-4.75 1.78.2-.25c-.22 1.8-.69 3.63-1.41 5.39l-.05-.34 3.27 3.9.17.2-.16.21-5.08 6.7-.17.22-.25-.12-4.63-2.1.36-.04a20.87 20.87 0 01-4.82 2.81l.22-.3-.44 5.06-.02.29-.29.04-8.33 1.13-.29.04-.1-.27-.89-2.37-.44-1.2-.23-.6-.11-.3-.06-.14-.02-.08-.02-.04v-.02h-.01l.3.23c-1.91-.24-3.76-.75-5.4-1.43l.37-.06-3.9 3.27-.22.18-.23-.17-6.68-5.1-.23-.17.12-.26 2.1-4.63.05.37a21.02 21.02 0 01-2.8-4.82l.29.2-5.06-.44-.27-.03-.04-.27-1.11-8.33-.04-.26.24-.09 4.77-1.77-.2.26a20.9 20.9 0 011.43-5.38l.05.3-3.26-3.9-.15-.17.14-.19 5.12-6.67.12-.17.2.1 4.6 2.12-.24.03c1.56-1.2 3.2-2.11 4.8-2.77l-.13.18.48-5.06.01-.15.15-.02 8.34-1.06.1-.01.02.08 1.26 3.55a154.2 154.2 0 01.41 1.25" fill="#17282f"/>
  <path d="M267.16 385.62l-1.86.63c-8.33 2.8-33.08 10.99-40.57 14.05 0 0 13.25 117.22 14.8 128.11 1.56 10.9 1.95 54.47 1.95 54.47h140.99s-.38-117.47.03-135.69c.53-23.57 3.45-46.89 3.45-46.89l-24.63-9.62-28.8-15.18-65.36 10.12" fill="#f03d5f"/>
  <path d="M280.78 560.77l3.58-8.56c-1.04-.17-12.69-1.9-24.17-3.47 0-3.34.98-6.8 1.96-10.05a4588.44 4588.44 0 0036.37-127.71l11.25 2.16-2 87.3c-.24 10.9-.51 21.96-3.56 32.44-3.04 10.48-9.23 20.5-18.76 25.82a27.01 27.01 0 01-4.67 2.07" fill="#ba2c42"/>
  <path d="M224.73 400.3s-20.68 9.17-19.07 45.91c1.1 25.01 4.9 47.88 4.9 47.88l58.14-16.75-14.8-63.8-29.17-13.24M362.63 459.44l-3.11 42.41 58.45-18.93s-12.53-74.86-32.38-82.62l-21.4 36.58-1.56 22.56" fill="#f03d5f"/>
  <path d="M369.27 447.2c.03 0 .06.29.11.86l.18 2.48.5 9.13c.38 7.71.8 18.37 1.17 30.14l.97 30.16.28 9.14.05 2.48a4 4 0 01-.03.87c-.03 0-.06-.3-.11-.86l-.18-2.48-.5-9.13c-.38-7.72-.8-18.38-1.17-30.15l-.97-30.15-.28-9.14-.05-2.49c0-.57.01-.86.03-.87M253.65 429.34c-.04.02-.3-.46-.76-1.35l-1.88-3.76c-1.61-3.15-3.86-7.55-7.29-11.7-3.42-4.16-7.55-6.96-10.82-8.26-3.27-1.33-5.51-1.4-5.49-1.54 0-.04.56-.05 1.55.06 1 .1 2.43.4 4.12 1.03 3.39 1.2 7.68 4.02 11.18 8.26 3.49 4.24 5.69 8.72 7.19 11.94a96.42 96.42 0 011.69 3.86c.37.92.56 1.44.51 1.46M376.1 398.52c.2.1-2.2 4.21-3.67 9.82-1.53 5.59-1.51 10.34-1.73 10.33-.09 0-.2-1.18-.12-3.1a35.33 35.33 0 013.87-14.42c.9-1.7 1.59-2.67 1.66-2.63" fill="#17282f"/>
  <path d="M246.1 416.79c0 .03-.21-.02-.58.06-.36.07-.86.35-1.28.93a5.42 5.42 0 00-.89 2.42c-.1.51-.2 1.07-.42 1.65a3.22 3.22 0 01-1.18 1.6c-1.27.83-3.03.46-4.33-.47-1.34-1-2.13-2.54-3.09-3.93a7.1 7.1 0 00-1.73-1.86c-.7-.5-1.53-.85-2.37-.81-.83.04-1.62.57-2.03 1.32a6.68 6.68 0 00-.62 2.72c-.07.99-.08 1.99-.2 2.98a6.2 6.2 0 01-.94 2.87c-.13.22-.32.4-.5.58a2.6 2.6 0 01-.62.47c-.45.26-.94.4-1.43.45-.99.1-1.94-.13-2.76-.52-1.68-.82-2.73-2.23-3.69-3.42a13.21 13.21 0 00-2.94-2.99 4.4 4.4 0 00-3.18-.83c-.97.2-1.67.81-2.06 1.38a2.4 2.4 0 00-.44 1.53c.02.37.12.56.08.57 0 0-.15-.16-.22-.56a2.42 2.42 0 01.35-1.68 3.6 3.6 0 012.2-1.62c1.1-.25 2.4.07 3.54.8 1.16.72 2.15 1.85 3.12 3.04.97 1.18 2.02 2.5 3.5 3.2.75.34 1.6.54 2.42.44a2.82 2.82 0 002.07-1.23c.98-1.46.86-3.52 1-5.5.09-1.01.19-2.06.71-3.02a3.22 3.22 0 012.6-1.66c2.17-.02 3.73 1.55 4.67 2.99.97 1.45 1.73 2.94 2.9 3.82 1.16.86 2.7 1.18 3.72.52 1.02-.66 1.25-1.93 1.5-2.91.2-1.02.55-1.93 1.05-2.5.48-.6 1.07-.88 1.47-.9.4-.05.6.07.6.07M257.91 436.45c.02 0 .06.26.03.77-.04.5-.22 1.25-.72 2.07-.5.83-1.37 1.7-2.63 2.3-1.23.56-3 .79-4.57-.07-1.57-.76-2.87-2.25-4.68-2.75-1.83-.55-3.83.72-4.99 2.5-1.2 1.78-1.7 4.13-2.92 6.3a7.42 7.42 0 01-2.66 2.77 4.27 4.27 0 01-3.97.32 6.92 6.92 0 01-2.77-2.83c-.66-1.08-1.2-2.19-1.88-3.16a4.66 4.66 0 00-2.53-2.05 3.54 3.54 0 00-2.98.58c-1.78 1.21-2.79 3.13-3.6 4.9-.83 1.8-1.57 3.51-2.5 4.95-1.8 2.99-4.67 4.27-6.57 4.32-.97.05-1.7-.17-2.16-.38-.24-.1-.4-.21-.5-.28l-.16-.11c.03-.11.93.65 2.8.5 1.82-.13 4.49-1.4 6.17-4.31.88-1.41 1.59-3.11 2.4-4.92.8-1.8 1.81-3.85 3.76-5.2a4.18 4.18 0 013.51-.7 5.3 5.3 0 012.92 2.31c.71 1.03 1.27 2.14 1.91 3.2a6.32 6.32 0 002.47 2.55c1.08.5 2.32.32 3.33-.28a6.75 6.75 0 002.41-2.51c1.18-2.04 1.68-4.4 3-6.34a7.24 7.24 0 012.47-2.3c.98-.53 2.17-.69 3.19-.39 1.02.28 1.85.87 2.6 1.4.74.55 1.43 1.1 2.15 1.47 1.43.82 3.02.65 4.2.15a5.9 5.9 0 002.55-2.08c1.04-1.56.82-2.72.92-2.7M251.12 464.93c0 .03-.17-.05-.49-.07-.3-.04-.8.04-1.28.4-.48.37-.95 1-1.23 1.83-.33.82-.25 1.83-.13 2.98.09 1.13.31 2.49-.29 3.86-.59 1.4-2.23 2.26-3.87 2.22a6.15 6.15 0 01-4.58-2.12 18.56 18.56 0 01-2.91-4.67l.24.19c-1.34-.25-2.74.6-3.62 1.8-.94 1.2-1.28 2.77-1.53 4.4-.19 1.2-.33 2.41-.65 3.6a7.77 7.77 0 01-1.74 3.21 4.33 4.33 0 01-3.24 1.49 5.07 5.07 0 01-3.14-1.34c-1.7-1.45-2.55-3.38-3.7-4.8a5.64 5.64 0 00-4.23-2.41 5.3 5.3 0 00-3.84 1.28 5.58 5.58 0 00-1.63 2.67c-.44 1.72-.02 2.72-.12 2.73l-.07-.17a5.29 5.29 0 01-.07-2.62c.2-.89.67-1.97 1.63-2.9a5.68 5.68 0 014.13-1.48c.83.03 1.7.24 2.52.69.8.44 1.51 1.1 2.12 1.85 1.23 1.48 2.1 3.36 3.67 4.67a4.45 4.45 0 002.74 1.17c1.02.02 2-.5 2.74-1.3a7.1 7.1 0 001.56-2.92c.3-1.12.45-2.32.63-3.53.25-1.63.62-3.37 1.67-4.71.97-1.32 2.6-2.35 4.29-2.04l.17.03.07.15c.81 1.68 1.63 3.3 2.77 4.53a5.55 5.55 0 004.12 1.98c1.49.04 2.89-.68 3.42-1.86.54-1.17.39-2.48.32-3.61-.09-1.14-.15-2.26.24-3.14.34-.87.86-1.52 1.4-1.9.56-.36 1.11-.4 1.44-.33.33.07.47.19.47.19M412.99 459.29c0 .04-.25.03-.68.19-.42.14-1 .5-1.5 1.2s-.9 1.7-1.19 2.9c-.26 1.17-.41 2.65-1.13 4.12a4.28 4.28 0 01-1.69 1.95c-.81.46-1.9.52-2.82.08a5.6 5.6 0 01-2.15-2.07c-.56-.85-1-1.8-1.41-2.74-.42-.91-1-1.8-1.73-2.52-.72-.71-1.7-1.28-2.66-1.03-1 .21-1.63 1.15-1.82 2.23-.21 1.1-.15 2.27-.17 3.48-.04 2.43-.74 4.94-2.44 6.66-1.64 1.69-4.25 2.44-6.33 1.51-2.03-.92-3.25-2.6-4.61-3.78-1.3-1.24-2.95-1.94-4.42-1.53a5.59 5.59 0 00-3.17 2.4c-.67 1.02-1 2.05-1.25 2.88-.45 1.68-.61 2.65-.67 2.64-.02 0 0-.25.05-.7.06-.47.16-1.15.36-2.01.2-.86.5-1.92 1.18-3.02a5.95 5.95 0 013.38-2.66 4.3 4.3 0 012.58.1c.86.3 1.63.86 2.34 1.47 1.41 1.21 2.66 2.83 4.48 3.62 1.8.8 4.11.13 5.6-1.4 1.52-1.55 2.19-3.87 2.23-6.2.01-1.17-.05-2.39.19-3.6.12-.6.34-1.2.73-1.72.4-.53.98-.88 1.6-1.03 1.32-.32 2.5.44 3.29 1.22.8.8 1.4 1.74 1.84 2.72.41.96.82 1.86 1.34 2.67.5.8 1.13 1.52 1.89 1.89.74.37 1.64.34 2.31-.04a3.8 3.8 0 001.51-1.7c.7-1.36.89-2.76 1.2-4 .32-1.22.79-2.23 1.35-2.94a3.15 3.15 0 011.67-1.19c.46-.12.72-.05.72-.05M406.05 427.96c.02 0-.06.18-.24.49-.19.3-.46.75-.85 1.31-.39.56-.9 1.23-1.6 1.92a7.04 7.04 0 01-2.83 1.75c-1.18.36-2.7.44-4.05-.36-1.33-.82-1.97-2.39-3.17-3.22a2.06 2.06 0 00-2.02-.2c-.66.3-1.18.95-1.55 1.67a6.3 6.3 0 00-.64 2.41c-.04.88 0 1.8-.04 2.73-.04.94-.14 1.9-.52 2.8a3.97 3.97 0 01-1.94 2.06c-1.78.8-3.66.35-5.14-.3-1.52-.7-2.68-1.71-3.83-2.53a11.38 11.38 0 00-3.38-1.84 4.5 4.5 0 00-3.04.15c-.85.36-1.5.87-1.86 1.42-.72 1.11-.35 1.95-.45 1.93-.02 0-.1-.17-.14-.53-.05-.36 0-.93.37-1.55a4.87 4.87 0 015.26-1.9 11.6 11.6 0 013.57 1.86c1.18.8 2.35 1.8 3.76 2.4 1.39.6 3.13.96 4.58.28a3.29 3.29 0 001.6-1.73c.33-.76.43-1.65.47-2.55.03-.9 0-1.81.04-2.73.06-.95.32-1.86.72-2.68a4.14 4.14 0 011.9-1.98 2.7 2.7 0 012.64.28c1.41 1.05 1.98 2.57 3.12 3.26 1.12.7 2.5.7 3.6.37a6.72 6.72 0 002.71-1.56c.7-.63 1.23-1.26 1.64-1.79.83-1.06 1.27-1.67 1.31-1.64M371.97 504.68s-.12.36-.68.78c-.55.44-1.63.72-2.93.48a7.3 7.3 0 01-2.06-.7c-.72-.37-1.4-.9-2.16-1.4-.75-.52-1.56-1.07-2.5-1.43a4.2 4.2 0 00-3.03-.08 5.37 5.37 0 00-2.49 2.3c-.65 1.05-1.18 2.24-1.73 3.47-.57 1.23-1.13 2.55-2.03 3.75a5.74 5.74 0 01-1.73 1.52c-.35.2-.71.37-1.12.43-.2.04-.4.1-.6.12h-.6a4.22 4.22 0 01-2.32-.82 8.34 8.34 0 01-1.77-1.7c-1.02-1.26-1.86-2.67-2.86-3.95-1-1.27-2.2-2.49-3.75-2.9a6.06 6.06 0 00-4.69.98c-1.44.9-2.55 2.2-3.45 3.63-.9 1.42-1.65 2.93-2.5 4.38a14.9 14.9 0 01-3.06 3.9 8.03 8.03 0 01-4.33 2.07 6.02 6.02 0 01-4.38-1.3 14.72 14.72 0 01-2.83-3.2c-1.55-2.22-2.9-4.4-4.81-5.6a5.45 5.45 0 00-2.97-.9 7.6 7.6 0 00-6.14 3.61 6.15 6.15 0 00-.9 2.75c0 .66.03 1.02 0 1.02-.01 0-.03-.08-.06-.25-.01-.18-.08-.43-.07-.78 0-.68.15-1.72.79-2.87a7.78 7.78 0 016.37-3.93 5.9 5.9 0 013.24.93c2.06 1.27 3.47 3.5 5.02 5.68a14.3 14.3 0 002.73 3.05 5.4 5.4 0 003.94 1.16 7.42 7.42 0 003.96-1.93 14.25 14.25 0 002.92-3.75c.82-1.42 1.57-2.95 2.5-4.41.91-1.47 2.1-2.89 3.66-3.85a6.75 6.75 0 015.23-1.06c1.8.49 3.1 1.84 4.12 3.15 1.03 1.33 1.86 2.74 2.84 3.96.96 1.2 2.17 2.26 3.6 2.28a4.18 4.18 0 003.53-1.8c.85-1.1 1.42-2.38 2-3.6.56-1.23 1.1-2.44 1.8-3.52a5.84 5.84 0 012.76-2.48c1.17-.4 2.4-.3 3.38.12 1 .41 1.8 1 2.56 1.53.74.53 1.41 1.06 2.08 1.42.67.37 1.35.6 1.96.73 1.24.27 2.25.05 2.8-.32.55-.36.73-.7.76-.67M369.44 460.31l-.11.22c-.1.12-.25.32-.54.46-.57.3-1.59.29-2.65-.24-1.1-.51-1.97-1.77-3.44-2.36a2.17 2.17 0 00-2.24.4 5.56 5.56 0 00-1.24 2.5c-.3.98-.53 2.06-1.08 3.1a4.3 4.3 0 01-1.16 1.42 3.7 3.7 0 01-1.79.7c-2.64.26-5.14-1.5-6.85-3.59-.92-1.01-1.82-2.07-2.94-2.9a6.02 6.02 0 00-3.87-1.23c-2.86.12-5.58 1.99-7.45 4.38-1.9 2.46-3.18 5.29-4.86 7.79-1.61 2.53-3.94 4.63-6.64 5.51a7.46 7.46 0 01-4.1.25 6.89 6.89 0 01-3.32-2c-1.73-1.78-2.85-3.82-4.57-4.88a4.47 4.47 0 00-2.66-.68c-.89.06-1.68.41-2.33.87-1.32.92-2.15 2.1-2.77 3.05-1.21 1.95-1.65 3.17-1.72 3.13-.02 0 .08-.31.3-.88.24-.56.6-1.39 1.2-2.4.59-.99 1.4-2.21 2.76-3.22.68-.5 1.54-.9 2.52-1 .97-.08 2.03.15 2.96.71 1.88 1.13 3.04 3.22 4.72 4.9a6.32 6.32 0 003.05 1.81c1.2.29 2.51.16 3.76-.26 2.53-.86 4.7-2.81 6.27-5.29 1.64-2.44 2.91-5.29 4.88-7.84 1.98-2.5 4.8-4.5 7.97-4.63 1.57-.09 3.11.5 4.3 1.38 1.2.9 2.1 2 3.02 3 .9 1.02 1.8 1.98 2.9 2.58 1.07.61 2.28.98 3.4.87a3.18 3.18 0 002.55-1.8c.51-.95.77-2 1.08-3 .31-.98.65-1.99 1.41-2.69a2.57 2.57 0 012.68-.42c1.6.7 2.42 1.99 3.42 2.48 1 .54 1.94.59 2.47.35.55-.23.67-.59.7-.55M370.12 414.3c-.03.03-.2-.21-.68-.46a3.15 3.15 0 00-2.26-.16 4.4 4.4 0 00-2.75 2.24c-.73 1.25-1.1 2.89-1.66 4.68-.3.89-.66 1.82-1.27 2.7a5 5 0 01-2.62 1.96 6.22 6.22 0 01-3.5-.1c-1.16-.34-2.27-.9-3.32-1.58-2.06-1.33-4.05-3.12-6.59-3.57-1.25-.2-2.57 0-3.74.6-1.19.6-2.23 1.5-3.17 2.53-1.9 2.03-3.17 4.53-4.96 6.6a13.46 13.46 0 01-2.98 2.7 7.34 7.34 0 01-3.7 1.19c-2.65.05-4.8-1.36-6.5-2.7-1.73-1.38-3.16-2.82-4.69-3.84-1.5-1.02-3.08-1.67-4.51-1.64-1.43.01-2.65.49-3.45 1.1-.82.6-1.2 1.33-1.39 1.82-.18.5-.17.8-.22.8 0 0-.06-.3.1-.84.13-.53.5-1.33 1.35-2a6.02 6.02 0 013.6-1.27c1.55-.06 3.22.6 4.8 1.62 1.58 1.03 3.06 2.47 4.76 3.8 1.68 1.3 3.75 2.58 6.12 2.5 2.38-.06 4.54-1.67 6.2-3.69 1.71-1.98 2.99-4.49 4.96-6.62a11.7 11.7 0 013.37-2.67 6.75 6.75 0 014.16-.67c2.82.53 4.83 2.41 6.84 3.72 1.97 1.3 4.28 2.22 6.3 1.66.98-.3 1.79-.94 2.35-1.73a10 10 0 001.24-2.54c.58-1.73.98-3.42 1.79-4.72a4.56 4.56 0 013.02-2.3 3.2 3.2 0 012.39.3c.47.3.61.58.61.58M363.27 392.66c.02 0 0 .18-.08.5s-.21.79-.47 1.37c-.27.56-.64 1.29-1.41 1.85-.75.59-2.12.65-3.04-.2-.9-.81-1.37-2-2.06-3.07a4.37 4.37 0 00-1.26-1.4 3.77 3.77 0 00-1.88-.58 5.4 5.4 0 00-3.96 1.48c-1.15 1.03-2.01 2.43-2.76 3.93-.4.75-.8 1.52-1.4 2.19-.58.65-1.49 1.18-2.42 1.08a3.32 3.32 0 01-2.22-1.28 6.42 6.42 0 01-1.1-2.1c-.47-1.4-.8-2.77-1.7-3.6a2.74 2.74 0 00-1.5-.78 1.8 1.8 0 00-1.42.43c-.76.68-1.07 1.69-1.39 2.5-.3.84-.7 1.53-1.14 2-.45.48-.94.7-1.28.74-.34.04-.51-.02-.5-.03-.04-.08.79.08 1.58-.88.38-.47.72-1.13.98-1.96.3-.82.53-1.88 1.43-2.74a2.3 2.3 0 011.8-.6c.69.08 1.32.43 1.83.9 1.09.97 1.44 2.48 1.92 3.81.24.69.53 1.34 1 1.88.46.54 1.08.98 1.76 1.03.69.07 1.35-.3 1.85-.87.52-.57.92-1.3 1.3-2.04.76-1.52 1.67-3 2.93-4.12a6.04 6.04 0 014.46-1.61c.78.05 1.54.3 2.16.72a4.92 4.92 0 011.42 1.6c.7 1.14 1.14 2.3 1.9 3 .74.72 1.83.72 2.5.25a4.5 4.5 0 001.38-1.65c.56-1.1.73-1.77.8-1.75M276.33 392.76c.02 0 .07.22.13.63.06.42.14 1.04.16 1.84.03.8.01 1.81-.34 2.93a4.88 4.88 0 01-2.54 2.98c-.67.33-1.5.51-2.34.3-.84-.2-1.57-.8-2.08-1.5-.53-.7-.91-1.48-1.39-2.2a3.94 3.94 0 00-1.85-1.7c-1.62-.6-3.7.32-4.58 2.03a7.18 7.18 0 00-.83 2.84c-.1 1.02 0 2.07.05 3.17.06 1.09.08 2.22-.23 3.3-.3 1.07-.9 2.11-1.88 2.73-.98.62-2.22.62-3.2.25-1-.36-1.82-.97-2.51-1.65-1.36-1.42-2.2-3.02-3.37-4.16a5.12 5.12 0 00-7.3-.2 5.29 5.29 0 00-1.37 2.42c-.38 1.53-.05 2.42-.13 2.42-.02 0-.11-.2-.18-.62a5.42 5.42 0 011.4-4.49 5.36 5.36 0 013.56-1.64c1.48-.14 3.2.45 4.42 1.7 1.26 1.2 2.14 2.82 3.42 4.1a6.44 6.44 0 002.28 1.5c.86.31 1.84.28 2.62-.21a3.95 3.95 0 001.57-2.33c.28-.96.27-2.01.21-3.09-.17-2.12-.24-4.47.88-6.38 1.02-1.93 3.41-3.04 5.4-2.3 1 .39 1.66 1.2 2.13 1.97.5.77.87 1.56 1.35 2.2a3.18 3.18 0 001.74 1.32 3 3 0 002-.22 4.5 4.5 0 002.38-2.66c.37-1.04.42-2.02.44-2.8.01-1.59-.08-2.47-.02-2.48" fill="#fafaf9"/>
  <path d="M347.75 239.24c-9.02-1.95-17.53 6.7-26.7 5.7-5.58-.6-10.1-4.64-15.2-6.95-7.64-3.46-18.01-3.24-25.14 1.17-7.14 4.41-11.6 8.86-11.9 17.24-7.12-3.32-17.71 6.18-20.87 14.74-3.15 8.56-1.47 17 1.47 25.64a120.47 120.47 0 0023.42 40.56c.92 1.04 2.34 2.17 3.54 1.47.84-.48 1.03-1.58 1.1-2.54.61-8.18-1.1-16.34-2.5-24.42-1.38-8.09-2.44-16.46-.52-24.44 1.91-7.97 7.38-15.57 15.27-17.83 5.83-1.67 12.14-.26 17.66 2.25 5.52 2.5 10.48 6.07 15.78 9.01 5.3 2.94 11.17 5.3 17.22 5.05 6.06-.25 12.29-3.64 14.4-9.32 2.1-5.68-1.43-13.2-7.45-13.96a12.3 12.3 0 009.82-11.5 12.3 12.3 0 00-9.4-11.87" fill="#17282f"/>
  <path d="M332.6 383.06l-2.34-17.4s22.65-6.36 20.17-29.47c-1.2-11.16-5.55-33.93-9.72-54.5a43.3 43.3 0 00-47.6-34.4l-2.23.26c-23.84 4.29-33.52 26.93-28.58 50.64l13.44 92.8a28.7 28.7 0 0056.86-7.93" fill="#f8a58d"/>
  <path d="M330.29 365.64s-14.44 2.94-31.11-4.93c0 0 9.1 15.75 31.88 10.9l-.77-5.97" fill="#f68260"/>
  <path d="M333.62 295.7a3.38 3.38 0 01-2.76 3.84c-1.8.31-3.5-.9-3.77-2.7a3.38 3.38 0 012.75-3.83c1.8-.32 3.5.89 3.78 2.7" fill="#17282f"/>
  <path d="M337.1 295.1c-.35.48-3.07-1.07-6.61-.64-3.55.39-5.93 2.53-6.37 2.14-.21-.17.11-1 1.14-1.96a9.1 9.1 0 0110.37-1.2c1.2.7 1.66 1.44 1.48 1.66M299.86 298.54a3.42 3.42 0 01-2.75 3.9c-1.8.32-3.5-.91-3.78-2.75a3.42 3.42 0 012.74-3.9c1.8-.33 3.5.91 3.79 2.75" fill="#17282f"/>
  <path d="M303.07 297.86c-.36.48-3.08-1.07-6.62-.63-3.55.38-5.93 2.52-6.37 2.13-.21-.17.1-1 1.15-1.95a9.11 9.11 0 0110.36-1.2c1.19.7 1.66 1.44 1.48 1.65M318.36 323.16c-.04-.2 2.12-.84 5.63-1.73.9-.2 1.73-.48 1.81-1.12.13-.68-.36-1.61-.93-2.61l-3.5-6.58c-4.9-9.37-8.56-17.11-8.18-17.3.38-.2 4.65 7.23 9.55 16.6l3.4 6.63c.47 1 1.2 2.09.9 3.5a2.3 2.3 0 01-1.33 1.5c-.56.25-1.07.32-1.52.4-3.57.63-5.8.91-5.83.71M308.22 326.87c.57-.1 1.04 3.74 4.66 6.08 3.62 2.35 7.67 1.42 7.77 1.96.08.23-.83.85-2.56 1.1-1.69.27-4.23.02-6.45-1.4a8.4 8.4 0 01-3.66-5.14c-.34-1.59-.03-2.6.24-2.6M301.28 281.64c-.23 1.01-3.83.98-7.93 1.98-4.12.92-7.33 2.54-7.98 1.74-.3-.38.18-1.36 1.42-2.46a13.58 13.58 0 015.74-2.81 13.6 13.6 0 016.39-.02c1.6.43 2.46 1.1 2.36 1.57M334.57 283.46c-.53.88-3.07.33-6.01.65-2.95.2-5.36 1.19-6.03.42-.3-.38-.01-1.24.98-2.13a8.38 8.38 0 014.73-1.9 8.38 8.38 0 014.98 1.04c1.14.7 1.58 1.49 1.35 1.92" fill="#17282f"/>
  <path d="M266.24 315.05c-.42-.12-16.42-2.79-14.02 12.93 2.4 15.71 17.68 10.06 17.64 9.61-.04-.45-3.62-22.54-3.62-22.54" fill="#f8a58d"/>
  <path d="M264.15 332.37c-.08-.04-.25.23-.68.51-.42.28-1.17.54-2.04.36-1.75-.36-3.55-2.78-4.06-5.6a9.14 9.14 0 01.17-4.04c.3-1.22.93-2.14 1.74-2.41.8-.32 1.47.09 1.73.5.28.41.22.74.31.75.05.03.3-.31.07-.94-.1-.3-.35-.65-.77-.9a2.1 2.1 0 00-1.57-.16c-1.2.27-2.12 1.55-2.49 2.87a9.38 9.38 0 00-.28 4.53c.59 3.15 2.66 5.86 5.03 6.17a2.96 2.96 0 002.44-.8c.43-.46.46-.82.4-.84" fill="#f68260"/>
  <path d="M345.01 276.26a33.57 33.57 0 01-30.4-3.11c-6.19-4.09-11.34-10.4-18.63-11.73-4.91-.89-10.05.77-14.1 3.68-4.05 2.92-7.13 7-9.67 11.3 5.87 11.19 4.44 24.64 2.87 37.17-.17 1.39-.4 2.89-1.4 3.86-1.7 1.66-4.62.88-6.45-.63-2.93-2.41-4.4-6.14-5.52-9.77-2.53-8.27-3.8-17-2.92-25.6.88-8.61 3.97-17.09 9.47-23.77 6.86-8.34 17.27-13.5 28.02-14.62 10.75-1.12 21.75 1.64 31.1 7.08 4.33 2.52 8.42 5.7 11.02 10" fill="#17282f"/>
  <path d="M355.05 244s.15.48.02 1.4c-.12.89-.59 2.24-1.81 3.5-1.22 1.28-3.23 2.28-5.66 2.68-1.22.2-2.54.33-3.95.23a8.44 8.44 0 01-4.24-1.38 5.6 5.6 0 01-2.5-4.22c-.1-1.85 1.18-3.58 2.86-4.43.84-.43 1.8-.7 2.8-.7.99 0 2 .33 2.85.9a7.22 7.22 0 013.01 5.23 8.38 8.38 0 01-1.8 6.08 12.75 12.75 0 01-5.32 3.93c-4.23 1.73-9.14 1.48-13.66.15-4.56-1.3-8.65-3.48-12.5-5.62-3.86-2.13-7.6-4.17-11.4-5.48a23.55 23.55 0 00-11.15-1.34c-3.52.5-6.63 1.89-9.15 3.56a28.13 28.13 0 00-9.33 10.77 36.9 36.9 0 00-1.6 3.59c-.33.84-.49 1.28-.52 1.28l.08-.35c.06-.22.15-.56.3-.99.27-.86.72-2.12 1.47-3.67a27.8 27.8 0 019.29-11.1 22.96 22.96 0 019.36-3.74c3.63-.56 7.63-.05 11.49 1.3 3.88 1.33 7.66 3.37 11.53 5.5 3.85 2.12 7.9 4.27 12.35 5.54 4.42 1.3 9.13 1.52 13.15-.11a12 12 0 005.02-3.68 7.63 7.63 0 001.67-5.54 6.54 6.54 0 00-2.67-4.74 4.79 4.79 0 00-4.97-.19c-1.52.76-2.63 2.26-2.56 3.83a5.04 5.04 0 002.22 3.79 7.97 7.97 0 003.96 1.33c1.35.11 2.65.01 3.84-.16 2.37-.35 4.32-1.27 5.5-2.46a6.48 6.48 0 001.88-3.33c.18-.87.09-1.35.14-1.35M246.76 285.07c.05-.18 1.88.68 4.97.67 1.53-.03 3.36-.36 5.22-1.19 1.87-.8 3.78-2.04 5.58-3.55a18.57 18.57 0 005.9-10.25c.6-3.04.3-5 .46-5 .04-.01.16.46.24 1.35.08.88.09 2.18-.16 3.75a18.12 18.12 0 01-5.93 10.74 22.25 22.25 0 01-5.8 3.63c-1.97.83-3.9 1.12-5.5 1.07-1.62-.05-2.88-.36-3.72-.66a4.03 4.03 0 01-1.26-.56M248.82 296.4c0-.15 1.9.04 4.85-.48 2.94-.5 6.96-1.92 10.45-4.87a22.41 22.41 0 006.5-9.51c1-2.83 1.12-4.73 1.27-4.7.05 0 .06.47-.01 1.32-.08.85-.29 2.08-.73 3.55a21.36 21.36 0 01-6.52 9.94 21.35 21.35 0 01-10.87 4.82c-1.52.2-2.77.2-3.62.14-.86-.07-1.32-.16-1.32-.21" fill="#33535f"/>
  <path d="M292.36 314.9c-.2.07-.44-.06-.51-.29-.08-.22.03-.46.24-.53.2-.07.43.06.5.29.08.22-.03.46-.23.53M298.95 312.55c-.2.07-.44-.09-.53-.35-.08-.26.01-.52.22-.59.2-.07.44.09.53.35.08.26-.02.52-.22.59M303.5 311.89c-.21.05-.46-.18-.54-.53-.09-.35.01-.67.23-.72.2-.05.45.18.53.53.09.34-.01.67-.22.72M296.2 318.75c-.22.03-.4-.06-.42-.2-.02-.14.14-.27.36-.3.22-.02.4.07.42.2.02.14-.14.28-.36.3M302.24 316.56c-.21.05-.43-.11-.48-.35-.05-.24.08-.48.3-.52.2-.04.42.12.47.36.05.24-.08.47-.29.51M334.11 308.82c-.2.07-.43-.07-.51-.3-.07-.23.03-.48.24-.54.2-.07.43.06.5.3.09.23-.02.47-.23.54M338.68 307.84c-.21.05-.43-.13-.5-.4-.05-.26.07-.52.29-.56.2-.05.43.13.49.4.06.26-.07.52-.28.56M330.05 309.43c-.2.06-.42-.03-.48-.21s.06-.38.26-.45c.21-.07.43.02.49.2.05.19-.06.39-.27.46M334.03 313.63c-.19.11-.45.03-.57-.19-.13-.22-.09-.48.1-.6.19-.1.44-.02.57.2.13.22.08.48-.1.6M337.87 312.37c-.21-.03-.36-.2-.34-.38.03-.19.23-.3.44-.28.22.04.37.21.34.39-.02.18-.22.3-.44.27" fill="#f68260"/>
  <path d="M251.37 323.37c.03.07-.86.07-1.57-.96a2.74 2.74 0 01-.41-2.06c.15-.8.66-1.59 1.42-2.12.77-.54 1.7-.7 2.48-.61.79.08 1.44.4 1.92.73.96.72 1.12 1.5 1.06 1.5-.1.07-.42-.57-1.33-1.09-.86-.5-2.46-.85-3.73.04a2.98 2.98 0 00-1.2 1.69c-.15.62-.02 1.22.21 1.67.48.91 1.2 1.1 1.15 1.2" fill="#17282f"/>
  <path d="M370.71 495.6l1.2 34.43s-99.82 19.78-112.66 26.39c-12.84 6.61-18.08 7.64-17.3 26.7l159.5-.27s19.66-7.36 19.27-28.76c-.39-21.4-5.74-72.82-5.74-72.82l-44.27 14.33" fill="#f8a58d"/>
  <path d="M258.46 583.66l13.25-1.22 12.65-30.23c-2.05-.34-44.74-6.65-47.25-5.96l-10.24 36.37s30.67 1.03 31.59 1.04" fill="#f8a58d"/>
  <path d="M229.27 583.2c.03.05.28.1.7.15 3.53.39 19.81-.6 19.81-.6.75-2.1-.66-8.42-2.69-8.8-2.02-.36-19.35.8-19.35.8s-2.73.37-3.4 4.95c-.43 2.84 4.93 3.5 4.93 3.5" fill="#f8a58d"/>
  <path d="M223.77 573.94c.03.06.28.12.7.16 3.53.39 18.92.22 19.59-1.66.74-2.1-.44-7.36-2.47-7.73-2.02-.37-19.35.8-19.35.8s-2.73.36-3.4 4.94c-.43 2.83 4.93 3.49 4.93 3.49" fill="#f8a58d"/>
  <path d="M221.04 564.9c.03.06.28.11.7.16 3.53.39 18.92.22 19.59-1.66.74-2.1-.44-7.36-2.47-7.73-2.02-.38-19.35.8-19.35.8s-2.73.35-3.4 4.94c-.43 2.83 4.93 3.49 4.93 3.49" fill="#f8a58d"/>
  <path d="M218.47 555.9c.04.07.29.12.71.17 3.53.38 18.92.21 19.59-1.66.74-2.1-.44-7.37-2.47-7.74-2.03-.37-19.35.8-19.35.8s-2.73.36-3.41 4.95c-.42 2.83 4.93 3.49 4.93 3.49" fill="#f8a58d"/>
  <path d="M242.6 573.87c-.03.27-3.39.58-7.5.7-4.12.11-7.43 0-7.41-.27.02-.27 3.38-.58 7.5-.7 4.1-.11 7.43 0 7.4.27M242.68 564.8c0 .27-4.77.63-10.66.82-5.9.19-10.67.12-10.68-.14 0-.27 4.76-.64 10.65-.83 5.9-.18 10.68-.12 10.69.15" fill="#f68260"/>
  <path d="M220.98 556.37c-.24-.04-.37-.07-.37-.12 0-.02.04-.05.13-.08.69.03 1.5.05 2.4.06l-2.16.14" fill="#f79475"/>
  <path d="M239.51 555.96c-.2-.15-.42-.25-.65-.3-.27-.05-.84-.07-1.6-.07-.59 0-1.29.02-2.07.04.62-.1 1.19-.2 1.68-.3h.51c2.76 0 4.56.08 4.57.25 0 .11-.91.25-2.44.38" fill="#f68a69"/>
  <path d="M225.2 556.5c-2.04 0-3.55-.04-4.22-.13l2.16-.14h1a88 88 0 0011.05-.6c.78-.02 1.48-.04 2.06-.04.77 0 1.34.02 1.61.08.23.04.45.14.65.3a197.93 197.93 0 01-14.32.54" fill="#f68a69"/>
  <path d="M224.14 556.24a127.57 127.57 0 01-3.4-.07c.8-.25 5.2-.57 10.52-.74 2.06-.06 3.98-.1 5.6-.1-.48.1-1.05.2-1.67.3a88 88 0 01-11.05.6" fill="#f68a69"/>
  <path d="M266.65 549.87s-29.06-12.92-30.87-11.05c-1.81 1.86-4.61 7.87-4.61 7.87l35.48 3.18" fill="#f8a58d"/>
  <path d="M394.21 560.07c-.12.04-.7-2.08-2.1-5.32a54.6 54.6 0 00-6.96-11.82 54.18 54.18 0 00-9.76-9.64c-2.8-2.13-4.72-3.22-4.65-3.33.02-.04.51.2 1.39.68a46.77 46.77 0 018.4 6.21 52.94 52.94 0 015.17 5.65 47.04 47.04 0 016.87 12.06 35.7 35.7 0 011.33 4c.25.96.36 1.5.31 1.51" fill="#f68260"/>
  <path d="M277.36 397.97l-30.05 85.54-33.8 9.74s12.26 51.84 24.77 61.15c4.25 3.17 11.2 6.6 18.32 6.1 13.5-.94 28.66-10.47 34.43-23.76 5.13-11.82 18.84-134 18.84-134l-32.5-4.77" fill="#f8a58d"/>
  <path d="M309.46 406.39l1.75-20.85-4.84-16.72-1.87-6.4 3.66 3.73 6.67-7.1s-2.17-12.63-3.97-12.63c-1.13 0-4.44 1.14-6.75 1.99-1.37.5-2.4.9-2.4.9l-5.64 2.88 5.65-8.65s5.81 4.84 8.78.63c2.28-3.21-6.2-10.42-9.39-12.96a3.16 3.16 0 00-2.59-.62l-3.3.67c.11-1.86-1.9-4.35-4.8-4.4-4.31-.06-6.32 3.79-6.32 3.79l-3.48.62a5.78 5.78 0 00-5.42 3.79l-7.63 20.74 9.8 42.17" fill="#f8a58d"/>
  <path d="M277.36 397.97l-.21-.75-.56-2.2-2.04-8.46-7.24-30.7-.02-.08.03-.07a72725.58 72725.58 0 017.33-20.06 6.16 6.16 0 015.97-4.7h-.05c1.07-.2 2.27-.4 3.47-.63l-.23.17a8.5 8.5 0 012.54-2.74 6.98 6.98 0 013.63-1.2c1.31-.11 2.69.33 3.74 1.17a4.56 4.56 0 011.85 3.55l-.4-.35 2.48-.5c.42-.07.82-.2 1.3-.23a3.52 3.52 0 012.6.93l1 .83c.68.55 1.34 1.12 1.99 1.7 1.3 1.18 2.58 2.41 3.75 3.76 1.15 1.37 2.34 2.8 2.84 4.67.12.53.15 1.13-.04 1.7-.2.58-.62.95-.97 1.36a4.1 4.1 0 01-3.01 1.1c-2.17-.14-4-1.22-5.61-2.44l.5-.07-5.64 8.65-.44-.49 5.64-2.88h.02l.02-.01c1.9-.73 3.78-1.44 5.68-2.04.95-.3 1.89-.6 2.89-.79.27-.03.46-.1.84-.05.4.12.6.37.75.58.31.45.5.9.7 1.36 1.35 3.68 2 7.37 2.67 10.94l.03.15-.1.1-6.69 7.1-.2.22-.22-.21-3.64-3.75.46-.27 6.63 23.15.01.04v.03l-1.39 15.36-.4 4.07-.1 1.05-.06.35v-.36l.06-1.05.3-4.08c.27-3.6.67-8.8 1.19-15.37v.07l-6.77-23.1-.32-1.07.78.8 3.67 3.72h-.42l6.65-7.11-.07.26c-.68-3.52-1.36-7.24-2.68-10.8a6.07 6.07 0 00-.62-1.21c-.11-.18-.28-.32-.35-.33-.1-.02-.4.02-.6.06-.92.17-1.86.47-2.8.76-1.88.6-3.75 1.32-5.64 2.04l.03-.01-5.64 2.89-1.14.58.7-1.07 5.64-8.66.2-.31.3.23c1.5 1.14 3.31 2.17 5.2 2.27a3.4 3.4 0 002.52-.91c.3-.35.66-.7.78-1.09.14-.4.13-.85.02-1.3-.42-1.62-1.56-3.06-2.68-4.37a43.5 43.5 0 00-3.7-3.7c-.64-.58-1.3-1.14-1.95-1.7-.69-.52-1.3-1.18-2-1.42-.74-.3-1.47-.15-2.33.04l-2.5.5-.42.08.02-.43c.03-1.13-.68-2.26-1.6-2.99a4.69 4.69 0 00-3.28-1.03c-2.4.05-4.5 1.65-5.62 3.58l-.08.15-.15.02-3.48.62h-.06c-1.25 0-2.47.45-3.43 1.22a6.1 6.1 0 00-1.95 3.06l-2.59 7-4.82 13.03.01-.16 7.02 30.75 1.9 8.49.47 2.23c.1.5.13.76.13.76" fill="#f68260"/>
  <path d="M301.44 359.71c-.07-.14 2.42-1.48 5.84-3.14l2.17-1.06-1.8 1.62a5.62 5.62 0 00-1.87 4.62c.08.98.41 1.83.8 2.48.77 1.32 1.65 1.83 1.58 1.92-.02.07-1.03-.3-2-1.65a5.87 5.87 0 011.05-7.88l.36.56c-3.46 1.6-6.06 2.68-6.13 2.53M285.46 348.45c-.08-.06.55-1.25 1.63-3.15 1.09-1.9 2.63-4.5 4.36-7.33.88-1.43 1.7-2.78 2.5-4a8.34 8.34 0 012.76-2.8c1-.55 1.97-.66 2.6-.57.63.08.93.3.91.32-.02.06-.34-.06-.93-.05-.59 0-1.45.17-2.34.73-1.83 1.08-3.12 3.93-4.9 6.73a309.6 309.6 0 01-4.54 7.23c-1.19 1.83-1.97 2.93-2.05 2.89M275.13 348.37c-.08-.03.28-1.12.99-2.83.7-1.71 1.74-4.05 3-6.58a105.5 105.5 0 013.42-6.37c.93-1.6 1.57-2.55 1.65-2.5.09.05-.4 1.08-1.22 2.74l-3.23 6.44-3.17 6.47c-.82 1.66-1.35 2.67-1.44 2.63M250.98 475.16c.05.01-.13.57-.48 1.55l-1.55 4.13c-1.31 3.5-3.12 8.31-5.02 13.67a775.05 775.05 0 00-4.72 13.77l-1.42 4.19a7.33 7.33 0 01-.6 1.5c-.04 0 .08-.57.35-1.58.26-1.01.67-2.47 1.2-4.26a287.23 287.23 0 0111.5-31.53c.44-.95.7-1.46.74-1.44" fill="#f68260"/>
  <path d="M295.55 514.6l-.03.39-.15 1.15-.64 4.4c-.3 1.91-.64 4.26-1.18 6.95a56.19 56.19 0 01-2.51 9.02 29.86 29.86 0 01-5.88 9.69 44.34 44.34 0 01-10.14 8.17 54.47 54.47 0 01-13.28 5.53 29.35 29.35 0 01-7.58 1.06c-2.6.02-5.25-.47-7.77-1.36a28.63 28.63 0 01-12.38-9.15 49.08 49.08 0 01-7.16-12.47c-1.75-4.27-2.78-8.5-3.98-12.38l-3.34-10.8a378.56 378.56 0 01-4.62-15.71 132.39 132.39 0 01-1.33-5.45 1.73 1.73 0 01-.07-.4c.02 0 .06.13.14.38l.31 1.11c.3 1.03.7 2.46 1.2 4.28 1.07 3.72 2.71 9.06 4.83 15.64l3.43 10.78c1.23 3.88 2.28 8.1 4.02 12.3a48.78 48.78 0 007.1 12.3 28.03 28.03 0 0012.09 8.91c2.45.87 5 1.34 7.53 1.33 2.54 0 5.03-.4 7.4-1.03a54.26 54.26 0 0013.14-5.42c3.91-2.3 7.3-5.05 10.03-8.01a29.56 29.56 0 005.85-9.48 57.3 57.3 0 002.59-8.91c.57-2.68.96-5.02 1.3-6.92l.76-4.39.22-1.13.1-.39" fill="#f68260"/>
  <path d="M45.12 494.99c-1.2-4.17-3.78-8.2-7.76-9.91-4.14-1.79-8.94-.77-13.18.77s-8.4 3.6-12.9 3.88c-4.5.28-9.59-1.86-10.94-6.16-1.26-4.05 1.17-8.36 4.23-11.3a27.19 27.19 0 0124.73-6.72 27.19 27.19 0 0118.98 17.21l-3.16 12.23" fill="#f03d5f"/>
  <path d="M45.12 494.99c-1.2-4.17-3.78-8.2-7.76-9.91-1.56-.67-3.21-.95-4.89-.95-2.78 0-5.65.76-8.3 1.72-4.23 1.54-8.4 3.6-12.9 3.88-.26.02-.52.02-.78.02-4.3 0-8.88-2.12-10.15-6.18A7.54 7.54 0 010 481.3c0-3.33 2.08-6.64 4.57-9.03a27.24 27.24 0 0124.73-6.72 27.19 27.19 0 0118.98 17.21l-3.16 12.23" fill="#7e1c2c"/>
  <path d="M80.78 513.07c6.61-6.27 6.28-17.2 2.99-25.69-3.3-8.5-10.5-15.01-18.52-19.31a58.64 58.64 0 00-51.12-1.66c7.9.26 15.54 4.75 19.62 11.52 3.62 6.01 4.42 13.3 7.41 19.66a31.29 31.29 0 0016.73 15.63 31.29 31.29 0 0022.9-.15M83.96 475.38c7.31-8.63 8.29-22.5 7.2-33.75-1.07-11.26-3.68-22.6-1.9-33.77 1.05-6.62 3.62-12.94 4.49-19.59.86-6.64-.37-14.16-5.52-18.45-5.91-4.93-15.23-3.77-21.4.86-6.15 4.63-9.72 11.9-12.32 19.15-5.73 15.93-7.83 33.59-3.13 49.85 4.7 16.25 15.75 30.8 31.94 35.7" fill="#f03d5f"/>
  <path d="M87.47 546.2c.02 0 .03-.34.03-1-.01-.65 0-1.6-.06-2.85-.1-2.47-.33-6.05-.88-10.45-.56-4.4-1.43-9.61-2.81-15.3a70.54 70.54 0 00-6.99-17.73 73.88 73.88 0 00-23.39-25.22c-1.82-1.26-3.59-2.22-5.11-3.11-1.56-.82-2.92-1.5-4.04-2.03l-2.63-1.1a6.1 6.1 0 00-.93-.35c0 .02.3.17.89.46l2.57 1.2c1.1.57 2.44 1.27 3.98 2.11 1.5.92 3.24 1.9 5.04 3.17a74.8 74.8 0 0123.1 25.16c6.72 11.76 8.56 24.13 9.9 32.8.6 4.37.9 7.94 1.07 10.4l.16 2.85c.05.65.08 1 .1 1" fill="#17282f"/>
  <path d="M150.54 441.32c13.53 8.17 13.5 15.6 11.23 22.61-2.26 7.01-10.56 11.89-17.44 9.26-3.9-1.48-6.72-4.87-9.12-8.26-2.41-3.4-4.67-7.04-8.05-9.48-3.37-2.45-8.26-3.38-11.65-.96l35.03-13.17" fill="#f03d5f"/>
  <path d="M148.3 473.91a11.1 11.1 0 01-3.97-.72c-3.9-1.48-6.72-4.87-9.12-8.26-2.41-3.4-4.67-7.04-8.05-9.48-2-1.45-4.54-2.37-6.98-2.37-.36 0-.72.02-1.08.06l31.44-11.82c9.58 5.78 12.36 11.2 12.36 16.35 0 2.13-.47 4.21-1.13 6.26-.25.8-.58 1.56-.98 2.29-2.47 4.52-7.48 7.7-12.49 7.7m-32.8-19.43a7.67 7.67 0 013.6-1.35l-3.6 1.35" fill="#7e1c2c"/>
  <path d="M160.67 450.27c-3.53-4.88-12.27-6.3-17.8-3.86-5.51 2.44-9.55 7.28-13.17 12.1-3.62 4.83-7.14 9.93-12.15 13.3-5.02 3.35-12.02 4.57-17.01 1.18-3.28-2.22-5.18-6.08-5.78-10-.6-3.92-.02-7.92.8-11.8 1.19-5.67 3.14-11.6 7.68-15.2 5.06-4.02 12.08-4.21 18.54-4 7.41.24 14.93.8 21.89 3.37 6.95 2.57 14.05 8.11 17 14.91" fill="#f03d5f"/>
  <path d="M98.71 535.37c.02 0 .03-.1.04-.3l.05-.87.11-3.36.36-12.35c.16-5.22.37-11.42.75-18.3.39-6.89.9-14.45 1.94-22.33a72.03 72.03 0 012.24-11.34 58.97 58.97 0 014.15-9.92 53.44 53.44 0 0110.94-14.48 42 42 0 0110.13-6.9c.66-.3 1.24-.6 1.75-.81a397.47 397.47 0 002.13-.85c.19-.07.28-.12.27-.13l-.28.08-.84.27-1.34.46c-.53.2-1.12.47-1.8.76a40.5 40.5 0 00-10.3 6.8 52.57 52.57 0 00-11.15 14.54 58.7 58.7 0 00-4.22 10 71.5 71.5 0 00-2.28 11.44 278 278 0 00-1.9 22.38c-.34 6.89-.51 13.1-.62 18.32a803.43 803.43 0 00-.16 15.71v.88l.03.3M93.85 541.48s.75-2 1.48-5.81c.7-3.8 1.23-9.42.62-16.32-.58-6.9-2.35-15-5.16-23.69-2.77-8.7-6.54-18.01-9.76-28.02-1.6-5-2.96-9.96-3.89-14.82a131.9 131.9 0 01-1.92-14.15c-.76-9.07-.65-17.3-.43-24.18.23-6.9.6-12.47.83-16.32l.26-4.43.05-1.16v-.4l-.06.4-.11 1.15-.38 4.43c-.3 3.84-.73 9.41-1.02 16.3-.27 6.9-.42 15.14.3 24.26.37 4.55.96 9.32 1.9 14.21.93 4.9 2.29 9.88 3.89 14.9 3.23 10.04 7.01 19.33 9.81 28 2.83 8.66 4.63 16.7 5.26 23.55.67 6.86.2 12.46-.42 16.25-.34 1.9-.64 3.36-.9 4.34l-.28 1.12c-.06.26-.08.39-.07.39" fill="#17282f"/>
  <path d="M60.3 547.6h63.53l1.45-12.23H60.3v12.22" fill="#33535f"/>
  <path d="M117.01 546.2l-7.94 36.68H74.55l-7.43-36.68h49.9" fill="#33535f"/>
  <path d="M60.3 547.6c0 .16 13.97.26 31.2.2 17.23-.04 31.2-.21 31.2-.38s-13.97-.26-31.2-.22c-17.23.05-31.2.23-31.2.4" fill="#33535f"/>
  <path d="M71.2 565.7c.09.12 1.88-1.73 5.6-3.2 1.85-.74 4.18-1.31 6.8-1.37 2.63-.09 5.48.54 8.37 1.53 2.9.98 5.6 2.12 8.23 2.75 2.65.57 5.11.53 7.12.21 2.01-.31 3.57-.9 4.57-1.45a9.13 9.13 0 001.45-1c-.03-.04-.54.32-1.55.8-1.01.46-2.56.97-4.53 1.23-1.97.25-4.38.25-6.93-.33-2.55-.64-5.25-1.8-8.17-2.78-2.9-1-5.86-1.64-8.57-1.52a19.48 19.48 0 00-11.1 3.94 10.75 10.75 0 00-1.28 1.19" fill="#17282f"/>
  <path d="M71.69 568.15c.08.12 1.8-1.67 5.37-3.16a18.2 18.2 0 016.56-1.36c2.54-.07 5.3.5 8.1 1.46 2.8.94 5.42 2.02 7.93 2.7 2.5.68 4.87.92 6.84.76 1.97-.13 3.5-.7 4.48-1.2a7.94 7.94 0 001.4-.96c-.04-.05-.53.3-1.5.75-.99.43-2.5.9-4.41.99a20.9 20.9 0 01-6.66-.88c-2.46-.7-5.07-1.79-7.9-2.74a23.44 23.44 0 00-8.3-1.43 17.93 17.93 0 00-11.62 4.74c-.2.2-.3.31-.3.33" fill="#fff"/>
  <path d="M70.58 563.27c.08.11 1.94-1.76 5.74-3.39 1.89-.8 4.27-1.51 6.98-1.67 2.7-.2 5.65.5 8.63 1.52 2.99 1 5.77 2.22 8.52 2.78 2.75.5 5.28.35 7.35.01 2.07-.36 3.68-.95 4.72-1.5a8.87 8.87 0 001.5-1c-.03-.06-.55.32-1.6.8-1.05.47-2.65.98-4.69 1.28-2.03.27-4.51.38-7.17-.14-2.64-.56-5.43-1.8-8.44-2.8-3-1.04-6.05-1.74-8.86-1.51-2.79.2-5.2.97-7.11 1.84a20.53 20.53 0 00-5.26 3.43c-.22.21-.33.33-.31.35" fill="#fff"/>
  <path d="M59.74 547.65c0 .16 14.3.3 31.92.3 17.63 0 31.92-.14 31.92-.3 0-.17-14.3-.3-31.92-.3-17.63 0-31.92.13-31.92.3" fill="#17282f"/>
  <path d="M.94 582.88h580.48" fill="#f3f2f1"/>
  <path d="M581.42 582.88c0 .2-129.95.35-290.22.35-160.33 0-290.26-.15-290.26-.35 0-.19 129.93-.34 290.26-.34 160.27 0 290.22.15 290.22.34" fill="#17282f"/>
</svg>
