<svg xmlns="http://www.w3.org/2000/svg" viewBox="0 0 750 500">
<rect width="100%" height="100%" fill="#fdd544" />
  <path d="M135.75 117.87l-4 .65-10.7-10.75-1.29-8s-6.25.62-3.83 11 1.2 7.8 1.2 7.8-13.12 2.18-14 3.49c-.66 1 1.09 14.06 2.1 21.16a7.73 7.73 0 006.67 6.83 5.31 5.31 0 001.44 0c3.28-.53 19.58-5.9 19.58-5.9l6.91-1.11zM146.84 113.83l1.97 27.76-6.85 1.1-4.34-26.8 9.22-2.06zM517.29 78.44a14.06 14.06 0 00-2.35-8.1 13.51 13.51 0 00-6.25-5.34 11 11 0 00-8.67.3 10.91 10.91 0 00-4 3.33 10.88 10.88 0 00-10.78-7 13.49 13.49 0 00-7.63 3.15 14.06 14.06 0 00-4.76 7 17.06 17.06 0 00.43 10.71 24.28 24.28 0 007 9c4.86 4.1 11.28 9.28 11.28 9.28s6.69-3.51 12.58-5.88a24.19 24.19 0 009.46-6.38 17.12 17.12 0 003.69-10.07z" fill="#ebebeb"/>
  <path d="M551.34 40.59a6.33 6.33 0 00-2.5-2.82 6 6 0 00-3.54-1 4.85 4.85 0 00-4.44 3.89 4.77 4.77 0 00-1.83-1.1 4.92 4.92 0 00-3.85.34 6 6 0 00-2.48 2.73 6.21 6.21 0 00-.59 3.71 7.63 7.63 0 002.21 4.24 11 11 0 004.54 2.31c2.74.73 6.32 1.59 6.32 1.59s2-2.69 4-4.77a10.69 10.69 0 002.6-4.37 7.65 7.65 0 00-.44-4.75zM196.35 80.12a6.25 6.25 0 00-2.49-2.82 6 6 0 00-3.55-1 4.85 4.85 0 00-4.44 3.89 4.74 4.74 0 00-1.82-1.1 5 5 0 00-3.86.34 6 6 0 00-2.47 2.73 6.26 6.26 0 00-.6 3.71 7.68 7.68 0 002.22 4.24 10.91 10.91 0 004.53 2.31c2.74.73 6.32 1.59 6.32 1.59s2-2.69 4-4.77a10.81 10.81 0 002.59-4.38 7.63 7.63 0 00-.43-4.74z" fill="#f5f5f5"/>
  <circle cx="647.86" cy="150.68" r="40.71" transform="rotate(-87.83 647.836 150.694)" fill="#ebebeb"/>
  <path d="M685.75 145.94c.7 0 1.39 1.11 1.83 3.24a24.21 24.21 0 01-.21 9.11 36.39 36.39 0 01-5.14 12.71A38.18 38.18 0 01654 188.48a36.13 36.13 0 01-13.65-1 24 24 0 01-8.24-3.86c-1.72-1.34-2.4-2.46-2.1-3.08.68-1.37 5-.33 11.43-.29a40.59 40.59 0 0039-24.17c2.81-5.85 3.79-10.15 5.31-10.14z" fill="#e0e0e0"/>
  <path d="M649.14 160.65c4.25-.13 8.6-1.55 11.5-4.36 1.73-1.68 3.38-4.29 3.34-6.7a5.4 5.4 0 00-4.11-5.25 7.65 7.65 0 00-4.86 1.28 15.08 15.08 0 01-4.66 2.08c-2.42.4-4.81-.69-7-1.77s-4.55-2.22-7-1.93c-1.36.17-3.2.6-4 2.42 0 0-1.37 2.57.87 6.26a18.15 18.15 0 0015.92 7.97zM632 136.45a3.67 3.67 0 00-3.58-2.16 2.4 2.4 0 00-1.28.35 4 4 0 00-1.71 3.73 3.56 3.56 0 004.38 2.83 3.67 3.67 0 002.19-4.75zM670.69 138.84a3.68 3.68 0 00-3.58-2.16 2.4 2.4 0 00-1.28.35 4 4 0 00-1.71 3.72 3.56 3.56 0 004.38 2.83 3.67 3.67 0 002.19-4.74z" fill="#fff"/>
  <circle cx="307.38" cy="84.63" r="33.66" transform="rotate(-72.39 307.401 84.627)" fill="#ebebeb"/>
  <path d="M336.49 76.14c.5-.1 1.18.7 1.82 2.35a20.8 20.8 0 011.15 7.36 30.21 30.21 0 01-2.19 11 31.44 31.44 0 01-19.81 18.52 30.12 30.12 0 01-11.09 1.46 20.73 20.73 0 01-7.26-1.64c-1.6-.75-2.36-1.48-2.23-2 .29-1.08 3.92-.8 9.24-1.73a38.26 38.26 0 008.92-2.64A31.29 31.29 0 00330.92 94a38.43 38.43 0 003.23-8.72c1.28-5.28 1.24-8.93 2.34-9.14z" fill="#e0e0e0"/>
  <path d="M316.8 79.11c.1 0-.21 1.47-1.62 3.34a12.5 12.5 0 01-16.43 3.12c-2-1.21-2.82-2.44-2.74-2.5s1.11.89 3.09 1.88a12.74 12.74 0 0015.53-3c1.47-1.6 2.02-2.95 2.17-2.84zM292.24 75.65a3 3 0 00-3.24-1.17 2 2 0 00-1 .49 3.28 3.28 0 00-.79 3.29 2.94 2.94 0 004 1.59 3 3 0 001.03-4.2zM327.67 74a16.13 16.13 0 00-.92-2.46 5.34 5.34 0 00-1.91-1.9 4.86 4.86 0 00-3.17-.55 4.93 4.93 0 00-2.85 1.49 5.27 5.27 0 00-1.23 2.42 17.8 17.8 0 00-.13 2.62c-.08.07-.77-.92-.58-2.74a5.56 5.56 0 011.25-2.88 5.47 5.47 0 013.39-1.87 5.39 5.39 0 015.86 3.11c.74 1.64.39 2.76.29 2.76z" fill="#fff"/>
  <path d="M33.72 304.75s-9 .9-4.76 20.76 8.15 30.17 8.15 30.17.51 4.48-3.08 4.2-10.79-3.48-13.43.3-.67 8.85 4.77 14.14 16.91 17.31 17.94 18.4 1.73 3.28-.74 3.49S22.7 393.67 21.9 402s16.75 20.58 18.65 22 2.16 2.4 1.68 3.52-6.23-.4-11.23-.98-10.86-.36-10.92 4.48 8.92 17.45 36.16 27.63l12.93 3.89 10-9.13c20.27-20.85 23-36.08 20.86-40.44s-7.52-2-11.78.63-8.83 6.44-9.74 5.64-1.11-1.85 0-3.9S90.3 394.71 86 387.52s-18.85 2.72-21.17 3.6-2.62-1.43-2.16-2.84S68.38 371.08 71 364s2.41-12.44-1.74-14.81-9.14 3.69-12.26 5.47-4.59-2.48-4.59-2.48-.9-11-5.53-30.75-13.38-16.62-13.38-16.62" fill="#ebebeb"/>
  <path d="M69 465.78c-3.35-14.54-8.86-40.48-13.71-62.73s-9.25-42.38-12.52-56.94l-3.89-17.23c-.46-2-.81-3.6-1.06-4.69l-.23-1.19c-.06-.28-.08-.42-.08-.42s.05.14.12.41l.3 1.21c.27 1.09.65 2.66 1.14 4.67 1 4.06 2.35 9.94 4 17.21 3.34 14.54 7.8 34.66 12.64 56.91s10.32 48.2 13.59 62.76" fill="#e0e0e0"/>
  <path d="M30.5 365.07a3.77 3.77 0 01.85.49c.52.34 1.27.85 2.19 1.49 1.84 1.29 4.33 3.14 7 5.22l6.93 5.36 2.11 1.61a5.13 5.13 0 01.75.62 3.77 3.77 0 01-.85-.49c-.53-.34-1.27-.85-2.19-1.5-1.82-1.31-4.29-3.18-7-5.27l-7-5.31-2.12-1.6a5.13 5.13 0 01-.67-.62zM51.48 379.27c-.09-.07 3.48-5.37 8-11.85s8.24-11.67 8.33-11.61-3.48 5.37-8 11.85-8.23 11.67-8.33 11.61zM57.38 413.76a5.81 5.81 0 01.75-.66l2.1-1.7c1.77-1.4 4.23-3.4 6.84-5.75s4.93-4.46 6.58-6l2-1.87a4.77 4.77 0 01.75-.65 4.45 4.45 0 01-.63.77c-.43.47-1.07 1.15-1.87 2-1.6 1.64-3.88 3.84-6.51 6.15s-5.11 4.28-6.93 5.66c-.92.69-1.67 1.24-2.19 1.6a3.71 3.71 0 01-.89.45zM35.58 405.1a3.5 3.5 0 01.89.25l2.36.83c2 .72 4.73 1.74 7.74 2.9s5.73 2.22 7.69 3l2.32 1a3.76 3.76 0 01.83.4 3.5 3.5 0 01-.89-.25l-2.36-.83c-2-.72-4.73-1.75-7.74-2.9s-5.73-2.22-7.69-3l-2.32-1a4.42 4.42 0 01-.83-.4zM36.92 436.21a7.91 7.91 0 011.14.34l3 1.05c2.55.91 6.07 2.2 9.94 3.64s7.41 2.76 9.94 3.76l3 1.18a6.42 6.42 0 011.08.49 8.06 8.06 0 01-1.13-.34l-3-1.05c-2.55-.91-6.07-2.2-9.94-3.64s-7.38-2.77-9.91-3.75l-3-1.18a6.42 6.42 0 01-1.12-.5zM64.4 446.22a7.46 7.46 0 01.92-.87l2.59-2.25c2.19-1.91 5.2-4.55 8.44-7.57s6.11-5.81 8.18-7.85l2.47-2.42a7 7 0 01.93-.85 7.51 7.51 0 01-.81 1c-.55.61-1.35 1.47-2.35 2.52a200.603 200.603 0 01-16.64 15.43c-1.12.93-2 1.66-2.68 2.16a8 8 0 01-1.05.7z" fill="#e0e0e0"/>
  <path d="M614.08 459.29c-21.91-19.1-24-50.39-20.06-77.9.66-4.59.67-9.51 3.3-13.31s8-6 12-3.64c3.25 2 4.31 6.13 5.87 9.62a27.12 27.12 0 009.7 11.49c2.77 1.84 6.3 3.16 9.37 1.88 4.21-1.77 5.27-7.21 5.73-11.79l2.57-25.64c.46-4.58 1-9.27 2.85-13.46s5.48-7.9 10-8.65 9.61 2.34 10 6.93c.18 1.9-.41 3.8-.49 5.72s.59 4.12 2.34 4.84 3.74-.37 5.26-1.56c5.23-4.12 9.08-9.73 12.72-15.34s7.2-11.36 12-16 11.2-7.94 17.81-7.61 13.16 5.14 14.12 11.77-3.5 12.79-8.17 17.58a103 103 0 01-23.49 18c-1.56.87-3.24 1.81-4 3.44-1.32 3 1.25 6.3 4.15 7.63 3.3 1.51 7 1.55 10.57 2.36s7.23 2.8 8.22 6.32c1.37 4.89-3.07 9.37-7.28 12.17a88 88 0 01-27.55 12.18c-3.5.87-7.17 1.57-10.14 3.65s-5.06 6-3.77 9.42 5.4 4.9 9 4.62 7-1.85 10.47-2.75c6.55-1.7 14.64-.39 18.09 5.49 2.26 3.86 2 8.87.16 13s-4.92 7.5-8.17 10.58c-11.26 10.8-25.26 18.94-40.39 22.43s-28.85 3.4-42.79-3.47" fill="#ebebeb"/>
  <path d="M623.07 442.75c5.56-13.5 12.89-27.78 21.07-42.46l6.09-10.85c2-3.55 4-7.08 6.16-10.41a206.21 206.21 0 0113.51-18.41c4.59-5.62 9.1-10.84 13.43-15.62s8.41-9.23 12.31-13.1a163.1 163.1 0 0119.77-16.9c2.48-1.8 4.45-3.14 5.8-4l1.54-1a2.51 2.51 0 01.54-.31 3.64 3.64 0 01-.49.38l-1.49 1.07c-1.32.93-3.26 2.31-5.71 4.15a172.8 172.8 0 00-19.54 17c-3.87 3.88-7.93 8.3-12.2 13.14s-8.8 10-13.35 15.69a205.93 205.93 0 00-13.42 18.37c-2.15 3.31-4.12 6.81-6.13 10.37s-4 7.19-6.09 10.85a421 421 0 00-21.08 42.34" fill="#e0e0e0"/>
  <path d="M656.64 379a9.22 9.22 0 01-.24-2c-.11-1.29-.2-3.17-.27-5.48-.16-4.64-.15-11-.12-18.1s-.06-13.46-.29-18.08c-.11-2.31-.21-4.18-.3-5.47a9.08 9.08 0 010-2 9.55 9.55 0 01.37 2c.19 1.28.38 3.15.57 5.46.38 4.63.56 11 .53 18.11s-.09 13.28-.12 18.1V377a10.93 10.93 0 01-.13 2z" fill="#e0e0e0"/>
  <path d="M716.75 374.36a12.2 12.2 0 01-2.38 0c-1.53 0-3.73-.08-6.46-.06-5.46 0-13 .27-21.32.93s-15.8 1.6-21.2 2.42c-2.71.4-4.89.78-6.39 1a13.78 13.78 0 01-2.36.32 11.74 11.74 0 012.29-.65c1.49-.35 3.66-.82 6.36-1.3 5.4-1 12.91-2 21.24-2.68a206.93 206.93 0 0121.38-.67c2.74 0 5 .2 6.48.33a12.6 12.6 0 012.36.36zM623.91 441.74a2.9 2.9 0 01-.33-.76l-.78-2.24c-.66-1.95-1.55-4.79-2.61-8.32-2.12-7.06-4.73-16.9-7.47-27.8s-5.26-20.75-7.23-27.84c-1-3.45-1.76-6.29-2.35-8.39-.25-.92-.46-1.67-.63-2.29a.42.42 0 11.17-.05l.77 2.23c.67 2 1.56 4.8 2.62 8.33 2.11 7.05 4.73 16.89 7.47 27.8s5.26 20.75 7.23 27.84c1 3.44 1.76 6.28 2.35 8.39.25.91.46 1.67.62 2.29a2.86 2.86 0 01.17.81zM704.94 424.94a3.38 3.38 0 01-.82.24l-2.35.52-8.68 1.81c-7.33 1.54-17.42 3.77-28.58 6.25s-21.28 4.63-28.64 6c-3.68.69-6.67 1.22-8.74 1.55l-2.38.36a3 3 0 01-.84.06 3 3 0 01.81-.24l2.36-.51 8.67-1.81c7.33-1.54 17.43-3.77 28.58-6.26s21.28-4.62 28.64-6c3.69-.7 6.67-1.23 8.74-1.55l2.38-.36a4.13 4.13 0 01.85-.06z" fill="#e0e0e0"/>
  <g>
    <path d="M355.34 161.88c-2.84 7.35-4.55 9.15-8.31 16.84-3.31 6.77-.34 15.95 5.17 21 3.6 3.31 8.52 4.64 13.25 5.74 10.59 2.45 21.59 4.24 32.27 2.25A47.43 47.43 0 00424 193a48.51 48.51 0 0012.17-27.82" fill="#ff725e"/>
    <path d="M355.34 161.88c-2.84 7.35-4.55 9.15-8.31 16.84-3.31 6.77-.34 15.95 5.17 21 3.6 3.31 8.52 4.64 13.25 5.74 10.59 2.45 21.59 4.24 32.27 2.25A47.43 47.43 0 00424 193a48.51 48.51 0 0012.17-27.82" opacity=".5"/>
    <path d="M362.79 186.64c-2.89-8.53-5.75-17.12-7.12-26s-1.23-18.2 1.81-26.67c.46-1.29 4.41-9.92 5.77-9.81 1 .09-1.43 8.13-.93 9 4.79 8 6.18 17.65 5.54 26.94a122 122 0 01-5.07 26.6" fill="#263238"/>
    <path d="M388 261.65a25.68 25.68 0 01-25.45-25.34l-1.08-84c-1-22.56 11.28-42 33.86-42.34l2.09.09a40.36 40.36 0 0138.68 38.75c.77 19.56 1.36 41.18.8 51.63-1.16 21.64-23 24.11-23 24.11s-.06 5 0 11.38a25.68 25.68 0 01-25.9 25.72z" fill="#a36957"/>
    <path d="M414 224.54s-13.68.24-27.84-9.5c0 0 6.22 16 27.91 15z" fill="#7c3b29"/>
    <path d="M427.81 162.22a3.09 3.09 0 01-3.11 3 3 3 0 01-3.07-2.92 3.11 3.11 0 013.11-3 3 3 0 013.07 2.92zM431.11 157.59c-.4.39-2.67-1.44-6-1.57s-5.83 1.43-6.18 1c-.17-.19.25-.9 1.35-1.63a8.5 8.5 0 015-1.31 8.12 8.12 0 014.75 1.76c.97.83 1.28 1.58 1.08 1.75zM395.48 161.84a3.1 3.1 0 01-3.11 3 3 3 0 01-3.08-2.92 3.1 3.1 0 013.11-3 3 3 0 013.08 2.92zM398.47 156.64c-.41.29-2.68-1-6-1.14s-5.84 1.05-6.18.74c-.17-.13.25-.65 1.35-1.19a10.89 10.89 0 015-1 10.11 10.11 0 014.76 1.28c.94.67 1.26 1.19 1.07 1.31zM409.34 183.65c0-.19 2.08-.46 5.45-.75.85-.05 1.66-.19 1.83-.76a4.34 4.34 0 00-.47-2.55q-1.06-3.12-2.24-6.57c-3.11-9.35-5.32-17-4.94-17.15s3.2 7.36 6.31 16.71c.74 2.31 1.46 4.51 2.14 6.61a4.91 4.91 0 01.3 3.35 2.16 2.16 0 01-1.45 1.19 6 6 0 01-1.45.14c-3.38.04-5.47-.03-5.48-.22zM399.45 185.55c.55 0 .4 3.6 3.39 6.29s6.85 2.45 6.85 3c0 .23-.88.67-2.51.64a9 9 0 01-5.73-2.26 7.88 7.88 0 01-2.61-5.27c-.07-1.56.37-2.43.61-2.4zM398.84 144.08c-.37.89-3.67.33-7.6.64s-7.12 1.24-7.6.41c-.22-.4.36-1.23 1.67-2a13.21 13.21 0 0111.58-.8c1.41.59 2.11 1.33 1.95 1.75zM430.19 146.47c-.61.74-2.87-.14-5.63-.29s-5.11.29-5.61-.52c-.22-.39.17-1.14 1.22-1.81a7.86 7.86 0 014.63-1 7.78 7.78 0 014.44 1.71c.94.76 1.22 1.56.95 1.91z" fill="#263238"/>
    <path d="M362.58 168.4c-.36-.17-14.69-5-14.83 9.81s14.77 11.9 14.8 11.48.03-21.29.03-21.29z" fill="#a36957"/>
    <path d="M358.08 184c-.07-.05-.26.18-.7.38a2.62 2.62 0 01-1.93 0c-1.56-.59-2.86-3.09-2.91-5.76a8.57 8.57 0 01.76-3.69 3 3 0 012-2 1.32 1.32 0 011.52.73c.19.41.1.71.18.73s.32-.24.2-.85a1.68 1.68 0 00-.57-.94 2 2 0 00-1.43-.39 3.65 3.65 0 00-2.72 2.27 8.88 8.88 0 00-.93 4.13c.07 3 1.57 5.79 3.71 6.43a2.74 2.74 0 002.36-.37c.43-.28.51-.61.46-.67z" fill="#7c3b29"/>
    <path d="M426.53 124.24c2.4-1.33-4.79-9.1-10.69-11.78-8.9-4-22.51-6.54-30.73-4.22C375.22 111 367 116 362 125s-6.84 19.49-6.56 29.76c.09 3.14.41 6.41 2.09 9.06 2.06 3.28 6 5.34 5.86 9.86a6.16 6.16 0 001.54 4.53c2.71 2.89 6 .18 7.55-2.54 3.26-5.8 3.63-12.73 3.92-19.38.21-4.73.4-9.56-.93-14.1-.72-2.47-1.89-4.81-2.47-7.32s-.51-5.35 1.05-7.4a9.73 9.73 0 011.21-1.21 15.42 15.42 0 0115.33-2.91c8.35 3 22.6 7.37 26.33 4.54 5.35-4.07 6.64-6.73 6.64-6.73z" fill="#263238"/>
    <path d="M436.19 122.37c-1.94-3.52-3-4.42-6.58-7.34s-19.94-10.56-26.35-11.83-19.79 2.32-21.44 3.16-16.87 9.42-18.45 11.23-7.59 13.59-7.59 17.15-1.44 19.34-1.44 19.34l1.6 8.17s13.08-29.47 27.24-32.38 34.09-3.05 35.84-2.44 9.76 4 12.21 7.93 4.95 11.4 4.95 11.4 1.95-20.88.01-24.39zm-50.08 1.77s3.42-13.66 14.84-15.38 19.29 8.33 19.42 10.21l.19 2.83z" fill="#ff725e"/>
    <path d="M420.25 127.44c0-.08.35-.22.7-.71a2.53 2.53 0 00.34-2.18 6.16 6.16 0 00-1.15-2.08c-.39-.49-.64-.81-.58-.87s.38.18.85.63a4.78 4.78 0 011.38 2.19 2.64 2.64 0 01-.56 2.55c-.5.51-.98.53-.98.47zM415.79 123.83s-.17.27-.12.67a.76.76 0 00.3.54.67.67 0 001-.64.81.81 0 00-.37-.49c-.35-.21-.63-.09-.67-.16s.25-.36.82-.17a1 1 0 01.2 1.86 1 1 0 01-1.62-.94c.03-.59.45-.74.46-.67zM409.25 124.22c.05.06-.17.27-.12.68a.76.76 0 00.3.53.63.63 0 00.67 0 .6.6 0 00.3-.6.74.74 0 00-.37-.49c-.35-.21-.63-.09-.66-.16s.25-.36.81-.18a1.08 1.08 0 01.69.72 1.05 1.05 0 01-.49 1.14 1.07 1.07 0 01-1.24 0 1.11 1.11 0 01-.38-.92c.06-.64.48-.79.49-.72zM402.72 124.62c0 .06-.17.27-.12.67a.76.76 0 00.3.54.59.59 0 00.66 0 .62.62 0 00.31-.6.81.81 0 00-.37-.49c-.35-.2-.64-.09-.67-.16s.25-.36.82-.17a1.11 1.11 0 01.69.71 1.08 1.08 0 01-.49 1.15 1 1 0 01-1.24 0 1.07 1.07 0 01-.38-.92c.06-.65.48-.8.49-.73zM396.18 125c.05.06-.17.27-.12.68a.73.73 0 00.3.53.59.59 0 00.67 0 .6.6 0 00.3-.6.74.74 0 00-.37-.49c-.35-.21-.63-.09-.67-.16s.25-.36.82-.18a1.08 1.08 0 01.69.72 1 1 0 01-.49 1.14 1.07 1.07 0 01-1.24 0 1.08 1.08 0 01-.38-.92c.06-.62.48-.78.49-.72zM389.65 125.41c.05.06-.17.27-.12.67a.79.79 0 00.29.54.68.68 0 001-.63.75.75 0 00-.37-.49c-.35-.21-.64-.1-.67-.17s.25-.36.81-.17a1.07 1.07 0 11-1.41.92c.04-.59.46-.74.47-.67z" fill="#263238"/>
    <path d="M401.4 109.46c1.21 0 1.78-1.74 3-1.74a3.52 3.52 0 013 1.76 2.83 2.83 0 015.39.41 4.15 4.15 0 012.85-.22c.9.37 1.35 1.78.55 2.33a3.85 3.85 0 013.91-.2c1.16.74 1.48 2.68.36 3.48a3.18 3.18 0 013.72 5 1.35 1.35 0 01-.85.5c-.62 0-1.05-.61-1.17-1.22a7.77 7.77 0 00-.29-1.81c-.25-.56-1-1-1.48-.53.61 1 1.19 2.39.42 3.3-.52.63-1.06 1.37-1.88 1.39-4.67.1-28.13 2.13-32.79 2.23-.03 0 4.06-14.14 15.26-14.68zM357.22 159.69c-.14 1.25-1.46 2-2.68 2.28a13.93 13.93 0 00-3.66.83c-1.11.59-1.85 2.16-1 3.11.68.78 1.92.65 2.91.34a14.36 14.36 0 009.34-9.73c1.63 1.09 4 .21 5.15-1.36a11.65 11.65 0 001.73-5.54 9.75 9.75 0 009.82-9.49c-.05-2.82-1.34-5.73-.32-8.36 0 0-6.76 5-10.08 9.54s-11.21 18.38-11.21 18.38z" fill="#263238"/>
    <path d="M351.44 165.88a1.11 1.11 0 00-1.11 1.2 1.69 1.69 0 001.12 1.37 3.86 3.86 0 001.85.15 10.87 10.87 0 005.18-2 3.31 3.31 0 003.59 1.51 4.71 4.71 0 003.11-2.59 8.72 8.72 0 00.79-4.07 3.77 3.77 0 004.3-.15 5.88 5.88 0 002.21-3.9 14 14 0 00-.18-4.57c1.12 1.07 3.19.35 3.84-1.06a4.78 4.78 0 00-.63-4.42 3.79 3.79 0 002.07-5.18 2.11 2.11 0 002.9-.83 4.52 4.52 0 00.22-3.32 22.61 22.61 0 01-.84-3.31 5.7 5.7 0 011.41-4.29 13.86 13.86 0 00-7.22 4.13 40.81 40.81 0 00-5.05 6.75l-12.5 19.3" fill="#263238"/>
    <path d="M380.55 130.6a3.43 3.43 0 00-.84 3.71 17.78 17.78 0 00.72 2 9.29 9.29 0 01.72 2.47 3.44 3.44 0 01-.8 2.85 2.6 2.6 0 01-1.51.71 1.87 1.87 0 01-1.67-.61l.38-.21a5.68 5.68 0 01-.65 4.87 5.77 5.77 0 01-4.55 2.81l.23-.34a7.86 7.86 0 01-3.89 9.47l.14-.2a18.2 18.2 0 01-.74 3.55 6.67 6.67 0 01-1.87 3 4.67 4.67 0 01-3.12 1 3.13 3.13 0 01-2.65-1.46h.37a6.82 6.82 0 01-3.85 3.37 6.41 6.41 0 01-3.91.1 6.25 6.25 0 01-2.23-1.12 4.17 4.17 0 01-.49-.43c-.1-.11-.15-.17-.14-.18s.23.19.7.51a6.74 6.74 0 002.22 1 6.39 6.39 0 007.32-3.43l.17-.35.2.34a2.71 2.71 0 002.31 1.22 4.22 4.22 0 002.8-1 6.3 6.3 0 001.7-2.75 18 18 0 00.7-3.46v-.14l.13-.06a7.35 7.35 0 003.65-8.84l-.12-.33h.35a5.31 5.31 0 004.16-2.56 5.24 5.24 0 00.64-4.46l-.43-1.18.81 1a1.85 1.85 0 002.56-.11 3.14 3.14 0 00.72-2.52c-.2-1.75-1.08-3.15-1.33-4.46a4.09 4.09 0 01.33-3 1.84 1.84 0 01.76-.78zM420.12 117.18a1.36 1.36 0 00-.07-.86.89.89 0 00-.77-.54 1 1 0 00-1 .69l-.3-.06a3.23 3.23 0 00-1.69-3.18 3.13 3.13 0 00-4.11 1.42l-.33-.33c.31-.14.38-.65.19-1a1.36 1.36 0 00-1.12-.64 6.39 6.39 0 00-3.11.59 7.25 7.25 0 00-3.66 3.62l-.35-.32a1 1 0 00.47-1 1.36 1.36 0 00-.56-1 3.58 3.58 0 00-2.37-.5 7.5 7.5 0 00-3.91 1.5 9.06 9.06 0 00-2.42 3 .68.68 0 01.07-.26 4.94 4.94 0 01.31-.71 7.14 7.14 0 011.85-2.22 7.53 7.53 0 014.07-1.68 3.89 3.89 0 012.68.55 1.86 1.86 0 01.77 1.36 1.5 1.5 0 01-.73 1.49l-.62.33.28-.65a7.79 7.79 0 013.9-3.9 6.92 6.92 0 013.4-.62 1.83 1.83 0 011.5.93 1.44 1.44 0 01.13.91 1.06 1.06 0 01-.54.78l-.67.34.33-.66a3.46 3.46 0 016.54 2l-.29-.06a1.23 1.23 0 011.28-.85 1.07 1.07 0 01.9.71c.25.52-.05.85-.05.82z" fill="#455a64"/>
    <path d="M436.23 145.94a5.76 5.76 0 001.26 3.74c.95 1.23 2.22 2.22 2.9 3.62s.45 3.44-1 4a6.21 6.21 0 01-3.46 9.61c-.31-6.53-.16-15.64-.19-22.17" fill="#263238"/>
    <path d="M470.15 235.42a41.58 41.58 0 00-1-5.58 6.3 6.3 0 00-3.57-4.16c-1.79-.63-4.14.28-4.55 2.13a6.76 6.76 0 00-11.57-1.24 7.12 7.12 0 00-6.71-2.7 7 7 0 00-4.16 2.9 9.27 9.27 0 00-2-3.76 6.21 6.21 0 00-5.77-2.07.9.9 0 00-.54.29c-.2.27-.06.64.08 1a19.07 19.07 0 011.61 6.89l7.05.5 2.68.2c1.25 2.62.79 5.46 1.12 8.35s1.89 6.13 4.77 6.53c2.57.36 4.92-1.88 5.62-4.37s.19-5.16-.34-7.7c1.07 1.77 1.21 3.92 1.33 6s.28 4.22 1.38 6 3.47 2.88 5.3 1.92 2.21-3.15 2.08-5.09-.67-3.9-.25-5.79c-.1 2.06-.18 4.23.73 6.09s3.18 3.22 5.09 2.41a4.41 4.41 0 002.31-3.91 20.6 20.6 0 00-.69-4.84z" fill="#b78876"/>
    <path d="M453.19 240.27c-.07 0 0-1-.09-2.64a33.28 33.28 0 00-1-6.26 11 11 0 00-3.15-5.31c-1.21-1.06-2.16-1.47-2.11-1.55s.26 0 .68.23a8 8 0 011.67 1 9 9 0 012 2.18 12.37 12.37 0 011.45 3.27 26.41 26.41 0 01.83 6.39 7.69 7.69 0 01-.28 2.69zM462.64 242a19.27 19.27 0 01-.13-2.7c-.06-1.67-.22-4-.52-6.49-.16-1.26-.28-2.48-.52-3.53a6.41 6.41 0 00-1.14-2.58 4.89 4.89 0 00-2.09-1.54s.27 0 .73.12a4.05 4.05 0 011.65 1.18 6.42 6.42 0 011.31 2.71 30.1 30.1 0 01.58 3.58 50.46 50.46 0 01.37 6.54 11 11 0 01-.24 2.71zM441.4 224.3c.07.14-1.3.94-2.6 2.37s-2 2.86-2.12 2.79a5.94 5.94 0 011.74-3.14 6 6 0 012.98-2.02z" fill="#aa6550"/>
    <path d="M470.19 239.44s57.52.83 65.87 0 77.42 5.29 77.42 5.29l-10.14 17.33-126.49 22.7z" fill="#a36957"/>
    <path d="M499.23 288.54l-.58-51-38.86-6.44-45.88-3.35s2.73 16.58-18.56 19.37-33.14-20.93-33.14-20.93L317 237.42l4.31 86.16-.38 139h151.6s-8.39-148.08-8.81-161.21z" fill="#f5f5f5"/>
    <path d="M464.56 327.92a3.47 3.47 0 01-.07-.69c0-.5-.05-1.16-.08-2-.08-1.78-.18-4.25-.3-7.27-.28-6.14-.83-14.61-1.56-24s-1.38-17.83-1.75-24c-.18-3.06-.31-5.55-.37-7.27 0-.82-.05-1.47-.07-2a2.83 2.83 0 010-.69 4.35 4.35 0 01.09.69c0 .5.09 1.16.16 2 .13 1.78.32 4.24.54 7.26l1.9 24c.73 9.35 1.22 17.84 1.4 24 .1 3.07.15 5.56.14 7.28v2a3.38 3.38 0 01-.03.69z" fill="#263238"/>
    <path fill="#455a64" d="M466.58 355.89H321.32v-30.84l143.17-.86 2.09 31.7z"/>
    <path d="M354.54 381.08a118.48 118.48 0 0046.67 14.37c5.47.5 11.07.64 16.25 2.48s10 5.81 11.1 11.2c.74 3.71-1.1 8.33-4.83 8.91a9.83 9.83 0 01-4.05-.49A171.91 171.91 0 01352 381.33" fill="#e0e0e0"/>
    <path d="M448.26 424h-.29l-.86-.11-3.28-.49-2.37-.37c-.87-.15-1.8-.35-2.8-.54-2-.41-4.31-.81-6.81-1.45l-3.94-.94c-1.37-.33-2.77-.76-4.23-1.17-2.93-.77-6-1.81-9.25-2.86a185.53 185.53 0 01-39.95-19.12c-2.85-1.87-5.58-3.61-8-5.41-1.23-.89-2.45-1.71-3.57-2.57l-3.2-2.47c-2.07-1.55-3.82-3.09-5.39-4.4-.78-.66-1.52-1.26-2.18-1.84l-1.77-1.62-2.44-2.25-.63-.6a1.1 1.1 0 01-.2-.21s.09.05.24.17l.66.56 2.5 2.18 1.8 1.58 2.2 1.81c1.6 1.28 3.36 2.8 5.44 4.33l3.21 2.44c1.13.84 2.34 1.65 3.57 2.53 2.45 1.78 5.19 3.51 8 5.36a190.4 190.4 0 0039.85 19.08c3.23 1.06 6.29 2.11 9.21 2.9 1.46.41 2.85.85 4.21 1.19l3.92 1c2.49.66 4.78 1.08 6.78 1.51l2.79.59 2.36.41 3.27.58.85.17zM448.26 302.33a4.83 4.83 0 010-.59v-1.64c0-1.46-.05-3.51-.08-6.08l.15.15c-7.3.07-19.08.11-32.33.11l.26-.26v8.3l-.25-.26 23 .12 6.82.07H448.34a4.17 4.17 0 01-.6 0h-1.79l-6.76.08-23.18.11h-.26V294l.26-.27c13.25 0 25 .05 32.33.11h.16v.16c0 2.61-.07 4.69-.09 6.17v1.61a3.84 3.84 0 01-.15.55zM366 249.3c0 .15-.9.57-1.94 1.29s-1.79 1.44-1.9 1.34.49-1 1.6-1.77a3.62 3.62 0 012.24-.86zM382.06 260.82a17.61 17.61 0 01-.89 2.63 17.18 17.18 0 01-.84 2.64 5.2 5.2 0 01.34-2.81 5.05 5.05 0 011.39-2.46zM405.82 261.06c-.15 0-.56-1-1.35-2.11s-1.62-1.85-1.53-2 1.12.48 1.95 1.67a3.83 3.83 0 01.93 2.44zM417.09 247.87c-.12.09-.93-.82-2.18-1.6s-2.41-1.16-2.37-1.31a4.16 4.16 0 012.65.87c1.34.84 2.01 1.96 1.9 2.04z" fill="#263238"/>
    <path d="M418.84 228.15a28.35 28.35 0 011.09 4.43 34.34 34.34 0 01.48 5.34 29.84 29.84 0 01-.66 7.06 28 28 0 01-3.06 8 26.42 26.42 0 01-6.45 7.48 30.87 30.87 0 01-9.59 5.2 35.41 35.41 0 01-11.58 1.78 32.26 32.26 0 01-20.85-7.81 34.1 34.1 0 01-9.89-15.42 35.49 35.49 0 01-1.39-7 34.28 34.28 0 010-5.36q.1-1.1.21-2c.09-.56.19-1 .26-1.4l.19-.86a2.72 2.72 0 01.07-.29 1.36 1.36 0 010 .3c0 .22-.08.51-.13.87s-.14.86-.22 1.4-.1 1.22-.16 1.94a36.45 36.45 0 00.11 5.32 35.85 35.85 0 001.45 6.88 34.08 34.08 0 009.85 15.17 32 32 0 0020.51 7.82 35 35 0 0011.41-1.75 30.52 30.52 0 009.45-5.08 26.13 26.13 0 006.37-7.32 27.57 27.57 0 003.08-7.9 30.11 30.11 0 00.73-7 36.75 36.75 0 00-.39-5.31c-.24-1.44-.45-2.56-.65-3.31l-.19-.85a1.4 1.4 0 01-.05-.33zM316.76 237.93l1-.25c-2.09-8.7-1.86-17.92-1-26.89 1-10.82 2.88-21.63 2.36-32.49s-3.72-22.06-11.36-29.78l-24-13.72c-44.22-5.79-63.34 26.64-70 42.89s-8.79 33.94-12.06 51.2c-1.33 7-3.14 14.48-8.49 19.19-3.73 3.29-8.92 5-11.75 9-3.45 5-2.4 12.34-6.45 16.87-3.66 4.1-10 4.29-14.6 7.38-5 3.37-7.07 9.78-7.25 15.8s1.18 12 1.53 18c.59 10.26-1.78 20.44-2.35 30.69s3.31 21.4 10.42 28.81l5.44-50s6.55-40.8 14.68-49.17c0 0 10.55-9.79 23-14.8 16.63-6.67 36.19-5.81 36.19-5.81.1 8.74 13.61 30.3 30.64 29.12s16.87-27.53 16.87-27.53l12 7a36.22 36.22 0 0117.64 26.52l.12.95z" fill="#263238"/>
    <path fill="#f5f5f5" d="M317.01 237.42l-37.26 12.16 3.66 56.73 41.84-11.21-8.24-57.68z"/>
    <path d="M183.12 275c-8.13 8.38-15.76 49.27-15.76 49.27l44.58 22.82-20.23 115.5h129.23s-2.82-85.63 2.24-112.33c2.21-11.63-1.08-41.38-3.64-60.7A36.19 36.19 0 00301.9 263l-12-7s.1 26.35-16.9 27.54-30.54-20.38-30.64-29.12c0 0-19.57-.86-36.2 5.81-12.49 5.01-23.04 14.77-23.04 14.77z" fill="#ff725e"/>
    <path fill="#b78876" d="M168.18 324.7l-15.01 137.89 38.54.02 20.73-115.88-44.26-22.03z"/>
    <path d="M316.21 278.49c4.75 15.82 13.62 28.86 15.88 45.45 2.58 18.9-7.78 38.89-24.71 47.67" fill="#ff725e"/>
    <path d="M327.27 306.31a2.21 2.21 0 01-.25-.48l-.62-1.41c-.53-1.24-1.27-3-2.15-5.28-1.78-4.47-4.1-10.7-6.92-17.47a36.22 36.22 0 00-5-8.93 39.39 39.39 0 00-5.81-6 55.27 55.27 0 00-4.53-3.42 20.17 20.17 0 01-1.72-1.2 2.58 2.58 0 01.49.24c.31.18.77.42 1.34.79a44.68 44.68 0 014.65 3.3 38 38 0 016 6 36.09 36.09 0 015.11 9c2.82 6.79 5.09 13 6.78 17.54.82 2.2 1.5 4 2 5.33l.53 1.45a1.81 1.81 0 01.1.54zM278.36 331.42a1.78 1.78 0 01.16.42c.08.29.23.7.35 1.26a24.21 24.21 0 01.63 4.75 26.15 26.15 0 01-16 25.23 24 24 0 01-4.57 1.45c-.56.13-1 .17-1.29.22a1.29 1.29 0 01-.45 0l1.69-.45a26.65 26.65 0 0020.27-26.47 27.64 27.64 0 00-.46-4.72 12.55 12.55 0 01-.33-1.69z" fill="#263238"/>
    <path d="M262.8 363.18c-5.63 1.6-11.79 2.39-17.78 3.35a2.18 2.18 0 00-1.33.55c-.78.89.29 2.2 1.3 2.82a25.26 25.26 0 0038.36-19.44c.14-1.7-.15-3.83-1.76-4.42-1.86-.69-3.84 1.1-4.64 2.91-3.06 6.94-6.66 10.31-14.15 14.23" opacity=".3"/>
    <path d="M213.12 322.06a11.81 11.81 0 01-1.67-.51c-1.06-.36-2.58-.9-4.46-1.6-3.75-1.38-8.89-3.41-14.5-5.82s-10.62-4.75-14.21-6.52c-1.79-.88-3.24-1.62-4.22-2.14a11.92 11.92 0 01-1.52-.86 10.69 10.69 0 011.6.68c1.1.5 2.55 1.17 4.3 2 3.63 1.68 8.65 4 14.25 6.38s10.72 4.47 14.44 5.95l4.39 1.75a10.8 10.8 0 011.6.69zM277.61 342.68a5.24 5.24 0 01-.61.2l-1.77.49c-1.53.42-3.77 1-6.55 1.56a180.94 180.94 0 01-44.2 3.9c-2.85-.11-5.15-.25-6.73-.39l-1.82-.17a3 3 0 01-.64-.1 3.91 3.91 0 01.64 0l1.83.08c1.59.08 3.89.16 6.73.22a203.24 203.24 0 0044.11-3.89c2.79-.56 5-1 6.58-1.4l1.79-.39a2.32 2.32 0 01.64-.11zM330.85 339.25a1.87 1.87 0 01-.46.23L329 340l-1 .39-1.23.33a24.06 24.06 0 01-3 .69l-1.79.29c-.62.07-1.28.11-2 .17-1.35.15-2.8.12-4.32.16-3 0-6.38-.27-9.86-.58s-6.8-.62-9.82-.77c-1.51 0-2.95-.11-4.29-.06-.67 0-1.32 0-2 .05l-1.78.14a28.51 28.51 0 00-3.06.39l-1.25.2-1 .25-1.43.34a.26.26 0 110-.1l1.41-.43 1-.3c.38-.09.8-.16 1.25-.25a30 30 0 013.07-.47l1.8-.17c.63-.05 1.28-.05 2-.08 1.35-.07 2.79 0 4.31 0 3 .13 6.37.4 9.85.73s6.81.55 9.83.62c1.51 0 2.94 0 4.28-.11.67-.05 1.32-.08 1.94-.14l1.77-.26a51.27 51.27 0 007.17-1.78zM322.33 301s-.07.05-.22.14l-.69.35c-.61.29-1.48.79-2.67 1.28a64.84 64.84 0 01-10.33 3.54 94.8 94.8 0 01-16 2.57 194.89 194.89 0 01-19.81.45c-7-.15-13.71-.4-19.79-.42s-11.56.18-16.13.63A100.07 100.07 0 00226 311.1c-1.27.23-2.23.5-2.9.63l-.75.16a.86.86 0 01-.26 0l.24-.08.75-.21c.65-.17 1.61-.47 2.87-.73a90.79 90.79 0 0110.77-1.74 153.14 153.14 0 0116.17-.74c6.09 0 12.78.23 19.8.38s13.7.07 19.76-.41a97.64 97.64 0 0015.93-2.45 70.06 70.06 0 0010.33-3.36c1.2-.46 2.08-.93 2.71-1.19l.71-.31zM313.13 277.69s0 .07-.16.18l-.5.51c-.46.43-1.07 1.13-2 1.88a43.36 43.36 0 01-8.35 5.67A54.54 54.54 0 01288 291a70.52 70.52 0 01-18.27 1.42 104.55 104.55 0 01-18.13-2.71c-5.49-1.3-10.36-2.77-14.41-4.09s-7.3-2.46-9.54-3.26l-2.58-.94-.66-.25-.23-.11a.79.79 0 01.24 0l.69.21 2.6.85c2.27.74 5.53 1.83 9.6 3.1s8.92 2.71 14.39 4a107.42 107.42 0 0018.06 2.66 71.35 71.35 0 0018.14-1.37 55.29 55.29 0 0014-4.9 46.14 46.14 0 008.39-5.5c.94-.73 1.58-1.41 2.06-1.8.22-.19.39-.35.54-.47s.24-.16.24-.15zM246 264a22.37 22.37 0 01-3.16.29c-2 .13-4.66.32-7.63.6s-5.66.58-7.61.81a22.86 22.86 0 01-3.17.3 16.84 16.84 0 013.12-.66c1.93-.33 4.63-.7 7.61-1s5.7-.41 7.66-.45a17.75 17.75 0 013.18.11zM305.16 265.05a14.59 14.59 0 01-2.48.05c-1.53 0-3.64.06-6 .29s-4.4.6-5.9.9a17 17 0 01-2.44.45 9.22 9.22 0 012.36-.81 39.24 39.24 0 0111.95-1.2 10.22 10.22 0 012.51.32zM219 289.16a8.29 8.29 0 01-1.4-.49l-3.75-1.48c-3.18-1.24-7.59-2.88-12.53-4.48s-9.48-2.87-12.78-3.73l-3.91-1a7.83 7.83 0 01-1.42-.42 9.45 9.45 0 011.47.22c.93.18 2.29.47 3.95.85 3.32.77 7.89 2 12.85 3.59s9.36 3.31 12.51 4.64c1.57.66 2.83 1.22 3.69 1.63a8.05 8.05 0 011.32.67zM322.17 369.71a1.39 1.39 0 01-.25.11l-.72.25-2.81.95c-1.22.41-2.72.89-4.49 1.39s-3.75 1.12-6 1.66l-3.5.9c-1.22.3-2.5.56-3.82.86-2.64.63-5.49 1.13-8.48 1.7-6 1-12.65 1.93-19.66 2.5s-13.72.66-19.82.57c-3-.1-5.94-.16-8.64-.37-1.35-.09-2.66-.15-3.91-.26l-3.6-.34c-2.3-.19-4.36-.5-6.18-.72s-3.37-.46-4.64-.68l-2.92-.5-.76-.14-.26-.07a1.08 1.08 0 01.27 0l.76.09 2.94.4c1.27.18 2.83.4 4.65.59s3.88.48 6.17.64l3.6.31c1.25.1 2.56.15 3.91.23 2.69.19 5.58.24 8.62.32 6.08.06 12.77-.09 19.77-.61s13.6-1.43 19.6-2.43c3-.56 5.84-1.05 8.48-1.65 1.32-.29 2.6-.54 3.82-.83l3.5-.86c2.24-.52 4.24-1.12 6-1.59s3.28-.92 4.51-1.31l2.83-.85.75-.21a1 1 0 01.28-.05zM317.78 401.08s-.09 0-.28.09l-.87.21-3.32.77c-1.44.34-3.21.72-5.27 1.12s-4.41.91-7 1.36c-5.2 1-11.44 2-18.37 2.92S268.05 409.31 260 410s-15.76 1-22.76 1.17-13.3.16-18.6 0c-2.65 0-5-.15-7.14-.24s-3.91-.18-5.39-.29l-3.4-.23-.88-.08h-.3 1.19l3.4.14c1.48.08 3.29.15 5.39.2s4.49.15 7.14.16c5.29.11 11.59.05 18.58-.11s14.68-.59 22.73-1.21 15.69-1.48 22.63-2.37 13.16-1.86 18.37-2.8c2.61-.43 5-.89 7-1.28s3.84-.73 5.29-1l3.34-.67.87-.16a1 1 0 01.32-.15zM319.93 437.35a1.11 1.11 0 01-.31.08l-.92.18-3.53.65c-.77.13-1.63.3-2.57.44l-3.07.36-3.53.42c-1.25.14-2.58.2-4 .3l-4.37.3-4.75.14-2.51.08h-8c-7.38-.13-15.49-.48-24-1s-16.6-1-24-1.37c-3.68-.13-7.18-.33-10.46-.37l-4.75-.11h-4.37c-2.79 0-5.31.08-7.53.16l-3.08.1-2.59.19-3.59.25-.93.05h-.32a156.44 156.44 0 0118-1.11l4.39-.05 4.75.08c3.28 0 6.78.2 10.47.32 7.38.34 15.48.82 24 1.33s16.6.85 24 1h7.97l2.5-.06 4.74-.11 4.37-.26c1.39-.1 2.71-.14 4-.27l3.53-.38 3.07-.32c.94-.13 1.79-.28 2.56-.39l3.55-.55.93-.13a1.29 1.29 0 01.35.05z" fill="#fff"/>
    <path d="M218.69 279.2a2.66 2.66 0 01.07.6c0 .46.06 1 .1 1.73.07 1.5.12 3.68.13 6.37 0 5.37-.2 12.8-.93 21s-1.78 15.54-2.66 20.84c-.44 2.65-.83 4.79-1.12 6.26-.15.69-.26 1.25-.35 1.69a2.77 2.77 0 01-.16.59 2.54 2.54 0 010-.61c.07-.44.15-1 .26-1.71.23-1.55.56-3.68 1-6.28.79-5.31 1.78-12.66 2.5-20.82s1-15.57 1.09-20.94v-6.35-1.73a3.2 3.2 0 01.07-.64z" fill="#263238"/>
    <path d="M201.29 407.94l-.21.44.19-.06a2.08 2.08 0 00.02-.38zM223.37 391.73c-5.67 7.35-12.3 14.23-22.1 16.59-.35 3.84-5.58 36.26-8.44 48.95 6-6.61 12.15-13.52 14.66-22.07 1.08-3.65 1.48-7.57 3.3-10.91 1.53-2.83 4-5 6.28-7.27s4.6-4.65 5.71-7.67 3.02-15.51.59-17.62zM217.46 309.24c-2.17 14.19-3.07 32.41-6.58 46.73-.64 2.61-1.82 9.67-1.82 9.67 1 2.5 3 1.74 5.16.1l3.66-3.4c3.12-16.48 2.25-36.54-.42-53.1z" opacity=".3"/>
    <path d="M313.9 173.05a29.75 29.75 0 00-5.51-26.68c-4.53-5.49-11-9.17-17.69-11.47-9-3.1-19.16-3.84-28.1-.46s-16.42 11.31-17.75 20.77c-.61 4.3 0 8.82-1.54 12.88-.67 1.76-1.75 3.57-1.31 5.4a4.52 4.52 0 003.78 3.1 10 10 0 005.05-.82c5.49-2.1 10.12-5.92 14.65-9.68" fill="#263238"/>
    <path d="M291.76 148.26l-42.24 9a7.9 7.9 0 00-7.36 7.74l.69 91.46a28.39 28.39 0 006 17.23l4 5.19c9.22 11.84 27.83 10.61 34.82-2.66a9.92 9.92 0 001-2.4 17.06 17.06 0 00.39-2.06 65.5 65.5 0 00.71-13.85c.4-8.15.52-11.49.52-11.41s17.29-2.18 21.71-24.5c2.18-11.08 2.3-29.39 1.9-44.37-.38-13.46-8.68-30.3-22.14-29.37z" fill="#b78876"/>
    <path d="M303.22 191.59a2.86 2.86 0 01-2.88 2.8 2.75 2.75 0 01-2.87-2.7 2.88 2.88 0 012.88-2.8 2.75 2.75 0 012.87 2.7zM309.55 187c-.45.49-3-1.81-6.8-2s-6.59 1.84-7 1.31c-.2-.24.28-1.14 1.51-2.07a8.88 8.88 0 015.61-1.68 8.64 8.64 0 015.39 2.2c1.14 1.08 1.51 2.02 1.29 2.24zM271.56 191.59a2.88 2.88 0 01-2.88 2.8 2.74 2.74 0 01-2.87-2.7 2.88 2.88 0 012.87-2.8 2.76 2.76 0 012.88 2.7zM279.11 187.55c-.45.43-3.05-1.56-6.84-1.69s-6.63 1.6-7 1.14c-.19-.2.28-1 1.53-1.79a10 10 0 015.65-1.46 9.5 9.5 0 015.42 1.9c1.13.9 1.46 1.71 1.24 1.9zM289.5 209.84c0-.18 1.93-.44 5.06-.72.8-.06 1.55-.19 1.7-.72a4 4 0 00-.44-2.36c-.67-1.94-1.38-4-2.11-6.1-2.93-8.69-5-15.82-4.67-15.94s3 6.84 5.94 15.52l2 6.14a4.52 4.52 0 01.3 3.11 2 2 0 01-1.34 1.11 5.29 5.29 0 01-1.35.14c-3.14.05-5.08-.02-5.09-.18z" fill="#263238"/>
    <path d="M290.29 246.54a57.17 57.17 0 01-29.74-9.12s7 15.8 29.5 14.53zM287.92 217.25A5.61 5.61 0 00283 215a5.15 5.15 0 00-3.59 1.76 3.23 3.23 0 00-.38 3.68 3.75 3.75 0 004 1.17 11.68 11.68 0 004-2.21 3.36 3.36 0 00.92-.88 1 1 0 000-1.15" fill="#aa6550"/>
    <path d="M280.32 211.64c.5 0 .38 3.35 3.17 5.84s6.38 2.25 6.39 2.72c0 .22-.83.63-2.34.61a8.34 8.34 0 01-5.33-2.08 7.23 7.23 0 01-2.45-4.89c-.08-1.41.33-2.22.56-2.2zM280 177.14c-.34.83-3.41.31-7.06.62s-6.62 1.18-7.07.41c-.2-.37.34-1.14 1.55-1.91a12.3 12.3 0 0110.77-.79c1.29.59 1.94 1.27 1.81 1.67zM309.16 173.45c-.57.68-2.68-.12-5.24-.25s-4.75.3-5.22-.46c-.21-.36.16-1.05 1.13-1.69a7.3 7.3 0 014.3-1 7.19 7.19 0 014.13 1.57c.88.76 1.15 1.5.9 1.83z" fill="#263238"/>
    <path d="M247.13 202.84c.06-1.67-1.72-5.68-3.36-6-4.38-.85-12.33-.79-12.82 10.4-.66 15.28 14.82 12.79 14.87 12.36s1.11-11 1.31-16.76z" fill="#b78876"/>
    <path d="M241.4 213.6c-.07 0-.28.18-.74.37a2.68 2.68 0 01-2-.05c-1.59-.66-2.84-3.29-2.79-6a8.74 8.74 0 01.91-3.78 3.09 3.09 0 012.09-2 1.36 1.36 0 011.54.8c.19.43.08.73.16.76s.34-.24.24-.87a1.69 1.69 0 00-.56-1 2 2 0 00-1.45-.45 3.75 3.75 0 00-2.89 2.25 9.08 9.08 0 00-1.11 4.22c0 3.08 1.42 6 3.6 6.77a2.87 2.87 0 002.45-.3c.5-.32.6-.69.55-.72z" fill="#995037"/>
    <path d="M294 145.69a20.93 20.93 0 01-14.47 15.74c-3.85 1.09-8.46 1.33-10.8 4.58s-1.11 8.24-3.34 11.67c-3.08 4.75-11.28 4.38-13.62 9.54-1 2.25-.56 5-1.62 7.21-1.42 3-5.37 4.17-8.49 3.12s-5.4-3.89-6.56-7a30.7 30.7 0 01-1.45-9.74c-.22-6.48-.15-13.11 1.93-19.25 4.36-12.88 23.45-30.45 37-29.26" fill="#263238"/>
    <path d="M270.5 198.91a18.78 18.78 0 00-5.35-2.9 19 19 0 00-6.06-.53 4.33 4.33 0 011.79-.42 11.83 11.83 0 018.36 2.52 4.46 4.46 0 011.26 1.33z" fill="#aa6550"/>
    <path d="M221.91 246a95.06 95.06 0 015.33 43.54c-1.75 15.5-7.31 31.11-3.81 46.31a24.22 24.22 0 006 11.85c3.17 3.18 7.84 5.06 12.23 4.12 4.77-1 8.39-5.17 10.13-9.73s1.92-9.54 2.08-14.42l.92-27.71c.27-8 .39-16.59-4-23.32-2.55-4-6.69-7.54-6.44-12.24.3-5.74 7.15-9.66 7.08-15.4s-6.61-9-8.19-14.45c-1.34-4.56.81-10.5-2.79-13.61-3-2.64-7.89-.89-10.9 1.79a23.07 23.07 0 00-6.49 23.56" fill="#263238"/>
    <path d="M472.54 462.61h138.21l-7.86-88.79 1.11-54.66 9.72-46.37-56.14-25-15.72-7.54-45.52 5.75-8.64 5.28-4.7 9.45-20.24 15.63a3.75 3.75 0 00-1.44 3.37l3.82 51.32 7.53 53.85z" fill="#ff725e"/>
    <path d="M494.53 250.48c0 .6-4.4 13.38-4.4 13.38v6.2l34.75 26.76 28.34-31.92-8.83-17.9-5.55-.18 2.62-9.49-.93-1-44.19 8z" fill="#ffbe9d"/>
    <path d="M552.88 245.57a4.1 4.1 0 01.6.49c.38.35 1 .84 1.66 1.53a32 32 0 015.07 6.62c.21.39.44.78.67 1.19s.39.85.6 1.29c.44.87.75 1.83 1.13 2.81a35.39 35.39 0 011.53 6.52 55.47 55.47 0 01-.28 15.43l-.07.49-.37-.34a34.08 34.08 0 00-2.91-2.44 15 15 0 00-3.75-2.11 7.09 7.09 0 00-4.06-.31 2.9 2.9 0 00-1.64 1c-.47.47-.89 1-1.34 1.52a7.17 7.17 0 01-.72.74c-.28.24-.54.42-.81.62l-1.56 1.17-11 8.19-7.42 5.48-2 1.47a4.85 4.85 0 01-.73.48 6.22 6.22 0 01.67-.57l2-1.54 7.32-5.62 10.9-8.27 1.56-1.18a7.18 7.18 0 001.45-1.3c.44-.5.86-1 1.35-1.55a5.69 5.69 0 01.83-.7 2.68 2.68 0 011.05-.41 7.54 7.54 0 014.35.31 15.38 15.38 0 013.89 2.18 35.37 35.37 0 012.95 2.48l-.43.16a55.85 55.85 0 00.34-15.3 35.7 35.7 0 00-1.46-6.45c-.37-1-.67-1.92-1.09-2.78-.2-.44-.4-.87-.58-1.29l-.65-1.18a34.11 34.11 0 00-4.89-6.66c-.67-.71-1.24-1.21-1.59-1.58a4.44 4.44 0 01-.57-.59zM521.61 296.82l-.19-.05-.53-.19-2-.78c-1.78-.67-4.38-1.64-7.67-2.79a232.76 232.76 0 00-27.09-7.59l.3-.18c-1.26 4.68-2.63 9.74-4 15l-.59 2.17-.33 1.2-.18-1.23a86.8 86.8 0 01-.65-20.56 79.7 79.7 0 013.16-16.41 75.29 75.29 0 014.05-10.46c.56-1.2 1.06-2.1 1.38-2.72l.37-.69c.09-.16.14-.23.14-.23a.84.84 0 01-.09.25l-.33.72c-.29.63-.76 1.54-1.29 2.75a82.67 82.67 0 00-3.88 10.49 81 81 0 00-3 16.34 87.53 87.53 0 00.7 20.44h-.51c.18-.69.38-1.43.58-2.17 1.42-5.24 2.8-10.3 4.07-15l.06-.23.23.05a215 215 0 0127.08 7.79c3.29 1.18 5.87 2.2 7.63 2.93l2 .85.51.23z" fill="#263238"/>
    <path d="M603.54 346.15l6 12.35a5.27 5.27 0 007.1 2.41l33.75-17.38 1.53-6.6-7.75-9.59h-2.58s-15.16-40-17-45.13-18.42-14.92-18.42-14.92l-5.91 45z" fill="#ff725e"/>
    <path d="M602.81 310.65c.15 0 .51 16.68.81 37.26s.43 37.28.28 37.28-.5-16.68-.8-37.27-.43-37.27-.29-37.27z" fill="#263238"/>
    <path d="M681.6 288.68l-.1-13.48-.08-10.05c0-1.27-.1-2.31-.18-3-.51-4.84-5.53-6.94-5.53-6.94l-2.6-4.22a6.2 6.2 0 00-6.79-3s-1-10.59-.43-18c.64-7.82-.2-9.32-3.7-8.11s-6.05 27.5-6.05 27.5-3.89-8.72-7.55-16.57-7.09-5.47-7.71-3.65c-.76 2.28 3.57 15.75 6.58 24.56 1.53 4.48 2.71 7.77 2.71 7.77s-1.32 6.68-1.73 11.19a13.72 13.72 0 000 3.46c.59 2.78 8.93 15.87 8.93 15.87l2.89 6.75" fill="#ffbe9d"/>
    <path d="M667.15 283.62a3.59 3.59 0 00.56-1.17 10.21 10.21 0 00.55-3.64 10.48 10.48 0 00-1.66-5.46 11.08 11.08 0 00-5.84-4.53l-.13.78a19.73 19.73 0 007.67-1 8.49 8.49 0 005.62-6.41c0-.23 0-.46.06-.67v-.39l-.41-.06-12.84-2a13.61 13.61 0 00-3-.23 5 5 0 00-2.75 1 8 8 0 00-2.63 4.32c-.43 1.49-.55 2.85-.78 4a15.34 15.34 0 01-.75 2.92 11.68 11.68 0 01-1.26 2.24s.21-.12.52-.45a6.53 6.53 0 001.06-1.65 14.84 14.84 0 00.93-3c.27-1.17.44-2.53.88-3.93a7.43 7.43 0 012.47-3.9c1.33-1 3.24-.88 5.17-.53l12.87 2.14-.39-.46a5.66 5.66 0 010 .57 7.68 7.68 0 01-5 5.71 19.26 19.26 0 01-7.34 1h-2.72l2.59.81a10.54 10.54 0 015.54 4.13 10.42 10.42 0 011.74 5.12 14.52 14.52 0 01-.73 4.74z" fill="#eb996e"/>
    <path d="M668.32 268.57c-.06 0-.14.31-.2.89a7.1 7.1 0 00.14 2.51 3.65 3.65 0 002.68 2.73 2.71 2.71 0 002.33-.7 6.41 6.41 0 001.4-2c2.67-5.7 4.63-10.39 4.4-10.5s-2.56 4.43-5.21 10.1c-.62 1.37-1.62 2.51-2.78 2.28a3.05 3.05 0 01-2.21-2.1 9.7 9.7 0 01-.4-2.31c-.04-.57-.08-.9-.15-.9zM669.43 261c.25.07.79-1.46 2-3s2.54-2.41 2.42-2.64-1.8.37-3.13 2.08-1.53 3.56-1.29 3.56zM661.19 259.09c.26 0 .63-2.2 1.77-4.68a20.82 20.82 0 011.68-3c.49-.71 1-.7 1.05-.81s-.12-.18-.43-.17a1.78 1.78 0 00-1.09.54 11.09 11.09 0 00-2 3.1c-1.25 2.61-1.17 5.02-.98 5.02z" fill="#eb996e"/>
    <path d="M617.45 360.58c.26 1 9.2 13 18.71 26.12a25.89 25.89 0 0026.58 10.11A25.9 25.9 0 00683 371.59l-1.45-84-22.53 8.56-7.6 53.43-2.17-5.5z" fill="#ffbe9d"/>
    <path d="M647.86 332.1c.07.12-7.94 5-17.9 10.91s-18.09 10.59-18.16 10.47 7.94-5 17.9-10.92 18.09-10.56 18.16-10.46zM641.64 327c.08.12-7 4.95-15.88 10.78s-16.09 10.46-16.16 10.34 7-4.94 15.87-10.78 16.09-10.48 16.17-10.34z" fill="#263238"/>
    <path d="M487.3 285.51c-1.08-.37-2.39-.69-3.24.05a3.36 3.36 0 00-.86 1.84l-2.34 10.2.22.25q2.1 4 4.18 8.11l3.17-11.27A162.6 162.6 0 01517 295c-9.47-3.41-20-6.19-29.7-9.49zM526.26 297.42a181.28 181.28 0 0122.42-11.57 6.75 6.75 0 013.14-.77 6.92 6.92 0 013.28 1.55l6 4.27a2.49 2.49 0 001.76.66c.81-.13 1.27-1 1.57-1.76a31.24 31.24 0 00.17-22.07 60.13 60.13 0 00-1.34 14c-2-3.08-5.72-5.23-9.37-4.71-2.81.4-5.17 2.23-7.39 4l-20.2 16M611.89 352.93a43.26 43.26 0 0113.83-12.25 129.3 129.3 0 0116.87-7.86c.53-.22 1.26-.38 1.58.1s-.3 1.25-.9 1.59l-29.87 17.42" opacity=".3"/>
    <path d="M526.92 354.21a2.21 2.21 0 01-.29.23l-.87.62a23.35 23.35 0 01-3.63 1.93 23.85 23.85 0 01-6.28 1.7 25 25 0 01-8.6-.35 22.7 22.7 0 01-9.41-4.45 24.75 24.75 0 01-7.27-9.48 23.18 23.18 0 01-1.79-13.05 14.41 14.41 0 012.84-6.44 8.14 8.14 0 016.44-3.17 9.8 9.8 0 016.57 3 11.88 11.88 0 013.4 6.16 10.89 10.89 0 01-.73 6.75 7.17 7.17 0 01-2.11 2.61 6.56 6.56 0 01-3 1.23 10.9 10.9 0 01-6.08-1.25 46.67 46.67 0 01-5-2.95l-8.78-5.61-12.69-8.15-3.44-2.24-.89-.59a1.94 1.94 0 01-.29-.22 1.59 1.59 0 01.32.17l.92.55 3.49 2.16 12.78 8 8.81 5.56a48.27 48.27 0 005 2.9 10.59 10.59 0 005.81 1.19 6.21 6.21 0 004.77-3.59 10.43 10.43 0 00.68-6.43 11.46 11.46 0 00-3.26-5.89 9.35 9.35 0 00-6.22-2.84 7.63 7.63 0 00-6 3 13.78 13.78 0 00-2.73 6.21 22.68 22.68 0 001.61 12.74 24.36 24.36 0 007.1 9.33 22.36 22.36 0 009.22 4.43 25 25 0 008.49.42 24 24 0 006.23-1.6 24.69 24.69 0 003.66-1.8l.9-.58zM608.2 277a4.19 4.19 0 01-.43.2 13 13 0 00-1.29.55 17.87 17.87 0 00-4.43 3 26 26 0 00-5.05 6.85 49.05 49.05 0 00-4.06 10.52c-1.16 4-2.17 8.53-4 13.16a33.16 33.16 0 01-3.54 6.83 24.92 24.92 0 01-5.67 5.85 27.18 27.18 0 01-16.43 5.32 23.8 23.8 0 01-9.07-1.88 20.17 20.17 0 01-7.67-5.63 13.61 13.61 0 01-3.27-8.89 12.91 12.91 0 013.39-8.55 9.79 9.79 0 013.81-2.51 9.43 9.43 0 014.46-.42 12 12 0 017.36 4.27 11.48 11.48 0 012.05 3.63 12.33 12.33 0 01.65 4 15.33 15.33 0 01-2 7.4 16.87 16.87 0 01-4.78 5.36 20.42 20.42 0 01-5.93 2.95 28.15 28.15 0 01-11.27 1 45.22 45.22 0 01-8.4-1.71c-2.25-.67-4-1.3-5.13-1.73l-1.31-.5c-.29-.12-.44-.2-.44-.2s.16 0 .46.15l1.33.45c1.17.4 2.89 1 5.15 1.63a45.74 45.74 0 008.36 1.62 27.92 27.92 0 0011.14-1.09 20.06 20.06 0 005.8-2.93 16.36 16.36 0 004.64-5.24 14.91 14.91 0 002-7.19 11.26 11.26 0 00-2.61-7.34 11.53 11.53 0 00-7.06-4.08 9 9 0 00-7.83 2.79 12.41 12.41 0 00-3.24 8.21 13.09 13.09 0 003.15 8.55 19.61 19.61 0 007.48 5.48 23.06 23.06 0 008.86 1.85 26.86 26.86 0 0016.15-5.19 25 25 0 005.58-5.73 33.27 33.27 0 003.51-6.73c1.8-4.58 2.83-9.07 4-13.1a48.84 48.84 0 014.16-10.56 25.55 25.55 0 015.22-6.78 16.86 16.86 0 014.51-3 14.84 14.84 0 011.69-.64zM555.7 374.16c-.08.08-1.28-1.15-3.59-2.63a20.25 20.25 0 00-2-1.1c-.7-.39-1.5-.7-2.33-1.06a26 26 0 00-11.54-1.67c-.9.11-1.75.18-2.54.35a19 19 0 00-2.18.51c-2.63.75-4.13 1.6-4.18 1.5a4.5 4.5 0 011-.61 8.67 8.67 0 011.28-.6 15.07 15.07 0 011.76-.65 18 18 0 012.2-.57 23.25 23.25 0 012.58-.41 27.57 27.57 0 016 .14 27 27 0 015.77 1.57 20.77 20.77 0 012.36 1.12 17.31 17.31 0 011.95 1.18 14.63 14.63 0 011.5 1.12 8.84 8.84 0 011.06.93 5.26 5.26 0 01.9.88zM604.23 388.94s-.13.42-.33 1.25-.43 2.06-.77 3.65a18.39 18.39 0 01-.73 2.61 5.73 5.73 0 01-1.81 2.68 4.73 4.73 0 01-1.67.73 17.85 17.85 0 01-1.88.38 21.62 21.62 0 01-4.15.19 37.2 37.2 0 01-9.35-1.7 21.6 21.6 0 01-9.31-5.6 15.57 15.57 0 01-3.18-5 12.07 12.07 0 01-.73-6.15 11.22 11.22 0 012.68-5.82 8.75 8.75 0 0112.15-.88 7.43 7.43 0 012.39 5.9 10.5 10.5 0 01-2.09 5.83 12.83 12.83 0 01-4.62 3.73 26.45 26.45 0 01-10.64 2.33 28.78 28.78 0 01-9.42-1.13 20.09 20.09 0 01-6.93-3.64 17.41 17.41 0 01-3.9-4.44 13.93 13.93 0 01-1.53-3.42 8.92 8.92 0 01-.28-1.27s.12.44.39 1.24a14.23 14.23 0 001.59 3.34 17.43 17.43 0 003.91 4.32 20.08 20.08 0 006.85 3.52 28.7 28.7 0 009.31 1.05 26 26 0 0010.43-2.33 12.31 12.31 0 004.44-3.59 10 10 0 002-5.55 6.91 6.91 0 00-2.22-5.5 8.25 8.25 0 00-11.43.84 10.66 10.66 0 00-2.55 5.55 11.62 11.62 0 00.68 5.89 15.3 15.3 0 003.08 4.86 21.07 21.07 0 009.09 5.52 36.82 36.82 0 009.22 1.75 21.84 21.84 0 004.09-.16 8.68 8.68 0 003.43-1 5.62 5.62 0 001.75-2.54 20 20 0 00.76-2.57c.37-1.57.62-2.81.87-3.63a7.61 7.61 0 01.41-1.24zM474.09 406.09a7.53 7.53 0 002.41-.66 10.15 10.15 0 004.44-5c.61-1.31 1.11-2.83 1.69-4.46a20 20 0 012.44-5 18.65 18.65 0 0110.25-7.18 17.85 17.85 0 016.54-.6 16.41 16.41 0 015.88 1.72 18.66 18.66 0 017.48 7 17.32 17.32 0 012.37 6.52c0 .4.09.76.13 1.09s0 .56 0 .8a3.21 3.21 0 010 .65 2.8 2.8 0 01-.09-.65c0-.23 0-.49-.06-.79s-.11-.67-.18-1.07a17.73 17.73 0 00-2.48-6.36 18.59 18.59 0 00-7.39-6.78 15.9 15.9 0 00-5.71-1.64 17.5 17.5 0 00-6.35.59 18.37 18.37 0 00-10 6.95 19.57 19.57 0 00-2.46 4.88c-.6 1.61-1.12 3.14-1.77 4.47a10.06 10.06 0 01-4.69 5 5.75 5.75 0 01-1.83.49 2.92 2.92 0 01-.5 0c-.07.05-.12.04-.12.03zM528.34 457.79a24.93 24.93 0 01-4.4 1 32.89 32.89 0 01-12.27-.53 31.59 31.59 0 01-15.83-8.79 12.46 12.46 0 01-2.7-4.61 8.86 8.86 0 01.12-5.57 6.69 6.69 0 014.11-4 12 12 0 015.93-.26 27.69 27.69 0 015.67 1.68 8.3 8.3 0 014.45 3.66 4.9 4.9 0 01.43 2.84 6.56 6.56 0 01-1 2.63 12.54 12.54 0 01-3.79 3.75 23.56 23.56 0 01-28.62-1.45 18 18 0 01-3.12-3.26s.08.06.22.2l.58.64a26.56 26.56 0 002.45 2.27 24.27 24.27 0 0011 5 23.73 23.73 0 0017.22-3.81 12.31 12.31 0 003.64-3.62 5.13 5.13 0 00.52-5 7.79 7.79 0 00-4.2-3.4 26.54 26.54 0 00-5.55-1.65 11.65 11.65 0 00-5.67.24 6.2 6.2 0 00-3.81 3.68 8.42 8.42 0 00-.11 5.25 12 12 0 002.58 4.43 22 22 0 003.7 3.29 31.54 31.54 0 004 2.5 34.17 34.17 0 0020 3.65 30.38 30.38 0 003.29-.57l.85-.19a.92.92 0 01.31 0zM607.13 433.94a2.18 2.18 0 01-.34-.2l-1-.63a32.84 32.84 0 00-4-2.09 31.66 31.66 0 00-6.75-2.09 30.42 30.42 0 00-29.85 11.47 12.87 12.87 0 00-2.71 6.31 7 7 0 002.5 6.35 8.89 8.89 0 007.14 1 14 14 0 006.7-3.67 13.19 13.19 0 003.73-6.65 14.34 14.34 0 00-.35-7.42 14 14 0 00-3.93-6 20.65 20.65 0 00-5.89-3.73 30.63 30.63 0 00-6.38-2l-1.59-.31c-.53-.09-1.05-.15-1.58-.22-1-.17-2.08-.22-3.09-.3a44.44 44.44 0 00-11.3.78 45.32 45.32 0 00-15.25 6c-.84.48-1.54 1-2.16 1.42s-1.12.81-1.53 1.12l-.93.71-.32.23s.09-.1.29-.27l.9-.75a17.11 17.11 0 011.5-1.16c.62-.44 1.3-1 2.14-1.47a45.31 45.31 0 0126.68-7c1 .07 2.08.12 3.13.28.53.08 1.06.13 1.6.22l1.6.31a31.09 31.09 0 016.48 2 21 21 0 016 3.8 14.57 14.57 0 014.09 6.21 14.76 14.76 0 01.36 7.7 13.78 13.78 0 01-3.87 6.91 14.48 14.48 0 01-7 3.79 11.77 11.77 0 01-3.92.24 7.57 7.57 0 01-3.63-1.37 6.63 6.63 0 01-2.25-3.09 8.59 8.59 0 01-.44-3.72 13.36 13.36 0 012.81-6.54 30.93 30.93 0 0120.88-11.89 30.26 30.26 0 019.42.41 31.1 31.1 0 016.77 2.2 28.91 28.91 0 013.93 2.18c.43.28.74.52 1 .67a1.86 1.86 0 01.41.26zM490.59 270.76c0 .08-.71-.28-1.87-.52a8.57 8.57 0 00-2.05-.14 9 9 0 00-4.7 1.63 8 8 0 00-1.52 1.38c-.76.9-1.06 1.59-1.15 1.55a4 4 0 01.86-1.78 7.39 7.39 0 011.53-1.54 8.58 8.58 0 015-1.72 7.21 7.21 0 012.15.27 4 4 0 011.75.87zM561.54 264.9a12.38 12.38 0 00-7-3.93 7.39 7.39 0 017 3.93zM639.37 317.7a3.9 3.9 0 01-.4.7 14.71 14.71 0 01-1.41 1.84 17.9 17.9 0 01-7 4.8 17.13 17.13 0 01-12.43 0 18.56 18.56 0 01-6.3-4 17.93 17.93 0 01-2.52-3.07 9 9 0 01-1.57-3.82 4 4 0 01.37-2.11 4.45 4.45 0 011.35-1.62 5.1 5.1 0 013.9-1 5.91 5.91 0 013.34 2 7.3 7.3 0 011.64 3.33 10.87 10.87 0 01-1 6.67 17 17 0 01-3.4 4.81 17.69 17.69 0 01-7.25 4.35 16.17 16.17 0 01-2.26.5 4.76 4.76 0 01-.8.07 4.47 4.47 0 01.78-.18 20.23 20.23 0 002.22-.58 18.07 18.07 0 007.07-4.39 16.88 16.88 0 003.27-4.73 10.52 10.52 0 00.94-6.39 6.82 6.82 0 00-1.54-3.1 5.39 5.39 0 00-3.06-1.81 4.61 4.61 0 00-3.5.9 3.64 3.64 0 00-1.51 3.28 8.48 8.48 0 001.49 3.58 16.87 16.87 0 002.44 3 17.94 17.94 0 006.11 3.93 17 17 0 006.48 1.16 17.36 17.36 0 005.65-1.09 18.14 18.14 0 006.94-4.6c1.36-1.49 1.91-2.46 1.96-2.43z" fill="#fff"/>
    <path d="M528.5 462.61a2.43 2.43 0 010-.43v-1.25c0-1.13 0-2.75-.08-4.82-.09-4.2-.22-10.24-.39-17.7-.37-15-.88-35.6-1.45-58.4s-1-43.47-1.13-58.42c-.08-7.47-.08-13.52 0-17.71 0-2.07.06-3.68.08-4.81v-1.25a.22.22 0 11.06 0v6.06c.05 4.21.13 10.25.22 17.71.25 15 .73 35.6 1.28 58.41s1 43.45 1.3 58.4c.14 7.48.2 13.53.22 17.71v6.07a3.62 3.62 0 01-.11.43z" fill="#263238"/>
    <path d="M499.57 412.28c-.79-4.51 1.42-9.11 4.59-12.4s7.26-5.53 11.19-7.87a191.22 191.22 0 0036.79-28.45c2.44-2.41 5.93-5.08 8.91-3.38 2.3 1.31 2.62 4.69 1.41 7.05s-3.48 3.94-5.64 5.47c-18.75 13.38-35.09 30.7-56.23 39.85" opacity=".3"/>
    <path d="M573.55 360.58s0 .06-.18.17l-.59.46-2.26 1.79-8.4 6.3-27.84 20.66-15.36 11.32-6.71 4.93a52.45 52.45 0 01-6.05 4 16.35 16.35 0 01-5.68 2 11.5 11.5 0 01-4.53-.23 8.71 8.71 0 01-2.62-1.17 4.68 4.68 0 01-.78-.62 10.22 10.22 0 003.45 1.59 11.63 11.63 0 004.44.14 16.23 16.23 0 005.54-2 52.83 52.83 0 006-4.06l6.68-5L534 389.49 561.9 369l8.5-6.18 2.32-1.65.62-.43a.66.66 0 01.21-.16zM567.9 156.78a15.54 15.54 0 00-1.57-15.69 13.74 13.74 0 00-16.9-12.42c1-1.64-.72-3.57-2.32-4.62-5.29-3.48-12.34-5.65-17.89-2.58a12.88 12.88 0 00-19.8 2c-3.52-.8-7.25-1.36-10.71-.32s-6.55 4.09-6.53 7.7a8.88 8.88 0 00-9.05 3.8 12.3 12.3 0 00-1.4 10c-3-.76-6.28 1.25-7.48 4.12a9.77 9.77 0 001.15 8.87c-5.11 3.53-6.28 11.6-2.37 16.43a3.89 3.89 0 011.09 1.87 4.55 4.55 0 01-.18 1.41 6.1 6.1 0 002.07 5.78 5.16 5.16 0 011.39 1.32 3.79 3.79 0 01.08 2.45c-.71 3.84-.46 8.75 3.07 10.42-1.95 1.22-2.48 3.91-2 6.15s1.82 4.2 2.84 6.25c1.11 2.24 1.91 4.64 3.37 6.66s3.83 3.63 6.31 3.32a2 2 0 00-.05 2.72 6 6 0 002.49 1.62c4.69 2 9.49 4.05 14.58 4.41a45.07 45.07 0 006.57-.18l8.69-.65c4.34-.33 8.78-.68 12.75-2.45s7.46-5.28 8-9.6" fill="#263238"/>
    <path d="M491.25 160.87l-.36-7.16 42.77-9.52c13.23-1.81 28 11 29.24 24.33 1.39 14.76 2.51 32.84 1.1 43.93-2.84 22.31-19.76 25.66-19.76 25.66l.59 35.64-49.2-1.19z" fill="#ffbe9d"/>
    <path d="M560.25 181.66c-.35.38-2.55-1.15-5.61-1s-5.26 1.71-5.61 1.34c-.17-.16.17-.84 1.13-1.58a7.86 7.86 0 014.47-1.54 7.55 7.55 0 014.48 1.3c.96.64 1.3 1.3 1.14 1.48zM528.9 183.24c-.34.38-2.55-1.14-5.61-1s-5.26 1.7-5.6 1.34c-.17-.16.17-.84 1.13-1.59a7.79 7.79 0 014.47-1.53 7.53 7.53 0 014.48 1.29c.96.66 1.3 1.32 1.13 1.49zM540.23 202c0-.18 1.87-.57 4.95-1.06.78-.1 1.51-.28 1.63-.82a4 4 0 00-.6-2.3q-1.19-2.81-2.5-5.88c-3.47-8.38-6-15.28-5.67-15.42s3.43 6.54 6.9 14.92c.84 2.07 1.64 4 2.4 5.93a4.44 4.44 0 01.5 3 2 2 0 01-1.25 1.19 5.34 5.34 0 01-1.32.22c-3.1.29-5.02.36-5.04.22z" fill="#263238"/>
    <path d="M544.23 238.17a58.84 58.84 0 01-30.73-7s8 15.3 30.89 12.56z" fill="#eb996e"/>
    <path d="M531.28 204.36c.5 0 .61 3.28 3.53 5.56s6.44 1.79 6.48 2.26c.06.2-.77.67-2.26.75a8.26 8.26 0 01-5.41-1.7 7.18 7.18 0 01-2.74-4.66c-.17-1.38.17-2.22.4-2.21zM528.83 170.92c-.28.85-3.35.55-6.93 1.09s-6.46 1.62-7 .88c-.22-.35.26-1.15 1.41-2a12.18 12.18 0 0110.57-1.5c1.38.5 2.06 1.14 1.95 1.53zM558.08 167.59c-.52.71-2.65 0-5.19.1s-4.67.61-5.19-.1c-.22-.35.09-1.06 1-1.74a7.51 7.51 0 018.36 0c.94.68 1.25 1.39 1.02 1.74zM515 145a10.94 10.94 0 002.89 4.62c1.43 1.14 3.78 1.38 5 0a4.93 4.93 0 007.6-1 6.73 6.73 0 008.16.31l6.7 1c2.42.37 5.41.51 6.76-1.53.32-.48.53-1.07 1-1.33a3 3 0 011.7-.09 5.68 5.68 0 004.81-2.63 17.15 17.15 0 002.16-5.29c.79-2.83 1.33-6.46-1-8.2a7.35 7.35 0 00-3.26-1.06 16.49 16.49 0 00-7-.1c-2.8.77-5 3-6.59 5.4a3.1 3.1 0 00-2.13-3.72 6.14 6.14 0 00-4.6.7 12.33 12.33 0 00-4.9 4.71 10 10 0 00-8.6 6 7.26 7.26 0 00-5.74-.68 2.61 2.61 0 00-1.66 1.18 1.16 1.16 0 00.7 1.71" fill="#263238"/>
    <path d="M536.44 145a7.33 7.33 0 0011.72 7.85 6.75 6.75 0 007.84 3.9 10.62 10.62 0 006 9 8.19 8.19 0 00.21 6.06 5.11 5.11 0 002.67 2.81 5.78 5.78 0 004.55-.6 8.15 8.15 0 004.38-4.8c.6-2.16-.35-4.8-2.44-5.6a17.75 17.75 0 004.06-6.61 5.71 5.71 0 00.09-4.35c-.67-1.33-2.64-2-3.71-1a6.53 6.53 0 00-7.49-9.09 5.43 5.43 0 00-9.21-3.45M513.9 145c3.16 5.68-.16 13.9-6.39 15.79a5.57 5.57 0 01-.44 10.8 10.42 10.42 0 01-1.89 13.24c2.06 1.06-.05 7-4 6.31-4.57-.77.2-6.74-8.12-6.17l-10.46 21.39c-1.64.74-3.65-.53-4.26-2.22a7.5 7.5 0 01.5-5.25 28.24 28.24 0 001.94-5 2.53 2.53 0 00-.08-1.61c-.36-.75-1.24-1.06-2-1.47-2.74-1.57-3.62-5.2-3.17-8.33s1.9-6 2.77-9a3 3 0 00.07-1.94c-.3-.73-1.07-1.12-1.72-1.56a6.91 6.91 0 011.25-12.08c-1.82-.93-2-3.6-1-5.4s2.72-3 4.21-4.42c2.8-2.65 4.88-6.23 8.37-7.86a9.47 9.47 0 0110.66 2c2.34-1.34 4.93-2.55 7.62-2.34s5.4 2.33 5.35 5M561 174.74a4.76 4.76 0 01-.78 0H547a10.44 10.44 0 00-2.88.28 2 2 0 00-1.16.76 3.12 3.12 0 00-.43 1.43 14.12 14.12 0 00.1 3.3 20.18 20.18 0 002.29 6.74 17.18 17.18 0 005 5.68 13.34 13.34 0 007.08 2.55 9.06 9.06 0 003.53-.57 8.55 8.55 0 002.85-1.89 12.34 12.34 0 003.09-5.57 27.36 27.36 0 00.84-5.6 8.48 8.48 0 00-.71-4.51 4.52 4.52 0 00-2.64-2.1 11 11 0 00-2.18-.47 5.64 5.64 0 01-.78-.12 3.67 3.67 0 01.79 0 10.4 10.4 0 012.23.39 4.71 4.71 0 012.84 2.15 8.82 8.82 0 01.82 4.67 27.52 27.52 0 01-.79 5.69 12.88 12.88 0 01-3.17 5.8 8.7 8.7 0 01-3 2 9.36 9.36 0 01-3.73.62 13.79 13.79 0 01-7.36-2.64 17.56 17.56 0 01-5.2-5.85 20.34 20.34 0 01-2.31-6.92 13.56 13.56 0 01-.08-3.42 3.66 3.66 0 01.51-1.64 2.58 2.58 0 011.4-.92 10.94 10.94 0 013-.26h2.74l8.27.14 2.25.07a3.74 3.74 0 01.79.21zM516.65 174.31l.78-.06 2.25-.06L528 174h2.75a10.52 10.52 0 013 .27 2.45 2.45 0 011.4.92 3.46 3.46 0 01.51 1.63 13.54 13.54 0 01-.08 3.42 20.39 20.39 0 01-2.31 6.93A17.55 17.55 0 01528 193a13.69 13.69 0 01-7.36 2.63 9.36 9.36 0 01-3.73-.62 8.7 8.7 0 01-3-2 12.82 12.82 0 01-3.16-5.79 26.86 26.86 0 01-.79-5.69 8.67 8.67 0 01.82-4.68 4.71 4.71 0 012.83-2.15 10.26 10.26 0 012.23-.38 4.28 4.28 0 01.79 0 4.19 4.19 0 01-.78.12 12.82 12.82 0 00-2.18.47 4.57 4.57 0 00-2.64 2.11 8.56 8.56 0 00-.71 4.51 27.87 27.87 0 00.84 5.59 12.53 12.53 0 003.09 5.57 8.21 8.21 0 002.86 1.89 8.83 8.83 0 003.52.57 13.22 13.22 0 007.08-2.55 17.18 17.18 0 005.06-5.67 20.23 20.23 0 002.28-6.74 13.21 13.21 0 00.1-3.31 3.24 3.24 0 00-.42-1.43 2.1 2.1 0 00-1.17-.76 10.06 10.06 0 00-2.88-.27h-13.2a3.71 3.71 0 01-.83-.11z" fill="#263238"/>
    <path d="M533.25 174.82a113.9 113.9 0 0111.29-.06 24.89 24.89 0 01-5.64.41 25.19 25.19 0 01-5.65-.35z" fill="#263238"/>
    <path d="M498.39 185.76c-.35-.16-14.15-4.56-14 9.63s14.33 11.15 14.35 10.74-.35-20.37-.35-20.37z" fill="#ffbe9d"/>
    <path d="M494.71 200.79c-.06 0-.25.18-.66.37a2.49 2.49 0 01-1.85.05c-1.5-.54-2.79-2.91-2.87-5.46a8.15 8.15 0 01.66-3.55 2.85 2.85 0 011.84-1.91 1.27 1.27 0 011.47.67c.19.39.1.68.18.7s.3-.24.18-.82a1.57 1.57 0 00-.56-.89 1.91 1.91 0 00-1.37-.35 3.47 3.47 0 00-2.57 2.22 8.35 8.35 0 00-.82 4c.11 2.86 1.59 5.52 3.65 6.1a2.66 2.66 0 002.26-.39c.44-.4.51-.71.46-.74z" fill="#eb996e"/>
    <path d="M564 149.49a9.1 9.1 0 01-15.45 9.38 4.58 4.58 0 01-8.64 3 4.31 4.31 0 01-2.65 4c-1.61.53-3.68-.65-3.66-2.34-1.34 2.16-5.36 1.35-5.77-1.15a5.86 5.86 0 01-3.33 2.1c-1.33.13-2.81-1.2-2.27-2.43-1.82 1.23-4.73-.81-4.18-2.94a4 4 0 01-6.57.4 2 2 0 01-2.64.06 5.67 5.67 0 01-1.56-2.43 17.19 17.19 0 01-1.61-5.57c-.25-4 2.28-7.86 5.66-10.06 3-2 6.56-2.82 10-3.65 2.4-.57 4.94-1.14 7.32-.47 1.85.53 3.46 1.78 5.36 2.08 1.62.26 3.27-.19 4.9-.31a12 12 0 017.42 1.92 4.54 4.54 0 002.25 1 5 5 0 002.14-.76 7.5 7.5 0 018.18 1.38 14.48 14.48 0 002.49 2.4 25.82 25.82 0 012.56 1.18c.75.55 1.14 1.83.38 2.39" fill="#263238"/>
    <path d="M567.05 166.82a6.7 6.7 0 007.32.4 10.68 10.68 0 004.68-6 8 8 0 000-6.18c-1-1.89-3.44-3.07-5.31-2.08a12.05 12.05 0 00-1-20.65c1.46-2.55 2-5.83.66-8.43s-5.17-3.88-7.46-2c-1.94-4.39-8.28-6-12.11-3.16.95-2.39-.66-5.23-3-6.34s-5.07-.87-7.53-.15a4 4 0 01-2.74.18c-.71-.33-1.13-1.08-1.69-1.63-2.73-2.69-7.23-.1-10.08 2.46-1-1.4-3.21-1.41-4.63-.44a8.44 8.44 0 00-2.8 4.22 3.34 3.34 0 01-1.1 1.75 4 4 0 01-2.55.13 8.14 8.14 0 00-8.48 5.61c-4.05-.93-8.07 4-6.33 7.8-3.59.4-5.6 5.45-3.28 8.22" fill="#263238"/>
    <path d="M538.21 112.55a5 5 0 011.4-.14 7.68 7.68 0 013.8 1.09 7.56 7.56 0 013.63 4.9 8.11 8.11 0 01-2.27 7.5l-.09-.38a7.09 7.09 0 01-.16 13.7l.13-.43a7.16 7.16 0 01.83 1.21 7.49 7.49 0 01-.94 8.58 7.62 7.62 0 01-7.68 2l.1-.46a2.48 2.48 0 011.87 1.66 3.18 3.18 0 01-.05 2.37 6.35 6.35 0 01-3.12 2.91 14.78 14.78 0 01-11.1.91 10.2 10.2 0 01-1.1-.43 1.32 1.32 0 01-.37-.19s.53.19 1.51.47a15 15 0 0010.88-1.1 6 6 0 002.9-2.73 2.79 2.79 0 000-2.05 2 2 0 00-1.52-1.35l.11-.46a7.14 7.14 0 007.17-1.94 6.94 6.94 0 00.09-9.09l-.26-.32.39-.11a6.79 6.79 0 005-6.77 6.89 6.89 0 00-4.78-6l-.38-.1.29-.28a7.72 7.72 0 002.2-7.09 7.25 7.25 0 00-3.39-4.75 8 8 0 00-3.68-1.19c-.92 0-1.41.1-1.41.06zM570.28 128.83s.09 0 .24.16a3.8 3.8 0 01.6.58 6.16 6.16 0 011.37 2.81 6 6 0 01-1 4.66 6.43 6.43 0 01-5.38 2.71l.2-.4a5.85 5.85 0 011.3 3.66 5.6 5.6 0 01-1.46 3.88 6 6 0 01-5.14 1.84l.11-.49a4.44 4.44 0 012.74 2.51 6.06 6.06 0 01.45 3.37 5.72 5.72 0 01-1.27 2.77 7.67 7.67 0 01-2 1.7 10.52 10.52 0 01-3.42 1.33c-.42.08-.74.13-1 .15s-.34 0-.34 0 .46-.1 1.27-.32a11.37 11.37 0 003.29-1.43 7.69 7.69 0 001.83-1.67 5.4 5.4 0 001.13-2.59 5.58 5.58 0 00-.45-3.11 4 4 0 00-2.44-2.23l.11-.49a5.46 5.46 0 004.68-1.7 5.11 5.11 0 001.33-3.52 5.43 5.43 0 00-1.17-3.35l-.34-.42h.54a6 6 0 005-2.46 5.73 5.73 0 001-4.36 6.37 6.37 0 00-1.19-2.77c-.31-.54-.61-.79-.59-.82zM474.73 174.6a1.12 1.12 0 01-.13-.31 6 6 0 01-.27-.92 9.59 9.59 0 01-.1-3.58 9.78 9.78 0 012.28-4.94 10.22 10.22 0 016-3.36l-.2.32a5.45 5.45 0 018.18-6.23l-.39.18a6.14 6.14 0 014-5 5.57 5.57 0 015 .73 5.81 5.81 0 012.13 2.61 3.31 3.31 0 01.25.87c0 .2.05.3 0 .31s-.11-.42-.43-1.11a5.92 5.92 0 00-2.15-2.42 5.31 5.31 0 00-4.71-.59 5.71 5.71 0 00-3.68 4.61l-.05.41-.33-.22a5.07 5.07 0 00-6.05.51 5.14 5.14 0 00-1.38 5.15l.09.28h-.29a9.9 9.9 0 00-5.72 3.15 9.69 9.69 0 00-2.3 4.71 10.54 10.54 0 000 3.5c.15.89.29 1.33.25 1.34zM479.6 181s-.29-.22-.59-.8a4.67 4.67 0 01-.43-2.71 4.44 4.44 0 012.24-3.37 5 5 0 015 .08l-.4.18.08-.36a4.36 4.36 0 011.54-2.25 6.12 6.12 0 012.27-1.1 8 8 0 014.18.24 16.8 16.8 0 012.6 1 3.53 3.53 0 01.89.49c0 .1-1.36-.55-3.59-1.17a8 8 0 00-4-.12 4.65 4.65 0 00-3.42 3c0 .1-.05.21-.07.31l-.09.37-.31-.2a4.51 4.51 0 00-4.45-.1 4.09 4.09 0 00-2.11 3 4.77 4.77 0 00.25 2.57c.23.59.45.88.41.94z" fill="#455a64"/>
    <path d="M601.05 246s-4.9 9.44-4.9 10.05 8.16 9 8.16 9-1 14.2 0 16.85 3.06 18.15 3.06 18.15 6.32-.41 6.72-7.54a119.74 119.74 0 000-13.26s3.67-4.48 6.32-2.44 2.25 34.86 2.25 34.86.61 5.71 5.09 5.1l2.66-5.91 5.5-10.61 4.28-4.48s3.67-4.69 3.06-9-.2-12.44-2-15.5-18.35-23.65-19.57-24.26a63.61 63.61 0 00-8.16-2.34c-.85-.05-12.47 1.33-12.47 1.33z" fill="#a36957"/>
    <path d="M118.24 194.49c12.22-25 38.18-39.31 63.35-28.46l.26.11c23.75 10.49 38.39 28.92 36.37 39.38-6.63 34.3-17.75 40.51-17.75 40.51l-74.35 3.38s-17.85-28.53-8.17-54.16c.1-.25.17-.52.29-.76z" fill="#263238"/>
    <path d="M208.54 222.86c3.43-12.9.25-31.21-12.79-34.09l-42.66-3.22a7.8 7.8 0 00-9.14 5.3L117.42 278a24 24 0 0015.81 29.93 24 24 0 0029.94-15.22l3.72-11s17.05 2.72 27.44-17.23c5.17-9.92 10.39-27.28 14.21-41.62z" fill="#ffbe9d"/>
    <path d="M204 228.85c-.42.3-3.07-.58-6.79-.24s-6.4 1.64-6.81 1.42c-.2-.1.22-.6 1.39-1.2a15.18 15.18 0 015.44-1.46 13.68 13.68 0 015.41.52c1.2.4 1.61.83 1.36.96zM174.58 223.9c-.56 0-2.42-2.37-6-4.29s-6.74-2.36-7-2.81c-.13-.21.55-.42 2-.25a16.4 16.4 0 015.76 1.95 14.66 14.66 0 014.55 3.72c.85 1.05.95 1.69.69 1.68zM176.4 246.63c0-.17 1.95.12 5 .73.77.17 1.52.26 1.82-.21a4 4 0 00.24-2.37c-.1-2-.2-4.15-.3-6.38-.36-9.07-.35-16.43 0-16.44s1 7.33 1.31 16.4q.11 3.34.2 6.39a4.52 4.52 0 01-.59 3 2 2 0 01-1.59.68 5.08 5.08 0 01-1.31-.25c-3-.78-4.83-1.38-4.78-1.55z" fill="#263238"/>
    <path d="M166.89 281.71a56.54 56.54 0 01-25.7-17s2.28 16.84 24 21.92z" fill="#eb996e"/>
    <path d="M172.82 253.22a5.51 5.51 0 00-4-3.51 5 5 0 00-3.9.66 3.2 3.2 0 00-1.39 3.39A3.71 3.71 0 00167 256a11.62 11.62 0 004.46-1 3.54 3.54 0 001.12-.59 1 1 0 00.35-1.08" fill="#ff725e"/>
    <path d="M167.17 245.78c.48.13-.57 3.29 1.38 6.43s5.43 3.92 5.3 4.37c0 .21-.95.36-2.38-.07A8.3 8.3 0 01167 253a7.25 7.25 0 01-1-5.33c.34-1.32 1-1.98 1.17-1.89zM177.56 214.15c-.57.69-3.51-.71-7.25-1.51s-7-.83-7.21-1.7c-.1-.41.66-1 2.09-1.36a12.63 12.63 0 015.76 0 12.84 12.84 0 015.25 2.42c1.16 1 1.62 1.82 1.36 2.15zM203.57 221.78c-.73.49-2.51-.86-4.91-1.7s-4.59-1.05-4.83-1.9c-.09-.4.45-1 1.55-1.28a7.54 7.54 0 017.85 2.9c.62.96.67 1.73.34 1.98z" fill="#263238"/>
    <path d="M128 213.54c-.08.34 3.54 12.86 8.77 13.76 15.82 2.72 29.48-35.49 29.48-35.49l-3.68 14.47 24.29 6.72 3.31-16.92-.65 16.57 20.79 8.13s6.28-27.06-9.13-36.43-62.7-18.8-73.18 29.19z" fill="#263238"/>
    <path d="M137 219.9c-.22-.26-8.4-8.92-13.37 2.58s7.6 14.12 7.76 13.8S137 219.9 137 219.9z" fill="#ffbe9d"/>
    <path d="M129.79 230.4c0-.06-.26.06-.66.06a2.17 2.17 0 01-1.51-.61c-1-1-1.22-3.34-.38-5.44a7.44 7.44 0 011.8-2.63 2.52 2.52 0 012.18-.88 1.1 1.1 0 01.94 1.06c0 .38-.16.58-.1.63s.33-.09.44-.6a1.44 1.44 0 00-.14-.92 1.68 1.68 0 00-1-.77 3.08 3.08 0 00-2.87.88 7.41 7.41 0 00-2.08 2.9c-.92 2.35-.67 5 .78 6.23a2.34 2.34 0 002 .49c.46-.13.63-.36.6-.4z" fill="#eb996e"/>
    <path d="M129.21 235.67s0 .3-.23.78a4.06 4.06 0 01-1.52 1.61 4.48 4.48 0 01-3.26.58 4.47 4.47 0 01-2.59-6.73 4.55 4.55 0 012.81-1.75 4.17 4.17 0 012.22.18c.49.2.7.4.69.43a5.46 5.46 0 00-2.81-.16 4.19 4.19 0 00-2.42 1.64 4 4 0 002.24 5.82 4.18 4.18 0 002.89-.41 5.54 5.54 0 001.98-1.99z" fill="#fafafa"/>
    <path d="M169.61 223.86a2.88 2.88 0 01-2.88 2.8 2.77 2.77 0 01-2.87-2.71 2.89 2.89 0 012.88-2.8 2.76 2.76 0 012.87 2.71zM197.24 233a2.88 2.88 0 01-2.88 2.8 2.76 2.76 0 01-2.87-2.7 2.89 2.89 0 012.88-2.81 2.76 2.76 0 012.87 2.71z" fill="#263238"/>
    <path d="M190.39 213a2.51 2.51 0 01.45.12l1.3.42 4.91 1.66 17.41 6-.27.09a31.1 31.1 0 003.86-10.37 28.73 28.73 0 00-.45-12.27 28 28 0 00-4.08-8.87 26.73 26.73 0 00-3-3.57c-1.08-1.06-2.24-2-3.32-3-2.16-2-4.21-3.88-6.28-5.46s-4.16-2.83-6-4a233.08 233.08 0 00-9-5.39l-2.51-1.37-.65-.36a.83.83 0 01-.22-.14l.24.09.68.31c.59.28 1.46.71 2.56 1.29 2.2 1.16 5.34 2.93 9.13 5.26 1.88 1.19 4 2.42 6.09 4s4.17 3.48 6.35 5.45c1.08 1 2.23 2 3.34 3.05a25.65 25.65 0 013.06 3.63 28.09 28.09 0 014.18 9 29.11 29.11 0 01.44 12.49 31.66 31.66 0 01-4 10.52l-.09.16-.18-.07-17.34-6.23-4.86-1.78-1.28-.48zM121.92 230.25a9.15 9.15 0 01-.79-3 12.89 12.89 0 012-8.14 11.75 11.75 0 014.27-4 21.52 21.52 0 016.41-2.05 67.1 67.1 0 007.2-1.51 26.9 26.9 0 007.06-3.38 38.43 38.43 0 0010.51-10.86 68 68 0 005.73-11.05c1.38-3.28 2.36-6 3.06-7.85.34-.89.61-1.61.81-2.15a4.56 4.56 0 01.31-.73 5 5 0 01-.21.77l-.72 2.18c-.64 1.88-1.57 4.62-2.91 7.92a66.18 66.18 0 01-5.65 11.18 38.48 38.48 0 01-10.63 11 27.13 27.13 0 01-7.2 3.43 63.64 63.64 0 01-7.25 1.49 21.37 21.37 0 00-6.29 2 11.33 11.33 0 00-4.17 3.83 12.93 12.93 0 00-2.08 7.92 18.32 18.32 0 00.54 3zM137.32 187.83c0-.11 1.61 0 4.14-.39a27.32 27.32 0 004.36-1 26.9 26.9 0 009.44-5.49 26.26 26.26 0 003.06-3.27c1.58-2 2.29-3.45 2.39-3.4a5.36 5.36 0 01-.46 1 9.25 9.25 0 01-.66 1.15 16.69 16.69 0 01-1 1.46 24.82 24.82 0 01-3 3.4 27.33 27.33 0 01-4.5 3.32 26.84 26.84 0 01-5.11 2.26 25 25 0 01-4.46 1 16.81 16.81 0 01-1.75.13 9.44 9.44 0 01-1.32 0 5.1 5.1 0 01-1.13-.17zM132 176.1c0-.1 1.19.42 3.15.81a17.63 17.63 0 003.49.34 19 19 0 008.29-1.88 17.85 17.85 0 003-1.81c1.6-1.2 2.41-2.16 2.49-2.09s-.16.27-.53.71a6.7 6.7 0 01-.71.75 9.58 9.58 0 01-1 .92 16.69 16.69 0 01-3 2 19.55 19.55 0 01-4.14 1.49 18.94 18.94 0 01-4.37.44 16.22 16.22 0 01-3.56-.46 12.64 12.64 0 01-1.32-.38 6.84 6.84 0 01-1-.38 3.55 3.55 0 01-.79-.46zM176.56 200.49a13.7 13.7 0 01-1-2.84 43.53 43.53 0 01-1.66-14.47 13 13 0 01.36-3 23.81 23.81 0 010 3 61.9 61.9 0 00.38 7.23 62.85 62.85 0 001.27 7.13 23.14 23.14 0 01.65 2.95zM184.28 200.25a8.54 8.54 0 01-1.51-2.12 21 21 0 01-2.63-12.13 8.35 8.35 0 01.5-2.56 32.23 32.23 0 00.4 8.74 32.23 32.23 0 003.24 8.07z" fill="#455a64"/>
    <path d="M211.06 204.22a4.31 4.31 0 01-1-.21 19.08 19.08 0 01-2.74-.94 26.43 26.43 0 01-3.84-2 28.14 28.14 0 01-7.71-7.15 26.25 26.25 0 01-2.25-3.67 19.72 19.72 0 01-1.14-2.67 4.27 4.27 0 01-.29-1c.09 0 .59 1.39 1.76 3.52a29.61 29.61 0 002.31 3.56 31.8 31.8 0 003.48 3.84 32.76 32.76 0 004.1 3.18 32 32 0 003.72 2c2.17 1.06 3.63 1.44 3.6 1.54z" fill="#455a64"/>
    <path d="M224.46 255.46s-4.09-2.29-6.28-2.09-6.46 2.6-6.46 2.6a7 7 0 00-4.36-.19c-2.21.69-4.31 3.38-4.31 3.38a11.91 11.91 0 00-3-.13c-1.79.12-4.6 7.32-5 9.37-.55 2.89 1.14 4.66 3.6 3s4.78-8.24 4.78-8.24-1 10 3.18 9.69 3.67-8.48 3.67-8.48-1.34 8.79 3 8.22a12.49 12.49 0 005.86-2.38s3.42.15 4.79-4.55a26.21 26.21 0 00.53-10.2z" fill="#ffbe9d"/>
    <path d="M210.11 269.37a2.34 2.34 0 01-.36.76 6.63 6.63 0 01-1.44 1.81 3.75 3.75 0 01-1.46.76 2.79 2.79 0 01-1.91-.17 2.83 2.83 0 01-1.33-1.66 9.88 9.88 0 01-.38-2.16 30.76 30.76 0 01-.07-7.53 12.76 12.76 0 01.54-2.23 2.37 2.37 0 01.35-.77c.08 0-.33 1.15-.52 3.05a37.3 37.3 0 00.22 7.43 9.24 9.24 0 00.35 2 2.33 2.33 0 001.06 1.4 2.83 2.83 0 002.92-.45 7.81 7.81 0 001.5-1.63c.32-.39.5-.63.53-.61z" fill="#eb996e"/>
    <path d="M214.91 272.1s-.09.29-.53.57a2.48 2.48 0 01-2.11.14 3.65 3.65 0 01-2-2.39 11.46 11.46 0 01-.27-3.78 41.17 41.17 0 01.6-6.77 9 9 0 01.81-2.7c.08 0-.21 1.05-.45 2.76a59.83 59.83 0 00-.44 6.73 12 12 0 00.21 3.62 3.35 3.35 0 001.7 2.19 2.36 2.36 0 001.87 0c.4-.18.57-.4.61-.37zM222.39 268.49s0 .33-.35.73a2.16 2.16 0 01-2.13.53 3.36 3.36 0 01-2.16-2.42 16.64 16.64 0 01-.34-3.93 59.12 59.12 0 01.38-7.09 15.2 15.2 0 01.47-2.9 19.19 19.19 0 01-.1 2.94c-.11 1.8-.26 4.29-.23 7a18.08 18.08 0 00.28 3.81 3 3 0 001.81 2.2 2 2 0 001.89-.32c.37-.27.43-.57.48-.55z" fill="#eb996e"/>
    <path d="M173.19 342.68c-3.12-12.78-3.82-18-9.8-25.29-12.48-15.25-12.6-32.55-22.2-37.59-3.3-1.73-4.4-4.74-7-5.71a29.33 29.33 0 00-15.08-1.37s-15.26 7.41-22.94 17.89-18.32 56-18.32 56l-.72 73.81-17.57 42.17h93.61s12.64-66.27 15.88-80.22 5.72-33.24 4.14-39.69z" fill="#455a64"/>
    <path d="M149.4 314.08a2.18 2.18 0 01.54.28c.36.2.85.53 1.47 1a19.6 19.6 0 014.41 4.7 20.08 20.08 0 013.26 9 19.8 19.8 0 01-10.81 19.46 20.06 20.06 0 01-9.34 2 19.27 19.27 0 01-6.32-1.26 15.53 15.53 0 01-1.59-.73 2.38 2.38 0 01-.53-.31c0-.05.77.35 2.19.85a20.5 20.5 0 006.26 1.08 20 20 0 009.12-2 19.53 19.53 0 0010.54-19 20 20 0 00-3.09-8.82 20.69 20.69 0 00-4.23-4.74c-1.17-1.05-1.91-1.46-1.88-1.51zM165.29 388.3a2.37 2.37 0 01-.39-.29c-.23-.21-.61-.48-1-.91a20.66 20.66 0 01-3.16-4 22.91 22.91 0 01-2.89-6.93 21.67 21.67 0 013.31-17.65 22.74 22.74 0 015.21-5.41 20.78 20.78 0 014.38-2.53c.55-.25 1-.37 1.29-.48a1.37 1.37 0 01.47-.12 28.23 28.23 0 00-5.92 3.42 23.17 23.17 0 00-5 5.39 21.55 21.55 0 00-3.24 17.27A23.09 23.09 0 00161 383a29.73 29.73 0 004.29 5.3zM132.47 404.77a34 34 0 00-.74-4 17.2 17.2 0 00-13.63-12.42 39.86 39.86 0 00-4-.38 4 4 0 011.1-.14 14.62 14.62 0 013 .15 16.84 16.84 0 0113.93 12.7 15.5 15.5 0 01.43 3 3.8 3.8 0 01-.09 1.09zM155.66 449.2a32.92 32.92 0 00-5.1-1.49 20.68 20.68 0 00-21.76 10.05 34.7 34.7 0 00-2.18 4.85 1.1 1.1 0 01.06-.37c.06-.24.12-.6.26-1a18.53 18.53 0 011.54-3.62 20.41 20.41 0 0122.15-10.23 18.39 18.39 0 013.75 1.18 10.08 10.08 0 011 .47c.18.07.29.14.28.16z" fill="#fff"/>
    <path d="M144.25 396.11a12.69 12.69 0 01-2.36-1.91 36.58 36.58 0 01-4.83-5.52 37.18 37.18 0 01-3.66-6.37 12.69 12.69 0 01-1-2.85 26.34 26.34 0 011.37 2.7 50.61 50.61 0 003.75 6.22 47.94 47.94 0 004.67 5.56c1.25 1.34 2.11 2.11 2.06 2.17z" fill="#263238"/>
    <path d="M218.4 362.6c-1.47-2.15-8.48-.37-8.48-.37s5-16.47 5.59-20.24-4.57-2.89-4.57-2.89l-5.88 11.59s-12 18-14.64 22.82-2.5 11.07-2.5 11.07l-1.12.17-82 29 13.73-37.61s27.4-63.83 28.8-70 .65-9.81-2.1-18.42-12.62-12.63-25.85-11.87c-5.78.33-11.68 5.15-16.48 10.46a64.84 64.84 0 00-13.52 23.86l-11.54 36.46s-18.72 69.58-17.78 83.71 7.39 35.19 33.54 30.09 95.05-46.76 95.05-46.76 10.75-5.56 17.31-7.29 17.55-12.85 17.41-14.65-3.5-26.98-4.97-29.13z" fill="#ffbe9d"/>
    <path d="M106.14 413.21c0 .09-1.21.31-3.11 1a25.13 25.13 0 00-12.29 9.22c-1.16 1.64-1.72 2.76-1.8 2.72a2.86 2.86 0 01.32-.83 15.39 15.39 0 011.17-2.1 22.83 22.83 0 0112.49-9.36 15.72 15.72 0 012.34-.54 2.67 2.67 0 01.88-.11z" fill="#eb996e"/>
    <path d="M86.27 315.28s20-18.92 38.78-4.82 16.65 21 16.65 21 7.28-20.19 7.12-26.81 3-13.47-4-21.25-16.93-13.24-29.75-7.66-25.69 26.68-28.8 39.54z" fill="#455a64"/>
    <path d="M146.09 325.69a2.28 2.28 0 010-.55c.05-.42.12-.93.2-1.57.17-1.36.44-3.33.69-5.76a67.26 67.26 0 00-.39-19 36.3 36.3 0 00-8-17.06 27.49 27.49 0 00-4.22-3.94c-1.09-.82-1.73-1.23-1.71-1.27a2.19 2.19 0 01.49.26 13.83 13.83 0 011.34.84 24.82 24.82 0 014.37 3.86 31.28 31.28 0 014.85 7.17 39 39 0 013.35 10.05 63.6 63.6 0 01.24 19.17c-.3 2.44-.61 4.4-.85 5.75-.12.68-.23 1.2-.3 1.56a1.75 1.75 0 01-.06.49z" fill="#263238"/>
    <path d="M126.89 274s.1.11.24.35a8.44 8.44 0 01.56 1.08 12.45 12.45 0 011 4.36 13 13 0 01-1.4 6.49 12.85 12.85 0 01-13.93 6.48 12.83 12.83 0 01-5.86-3.09 12.39 12.39 0 01-2.7-3.57 8.44 8.44 0 01-.47-1.13c-.09-.26-.13-.4-.11-.41s.25.54.76 1.44a13.51 13.51 0 002.76 3.4 13.09 13.09 0 005.72 2.9 12.54 12.54 0 0013.4-6.25 12.84 12.84 0 001.46-6.24 13.42 13.42 0 00-.81-4.3c-.37-1.03-.67-1.51-.62-1.51zM145.75 304.71c0 .09-1 0-2.64.15a14.54 14.54 0 00-2.78.56 17.16 17.16 0 00-3.2 1.35 16.84 16.84 0 00-2.82 2 15.46 15.46 0 00-1.93 2.07c-1 1.29-1.42 2.22-1.51 2.18s0-.26.24-.69a9.88 9.88 0 011-1.7 13.45 13.45 0 011.91-2.22 16.62 16.62 0 012.89-2.12 16.14 16.14 0 013.31-1.35 13.69 13.69 0 012.89-.47 10.39 10.39 0 012 .06c.39.09.64.14.64.18z" fill="#fff"/>
  </g>
  <g>
    <path d="M715.54 462.61c0 .14-152.48.26-340.52.26s-340.56-.12-340.56-.26 152.45-.26 340.56-.26 340.52.11 340.52.26z" fill="#263238"/>
  </g>
</svg>
