<svg xmlns="http://www.w3.org/2000/svg" height="604.53" width="615.08">
  <defs>
    <clipPath id="a" clipPathUnits="userSpaceOnUse">
      <path d="M2607.06 1039.39c-4.01 0-8.16.2-12.43.59h24.34c-3.84-.39-7.81-.59-11.91-.59"/>
    </clipPath>
  </defs>
  <rect width="100%" height="100%" fill="#e6ab8b" />
  <path d="M135.43 211.6a11.15 11.15 0 1016.05 15.5 11.15 11.15 0 00-16.05-15.5zm-5.54-13.84a25.49 25.49 0 016.21-2.7l1.29-6.16 10.4-.18 1.49 6.1c2.18.54 4.3 1.37 6.3 2.49l5.26-3.45 7.48 7.23-3.26 5.37a25.41 25.41 0 012.7 6.21l6.16 1.28.18 10.4-6.1 1.5a25.52 25.52 0 01-2.49 6.3l3.45 5.26-7.22 7.48-5.37-3.26a25.49 25.49 0 01-6.22 2.7l-1.28 6.16-10.4.18-1.5-6.1a25.4 25.4 0 01-6.3-2.49l-5.26 3.45-7.48-7.22 3.26-5.38a25.46 25.46 0 01-2.7-6.21l-6.16-1.28-.18-10.4 6.1-1.5c.54-2.17 1.37-4.3 2.49-6.3l-3.45-5.26 7.23-7.48 5.37 3.26" fill="#e3e3e2"/>
  <path d="M135.43 211.6s.58-.81 2.08-1.81a11.25 11.25 0 0116.22 4.54c.49.96.83 2.02 1.01 3.13a11.47 11.47 0 01-3.03 9.86 11.48 11.48 0 01-12.92 2.48 11.24 11.24 0 01-5.1-16.05 8.4 8.4 0 011.74-2.14c.06.05-.67.73-1.53 2.26a11.12 11.12 0 00.68 11.78 10.95 10.95 0 0010.7 4.38 10.9 10.9 0 005.97-3.15 10.9 10.9 0 00-6.52-18.37c-3.11-.38-5.62.6-7.1 1.49-1.5.91-2.15 1.67-2.2 1.6" fill="#e3e3e2"/>
  <path d="M129.89 197.76s-.12-.05-.35-.18l-1.03-.6c-.94-.55-2.3-1.35-4.05-2.4h.13l-7.18 7.51.02-.2 3.46 5.24.07.1-.06.1a25.43 25.43 0 00-2.44 6.26l-.03.13-.12.03-6.1 1.51.17-.22.2 10.4-.2-.25 6.16 1.27.16.03.04.16c.57 2 1.47 4.14 2.69 6.14l.08.14-.08.15-3.25 5.37-.05-.35 7.49 7.21-.37-.03 5.25-3.45.15-.1.16.09a25.3 25.3 0 006.24 2.45l.18.04.04.18 1.5 6.1-.3-.23 10.4-.2-.31.26 1.27-6.15.04-.19.19-.05a25.24 25.24 0 006.13-2.67h.01l.17-.1.16.1 5.37 3.26-.4.05 7.23-7.48-.04.4-3.44-5.26-.1-.16.09-.17a25.15 25.15 0 002.45-6.23l.05-.18.18-.04 6.1-1.5-.22.3-.18-10.39.24.28-6.15-1.29-.17-.03-.05-.17a25.24 25.24 0 00-2.66-6.15l-.09-.14.09-.15 3.26-5.36.04.33-7.46-7.24.3.03-5.26 3.43-.12.07-.12-.06a25.33 25.33 0 00-6.24-2.48l-.13-.03-.03-.12-1.47-6.11.18.14-10.4.14.15-.12-1.32 6.15-.02.06-.06.02a26.47 26.47 0 00-5.87 2.4c-.25.15-.37.2-.37.2s.12-.1.34-.24c.24-.14.6-.36 1.1-.63 1-.53 2.54-1.28 4.75-1.93l-.08.08 1.24-6.17.03-.1.11-.01 10.4-.23h.15l.04.15 1.51 6.1-.15-.16c2.09.51 4.23 1.3 6.37 2.49h-.24l5.25-3.45.16-.1.14.13 7.5 7.2.15.15-.11.18-3.25 5.38v-.29a25.8 25.8 0 012.74 6.29l-.22-.2 6.16 1.27.23.04v.24l.2 10.4v.24l-.24.06-6.1 1.5.23-.23a25.8 25.8 0 01-2.51 6.39l-.01-.33 3.44 5.26.14.2-.17.19-7.22 7.48-.18.19-.22-.14-5.37-3.25h.33a25.79 25.79 0 01-6.3 2.73l.23-.24-1.28 6.15-.05.25h-.26l-10.4.18h-.24l-.06-.23-1.5-6.11.23.23a25.86 25.86 0 01-6.38-2.52l.31-.01-5.25 3.44-.2.13-.17-.17-7.48-7.23-.16-.16.12-.2 3.26-5.36v.29a25.8 25.8 0 01-2.72-6.3l.2.2-6.15-1.3-.2-.04v-.2l-.16-10.4v-.18l.18-.04 6.1-1.48-.15.15a25.7 25.7 0 012.52-6.34l.01.19-3.42-5.27-.07-.1.09-.1 7.26-7.44.06-.06.07.04 3.96 2.47a277.66 277.66 0 011.36.88" fill="#e3e3e2"/>
  <path d="M438.42 279.85a6.68 6.68 0 109.61 9.28 6.68 6.68 0 00-9.6-9.28zm-3.32-8.3a15.26 15.26 0 013.73-1.6l.76-3.7 6.22-.1.9 3.65c1.3.33 2.58.82 3.78 1.49l3.14-2.06 4.48 4.32-1.95 3.22a15.29 15.29 0 011.62 3.72l3.68.76.1 6.23-3.65.9c-.32 1.3-.81 2.57-1.48 3.77l2.06 3.14-4.32 4.48-3.22-1.95a15.28 15.28 0 01-3.72 1.62l-.77 3.68-6.22.11-.9-3.65c-1.3-.32-2.57-.82-3.77-1.49l-3.15 2.06-4.47-4.32 1.95-3.21a15.15 15.15 0 01-1.62-3.73l-3.68-.76-.11-6.23 3.65-.9c.32-1.3.82-2.57 1.49-3.77l-2.06-3.14 4.32-4.48 3.21 1.95" fill="#f8f8f9"/>
  <path d="M438.42 279.85s.35-.5 1.24-1.1a6.72 6.72 0 019.71 2.72c.3.58.5 1.22.61 1.88a6.88 6.88 0 01-1.82 5.9 6.88 6.88 0 01-7.73 1.49 6.82 6.82 0 01-3.93-5.22c-.27-1.94.32-3.5.87-4.39.57-.91 1.05-1.28 1.05-1.28.04.03-.4.44-.92 1.35a6.66 6.66 0 00.41 7.06 6.55 6.55 0 009.98.73 6.53 6.53 0 00-8.15-10.1c-.9.54-1.29 1-1.32.96" fill="#f8f8f9"/>
  <path d="M435.1 271.56l-.2-.11-.62-.36-2.42-1.43h.07l-4.3 4.5.02-.13c.62.96 1.32 2.01 2.07 3.14l.04.06-.03.06a15.2 15.2 0 00-1.47 3.75l-.02.07-.07.02-3.65.9.1-.13.13 6.22-.12-.14 3.68.76.1.02.02.1c.34 1.2.88 2.47 1.6 3.67l.06.09-.05.08-1.95 3.22-.02-.21 4.48 4.32-.22-.02 3.14-2.07.1-.06.09.05c1.1.62 2.38 1.14 3.73 1.47l.1.03.04.1.9 3.66-.2-.14 6.23-.12-.18.15.76-3.68.03-.11.1-.03c1.23-.35 2.5-.89 3.68-1.6l.1-.06.1.06 3.22 1.95-.24.03 4.32-4.48-.02.24-2.06-3.15-.06-.1.06-.1a15.07 15.07 0 001.46-3.72l.03-.11.11-.03 3.66-.89-.14.18-.1-6.22.13.17-3.68-.77-.1-.03-.03-.1a15.13 15.13 0 00-1.6-3.68l-.04-.08.05-.09 1.95-3.21.03.2-4.47-4.34.18.02-3.15 2.05-.07.05-.07-.04c-1.25-.7-2.51-1.18-3.74-1.48l-.07-.02-.02-.08-.88-3.65.1.08-6.22.08.09-.06-.8 3.67v.04l-.04.01a15.8 15.8 0 00-3.74 1.56l.21-.14a14.72 14.72 0 013.5-1.53l-.04.04.74-3.69.01-.07h.07l6.22-.13h.1l.01.08.91 3.65-.09-.09c1.25.3 2.53.78 3.81 1.49h-.14l3.14-2.06.1-.07.08.08 4.49 4.32.1.08-.07.11-1.95 3.22v-.17c.7 1.15 1.26 2.41 1.64 3.76l-.13-.12 3.69.76.13.03v.14l.12 6.22v.15l-.14.03-3.65.9.13-.13a15.4 15.4 0 01-1.5 3.82v-.2l2.06 3.15.08.13-.1.1-4.32 4.49-.11.1-.13-.07-3.22-1.95h.2c-1.2.73-2.51 1.28-3.77 1.63l.14-.14-.77 3.68-.03.15h-.15l-6.23.11h-.15l-.03-.14-.9-3.66.14.14a15.5 15.5 0 01-3.82-1.5l.2-.01c-1.1.7-2.18 1.41-3.16 2.05l-.12.08-.1-.1-4.47-4.33-.1-.1.07-.1 1.95-3.22v.17a15.4 15.4 0 01-1.62-3.76l.12.1-3.68-.77-.12-.02v-.12l-.1-6.22v-.11l.1-.03 3.66-.88-.1.09c.36-1.4.89-2.68 1.52-3.8v.11l-2.05-3.15-.04-.06.05-.06 4.35-4.45.04-.04.04.03 2.37 1.47.6.39.21.14M488.24 53.75a8.6 8.6 0 1012.36 11.94 8.6 8.6 0 00-12.36-11.94zm-4.27-10.68c1.51-.91 3.12-1.6 4.79-2.08l.98-4.74 8.02-.14 1.15 4.7c1.68.42 3.32 1.05 4.86 1.92l4.05-2.66 5.76 5.57-2.5 4.14c.91 1.51 1.6 3.13 2.08 4.79l4.74.99.14 8-4.7 1.16a19.61 19.61 0 01-1.92 4.86l2.66 4.05-5.57 5.77-4.14-2.51a19.58 19.58 0 01-4.79 2.08l-.99 4.74-8.01.14-1.15-4.7a19.67 19.67 0 01-4.86-1.92l-4.05 2.66-5.77-5.57 2.51-4.14a19.6 19.6 0 01-2.08-4.79l-4.74-.99-.14-8 4.7-1.16a19.6 19.6 0 011.91-4.86l-2.65-4.05 5.57-5.77 4.14 2.51" fill="#f8f8f9"/>
  <path d="M488.24 53.75s.45-.64 1.6-1.4a8.67 8.67 0 0112.5 3.5c.38.73.64 1.55.78 2.4a8.84 8.84 0 01-2.34 7.6 8.84 8.84 0 01-13.53-1.04 8.7 8.7 0 01-.36-9.41c.73-1.18 1.35-1.65 1.35-1.65.04.04-.52.56-1.18 1.74a8.56 8.56 0 00.52 9.08 8.43 8.43 0 008.25 3.37 8.4 8.4 0 004.6-2.42 8.4 8.4 0 00-5.02-14.16c-2.4-.3-4.34.46-5.47 1.15-1.16.7-1.66 1.28-1.7 1.24" fill="#f8f8f9"/>
  <path d="M483.97 43.07c0 .01-.1-.04-.27-.14l-.8-.46-3.11-1.84.1-.01-5.54 5.8.02-.16 2.66 4.04.05.07-.04.08a19.57 19.57 0 00-1.88 4.83l-.02.1-.1.02-4.7 1.16.13-.17.16 8.01-.15-.19 4.74.98.12.03.04.12c.44 1.54 1.13 3.19 2.06 4.73l.07.11-.07.11-2.5 4.15-.04-.28 5.78 5.56-.29-.02 4.05-2.66.12-.08.12.07c1.41.79 3.07 1.46 4.8 1.88l.14.04.04.14 1.15 4.7-.23-.18 8-.14-.23.19.99-4.74.03-.15.14-.04a19.47 19.47 0 004.73-2.05l.13-.08.13.08 4.14 2.5-.3.05 5.56-5.77-.03.3-2.65-4.05-.08-.12.07-.13a19.44 19.44 0 001.9-4.8l.03-.14.14-.03 4.7-1.15-.18.23-.13-8.01.18.22-4.74-1-.13-.02-.03-.13c-.49-1.7-1.19-3.3-2.06-4.74l-.06-.11.06-.11 2.52-4.14.03.26-5.75-5.58.23.02-4.05 2.64-.1.06-.09-.05a19.57 19.57 0 00-4.8-1.91l-.1-.02-.03-.1-1.14-4.7.15.1-8.01.11.1-.09-1.01 4.74-.01.04-.05.02a20.3 20.3 0 00-4.81 2l.26-.18c.19-.11.46-.28.85-.48.77-.41 1.95-1 3.65-1.5l-.05.06.96-4.74.01-.09h.1c2.26-.05 4.9-.1 8-.18h.12l.03.11 1.17 4.7-.12-.11c1.61.39 3.26 1 4.9 1.91h-.18l4.05-2.66.12-.08.11.1 5.78 5.56.12.11-.09.14-2.5 4.15v-.22c.9 1.47 1.61 3.1 2.1 4.84l-.16-.16 4.75.98.17.04v.18l.15 8.01v.2l-.17.03-4.7 1.16.17-.17a19.85 19.85 0 01-1.94 4.92v-.25l2.65 4.05.1.16-.13.14-5.56 5.77-.14.14-.17-.1-4.14-2.51h.26a19.92 19.92 0 01-4.85 2.1l.17-.18-.99 4.74-.04.2h-.2l-8 .13h-.2l-.04-.18-1.15-4.7.17.17a19.92 19.92 0 01-4.92-1.94l.24-.01-4.05 2.65-.15.1-.13-.13-5.76-5.57-.13-.12.1-.15 2.51-4.14v.22a19.92 19.92 0 01-2.1-4.84l.16.14-4.74-1-.15-.03v-.15l-.13-8.01v-.15l.14-.03 4.7-1.14-.11.12a19.7 19.7 0 011.94-4.9v.16l-2.63-4.06-.06-.09.07-.07 5.6-5.73.04-.05.06.04 3.05 1.9.78.5c.18.1.27.17.27.17M356.5 86.88a6.68 6.68 0 109.6 9.27 6.68 6.68 0 00-9.6-9.27zm-3.33-8.3a15.23 15.23 0 013.72-1.61l.77-3.68 6.23-.11.89 3.65c1.3.32 2.57.82 3.78 1.49l3.14-2.07 4.48 4.33-1.95 3.21a15.23 15.23 0 011.62 3.72l3.68.77.1 6.23-3.64.89c-.33 1.3-.82 2.57-1.49 3.78l2.06 3.14-4.32 4.48-3.22-1.95a15.25 15.25 0 01-3.72 1.62l-.77 3.68-6.22.1-.9-3.64c-1.3-.33-2.57-.82-3.77-1.49l-3.15 2.06-4.47-4.32 1.95-3.22a15.3 15.3 0 01-1.62-3.72l-3.68-.77-.11-6.22 3.65-.9c.32-1.3.82-2.57 1.49-3.77l-2.07-3.15 4.33-4.47 3.21 1.95" fill="#f8f8f9"/>
  <path d="M356.5 86.88s.34-.5 1.23-1.1a6.71 6.71 0 019.71 2.72c.3.58.5 1.21.61 1.88a6.87 6.87 0 01-5.6 7.9c-.69.12-1.38.12-2.05.03a6.84 6.84 0 01-5.83-5.76c-.28-1.94.32-3.5.87-4.4.57-.9 1.05-1.27 1.05-1.27.04.03-.4.43-.92 1.35a6.65 6.65 0 00.41 7.05 6.55 6.55 0 006.41 2.62 6.53 6.53 0 005.33-5.52c.1-.65.08-1.31-.03-1.94a6.55 6.55 0 00-9.88-4.53c-.9.55-1.29 1-1.32.97" fill="#f8f8f9"/>
  <path d="M353.17 78.59l-.2-.11-.62-.36-2.42-1.43.07-.01-4.3 4.5.02-.12 2.07 3.14.04.05-.04.06a15.2 15.2 0 00-1.46 3.76l-.02.07-.07.02-3.65.9.1-.13.13 6.22-.12-.14 3.68.76.1.02.02.09c.34 1.2.88 2.48 1.6 3.68l.06.08-.05.09-1.95 3.22-.03-.22 4.49 4.32-.22-.02 3.14-2.06.1-.06.09.05c1.1.61 2.38 1.13 3.73 1.47l.1.02.03.11.9 3.65-.18-.14 6.22-.11-.18.15.76-3.68.03-.12.1-.03c1.23-.34 2.5-.88 3.68-1.6l.1-.05.1.06 3.22 1.95-.24.03 4.32-4.48-.02.24-2.06-3.15-.06-.1.06-.1a15.07 15.07 0 001.47-3.72l.02-.11.11-.03 3.66-.9-.14.19-.1-6.23.13.17-3.68-.77-.1-.02-.03-.1a15.08 15.08 0 00-1.6-3.68l-.04-.09.05-.08 1.95-3.22.03.2-4.47-4.33.18.02-3.15 2.05-.07.05-.07-.04a15.2 15.2 0 00-3.74-1.49l-.07-.02-.02-.07-.89-3.66.12.09-6.23.08.09-.07-.8 3.68v.04h-.04a15.8 15.8 0 00-3.74 1.57s.07-.06.21-.14a14.76 14.76 0 013.5-1.54l-.05.05.75-3.7.01-.06h.07l6.22-.14h.1l.01.09.91 3.65-.09-.1c1.25.31 2.53.79 3.81 1.5h-.14l3.14-2.07.1-.06.08.08 4.49 4.31.1.1-.08.1-1.94 3.22v-.17c.7 1.14 1.26 2.41 1.64 3.76l-.13-.12 3.69.76.13.03v.14l.12 6.22v.15l-.14.03-3.65.9.14-.13c-.33 1.31-.83 2.6-1.5 3.82l-.01-.2 2.06 3.15.08.12-.1.11-4.32 4.48-.11.11-.13-.08-3.22-1.95h.2c-1.2.74-2.51 1.28-3.77 1.64l.14-.14-.77 3.68-.03.15h-.15l-6.23.1h-.14l-.04-.14-.9-3.65.14.13c-1.38-.33-2.7-.87-3.82-1.5h.19c-1.1.7-2.17 1.4-3.15 2.05l-.12.08-.1-.1-4.47-4.33-.1-.1.07-.11 1.96-3.21v.17a15.48 15.48 0 01-1.63-3.77l.12.12-3.69-.78-.11-.02v-.12l-.1-6.23v-.1l.1-.03 3.66-.89-.1.1c.36-1.4.89-2.69 1.52-3.8v.11l-2.05-3.15-.04-.07.06-.05 4.34-4.46.04-.03.04.02 2.37 1.48.6.39c.14.08.21.13.21.14M71.3 196.64a6.68 6.68 0 109.62 9.27 6.68 6.68 0 00-9.61-9.27zm-3.31-8.3a15.26 15.26 0 013.72-1.6l.77-3.7 6.22-.1.9 3.65c1.3.32 2.57.82 3.77 1.49l3.15-2.06 4.47 4.32-1.95 3.21a15.3 15.3 0 011.62 3.73l3.68.76.11 6.23-3.65.9c-.32 1.3-.82 2.57-1.49 3.77l2.07 3.14-4.33 4.48-3.21-1.95a15.2 15.2 0 01-3.72 1.62l-.77 3.68-6.22.11-.9-3.65c-1.3-.32-2.57-.82-3.78-1.49l-3.14 2.06-4.48-4.32 1.95-3.22a15.25 15.25 0 01-1.62-3.72l-3.68-.76-.1-6.23 3.65-.9c.32-1.3.81-2.57 1.48-3.77l-2.06-3.14 4.32-4.48 3.22 1.95" fill="#f8f8f9"/>
  <path d="M71.3 196.64s.35-.5 1.25-1.1a6.74 6.74 0 0110.32 4.6 6.88 6.88 0 01-5.6 7.9c-.7.12-1.39.13-2.06.03a6.83 6.83 0 01-5.83-5.76c-.27-1.94.33-3.5.88-4.4.57-.9 1.05-1.27 1.05-1.27.03.03-.4.44-.92 1.35a6.65 6.65 0 00.4 7.06 6.56 6.56 0 006.42 2.62 6.53 6.53 0 00-.33-12.88 6.65 6.65 0 00-4.25.88c-.9.55-1.3 1-1.32.97" fill="#f8f8f9"/>
  <path d="M67.99 188.35l-.2-.11-.63-.36-2.42-1.43h.08l-4.3 4.5.01-.13 2.07 3.14.04.06-.03.06a15.21 15.21 0 00-1.46 3.75l-.02.07-.08.02-3.65.9.1-.13.13 6.22-.12-.14 3.69.76.09.02.03.09c.34 1.2.87 2.48 1.6 3.68l.05.08-.05.1-1.94 3.2-.03-.2 4.48 4.31-.22-.02 3.14-2.06.1-.06.1.05c1.1.61 2.37 1.14 3.72 1.47l.11.02.03.11.9 3.66-.19-.15 6.23-.1-.19.14.77-3.68.02-.11.11-.04a15.1 15.1 0 003.68-1.6l.1-.05.1.06 3.21 1.95-.23.03 4.32-4.48-.02.24-2.06-3.15-.07-.1.06-.1a15.06 15.06 0 001.47-3.72l.03-.11.1-.03 3.66-.9-.14.19-.1-6.22.14.17-3.68-.78-.1-.02-.03-.1a15.1 15.1 0 00-1.6-3.68l-.05-.09.05-.08 1.96-3.21.02.2-4.47-4.34.19.02-3.15 2.05-.07.05-.08-.04a15.18 15.18 0 00-3.74-1.49l-.07-.02-.02-.07-.88-3.65.11.08-6.22.08.08-.07-.79 3.68v.04h-.04a15.68 15.68 0 00-3.74 1.57l.2-.14a14.7 14.7 0 013.5-1.54l-.04.05.74-3.7.02-.06h.07l6.22-.13h.09l.02.08.9 3.65-.08-.1c1.25.31 2.53.79 3.8 1.5h-.13l3.14-2.07.1-.06.08.08 4.48 4.31.1.1-.07.1-1.94 3.22v-.17c.7 1.14 1.25 2.41 1.64 3.76l-.13-.12 3.68.76.14.03v.14l.12 6.22v.15l-.14.03-3.66.9.14-.13a15.4 15.4 0 01-1.5 3.82v-.2l2.05 3.15.09.13-.1.1-4.33 4.48-.1.11-.14-.08-3.21-1.95h.2c-1.21.74-2.52 1.29-3.77 1.64l.13-.14-.76 3.68-.04.15h-.15l-6.22.1-.15.01-.04-.14-.89-3.66.14.14c-1.39-.34-2.7-.88-3.82-1.51h.18l-3.14 2.05-.12.08-.1-.1-4.48-4.33-.1-.1.08-.1 1.95-3.22v.17a15.45 15.45 0 01-1.63-3.76l.12.1-3.68-.77-.12-.02v-.12l-.1-6.23v-.1l.1-.03c1.3-.31 2.53-.6 3.67-.89l-.1.1c.35-1.4.88-2.68 1.51-3.8v.11l-2.04-3.15-.04-.07.05-.05 4.35-4.45.03-.04.04.03 2.37 1.47.61.39c.14.08.2.13.2.14" fill="#f8f8f9"/>
  <path d="M107.6 311.45l-.03-.02a21.12 21.12 0 00-5.94 14.71c0 5.55 2.16 11.1 6.47 15.25a21.12 21.12 0 0014.71 5.95c5.55 0 11.1-2.17 15.25-6.47a21.12 21.12 0 005.95-14.72c0-5.55-2.17-11.1-6.48-15.25a21.12 21.12 0 00-14.71-5.94 21.13 21.13 0 00-15.25 6.47l.03.02.02.02a21.06 21.06 0 0115.2-6.45c5.28 0 10.57 1.97 14.67 5.93a21.06 21.06 0 016.45 15.2c0 5.28-1.97 10.57-5.93 14.67a21.06 21.06 0 01-15.2 6.45 21.05 21.05 0 01-14.66-5.93 21.06 21.06 0 01-6.46-15.2c0-5.28 1.97-10.57 5.93-14.67zm-10.52-26.27l.02.03a48.23 48.23 0 0111.78-5.12h.02l2.43-11.67 19.67-.35 2.83 11.58h.02a48.17 48.17 0 0111.96 4.7l.02.01 9.96-6.52 14.15 13.66-6.17 10.18v.02a48.27 48.27 0 015.13 11.78v.02l11.67 2.43.34 19.67-11.57 2.83v.02a48.26 48.26 0 01-4.7 11.96l-.02.02 6.53 9.96-13.66 14.15-10.18-6.18-.02.01a48.34 48.34 0 01-11.79 5.12h-.02l-2.42 11.67-19.67.35-2.84-11.57h-.02a48.28 48.28 0 01-11.95-4.71l-.02-.01-9.96 6.53-14.15-13.66 6.17-10.19v-.01a48.28 48.28 0 01-5.13-11.79v-.02l-11.67-2.43-.34-19.66 11.57-2.84v-.02a48.31 48.31 0 014.7-11.95l.02-.02-6.53-9.96 13.66-14.15 10.18 6.17h.02l-.02-.04.02-.03-10.21-6.19-13.74 14.23 6.55 9.99.03-.02-.03-.02a48.43 48.43 0 00-4.71 11.97l.03.01v-.03l-11.61 2.85.35 19.77 11.7 2.43v-.03h-.03a48.34 48.34 0 005.13 11.81l.02-.02-.02-.01-6.2 10.2 14.23 13.74 9.99-6.54-.02-.03-.01.03c3.8 2.12 7.83 3.69 11.97 4.7v-.03l-.03.01 2.85 11.6 19.77-.34 2.43-11.7h-.03l.01.03a48.42 48.42 0 0011.8-5.13l-.01-.03-.02.03 10.2 6.2 13.74-14.24-6.54-9.98-.03.01.03.02c2.12-3.8 3.69-7.84 4.7-11.97l-.02-.01v.03l11.6-2.84-.34-19.77-11.7-2.44v.03h.03a48.35 48.35 0 00-5.13-11.8l-.03.01.03.02 6.2-10.21-14.23-13.74-10 6.55.03.03.01-.03a48.28 48.28 0 00-11.97-4.71v.03h.02L131.05 268l-19.77.34-2.44 11.7h.04l-.01-.02a48.34 48.34 0 00-11.8 5.12l.01.03.02-.03-.02.03" fill="#e3e3e2"/>
  <path d="M107.6 311.45s1.1-1.56 3.94-3.46a21.07 21.07 0 0113.8-3.26c3.03.34 6.35 1.33 9.38 3.33a21.65 21.65 0 01-8.23 39.5c-2.19.4-4.4.42-6.51.11a21.64 21.64 0 01-14.81-9 21.33 21.33 0 01-3.67-9.25 21.06 21.06 0 012.78-13.91c1.8-2.9 3.32-4.06 3.32-4.06.11.1-1.28 1.39-2.91 4.3a21.1 21.1 0 00-2.34 13.54 20.65 20.65 0 0012.08 15.65c1.76.8 3.69 1.34 5.7 1.59a20.67 20.67 0 0017.48-6.1 20.69 20.69 0 00-12.37-34.85 21.1 21.1 0 00-13.46 2.81c-2.84 1.74-4.08 3.17-4.18 3.06" fill="#eee"/>
  <path d="M97.08 285.18c0 .02-.22-.1-.65-.34l-1.96-1.13-7.68-4.54.24-.03-13.61 14.27.03-.38c2 3 4.2 6.35 6.58 9.93l.11.18-.1.2a48.22 48.22 0 00-4.63 11.88l-.06.23-.23.06-11.57 2.87.33-.43.39 19.72-.38-.46 11.67 2.4.3.07.08.3a48.06 48.06 0 005.1 11.65l.16.27-.17.27-6.16 10.2-.09-.67 14.2 13.68-.7-.06 9.97-6.54.29-.2.3.17a48.05 48.05 0 0011.83 4.64l.34.09.09.35 2.84 11.57-.59-.45 19.72-.36-.58.48 2.43-11.67.07-.36.36-.1c3.88-1.1 7.9-2.8 11.63-5.05h.01l.32-.2.31.2 10.19 6.17-.75.1 13.7-14.19-.07.75-6.53-9.97-.2-.3.18-.32a47.77 47.77 0 004.66-11.81l.08-.35.35-.08 11.58-2.83-.44.57-.33-19.72.44.54-11.66-2.44-.33-.07-.08-.32a47.88 47.88 0 00-5.06-11.67l-.16-.27.16-.27 6.2-10.18.08.62-14.16-13.72.58.05c-3.51 2.3-6.8 4.44-9.98 6.5l-.23.15-.23-.12a48.1 48.1 0 00-11.84-4.7l-.24-.06-.05-.24-2.8-11.58.35.27-19.72.26.26-.22-2.5 11.66-.03.11-.11.04a50.05 50.05 0 00-9.02 3.46l-2.12 1.11c-.48.27-.7.38-.7.36a6 6 0 01.65-.45c.45-.27 1.14-.69 2.08-1.2 1.89-1 4.81-2.43 9-3.66l-.13.15c.64-3.2 1.4-7.02 2.35-11.69l.04-.21h.22l19.72-.44h.28l.07.28c.9 3.57 1.83 7.36 2.88 11.56l-.3-.29a48.7 48.7 0 0112.09 4.72l-.45.01 9.95-6.55.3-.2.28.25 14.21 13.67.3.28-.22.34-6.16 10.2v-.54a48.89 48.89 0 015.2 11.92l-.41-.39 11.67 2.42.44.09v.44l.37 19.72.01.46-.45.11-11.57 2.85.43-.43a48.92 48.92 0 01-4.76 12.11l-.02-.61 6.53 9.96.27.4-.34.35c-4.5 4.66-9.06 9.4-13.7 14.19l-.33.35-.41-.25-10.19-6.18h.63-.01a49.04 49.04 0 01-11.93 5.19l.42-.46-2.43 11.67-.1.47h-.48l-19.72.35h-.47l-.11-.46-2.83-11.58.43.43a49.07 49.07 0 01-12.1-4.77l.59-.02-9.97 6.52-.38.25-.33-.31-14.17-13.72-.3-.3.21-.37 6.2-10.18v.54a48.93 48.93 0 01-5.16-11.92l.38.35-11.67-2.45-.37-.08v-.38l-.3-19.72-.01-.35.33-.08 11.59-2.8-.3.29c1.12-4.45 2.8-8.5 4.79-12.04l.01.36-6.5-9.99-.13-.2.18-.18c5.6-5.75 10.25-10.5 13.78-14.1l.1-.12.13.08 7.51 4.67 1.93 1.22c.43.28.65.44.65.45" fill="#eee"/>
  <path d="M433.64 104.93a14.23 14.23 0 106.78 27.64 14.23 14.23 0 00-6.78-27.64zm3.45-18.72c2.93.06 5.8.5 8.54 1.31l5.58-5.76 11.34 6.87-2.54 7.61a32.44 32.44 0 015.12 6.97l8.01-.14 3.16 12.89-7.17 3.58c-.06 2.93-.51 5.8-1.32 8.54l5.77 5.57L466.7 145l-7.6-2.54a32.57 32.57 0 01-6.98 5.12l.14 8-12.88 3.17-3.58-7.17c-2.93-.06-5.8-.51-8.55-1.32l-5.57 5.77-11.34-6.88 2.54-7.6a32.53 32.53 0 01-5.12-6.98l-8.01.14-3.16-12.88 7.17-3.58c.06-2.93.5-5.8 1.31-8.55l-5.76-5.57 6.88-11.34 7.6 2.54a32.53 32.53 0 016.97-5.12l-.14-8.02 12.89-3.15 3.58 7.17" fill="#e3e3e2"/>
  <path d="M433.64 104.93s1.2-.5 3.48-.56a14.34 14.34 0 0113.17 8.36 14.56 14.56 0 01-22.6 17.25 14.57 14.57 0 01-5.2-10.43 14.34 14.34 0 017.8-13.5c2.07-1 3.35-1.12 3.35-1.12.03.1-1.22.33-3.2 1.4a14.19 14.19 0 00-7.27 13.18 13.96 13.96 0 008.57 12 13.92 13.92 0 008.58.66 13.92 13.92 0 005.47-24.25 14.2 14.2 0 00-8.67-3.23c-2.24-.04-3.46.34-3.48.24" fill="#e3e3e2"/>
  <path d="M437.09 86.2c0 .02-.1-.13-.25-.42l-.7-1.35-2.75-5.34.15.07-12.87 3.24.16-.2.17 8v.15l-.12.07a32.46 32.46 0 00-6.9 5.1l-.12.11-.15-.05-7.62-2.52.34-.12-6.85 11.36-.05-.4 5.78 5.56.15.14-.06.2a32.26 32.26 0 00-1.29 8.45v.22l-.2.1-7.16 3.58.2-.4 3.17 12.87-.38-.29 8.01-.14h.24l.11.2c1.28 2.35 3 4.75 5.06 6.88l.17.17-.08.23-2.53 7.6-.17-.46 11.34 6.87-.5.07 5.57-5.77.17-.18.24.07c2.6.77 5.5 1.25 8.43 1.3h.26l.1.22 3.58 7.18-.46-.22 12.89-3.15-.31.4c-.05-2.7-.1-5.37-.13-8.02l-.01-.24.21-.12a32.09 32.09 0 006.9-5.05l.16-.16.23.07 7.6 2.55-.45.17 6.89-11.34.06.46-5.76-5.57-.16-.16.06-.2c.83-2.81 1.26-5.66 1.32-8.46v-.22l.2-.09 7.17-3.57-.18.39-3.13-12.9.3.24-8 .12h-.19l-.08-.15a32.36 32.36 0 00-5.05-6.92l-.12-.12.05-.16 2.57-7.6.1.3-11.3-6.94.22-.03-5.6 5.74-.07.05-.07-.02a33.75 33.75 0 00-6.38-1.26l-1.6-.13a3.27 3.27 0 01-.53-.05 25.1 25.1 0 012.15.05c1.43.1 3.6.34 6.43 1.14l-.13.03 5.53-5.8.1-.1.13.07 11.37 6.83.17.1-.06.18-2.52 7.62-.06-.28a32.75 32.75 0 015.18 7.02l-.26-.15 8.02-.16h.25l.06.24 3.18 12.87.06.27-.24.12-7.16 3.6.2-.32a32.93 32.93 0 01-1.33 8.65l-.1-.37 5.78 5.56.22.21-.16.26-6.87 11.35-.16.26-.3-.1-7.6-2.53.4-.09c-2.08 2-4.45 3.77-7.05 5.19l.2-.36.15 8.01v.33l-.3.07-12.9 3.16-.3.08-.15-.3-3.59-7.16.36.23c-3.01-.06-5.98-.55-8.65-1.34l.4-.1-5.57 5.76-.22.23-.28-.16-11.34-6.89-.27-.16.1-.3 2.54-7.61.1.4a33.08 33.08 0 01-5.18-7.06l.35.2c-2.78.05-5.52.1-8.02.13h-.3l-.07-.29c-1.1-4.47-2.16-8.84-3.14-12.89l-.07-.28.26-.13 7.17-3.57-.2.31c.07-3.06.58-6.03 1.35-8.63l.1.33-5.77-5.58-.18-.18.13-.22 6.9-11.32.13-.2.22.07 7.6 2.56-.27.06a32.82 32.82 0 017.04-5.13l-.13.21-.1-8.01v-.17l.15-.04 12.9-3.08.1-.02.05.09 2.6 5.35.66 1.39c.14.31.21.48.2.49" fill="#e3e3e2"/>
  <path d="M474.3 338.9s1.2-.5 3.51-.56a14.49 14.49 0 0114.55 16.1 13.86 13.86 0 01-1.05 4.1 14.8 14.8 0 01-10.08 8.66 14.78 14.78 0 01-15.77-6.17 14.5 14.5 0 015.46-21 10.85 10.85 0 013.38-1.13c.03.1-1.24.34-3.23 1.42a14.31 14.31 0 00-7.35 13.3 14.11 14.11 0 008.66 12.12 14.05 14.05 0 008.66.66 14.05 14.05 0 005.51-24.48 14.32 14.32 0 00-8.74-3.25c-2.26-.04-3.5.33-3.51.23" fill="#eee"/>
  <path d="M477.77 320.01l-.25-.44-.71-1.35-2.77-5.39.15.07-12.98 3.26.15-.2.18 8.09v.14l-.13.07a32.73 32.73 0 00-6.96 5.15l-.12.11-.15-.05-7.69-2.54.35-.13-6.92 11.47-.05-.4 5.83 5.6.15.15-.06.2a32.65 32.65 0 00-1.3 8.54v.2l-.2.1-7.23 3.63.2-.41 3.2 13-.38-.3 8.09-.15h.23l.12.2c1.3 2.38 3.03 4.8 5.1 6.95l.17.18-.07.23-2.56 7.68-.17-.48 11.45 6.94-.5.07 5.61-5.83.17-.18.24.07c2.63.78 5.55 1.26 8.51 1.31h.01l.25.01.11.22 3.62 7.24-.47-.22 13-3.18-.3.4-.14-8.09v-.24l.2-.12c2.57-1.4 4.9-3.12 6.96-5.1l.17-.16.23.07 7.68 2.57-.46.17 6.95-11.44.06.47-5.81-5.63-.16-.15.06-.22c.83-2.83 1.27-5.7 1.32-8.53l.01-.21.2-.1 7.23-3.6-.18.39c-1.1-4.58-2.16-8.9-3.16-13.01l.32.24-8.1.12h-.17l-.09-.16a32.63 32.63 0 00-5.1-6.99l-.11-.11.05-.16 2.59-7.67.1.29-11.41-7 .22-.02-5.65 5.78-.06.06-.08-.02c-2.81-.85-5-1.13-6.43-1.28l-1.62-.13a3.32 3.32 0 01-.54-.05l.54-.02a31.7 31.7 0 018.12 1.22l-.12.04 5.58-5.86.1-.1.13.07 11.48 6.9.16.1-.06.18-2.54 7.68-.06-.27c1.93 1.99 3.72 4.33 5.23 7.08l-.26-.15 8.09-.16h.25l.06.23 3.21 13 .07.27-.25.12-7.23 3.63.2-.31a33.15 33.15 0 01-1.33 8.72l-.1-.37 5.83 5.61.22.21-.16.26-6.93 11.46-.16.27-.3-.1-7.68-2.56.4-.1a33.2 33.2 0 01-7.12 5.24l.21-.36.15 8.09v.32l-.31.08-13 3.2-.32.07-.15-.3-3.61-7.23.36.23h-.01a33.25 33.25 0 01-8.73-1.35l.41-.1-5.62 5.81-.23.24-.28-.17-11.44-6.95-.28-.17.1-.3 2.57-7.68.1.4c-2.13-2.2-3.9-4.68-5.23-7.12l.35.2-8.09.14h-.3l-.08-.3-3.17-13-.07-.28.26-.14 7.25-3.6-.2.31c.06-3.09.58-6.09 1.36-8.71l.09.34-5.81-5.64-.19-.18.14-.22 6.96-11.43.13-.2.22.07 7.67 2.59-.28.06a33.21 33.21 0 017.11-5.18l-.12.21-.11-8.09v-.16l.16-.04 13.02-3.11.1-.03.05.1 2.62 5.4.66 1.4c.15.31.22.48.21.5" fill="#eee"/>
  <path d="M49.18 562.8v41.13h126.47v-41.12H49.18" fill="#f8f8f9"/>
  <path d="M43.87 551.31v11.5h136.2v-11.5H43.87" fill="#e3e3e2"/>
  <path d="M111.97 603.93h63.68v-41.12h4.42v-11.5h-70.75v10.43l2.65 42.2M66.87 569.44v6.2H92.5v-6.2H66.87" fill="#e3e3e2"/>
  <path d="M96.5 596.44H63.57v-13.07H96.5v13.07" fill="#fff"/>
  <path d="M68.64 510.24v41.13H195.1v-41.13H68.64" fill="#f8f8f9"/>
  <path d="M63.33 498.74v11.5h136.2v-11.5H63.33" fill="#e3e3e2"/>
  <path d="M131.43 551.37h63.67v-41.13h4.43v-11.5h-70.76v10.44l2.66 42.19M86.32 516.87v6.2h25.65v-6.2H86.32" fill="#e3e3e2"/>
  <path d="M115.96 543.87H83.02V530.8h32.94v13.07" fill="#fff"/>
  <path d="M615.08 603.93c0 .2-137.7.35-307.53.35-169.88 0-307.55-.16-307.55-.35 0-.19 137.67-.34 307.55-.34 169.83 0 307.53.15 307.53.34" fill="#1d2a30"/>
  <path d="M89.12 44.1a64.2 64.2 0 0115.68-6.74l3.28-15.49 26.18-.36 3.72 15.38a64.14 64.14 0 0115.86 6.3l13.26-8.62 18.77 18.25-8.24 13.5A64.08 64.08 0 01184.38 82l15.48 3.28.37 26.18-15.39 3.71a64.18 64.18 0 01-6.3 15.86l8.63 13.27-18.26 18.77-13.5-8.25a64.13 64.13 0 01-15.68 6.75l-3.27 15.48-26.18.37-3.72-15.38a64.15 64.15 0 01-15.86-6.3l-13.26 8.62-18.78-18.25 8.25-13.5a64.16 64.16 0 01-6.75-15.68l-15.48-3.28-.37-26.18 15.38-3.71A64.17 64.17 0 0166 67.89l-8.62-13.26 18.25-18.77 13.5 8.25" fill="#f03658" fill-rule="evenodd"/>
  <path d="M137.72 91.75c-.12.02.03-2.02-.84-5.5-.4-1.74-1.24-3.8-2.53-5.97a22.46 22.46 0 00-5.73-6.35 22.3 22.3 0 00-21.18-3.16 21 21 0 00-5.65 3.04c-.9.63-1.7 1.4-2.53 2.16-.75.83-1.54 1.64-2.18 2.59a22.43 22.43 0 00-4.34 13.2c.04 4.83 1.59 9.53 4.33 13.19.65.94 1.44 1.76 2.2 2.59.82.75 1.61 1.53 2.52 2.15a22.49 22.49 0 0017.4 4.04 22.3 22.3 0 009.43-4.16 22.47 22.47 0 005.73-6.34 21.66 21.66 0 002.53-5.97c.87-3.48.72-5.52.84-5.5.01 0 .02.12.02.36l-.02 1.08c0 .48-.03 1.07-.15 1.76-.09.69-.18 1.49-.43 2.36a22.64 22.64 0 01-8.22 12.64 22.67 22.67 0 01-9.63 4.34 22.99 22.99 0 01-17.9-4.07c-.93-.64-1.75-1.44-2.6-2.22-.78-.85-1.6-1.69-2.26-2.66a23.06 23.06 0 01-4.49-13.6c.05-4.99 1.65-9.84 4.49-13.6.67-.96 1.48-1.8 2.26-2.66.85-.77 1.67-1.57 2.6-2.2a22.98 22.98 0 0117.9-4.07c3.78.68 7.05 2.36 9.63 4.32a22.62 22.62 0 018.22 12.65c.25.87.34 1.67.43 2.36.12.69.15 1.28.15 1.76a1460.84 1460.84 0 000 1.44" fill="#fff"/>
  <path d="M130.58 108.27c.13-.14 5.07 4.58 11.03 10.54 5.96 5.96 10.67 10.9 10.54 11.03-.14.13-5.08-4.58-11.03-10.54-5.96-5.96-10.68-10.9-10.54-11.03" fill="#fff"/>
  <path d="M268.11 143.18a82.32 82.32 0 0120.13-8.66l4.2-19.88 33.61-.47 4.77 19.74a82.32 82.32 0 0120.36 8.1l17.02-11.08 24.1 23.43-10.59 17.33a82.35 82.35 0 018.67 20.12l19.87 4.21.47 33.6-19.74 4.78a82.3 82.3 0 01-8.1 20.36l11.08 17.02-23.43 24.1-17.33-10.59a82.33 82.33 0 01-20.12 8.66l-4.21 19.88-33.6.47-4.78-19.75a82.31 82.31 0 01-20.36-8.09l-17.02 11.08-24.1-23.43 10.59-17.33a82.3 82.3 0 01-8.66-20.13l-19.88-4.2-.47-33.6 19.75-4.78a82.32 82.32 0 018.09-20.36l-11.08-17.02 23.43-24.1 17.33 10.59" fill="#f03658" fill-rule="evenodd"/>
  <path d="M299.29 249.25l.4-.02 1.15-.02 4.41-.05 16.49-.11-.2.2-.23-9.42v-.16l.15-.07a51 51 0 0014.1-9.65 35.77 35.77 0 005.92-7.58 25.93 25.93 0 003.26-9.64 32.04 32.04 0 00-5.05-21.12 38.37 38.37 0 00-18.4-14.66 31.65 31.65 0 00-17.65-1.23 34.67 34.67 0 00-15.33 7.09 31.31 31.31 0 00-9.26 12.79c-.41 1.2-.94 2.37-1.24 3.59l-.88 3.61c-.42 2.41-.66 4.8-.63 7.12.06 2.33.35 4.58.85 6.7a30.9 30.9 0 002.16 5.98c1.8 3.7 4.18 6.75 6.65 9.21a45.65 45.65 0 0013.75 9.4l.08.04v.08l-.35 5.89-.1 1.5-.05.53v-.48l.04-1.49.21-5.96.08.12a45.02 45.02 0 01-13.97-9.32 34.55 34.55 0 01-6.8-9.3 31.28 31.28 0 01-2.23-6.06 33.25 33.25 0 01-.89-6.83c-.04-2.36.2-4.79.62-7.24l.87-3.67c.3-1.24.83-2.42 1.25-3.65a31.89 31.89 0 019.42-13.07 35.28 35.28 0 0115.62-7.25 32.3 32.3 0 0118.03 1.24 38.99 38.99 0 0118.72 14.95c2.15 3.3 3.7 6.9 4.5 10.6.27.9.35 1.83.5 2.76.13.92.28 1.83.27 2.76.03.92.08 1.83.08 2.74l-.24 2.7a26.52 26.52 0 01-3.36 9.87 36.26 36.26 0 01-6.04 7.69 51.2 51.2 0 01-14.33 9.68l.15-.23c.06 3.42.1 6.6.16 9.44v.2h-.21l-16.61-.1-4.37-.06-1.1-.02c-.26 0-.38-.01-.37-.02M322.07 255.5c0 .19-5.17.34-11.54.35-6.37 0-11.54-.15-11.54-.35 0-.19 5.17-.35 11.54-.35 6.37 0 11.54.15 11.54.34M314.6 264.21c.02.19-1.8.56-4.09.48-2.28-.06-4.08-.55-4.05-.73.04-.2 1.85-.03 4.07.04 2.23.07 4.04.02 4.07.21" fill="#fff"/>
  <path d="M304 249.25c-.02 0-.03-.13-.03-.38v-1.12l.06-4.28c.1-3.78.22-9.16.37-15.78l.3-10.89a7.31 7.31 0 00-.4-2.82c-.3-.89-1.13-1.53-2.02-1.35-.88.17-1.53 1.08-1.8 2.02-.28.95-.07 2 .38 2.93.91 1.88 2.98 3.15 5.15 3.43 2.2.33 4.48-.67 6-2.4a10.22 10.22 0 002.52-6.45 6.1 6.1 0 00-.7-3.41c-.57-.96-1.81-1.58-2.83-1.21-1.01.37-1.52 1.68-1.35 2.77a6.9 6.9 0 001.6 3.13c1.5 1.9 3.37 3.52 5.56 4.3 1.09.38 2.24.54 3.34.4 1.1-.18 2.17-.61 3.04-1.27a5.29 5.29 0 001.9-2.54c.35-1 .3-2.1-.17-3-.45-.9-1.32-1.58-2.27-1.54-.96.01-1.84.64-2.4 1.42-1.1 1.64-1.1 3.8-1.4 5.7-.42 3.88-.7 7.52-.95 10.84l-1.06 15.73-.29 4.28-.09 1.11c-.02.26-.04.38-.05.38-.01 0-.02-.13-.02-.38l.02-1.11.16-4.3c.16-3.71.42-9.1.84-15.75.22-3.32.47-6.96.88-10.87.11-.98.21-1.96.38-2.98.18-1 .45-2.07 1.09-3a3.77 3.77 0 012.87-1.7c1.25-.05 2.34.83 2.86 1.88.56 1.06.61 2.36.23 3.5a5.94 5.94 0 01-2.13 2.85 7.41 7.41 0 01-3.34 1.4 7.88 7.88 0 01-3.67-.41 13.43 13.43 0 01-5.87-4.51 7.53 7.53 0 01-1.74-3.46c-.2-1.33.35-2.95 1.8-3.52 1.45-.5 2.94.33 3.64 1.5.73 1.17.85 2.53.81 3.8a10.9 10.9 0 01-2.7 6.87 7.5 7.5 0 01-6.6 2.6c-2.36-.31-4.6-1.67-5.63-3.8a4.77 4.77 0 01-.4-3.38c.32-1.07 1.03-2.19 2.27-2.45.6-.12 1.22.04 1.7.38.5.34.8.85 1 1.35.38 1.02.43 2.06.4 3.06l-.37 10.9-.59 15.75-.2 4.29-.06 1.11c-.02.26-.04.38-.05.38M320.03 259.86c0 .19-4.19.34-9.35.34-5.17 0-9.36-.15-9.36-.34 0-.2 4.19-.35 9.36-.35 5.16 0 9.35.16 9.35.35" fill="#fff"/>
  <path d="M488.8 196.83a53.39 53.39 0 0112.96-5.82l2.53-12.94 21.8-.65 3.29 12.77a53.44 53.44 0 0113.3 5.04l10.92-7.36 15.87 14.96-6.7 11.34a53.44 53.44 0 015.83 12.97l12.94 2.53.65 21.8-12.77 3.3a53.5 53.5 0 01-5.04 13.28l7.36 10.93-14.96 15.87-11.35-6.69a53.37 53.37 0 01-12.96 5.82l-2.53 12.94-21.8.65-3.3-12.77a53.41 53.41 0 01-13.28-5.04l-10.93 7.36-15.87-14.96 6.69-11.34a53.37 53.37 0 01-5.82-12.97l-12.94-2.53-.65-21.8 12.76-3.3a53.48 53.48 0 015.05-13.28l-7.36-10.93 14.96-15.87 11.34 6.7" fill="#f03658" fill-rule="evenodd"/>
  <path d="M546.33 265.95c0 .03-.36.05-1.05.07l-3.04.07-11.15.11-36.79.1h-2.97v-.35l.11-35.04.1-10.52.07-2.86c.02-.65.05-.99.07-.99.02 0 .05.34.07 1l.06 2.85.1 10.52.12 35.04-.35-.34h2.62l36.8.1 11.14.1c1.27.04 2.28.06 3.04.07.69.03 1.05.05 1.05.07" fill="#fff"/>
  <path d="M540.26 228.53c.03.04-.55.59-1.63 1.56l-4.61 4.05c-3.92 3.4-9.36 8.05-15.4 13.16l-.91.78-.24.2-.22-.21-6.85-6.37.43.01c-4.03 3.33-7.5 6.18-10.05 8.3l-2.92 2.33c-.69.53-1.07.8-1.1.78-.02-.03.32-.36.96-.94l2.8-2.48 9.9-8.48.2-.19.22.2 6.88 6.33-.46-.01.92-.78c6.03-5.1 11.52-9.7 15.52-13l4.76-3.89a14 14 0 011.8-1.35" fill="#fff"/>
  <path d="M540.26 239.98c-.1 0-.18-1.3-.24-3.41-.06-2.11-.1-5.04-.1-8.3l.34.34h-.59c-3.4 0-6.48-.04-8.7-.1-2.23-.07-3.61-.15-3.61-.25s1.38-.18 3.6-.24a321.3 321.3 0 019.3-.1h.35v.34a310 310 0 01-.1 8.3c-.07 2.12-.16 3.42-.25 3.42" fill="#fff"/>
  <path d="M187.57 267.86c-.18.07-.87-1.6-1.55-3.7-.67-2.12-1.07-3.87-.88-3.92.18-.05.87 1.6 1.54 3.7s1.07 3.86.9 3.92M201.72 296.4c-.15.1-2.3-2.79-4.5-6.63-2.2-3.83-3.62-7.13-3.45-7.2.18-.1 1.87 3.05 4.06 6.86 2.19 3.81 4.06 6.85 3.9 6.96M222.53 320.5c-.12.13-2.93-2.11-6.02-5.27-3.1-3.16-5.3-6-5.16-6.12.15-.13 2.57 2.5 5.65 5.63 3.08 3.14 5.66 5.6 5.53 5.75M248.9 338.34c-.08.17-3.39-1.25-7.2-3.48-3.84-2.22-6.7-4.4-6.6-4.55.12-.16 3.14 1.74 6.94 3.95 3.8 2.22 6.94 3.9 6.86 4.08M279.17 348.1c-.02.18-3.57-.34-7.9-1.25-4.26-1.2-7.66-2.32-7.6-2.5.06-.18 3.54.64 7.76 1.83 4.3.9 7.77 1.72 7.74 1.92M311 348.8c.02.19-3.53.75-7.95.95-4.42.2-8-.06-8-.25.01-.2 3.58-.25 7.97-.45 4.4-.19 7.95-.44 7.98-.25M342.1 341.93c.07.17-3.27 1.5-7.53 2.7-4.25 1.19-7.8 1.78-7.83 1.6-.04-.2 3.41-1.09 7.65-2.28 4.23-1.18 7.65-2.21 7.71-2.02M370.96 328.41c.1.16-2.85 2.2-6.75 4.3-3.9 2.1-7.22 3.44-7.3 3.27-.08-.18 3.1-1.8 6.97-3.89 3.87-2.08 6.98-3.84 7.08-3.68M395.7 308.38c.14.12-2.16 2.88-5.41 5.88-3.25 3.01-6.17 5.1-6.28 4.96-.13-.15 2.58-2.48 5.8-5.47 3.23-2.98 5.75-5.5 5.9-5.37M413.31 281.9c.17.08-1.14 3.43-3.28 7.3-2.12 3.9-4.26 6.78-4.42 6.67-.16-.1 1.71-3.14 3.82-7 2.11-3.85 3.7-7.04 3.88-6.96M424.24 251.94c.19.05-.78 3.5-2.16 7.69-1.38 4.2-2.64 7.54-2.82 7.47-.18-.06.79-3.5 2.16-7.7 1.38-4.17 2.64-7.52 2.82-7.46M434.45 221.7c.21.08-1.02 3.43-2.45 7.6-1.45 4.15-2.77 7.47-2.95 7.42-.18-.06.84-3.5 2.3-7.66.7-2.1 1.46-3.94 2.04-5.27.57-1.32.97-2.13 1.06-2.1M448.6 193.13c.17.1-1.65 3.18-3.77 7.03-2.14 3.85-3.81 7-3.99 6.91-.17-.07 1.23-3.38 3.38-7.25 2.13-3.87 4.23-6.8 4.38-6.69M469.89 169.57c.12.16-2.68 2.37-5.9 5.36-3.22 2.98-5.66 5.58-5.81 5.45-.14-.12 2.08-2.95 5.34-5.96 3.25-3.02 6.27-5 6.37-4.85M498.64 156.1c.05.2-3.37 1.24-7.5 2.73-4.14 1.47-7.42 2.86-7.5 2.68-.09-.17 3.1-1.85 7.27-3.34 4.16-1.5 7.68-2.24 7.73-2.06M530.24 152.58c-.01.2-3.58.11-7.97.27-4.39.14-7.94.44-7.97.24-.02-.18 3.52-.79 7.95-.93 4.43-.16 8 .24 8 .42M561 160.44c-.08.19-3.4-1.13-7.54-2.6-4.13-1.48-7.54-2.54-7.5-2.73.05-.18 3.57.59 7.74 2.08 4.17 1.48 7.38 3.09 7.3 3.25M588.15 177.05c-.13.15-2.93-2.06-6.52-4.6-3.57-2.55-6.56-4.5-6.46-4.67.1-.16 3.26 1.53 6.87 4.1 3.6 2.57 6.24 5.03 6.11 5.17M604.17 194.74c-.16.1-1.26-1.3-2.56-3.07-1.31-1.77-2.34-3.23-2.19-3.36.15-.12 1.42 1.16 2.74 2.95 1.33 1.78 2.17 3.38 2 3.48" fill="#1d2a30"/>
  <path d="M17.55 80.43s.07-.41.25-1.2l.8-3.54c.73-3.1 2.12-7.6 4.43-13.18a99.38 99.38 0 0111.03-19.03c5.1-6.9 11.83-14.14 20.35-20.83a107.71 107.71 0 0131-16.77 114.34 114.34 0 0119.16-4.63c6.72-.96 13.7-1.4 20.86-1.2 7.15.17 14.48 1.05 21.78 2.75a98.77 98.77 0 0121.59 7.62c7 3.46 13.6 7.94 19.74 13.15a93.47 93.47 0 0116.4 18.1 90.23 90.23 0 0110.98 21.8 102.64 102.64 0 015 23.2c.14 1.94.35 3.87.44 5.8.05 1.93.1 3.85.13 5.76.03 1.91-.1 3.82-.14 5.71-.17 1.89-.3 3.77-.54 5.63a84.16 84.16 0 01-5.73 21.2 164.18 164.18 0 01-9.47 18.62l-9.96 16.98c-6.39 10.97-9.74 22.48-11.63 33.06-.95 5.3-1.54 10.42-1.89 15.26-.37 4.85-.52 9.43-.54 13.72 0 8.56.1 15.97 1.03 21.93a86.96 86.96 0 003.05 13.54c.48 1.51.9 2.65 1.2 3.4.15.38.29.66.36.85l.11.3s-.8-1.48-1.8-4.5-2.27-7.57-3.19-13.55c-.97-5.98-1.12-13.4-1.15-21.98 0-4.3.14-8.88.5-13.74.32-4.86.9-9.99 1.84-15.31 1.86-10.63 5.2-22.22 11.62-33.27l9.92-17a164.05 164.05 0 009.4-18.56 83.62 83.62 0 005.67-21.03c.24-1.85.36-3.72.53-5.59.04-1.88.17-3.77.14-5.67l-.13-5.73c-.1-1.92-.3-3.83-.45-5.77a102.1 102.1 0 00-4.98-23.03 89.58 89.58 0 00-10.9-21.64 92.86 92.86 0 00-16.27-17.97 96.88 96.88 0 00-19.6-13.06 98.12 98.12 0 00-21.43-7.58A107.54 107.54 0 00125.41.68c-7.12-.2-14.07.23-20.75 1.17-6.67 1-13.05 2.59-19.06 4.57a107.5 107.5 0 00-30.89 16.62 109.18 109.18 0 00-20.33 20.67 100.17 100.17 0 00-11.1 18.9 94.78 94.78 0 00-4.55 13.11c-.38 1.54-.67 2.7-.86 3.52-.2.79-.32 1.19-.32 1.19" fill="#1d2a30"/>
  <path d="M342.07 570.73l20 7.02-.2 19.24c-9.58 2.7-10.93 7.54-10.93 7.54l20.03-.46 17.42-35.42-13.79-9.02-25.76-11.27-6.77 22.37" fill="#f03658"/>
  <path d="M350.94 604.53l2.2-3.06 16.25-1.26 16.06-33.48 2.94 1.92-17.42 35.42-20.03.46" fill="#f9a8bf"/>
  <path d="M361.8 588.17c.15.2 1.29-.48 2.84-.47 1.55-.03 2.7.63 2.85.43.18-.16-.98-1.33-2.86-1.3-1.89 0-3.02 1.2-2.84 1.34M362.01 583.4c.2.14 1.07-1.07 2.66-1.41 1.58-.37 2.88.35 3 .14.07-.09-.17-.42-.74-.71a3.71 3.71 0 00-4.56 1.02c-.38.5-.46.9-.36.96M361.74 577.28c.22.1.88-1.07 2.27-1.58 1.37-.53 2.64-.1 2.74-.32.05-.1-.21-.37-.77-.57a3.43 3.43 0 00-2.29.06c-.87.33-1.47.96-1.75 1.47-.29.52-.3.9-.2.94M360.27 577.27c.24-.06.1-1.33.7-2.68.56-1.37 1.57-2.14 1.45-2.35-.07-.23-1.56.33-2.27 2-.72 1.67-.1 3.13.12 3.03M357.9 575c.12.02.3-1.01.47-2.68l.27-2.93c.02-.55.16-1.1 0-1.87-.1-.37-.32-.75-.71-1a1.25 1.25 0 00-1.36.06c-.7.55-.9 1.18-1.14 1.78a6.7 6.7 0 00.16 4.84c.72 1.63 1.72 2.22 1.76 2.14.12-.1-.68-.83-1.17-2.36a6.89 6.89 0 01.06-4.33c.2-.5.48-1.1.82-1.34.17-.1.28-.1.42-.03.14.09.27.26.33.47.12.42.03 1.04.02 1.6l-.08 2.93c-.02 1.68.03 2.72.15 2.73" fill="#1d2a30"/>
  <path d="M357.57 575.88c.08-.05-.5-.93-2.05-1.43a5 5 0 00-5.68 2.03.92.92 0 00.09.77c.15.24.35.36.52.44.36.15.67.15.94.18a8.86 8.86 0 004.28-.67c1.44-.63 2.1-1.36 2.03-1.44-.08-.11-.86.41-2.25.85a9.83 9.83 0 01-3.97.4c-.26-.03-.52-.05-.68-.13-.17-.1-.12-.07-.12-.13.02-.1.21-.3.4-.48a4.88 4.88 0 014.3-1.22c1.39.3 2.1.95 2.2.83" fill="#1d2a30"/>
  <path d="M374.77 570.72a2.38 2.38 0 01-.04-4.75h.05a2.38 2.38 0 01.05 4.75h-.06" fill="#f9a8bf"/>
  <path d="M239.4 562.68l.27 26.21s-26.55 9.09-26.98 13.94l50.85 1.3 1.25-40.87-25.4-.58" fill="#f03658"/>
  <path d="M254.91 590.95c-.15 0-.3-.02-.46-.07-.98-.27-1.8-1.6-1.44-2.55a2.26 2.26 0 011.96-1.33c.24 0 .46.05.66.16a2.08 2.08 0 011.2 2.34 2.02 2.02 0 01-1.92 1.45m.73-3.79" fill="#f9a8bf"/>
  <path d="M242.75 603.6l-30.06-.77c-.15-1.17 1.02-1.98 1.67-2.33-1 .83-1.6 1.62-1.67 2.33l30.06.76" fill="#fff"/>
  <path d="M263.54 604.12l-20.8-.53-30.05-.76c.06-.7.67-1.5 1.67-2.33l.4-.2 48.75-.3.03 4.12" fill="#f9a8bf"/>
  <path d="M238.85 588.61c0 .25 1.24.4 2.44 1.23 1.23.8 1.83 1.89 2.06 1.8.23-.05-.1-1.54-1.57-2.52-1.47-1-2.97-.73-2.93-.5M233.46 590.68c-.06.24 1 .7 1.82 1.77.85 1.04 1.03 2.18 1.28 2.18.23.04.44-1.4-.6-2.72-1.03-1.32-2.49-1.46-2.5-1.23M230.27 597c.23.05.6-1.18 0-2.56-.6-1.38-1.75-1.95-1.86-1.74-.15.2.59.95 1.07 2.09.5 1.12.55 2.17.8 2.2M239.45 582.63c.1.23 1.25-.08 2.65.05 1.4.1 2.49.6 2.62.4.15-.18-.9-1.13-2.55-1.26-1.65-.15-2.83.62-2.72.81" fill="#1d2a30"/>
  <path d="M264.5 572.95l.05-1.84h.01l-.06 1.84m-25-.4v-.05.04" fill="#b2b1b0"/>
  <path d="M264.5 572.95l-25-.4v-.05l-.02-2.04 25.07.65-.05 1.84" fill="#bc283b"/>
  <path d="M239.5 577.34c0 .1.97.29 2.54.06a11.47 11.47 0 004.17-1.5c.24-.14.52-.28.79-.57.28-.25.45-.9.14-1.32-.25-.4-.7-.58-1.07-.6-.38-.02-.68.05-.96.11a9.16 9.16 0 00-3.98 1.99c-1.21 1.06-1.64 1.98-1.55 2.03.1.08.7-.68 1.92-1.55a10.2 10.2 0 013.78-1.64c.54-.13 1-.12 1.13.12.05.1.06.13-.06.29-.12.14-.34.28-.58.42a13.6 13.6 0 01-3.85 1.62c-1.46.37-2.42.4-2.42.54" fill="#1d2a30"/>
  <path d="M239.81 577.7c.09.05.6-.83.74-2.43a8.27 8.27 0 00-.89-4.36c-.29-.51-.63-1.2-1.6-1.33-.5-.03-.92.35-1.07.68-.18.34-.22.63-.29.93a5.85 5.85 0 00.97 4.37c.97 1.35 2 1.67 2.02 1.59.08-.13-.77-.63-1.5-1.92a5.85 5.85 0 01-.66-3.88c.1-.54.31-.97.51-.9.25 0 .67.41.87.85a8.48 8.48 0 011.02 3.95c.04 1.5-.25 2.42-.12 2.46M357.6 549.32l-58.55-21.77 61.56-8.64 3.1-30-115.11 10.05-16.26 23.4 4.28 29.37 112.15 28.51 8.83-30.92" fill="#1d2a30"/>
  <path d="M233.45 570.3l-5.6-107.16a30.14 30.14 0 0139.66-27.71l74.68 24.9 40.99 10.54s6.98 17.22 2.88 30.6c-4.02 13.1-18.37 21.81-31 18.07-15.7-4.65-87.72-35.63-87.72-35.63v87.27l-33.89-.87" fill="#1d2a30"/>
  <path d="M353.97 519.82c0 .01-.16-.03-.45-.14l-1.28-.5-4.9-1.96-17.96-7.32-59.16-24.42-3-1.25.47-.32-.1 61.84-.11 18.62-.07 5.05-.03 1.31c-.01.3-.03.45-.04.45a2.1 2.1 0 01-.03-.45l-.04-1.31-.06-5.05-.1-18.62c-.04-15.8-.07-37.59-.11-61.84v-.52l.48.2 3 1.25 59.1 24.6 17.87 7.53c2.07.9 3.7 1.6 4.85 2.08l1.25.56.42.21" fill="#365462"/>
  <path d="M285 519.95c.02-.17 3.7.48 7.67 2.7 3.99 2.2 6.5 4.96 6.36 5.07-.14.16-2.8-2.32-6.7-4.46-3.88-2.17-7.4-3.1-7.34-3.31M260.85 469.42c.16-.1 2.08 3.08 3.94 7.25 1.88 4.16 2.96 7.7 2.79 7.77-.19.06-1.56-3.35-3.42-7.5-1.85-4.13-3.49-7.43-3.31-7.52" fill="#365462"/>
  <path d="M261.01 422.2l-13.2-2.47-13.88 14.15 2.56 9.01 16.18-5.95 8.34-14.75" fill="#f9ad95"/>
  <path d="M212.18 265.09l-3.57.3s-6.44 1.05-6.44 1.2c0 .14-2.83 4.1-2.83 4.1l-2.6 4s2.1.78 3.63-.66l-.9 2.02s2.93 1.28 4.96-1.94a47.33 47.33 0 012.8-3.98l1.18-.1c.1.23 4.62 6.6 4.71 6.46.1-.15 3.85-3.77 3.85-3.77l-4.79-7.63" fill="#f6865e"/>
  <path d="M221.77 292.85l1.05-19.78-10.02-11.36-11.03.67-4.5 3.14c.22 1.1 3.35 1.84 6.72.87 3.27-.95 6.94-.24 6.94-.24l4.25 7.4-2.8 3.1 3.6 18.97 5.79-2.77" fill="#f9ad95"/>
  <path d="M192.5 266.79h35.84a1.64 1.64 0 010 3.27H192.5l-3.51-1.64 3.51-1.63" fill="#1d2a30"/>
  <path d="M210.65 298.17l-3.65-8.98a8.46 8.46 0 01-.62-3.6c.16-3.22.4-9.7-.1-11.18-.67-2.01-3.34-8.86-1.83-9.86 1.5-1 3.58-1.34 5.05 2.67 1.46 4.01 5.97 12.7 5.97 12.7l3.42 14.3-8.24 3.95" fill="#f9ad95"/>
  <path d="M215.02 279.03c-.09.05-.87-1.42-2.08-3.83-1.2-2.37-2.83-5.83-4.56-9.4-.5-.8-1.3-1.4-2.12-1.38-.82.01-1.58.6-1.79 1.33-.22.75-.06 1.58.08 2.34.14.77.3 1.48.48 2.12.7 2.58 1.43 4.08 1.32 4.13-.04.02-.27-.33-.6-1a21.13 21.13 0 01-1.77-5.13c-.15-.77-.38-1.66-.12-2.65.27-1 1.25-1.79 2.38-1.82 1.17-.03 2.15.77 2.72 1.68 1.85 3.8 3.32 7.1 4.43 9.57 1.08 2.46 1.71 4 1.63 4.04" fill="#f6865e"/>
  <path d="M382.04 470.62l-3.65-6.41-39.09-9.79 4.6 7.95 38.14 8.25" fill="#f9ad95"/>
  <path d="M207.24 298.17l24.6 58.29a22.64 22.64 0 0012.26 12.14l53.08 21.8 12.35-34.2-51.68-18.3-33.58-47.87-17.03 8.14" fill="#f03658"/>
  <path d="M287.16 356.77c.06 1.37-5.73 43.79-5.73 52.45 0 8.67 16.6 18.07 16.6 18.07l18.16 38.58h64.71l-22.12-41.54-10-33.28a78.37 78.37 0 00-20.09-33.3l-10.8-7.23-30.73 6.25" fill="#f03658"/>
  <path d="M305.96 390.27l10.87 45.6L262 420.43l-9.34 16.5 71.32 32.5a20.05 20.05 0 0027.74-23.22l-15.97-62.4a15.25 15.25 0 00-29.8 6.46" fill="#f03658"/>
  <path d="M298.02 427.3a32.2 32.2 0 01-2.36-1.2 49.94 49.94 0 01-6-3.99c-2.37-1.9-5.23-4.33-7.08-8.04-1.76-3.8-1.64-8.46-1-13.03.67-4.61 1.62-8.91 2.17-12.89.61-3.96 1.03-7.54 1.25-10.56.24-3.02.27-5.48.27-7.17 0-1.7-.06-2.63 0-2.64.02 0 .06.23.11.68.06.44.1 1.1.16 1.95.09 1.7.13 4.17-.05 7.2a119.8 119.8 0 01-1.1 10.64c-.53 3.98-1.46 8.32-2.12 12.88-.64 4.53-.75 9.07.89 12.67 1.73 3.55 4.5 6.01 6.8 7.93a61.04 61.04 0 005.84 4.14c1.44.9 2.25 1.38 2.22 1.42M328.24 378.17c-.09.2-3.16-1.52-7.38-1.78-4.21-.32-7.5.98-7.55.76-.11-.13 3.2-1.77 7.6-1.45 4.4.27 7.46 2.35 7.33 2.47M320.83 353.57a6 6 0 01-.98 1.1c-.67.69-1.66 1.64-2.9 2.8a182.75 182.75 0 01-24.13 18.87c-.81.5-1.27.76-1.3.72-.03-.04.38-.37 1.14-.95l3.24-2.4c2.73-2.02 6.48-4.84 10.53-8.08 4.04-3.25 7.62-6.3 10.18-8.52l3.05-2.63a6.12 6.12 0 011.17-.91M257.83 338.03c.07.19-1.92 1.03-4.12 2.48-2.21 1.44-3.78 2.92-3.93 2.78-.14-.12 1.26-1.87 3.55-3.36 2.28-1.5 4.45-2.08 4.5-1.9" fill="#1d2a30"/>
  <path d="M311.2 410.93c.02.05-.4.18-1.19.39-.77.21-1.93.42-3.36.59-1.43.17-3.16.22-5.07.13-1.9-.12-4-.4-6.14-.93a35.22 35.22 0 01-5.86-2.08 30.77 30.77 0 01-4.4-2.5 23.05 23.05 0 01-2.7-2.11c-.59-.55-.9-.87-.87-.9.09-.1 1.42 1.08 3.83 2.6a35.99 35.99 0 0010.17 4.32 35.98 35.98 0 0011 .98c2.84-.2 4.57-.61 4.6-.49M314.92 430.98c.01.08-.92.33-2.46.45a22.32 22.32 0 01-11.71-2.39c-1.38-.71-2.14-1.3-2.1-1.37.11-.2 3.39 1.78 7.93 2.68 4.53.95 8.32.41 8.34.63M343.26 418.52c.02.05-.34.26-1.02.62a31 31 0 01-2.94 1.32 45.16 45.16 0 01-20.94 2.9c-1.36-.15-2.45-.31-3.2-.48a3.97 3.97 0 01-1.14-.3c.02-.12 1.68.13 4.38.29 2.7.16 6.43.15 10.5-.4a54.76 54.76 0 0010.23-2.47c2.55-.89 4.08-1.58 4.13-1.48M338.21 396.2c-.02.1-1.7-.21-4.42-.54-2.72-.32-6.5-.6-10.67-.45-4.17.16-7.93.7-10.62 1.22-2.69.52-4.33.95-4.37.85a4 4 0 011.12-.45c.73-.25 1.8-.56 3.15-.88a55.5 55.5 0 0121.46-.77c1.37.22 2.46.45 3.2.65.76.19 1.16.32 1.15.36M349.5 458.6c-.01.04-.57-.08-1.56-.32-1-.23-2.41-.66-4.13-1.28a54.7 54.7 0 01-23.15-16.25 39.27 39.27 0 01-2.6-3.45 7.12 7.12 0 01-.82-1.36c.1-.07 1.4 1.78 3.8 4.5 2.4 2.7 6 6.21 10.52 9.4a61.82 61.82 0 0012.42 6.7c3.37 1.34 5.55 1.93 5.52 2.05M300.35 457.9c-.08 0-.24-1.45-.17-3.8a42.11 42.11 0 014.63-17.63c1.08-2.09 1.93-3.27 2-3.23.1.06-.6 1.33-1.56 3.44a54.06 54.06 0 00-3.05 8.53c-.9 3.42-1.33 6.61-1.53 8.92-.2 2.32-.21 3.76-.32 3.77M267.34 442.9c-.07 0-.16-1.23.03-3.2.21-1.95.78-4.72 2.37-7.35a23.67 23.67 0 015.15-5.75c1.52-1.25 2.54-1.92 2.6-1.86.06.09-.85.9-2.28 2.23-1.4 1.34-3.36 3.22-4.88 5.74a20.32 20.32 0 00-2.47 7.06c-.31 1.92-.4 3.13-.52 3.12M376.6 457.56c.03.08-1.42.78-3.85 1.7a71.96 71.96 0 01-9.74 2.92c-3.88.87-7.5 1.2-10.12 1.1-.65 0-1.24-.06-1.76-.11-.51-.05-.96-.1-1.32-.19-.71-.14-1.1-.24-1.1-.29.02-.06.51-.01 1.4.04.7.04 1.64.08 2.79.06 2.57-.02 6.12-.43 9.96-1.29 3.85-.85 7.27-1.9 9.73-2.7 2.46-.8 3.98-1.33 4.01-1.24M361.96 431.2c.08.04-.34.85-1.46 1.67-1.1.83-2.78 1.73-4.71 2.47a29.33 29.33 0 01-5.09 1.5c-.67.11-1.22.18-1.61.16-.4.01-.63-.13-.6-.15.05-.05.8-.1 2.1-.49 1.29-.36 3.05-.93 4.95-1.67 1.9-.73 3.56-1.53 4.68-2.23 1.13-.68 1.65-1.32 1.74-1.26M352.8 404.43c.03 0 .02.23-.2.48-.22.26-.59.56-1.08.87-.97.62-2.4 1.29-4.02 1.88-1.63.59-3.16 1-4.3 1.16-1.12.19-1.87.04-1.85-.06.02-.1.69-.12 1.76-.43 1.08-.28 2.55-.75 4.15-1.33 1.6-.57 3.03-1.16 4.02-1.65.5-.24.89-.46 1.13-.63.25-.17.32-.3.39-.29M305.26 390.28c0 .09-1.2.2-3.14.13a39.88 39.88 0 01-14.67-3.48c-1.76-.81-2.78-1.44-2.75-1.52.1-.2 4.38 1.94 10.08 3.28 5.7 1.37 10.49 1.37 10.48 1.6M343.65 378.23c.13.19-1.78 1.48-4.38 2.51-2.58 1.08-4.85 1.5-4.9 1.26-.02-.15 2.09-.84 4.64-1.9 2.56-1.02 4.55-2 4.64-1.87M313.76 360.9c.05-.07.82.43 1.85 1.47a16.83 16.83 0 014.68 10.26c.11 1.47-.03 2.37-.1 2.37-.23.02-.15-3.64-2-7.61-1.78-4-4.6-6.34-4.43-6.5M271.74 379.85c-.03.02-.27-.42-.6-1.25-.35-.84-.74-2.08-1.07-3.66-.68-3.16-.82-7.7.1-12.53.9-4.84 2.46-9.02 3.62-11.99.6-1.49 1.1-2.68 1.46-3.5a5.5 5.5 0 01.63-1.24c.05.02-.1.5-.38 1.34l-1.25 3.57c-1.04 3.01-2.5 7.18-3.4 11.95-.9 4.76-.84 9.19-.3 12.3.52 3.14 1.32 4.97 1.2 5.01M240.39 367.03c-.05-.01.04-.49.23-1.34.19-.86.54-2.08 1.05-3.57a45.8 45.8 0 0113.89-19.92c1.21-1 2.23-1.75 2.98-2.22a5.1 5.1 0 011.18-.69c.07.1-1.52 1.21-3.84 3.28a52.65 52.65 0 00-8.04 9.05 52.67 52.67 0 00-5.7 10.67c-1.14 2.9-1.63 4.77-1.75 4.74M245.43 320.2c0 .12-1.52.19-3.86.86a36.11 36.11 0 00-8.66 3.86 40.92 40.92 0 00-7.53 5.81c-1.74 1.72-2.6 2.96-2.7 2.9-.05-.03.14-.36.52-.95.18-.3.44-.63.74-1.01.3-.4.66-.83 1.09-1.28a34.5 34.5 0 017.52-6.06 31.12 31.12 0 018.9-3.75c.6-.15 1.15-.25 1.64-.3.5-.07.91-.13 1.26-.13.7-.02 1.08 0 1.08.04M233 302.02c-.01.24-5.26-.74-11.47.88-6.23 1.53-10.38 4.88-10.5 4.67-.05-.06.9-.97 2.7-2.1a27 27 0 0115.88-4.02c2.12.15 3.4.5 3.38.57" fill="#fcfdfd"/>
  <path d="M305.96 390.27c.02 0 .11.3.27.87l.66 2.54 2.37 9.52 7.9 32.6.13.55-.55-.15-13.98-3.93-40.81-11.6.28-.12-6.93 12.03-1.92 3.25-.52.84c-.12.18-.18.27-.2.27l.14-.31.45-.87 1.8-3.32 6.74-12.14.1-.17.2.06 40.86 11.41 13.97 3.95-.42.4-7.66-32.65-2.17-9.56-.56-2.57c-.12-.59-.17-.9-.15-.9M336 387.43c.02 0 .11.26.26.78l.64 2.28c.54 2.07 1.3 4.92 2.2 8.4l7.03 27.8c1.35 5.43 2.66 10.6 3.77 15.33 1.1 4.73 1.58 9.19 1.05 12.87a18.12 18.12 0 01-3.06 8.14 9.55 9.55 0 01-2.2 2.33c-.05-.06.85-.78 1.97-2.48a18.55 18.55 0 002.8-8.05c.46-3.61-.06-7.97-1.18-12.67a99156 99156 0 00-3.82-15.3L338.63 399l-2-8.45-.5-2.31c-.11-.53-.16-.81-.13-.82" fill="#1d2a30"/>
  <g clip-path="url(#a)" transform="matrix(.13333 0 0 -.13333 0 604.53)">
    <path d="M2594.63 1039.39h24.34v.59h-24.34z" fill="#161c1e"/>
  </g>
  <path d="M349.2 465.87h-3.25c1.02-.94 1.94-2 2.77-3.18a10.2 10.2 0 002.42.47 23.79 23.79 0 004.5.08 11.48 11.48 0 01-6.44 2.63m3.1-3.07c-.87 0-1.62-.04-2.2-.07-.57-.03-.99-.07-1.2-.07-.1 0-.16 0-.18.02a20.05 20.05 0 003-16.47l-2.35-9.2c.36-.02.81-.08 1.33-.17 1-.19 2.26-.51 3.64-.98 1.14 3.23 2.25 6.48 3.35 9.72 1.13 3.3 2.27 6.74 1.8 10.19a12.02 12.02 0 01-3.14 6.81 36.36 36.36 0 01-4.04.22" fill="#bc283b"/>
  <path d="M345.95 465.87a19.54 19.54 0 002.96-4.5 19.29 19.29 0 002.04-6.48c.53-3.68.05-8.14-1.05-12.87-.38-1.64-.8-3.33-1.22-5.07.1.03.22.06.37.06h.32l2.36 9.2a20.05 20.05 0 01-3.01 16.48 20.06 20.06 0 01-2.77 3.18M349.3 436.69l-7.12-27.78c.23 0 .5-.02.8-.06 4.45 8.43 7.94 17.35 11.14 26.37-1.35.49-2.57.87-3.53 1.14-.52.16-.96.26-1.3.33M348.65 436.8l-2.52-10.11-4.5-17.82c.14.02.32.04.54.04h.01l7.11 27.78-.64.12M342.1 408.58l-.66-2.57c.45.8.89 1.6 1.32 2.42l-.66.15M341.58 408.68l-1.1-4.33c.33.55.65 1.1.96 1.66l.66 2.57-.52.1" fill="#bc283b"/>
  <path d="M353.84 463.3a23.79 23.79 0 01-2.7-.13c-.52-.05-.97-.1-1.33-.19-.71-.14-1.1-.24-1.1-.29h.01c.02-.02.08-.03.17-.03.22 0 .64.04 1.21.07a36.5 36.5 0 006.25-.15l-.7.67c-.64.03-1.24.05-1.81.05M349.21 437h-.16c-.15 0-.27-.02-.37-.05l-.03-.14.64-.12a54.36 54.36 0 004.83-1.46l.22.63c-1.38.47-2.64.8-3.64.98-.52.09-.97.15-1.33.16h-.16M342.17 408.9c-.22 0-.4 0-.54-.03l-.05-.2.52-.1c.19-.03.4-.08.66-.14l.23.42c-.3.04-.58.06-.81.06" fill="#afaead"/>
  <path d="M348.91 461.38a19.27 19.27 0 001.99-7.94c.07-4.38-.29-6.87-1.25-11.15-2.95-13.1-6.7-25.68-9.66-38.78l.5.84 1.09 4.33.05.2 4.5 17.8 2.52 10.13c0 .05.02.1.03.14.43 1.74.84 3.43 1.22 5.07 1.1 4.73 1.58 9.19 1.05 12.87a19.29 19.29 0 01-2.04 6.49" fill="#161c1e"/>
  <path d="M316.41 347.75c4.34 1.31 9.22.71 13.12-1.61a16.55 16.55 0 007.62-10.8c2.14 2.05 5.36 2.73 8.28 2.2 2.91-.53 5.54-2.15 7.72-4.16 4-3.7 6.68-9.03 6.47-14.48-.2-5.45-3.62-10.85-8.76-12.69-5.13-1.84-11.63.56-13.75 5.59-.95-2.86 1.5-6.72.91-9.67-1.17-5.93-4.72-9.4-7.73-9.52" fill="#1d2a30"/>
  <path d="M322.86 346.21c5.88-10.23 7.56-23.87 9.04-35.67.7-5.55 1.93-13.46-1.85-16.93-4.06-3.72-4.45-9.46-9.1-12.33-4.66-2.87-10.98-3.1-15.38.18" fill="#1d2a30"/>
  <path d="M292.34 366.59v-16.07s-16.73-2.95-17.72-16.36c-1-13.4-.65-44.37-.65-44.37a44.1 44.1 0 0145.79 2.9l-.68 47.2.03 15.38-13.7 11.11-13.07 10.3v-10.1" fill="#f9ad95"/>
  <path d="M287.53 317.75c2.23-2.88 5.87-4.03 8.87-2.03 3 2 4.17 6.45 2.55 9.74a10 10 0 01-6.36 5s6.02 10.98 9.85 13.9c4.57 3.47 6.71 5.17 12.35 5.84 5.54.66 4.87.72 8.07-3.99 2.34-3.42 3.06-6.71 3.13-10.9l.52-29.66c.06-3.56.11-7.17-.69-10.64-.8-3.47-2.57-6.84-5.47-8.79-3.16-2.13-7.17-2.3-10.77-3.5-4.5-1.49-8.34-4.55-12.56-6.76-4.22-2.21-9.38-3.53-13.6-1.33-3.04 1.59-5.06 4.72-8.01 6.46-4.2 2.48-9.92 1.93-11.94 8.32-.7 2.2-.64 4.62.09 6.82 2.87 8.66 13.3 12.13 20.79 8.36.15 1.46-1.24 4.74.27 9.38.48 1.48.66 3.74 2.9 3.78" fill="#1d2a30"/>
  <path d="M289.88 326.11c-.06.02-.05.26.18.58.22.32.72.7 1.45.74 1.45.14 3.3-1.48 3.36-3.7a3.87 3.87 0 00-3-4.04c-1.34-.3-2.11.22-2.06.3.04.16.8-.06 1.88.35a3.36 3.36 0 012.25 3.34c-.04 1.75-1.4 3.03-2.44 3.08-1.09.07-1.53-.73-1.62-.65" fill="#f6865e"/>
  <path d="M357.87 319.07c.04.01-.07.47-.38 1.26s-.88 1.9-1.78 3.12a15.61 15.61 0 01-9.96 6.1 15.31 15.31 0 01-13.9-5.4 4.13 4.13 0 01-.7-1.11c.1-.1 1.14 1.5 3.58 3.2a15.48 15.48 0 0010.92 2.63 15.8 15.8 0 009.67-5.72c1.86-2.32 2.42-4.14 2.55-4.08" fill="#365462"/>
  <path d="M356.01 316.9c.04.02-.1.4-.46 1.03s-.94 1.51-1.81 2.5a16.75 16.75 0 01-8.67 5.16c-3.95.9-7.68.11-10.04-.94-1.2-.53-2.1-1.08-2.69-1.51-.59-.43-.88-.71-.85-.75.07-.1 1.34.9 3.72 1.8a17 17 0 009.7.73c3.78-.87 6.73-3.01 8.47-4.83 1.78-1.83 2.52-3.26 2.63-3.19M333.58 334.13c0 .03-.18.13-.56.31-.38.17-.97.37-1.76.47-1.57.22-4-.16-6.39-1.76-2.43-1.57-4.43-4.47-6.01-7.82-1.63-3.34-2.92-7.25-5.45-10.63a12.74 12.74 0 00-4.58-3.9 16.33 16.33 0 00-5.47-1.45c-3.64-.37-7-.13-9.82-.51a15.74 15.74 0 01-6.35-1.98 9.72 9.72 0 01-1.46-1.1c-.3-.3-.44-.45-.42-.47.04-.05.66.58 2.01 1.33 1.36.75 3.5 1.48 6.28 1.73 2.76.32 6.1.03 9.83.37 1.85.17 3.83.56 5.7 1.46 1.88.9 3.53 2.37 4.83 4.1 2.62 3.5 3.9 7.47 5.48 10.78 1.53 3.33 3.42 6.13 5.7 7.68a9.57 9.57 0 006.1 1.9c1.54-.11 2.3-.6 2.34-.5" fill="#365462"/>
  <path d="M332.27 329.3c0 .02-.2.04-.6.06a6.6 6.6 0 01-1.71-.22 10.8 10.8 0 01-5.21-3.53 20.4 20.4 0 01-2.5-3.6c-.77-1.37-1.47-2.88-2.25-4.45a30.75 30.75 0 00-2.72-4.69 14.04 14.04 0 00-1.9-2.1c-.35-.33-.77-.58-1.16-.86-.4-.27-.79-.58-1.25-.76a15.66 15.66 0 00-5.5-1.62c-1.87-.27-3.7-.25-5.45-.28-3.49.02-6.67.1-9.33-.25a16.64 16.64 0 01-6.03-1.8c-.67-.35-1.1-.75-1.43-.97-.31-.23-.47-.36-.45-.38.04-.06.71.42 2 1.1 1.31.66 3.36 1.3 5.97 1.57s5.76.15 9.27.09c1.76 0 3.61-.02 5.53.24 1.9.27 3.92.67 5.75 1.68.48.2.89.52 1.31.81.42.3.86.56 1.22.92.76.67 1.41 1.43 2 2.2 1.14 1.58 1.99 3.24 2.75 4.82s1.44 3.1 2.17 4.46a20.51 20.51 0 002.37 3.55 10.99 10.99 0 004.91 3.59c1.4.42 2.24.34 2.24.42" fill="#365462"/>
  <path d="M335.51 336.14c-.03.03-.3-.18-.74-.62a13.32 13.32 0 01-1.62-2.06 16.53 16.53 0 01-2.59-8.23c-.13-3.43.87-6.46 1.93-8.4.53-.98 1.06-1.71 1.45-2.19.4-.47.65-.7.69-.67.1.07-.78 1.12-1.7 3.08a17.82 17.82 0 00-1.67 8.16 17.76 17.76 0 002.31 8c1.08 1.87 2.03 2.85 1.94 2.93M521.06 520.74c9.2 3.21 21.2.34 29.07-5.4 7.86-5.75 13.53-13.98 18.55-22.33 2.14-3.57 4.23-7.28 4.9-11.38.68-4.1-.32-8.72-3.5-11.4-4.94-4.16-12.52-2.05-18.13 1.15-17.57 10-29.57 29.18-30.9 49.36M530.94 542.76c5.52 7.29 15.01 10.53 24.15 10.95 9.13.43 18.16-2.1 26.7-5.38 3.1-1.18 6.48-2.81 7.55-5.96.8-2.38-.03-5.09-1.62-7.03-1.6-1.94-3.86-3.22-6.17-4.2-8.4-3.58-18.03-3.75-26.87-1.46-8.84 2.3-16.57 7.43-23.74 13.08M520.92 481.33c7.62.16 13.38-6.51 16.83-13.3a49.33 49.33 0 004.54-30.76c-.7-3.9-2.17-8.09-5.66-9.96-3.53-1.9-8.14-.65-11.1 2.06-2.97 2.7-4.6 6.57-5.78 10.4-4.09 13.23-3.2 28.43 1.17 41.56M495.91 523.45c12.99-22.1 15.15-49.13 7.48-73.58-1.24-3.97-3.6-8.5-7.74-8.77-4.6-.3-7.47 4.83-8.74 9.25-4.45 15.53-3.5 32.03-2.52 48.15.6 9.93 4.01 18.42 11.52 24.95M482.41 532.54a53.1 53.1 0 00-31.5-33.4c-3.45-1.3-7.83-2.05-10.4.6-2.53 2.58-1.75 6.9-.13 10.13 2.61 5.22 6.85 9.41 11.08 13.44 3.85 3.66 7.84 7.33 12.7 9.46 4.87 2.13 13.8 2.67 18.25-.23" fill="#f03658"/>
  <path d="M562.9 475.77a278.07 278.07 0 00-.93.74l-2.71 2.04-1.98 1.46c-.7.55-1.45 1.18-2.26 1.84-1.6 1.34-3.5 2.79-5.42 4.6l-3.06 2.79c-1.06.97-2.08 2.07-3.18 3.16-2.23 2.15-4.4 4.65-6.73 7.24-4.5 5.31-9.12 11.44-13.38 18.25-4.2 6.87-7.61 13.74-10.35 20.14-1.27 3.25-2.55 6.3-3.47 9.26-.48 1.47-1 2.88-1.4 4.26-.4 1.38-.77 2.71-1.12 3.98-.78 2.52-1.22 4.87-1.7 6.9-.23 1.03-.46 1.97-.64 2.85l-.42 2.42-.6 3.34-.17.87-.08.3.01-.3.12-.88.49-3.37c.1-.73.23-1.55.37-2.43.15-.89.37-1.84.58-2.87.46-2.05.87-4.4 1.62-6.94l1.08-4c.39-1.4.9-2.81 1.38-4.29.9-2.98 2.17-6.05 3.43-9.31a152.52 152.52 0 0110.35-20.25 152.35 152.35 0 0113.48-18.3c2.35-2.58 4.53-5.09 6.8-7.23 1.1-1.08 2.14-2.18 3.2-3.15l3.1-2.76c1.94-1.8 3.86-3.22 5.5-4.55.82-.64 1.57-1.27 2.3-1.8l2-1.42 2.8-1.94a143.63 143.63 0 011-.65" fill="#1d2a30"/>
  <path d="M580.1 537.02c0 .02-.32-.03-.9-.15-.58-.1-1.42-.32-2.52-.5a71.4 71.4 0 00-9.4-1.16c-7.95-.5-19.23.44-30.53 5.14a69.91 69.91 0 00-30.97 25.51c-.65.92-1.09 1.67-1.42 2.16-.33.49-.5.75-.52.73-.02 0 .12-.28.41-.8.3-.5.7-1.28 1.33-2.22a63.46 63.46 0 015.68-7.63 68.49 68.49 0 0125.25-18.32 68.48 68.48 0 0130.8-5c4 .3 7.22.84 9.41 1.35 1.1.22 1.94.48 2.51.62.57.16.87.25.87.27M532.15 436.13s0 .12-.05.34a151 151 0 00-.2 1l-.86 3.8a974.4 974.4 0 01-3.32 13.94c-2.86 11.77-7.02 27.96-11.35 45.91-2.15 8.98-4.1 17.56-5.78 25.38a649.31 649.31 0 00-4.1 20.85c-.56 2.98-.98 5.68-1.38 8.05-.4 2.37-.72 4.41-.96 6.09l-.6 3.85a659.71 659.71 0 00-.25 1.33l.01-.34.11-1 .49-3.88c.2-1.68.49-3.73.86-6.1.37-2.38.76-5.09 1.3-8.07.99-5.97 2.35-13.05 3.97-20.9a958.19 958.19 0 015.73-25.4c4.34-17.96 8.56-34.14 11.53-45.87l3.5-13.9.97-3.77.27-.98.1-.33M502.34 564.9a.9.9 0 01-.09-.27l-.18-.8-.64-3.07c-.55-2.67-1.28-6.55-2.1-11.36a430.24 430.24 0 01-4.86-37.81c-.59-7.43-.92-14.52-1.06-20.98-.1-6.45-.05-12.26.15-17.14.06-2.44.22-4.64.33-6.58.1-1.93.23-3.6.36-4.95l.29-3.13.09-.82c.02-.18.04-.27.05-.27l.01.28-.03.82-.17 3.13c-.1 1.36-.2 3.03-.26 4.96-.07 1.94-.2 4.14-.24 6.58-.14 4.87-.15 10.67-.02 17.11.18 6.44.52 13.52 1.11 20.94a488.86 488.86 0 004.67 37.79c.78 4.8 1.44 8.7 1.92 11.38l.52 3.1c.05.32.1.59.12.8l.03.29" fill="#1d2a30"/>
  <path d="M503.3 567.7c-.02.01-.14-.25-.34-.76l-.86-2.22a658 658 0 01-.6-1.61l-.84-1.87-.95-2.14c-.34-.76-.77-1.53-1.18-2.36l-1.33-2.57-1.58-2.72c-1.04-1.9-2.39-3.8-3.7-5.86-2.77-4-6.05-8.26-9.77-12.5-3.76-4.19-7.6-7.95-11.22-11.23-1.87-1.57-3.58-3.14-5.3-4.46l-2.46-1.96-2.33-1.72a81.47 81.47 0 00-4.08-2.87 59.45 59.45 0 00-3.15-2.06l-2-1.28a4.1 4.1 0 01-.69-.48c.01-.02.27.11.74.37l2.08 1.18c.9.5 1.98 1.17 3.2 1.98 1.25.8 2.66 1.7 4.15 2.8l2.37 1.7 2.49 1.94c1.74 1.3 3.47 2.87 5.35 4.44a145.7 145.7 0 0111.3 11.25 132.7 132.7 0 019.8 12.59c1.3 2.08 2.63 4 3.66 5.92l1.56 2.74 1.3 2.61c.4.84.82 1.61 1.14 2.38l.91 2.18.8 1.9.56 1.63.74 2.26c.17.52.25.8.23.8M558.09 501.4c0 .1-1.58.1-4.1.24-2.53.14-6.01.47-9.8 1.19a76.3 76.3 0 00-9.56 2.48c-2.4.8-3.86 1.38-3.9 1.29-.02-.04.33-.23.98-.53.64-.31 1.59-.71 2.78-1.16a58.27 58.27 0 0119.48-3.7c1.28-.02 2.3 0 3.02.06.7.04 1.1.09 1.1.13M567.88 549.24c-.18.1-1.65-4.14-5.34-8.06-3.64-3.98-7.75-5.75-7.64-5.93.02-.06 1.07.29 2.63 1.17a23.3 23.3 0 019.38 10.1c.77 1.62 1.04 2.7.97 2.72M534.48 454.07c.13.13-2.26 2.5-4.87 5.7-2.62 3.21-4.46 6.03-4.62 5.93-.14-.07 1.49-3.07 4.14-6.3 2.64-3.26 5.25-5.45 5.35-5.33M526.64 440.52c.17-.03.7 2.27 1.18 5.13.49 2.85.75 5.2.58 5.22-.17.03-.7-2.26-1.18-5.12-.49-2.86-.75-5.2-.58-5.23M502.35 483.03c.15.08-1.55 3.66-3.8 8s-4.2 7.8-4.34 7.71c-.15-.07 1.55-3.65 3.8-8 2.25-4.33 4.2-7.79 4.34-7.71M487.9 468.6c.15-.08 1.6 2.51 3.22 5.78 1.63 3.27 2.82 5.99 2.67 6.06-.15.08-1.6-2.51-3.22-5.78-1.63-3.27-2.82-5.99-2.67-6.06" fill="#1d2a30"/>
  <path d="M466.65 517.95c-.04.18-2.62-.32-5.83-.54-3.21-.24-5.84-.1-5.85-.28-.02-.16 2.62-.57 5.9-.33 3.27.22 5.82 1 5.78 1.15M481.16 561.59l7.23 38.01a5.33 5.33 0 005.23 4.33h21.35c2.61 0 4.83-1.88 5.26-4.45l6.28-37.9h-45.35" fill="#1d2a30"/>
  <path d="M483.51 573.94h40.83l2.17-12.35h-45.35l2.35 12.35" fill="#365462"/>
  <path d="M483.51 573.94l.86 4.5h39.35l.62-4.5h-40.83" fill="#fcfdfd"/>
</svg>
