<svg xmlns="http://www.w3.org/2000/svg" height="562.68" width="823.19">
  <defs>
    <clipPath id="a" clipPathUnits="userSpaceOnUse">
      <path d="M1287.39 2228.58a25.45 25.45 0 10-47.34-12.94 25.3 25.3 0 003.57 12.94h-29.51a25.4 25.4 0 003.56-12.94 25.46 25.46 0 00-50.89 0 25.3 25.3 0 003.56 12.94h-29.52a25.3 25.3 0 003.57-12.94 25.46 25.46 0 00-50.9 0 25.3 25.3 0 003.57 12.94h-29.52a25.3 25.3 0 003.57-12.94 25.46 25.46 0 00-50.89 0 25.3 25.3 0 003.56 12.94h-29.52a25.34 25.34 0 003.57-12.94 25.46 25.46 0 00-50.9 0 25.3 25.3 0 003.57 12.94h-29.52a25.26 25.26 0 003.57-12.94 25.46 25.46 0 00-50.9 0c0 4.73 1.32 9.14 3.57 12.94h-18.5v-526.26h438.41v526.26h-9.74"/>
    </clipPath>
  </defs>
  <rect width="100%" height="100%" fill="#ffb6b6" />
  <path d="M338.39 62.08l23.87 75.52h-17.29l-7.62-26.04 1.04-49.48" fill="#e7e8e5"/>
  <path d="M386.6 158.84H30.1v-21.31h356.5v21.31" fill="#dadbd8"/>
  <path d="M97.04 186.88H79.79v-32.7h17.25v32.7M319.63 186.88h-17.25v-32.7h17.25v32.7" fill="#dadbd8"/>
  <path d="M42.22 38.74s-16 12.2-.68 28.3c.27.27.64.43 1.02.43l139.78-.82s11.94-13.39 2.04-28.82l-142.16.91" fill="#e7e8e5"/>
  <path d="M151.45 51.47c0 .15-17.4.28-38.87.28-21.48 0-38.88-.13-38.88-.28 0-.16 17.4-.29 38.88-.29 21.46 0 38.87.13 38.87.29M129.7 56.52c0 .16-8.18.29-18.27.29-10.1 0-18.28-.13-18.28-.29 0-.15 8.19-.28 18.28-.28 10.1 0 18.28.13 18.28.28M165.74 66.2c-.09-.02.3-1.6.74-4.2.44-2.58.84-6.19.81-10.19-.04-4-.51-7.6-1-10.18-.48-2.58-.91-4.16-.82-4.18.04-.01.18.37.4 1.07.24.7.52 1.74.81 3.03a49.68 49.68 0 01.2 20.53c-.27 1.3-.53 2.33-.75 3.04-.21.7-.35 1.1-.39 1.08M176.17 37.66c.04-.02.26.34.63 1.01.19.34.4.76.62 1.26.22.5.5 1.06.71 1.7a29.79 29.79 0 011.94 10.53 29.74 29.74 0 01-1.77 10.55c-.2.65-.47 1.22-.68 1.72-.2.5-.42.92-.6 1.26a4.87 4.87 0 01-.61 1.03c-.1-.05.68-1.56 1.51-4.14a33.63 33.63 0 001.59-10.42 33.9 33.9 0 00-1.75-10.4c-.88-2.56-1.68-4.05-1.59-4.1M64.27 66.39c-.03.02-.26-.31-.65-.94a10 10 0 01-.65-1.16c-.23-.47-.52-1-.75-1.6-.52-1.22-1-2.72-1.36-4.42-.34-1.7-.56-3.62-.54-5.63.03-2.01.3-3.92.69-5.61.42-1.7.93-3.18 1.48-4.38.24-.6.55-1.12.79-1.58.23-.47.48-.85.68-1.15.4-.61.65-.94.68-.92.1.06-.8 1.41-1.78 3.8a27.3 27.3 0 00-.27 19.73c.92 2.43 1.78 3.8 1.68 3.86M49.18 69.8c-.04.02-.29-.36-.72-1.06-.22-.35-.48-.78-.73-1.31-.26-.53-.58-1.12-.85-1.8a29.6 29.6 0 01-1.6-4.94c-.42-1.91-.72-4.05-.78-6.3a29.73 29.73 0 011.89-11.34c.23-.7.52-1.3.76-1.84.23-.54.46-.99.67-1.35.4-.72.64-1.1.67-1.09.1.06-.8 1.65-1.73 4.4a33.02 33.02 0 00.5 22.3c1.05 2.72 2.02 4.27 1.92 4.33" fill="#dadbd8"/>
  <path d="M177.22 109.22v26.75h-51.77v-26.75h51.77" fill="#e7e8e5"/>
  <path d="M10.05 122.85c0 .23.01.47.03.7.42 8.1 7.29 14.36 15.4 14.36h154.15v-1.94h-36.6a13.38 13.38 0 110-26.75h36.6v-2.84l-154.2.52c-8.7.03-15.7 7.25-15.38 15.95" fill="#dadbd8"/>
  <path d="M177.22 122.95c0 .16-10.65.29-23.77.29-13.13 0-23.77-.13-23.77-.29 0-.15 10.64-.28 23.77-.28 13.12 0 23.77.13 23.77.28M176.47 128.98c0 .16-10.07.29-22.5.29-12.42 0-22.49-.13-22.49-.29 0-.15 10.07-.28 22.5-.28 12.42 0 22.49.13 22.49.28M177.22 134.5c0 .15-9.06.28-20.22.28-11.17 0-20.23-.13-20.23-.29 0-.15 9.06-.28 20.23-.28 11.16 0 20.22.13 20.22.28M177.22 117.54c0 .15-10.43.28-23.29.28s-23.28-.13-23.28-.28c0-.16 10.42-.28 23.28-.28 12.86 0 23.29.12 23.29.28M176.47 112.12c0 .16-9.28.29-20.73.29-11.44 0-20.72-.13-20.72-.29 0-.15 9.28-.28 20.72-.28 11.45 0 20.73.13 20.73.28" fill="#dadbd8"/>
  <path d="M28.72 107.35c.09.09-1.5 1.3-3.27 3.9a20.42 20.42 0 00-3.52 11.5c.06 4.8 1.96 8.9 3.79 11.42 1.83 2.56 3.45 3.72 3.36 3.81-.01.03-.43-.24-1.1-.82a17.7 17.7 0 01-2.58-2.76 19.95 19.95 0 01-4.03-11.65 19.95 19.95 0 013.75-11.73c.94-1.3 1.84-2.23 2.51-2.82.67-.6 1.07-.87 1.1-.85" fill="#f3f2f1"/>
  <path d="M23.51 106.78c.09.09-1.5 1.3-3.28 3.9a20.42 20.42 0 00-3.51 11.5c.06 4.8 1.96 8.9 3.79 11.42 1.83 2.56 3.45 3.72 3.36 3.81-.02.03-.43-.24-1.11-.82-.68-.57-1.6-1.49-2.58-2.76a19.94 19.94 0 01-4.03-11.65 19.94 19.94 0 013.76-11.73c.94-1.3 1.84-2.24 2.5-2.82.67-.6 1.08-.88 1.1-.85M128.26 107.35c.08.09-1.51 1.3-3.28 3.9a20.42 20.42 0 00-3.52 11.5c.07 4.8 1.97 8.9 3.8 11.42 1.82 2.56 3.44 3.72 3.36 3.81-.02.03-.44-.24-1.12-.82-.68-.57-1.6-1.49-2.57-2.76a19.95 19.95 0 01-4.03-11.65 19.94 19.94 0 013.75-11.73c.94-1.3 1.84-2.23 2.51-2.82.67-.6 1.07-.87 1.1-.85" fill="#f3f2f1"/>
  <path d="M123.04 106.78c.09.09-1.5 1.3-3.27 3.9a20.43 20.43 0 00-3.52 11.5c.06 4.8 1.96 8.9 3.79 11.42 1.83 2.56 3.45 3.72 3.36 3.81-.02.03-.43-.24-1.1-.82-.69-.57-1.61-1.49-2.58-2.76a19.94 19.94 0 01-4.03-11.65 19.94 19.94 0 013.75-11.73 17.7 17.7 0 012.5-2.82c.68-.6 1.08-.88 1.1-.85M46.27 126.6l-.15-10.87a7.78 7.78 0 00-.38-2.8c-.36-.88-1.12-1.66-2.07-1.74-1.36-.6-3.48.53-4.44 2.1-.95 1.57-1.05 3.5-1.06 5.33a77.1 77.1 0 00.41 8.59 9.88 9.88 0 001.02 3.93c.67 1.19 1.96 2.12 3.31 2 1.35-.13 2.43-1.26 2.91-2.53.48-1.26.46-2.65.45-4M106.14 123.48c0 .15-11.15.28-24.9.28-13.74 0-24.88-.13-24.88-.28 0-.16 11.14-.29 24.89-.29 13.74 0 24.89.13 24.89.29M35.94 106.28l-.29-25.35h13.8l.48 25.35H35.94" fill="#f3f2f1"/>
  <path d="M48.64 85.44c0 .15-2.87.28-6.41.28-3.55 0-6.42-.13-6.42-.28 0-.16 2.87-.29 6.42-.29 3.54 0 6.41.13 6.41.29M48.64 89.35c0 .16-2.87.28-6.41.28-3.55 0-6.42-.12-6.42-.28 0-.16 2.87-.28 6.42-.28 3.54 0 6.41.12 6.41.28M48.64 93.26c0 .16-2.87.28-6.41.28-3.55 0-6.42-.12-6.42-.28 0-.15 2.87-.28 6.42-.28 3.54 0 6.41.13 6.41.28M48.64 97.18c0 .15-2.87.28-6.41.28-3.55 0-6.42-.13-6.42-.28 0-.16 2.87-.29 6.42-.29 3.54 0 6.41.13 6.41.29M48.64 101.09c0 .16-2.87.28-6.41.28-3.55 0-6.42-.12-6.42-.28 0-.16 2.87-.28 6.42-.28 3.54 0 6.41.12 6.41.28" fill="#dadbd8"/>
  <path d="M34.92 80.25H187.9c1.9 8.4 1.63 17.64 0 27.41H35.58v-1.86h9.3a4.4 4.4 0 004.4-4.4V86.23a4.4 4.4 0 00-4.4-4.4h-9.96v-1.58" fill="#e7e8e5"/>
  <path d="M71.09 93.97h2.55l.27.07c.19.1.28.27.28.48l-.02.17-.17.65a7.27 7.27 0 01-1.6 2.89c-.7.75-1.43 1.12-2.18 1.12l-.3-.02c-.7-.1-1.28-.52-1.74-1.25A5.73 5.73 0 0167.4 95c0-.72.1-1.45.3-2.19a7.32 7.32 0 011.52-2.95c.72-.82 1.49-1.23 2.3-1.23.35 0 .67.08.97.22.66.33 1.16.95 1.49 1.87l.06.25-.07.28a.52.52 0 01-.48.27l-.17-.03a.52.52 0 01-.35-.34l-.03-.05a2.77 2.77 0 00-.3-.6c-.34-.5-.75-.73-1.23-.73-.28 0-.56.1-.84.3-.54.39-1 1.06-1.4 2-.4.99-.6 1.94-.6 2.89 0 .9.15 1.66.44 2.26.33.67.77 1 1.33 1 .38 0 .8-.25 1.24-.74a6.8 6.8 0 001.3-2.37c-1.17 0-1.78-.01-1.82-.02-.4-.07-.6-.28-.61-.62l.05-.19c.1-.2.3-.3.58-.3M79.09 91.11l-1.7 3.58h2.4zm.68-2.12l.07.19c.1.37.7 3.53 1.8 9.48l.03.13-.08.28c-.1.19-.26.28-.46.28h-.08a.5.5 0 01-.42-.38l-.61-3.15h-3.15l-1.5 3.16-.06.1c-.14.18-.3.27-.47.27l-.3-.09a.53.53 0 01-.25-.46l.04-.16.46-1.04c2.2-4.8 3.52-7.63 3.95-8.5.12-.25.3-.38.53-.38.22 0 .39.1.5.27M88.3 99.35h-4.6l-.3-.09c-.13-.1-.22-.29-.26-.57 0-.2.42-3.34 1.27-9.45l.03-.2c.1-.23.26-.34.5-.34l.25.07c.19.1.29.26.29.48a104 104 0 01-.32 2.59c-.53 4.03-.8 6.16-.82 6.38h3.91l.3.05c.23.1.35.27.35.52l-.03.18c-.08.21-.27.34-.57.38M93.92 91.11l-1.7 3.58h2.4zm.69-2.12l.07.19c.1.37.7 3.53 1.8 9.48l.02.13-.07.28c-.11.19-.26.28-.46.28h-.09a.5.5 0 01-.42-.38l-.6-3.15H91.7l-1.51 3.16-.05.1c-.14.18-.3.27-.47.27l-.3-.09a.53.53 0 01-.25-.46l.03-.16.47-1.04c2.2-4.8 3.51-7.63 3.94-8.5.13-.25.3-.38.53-.38.23 0 .4.1.5.27M101.95 94.43l.84 2.31c.47 1.32.71 2 .71 2.08l-.09.28a.52.52 0 01-.46.25c-.2 0-.36-.12-.46-.37l-.08-.23c-.25-.57-.67-1.66-1.24-3.25l-2.6 3.56c-.15.2-.31.29-.5.3l-.28-.08a.5.5 0 01-.26-.46l.01-.12c.01-.08.1-.23.27-.45a79.2 79.2 0 002.9-4.03 82.27 82.27 0 01-1.79-4.95L99 89c.1-.18.25-.27.45-.27.24 0 .4.1.51.3l1.54 4.15 3.08-4.19c.13-.17.3-.25.49-.26l.25.07c.18.1.27.26.27.48l-.06.26-3.57 4.9M113.36 88.75l.26.06c.18.1.28.26.3.48-.76 5.96-1.18 9.18-1.26 9.66a5.89 5.89 0 01-.98 2.52 3.59 3.59 0 01-4.54 1.1 3.27 3.27 0 01-1.63-1.42l-.06-.27.08-.27a.52.52 0 01.89-.05c.68.9 1.47 1.34 2.36 1.35.7 0 1.32-.32 1.83-.93.58-.71.92-1.68 1.02-2.9a2.77 2.77 0 01-2.34 1.26l-.3-.02c-.7-.1-1.3-.52-1.76-1.26a5.7 5.7 0 01-.76-3.07c0-.56.02-1.14.07-1.73.09-.93.3-2.26.63-3.97l.04-.16c.1-.25.27-.38.5-.38l.27.08c.18.1.27.25.27.44 0 .28-.08.98-.25 2.1a29.06 29.06 0 00-.37 3.21c0 1.03.14 1.86.41 2.5.32.75.78 1.13 1.37 1.13l.19-.02c.44-.1.9-.46 1.38-1.1.54-.75.91-1.6 1.13-2.55l.7-5.25.07-.24c.1-.2.26-.3.48-.3" fill="#fafaf9"/>
  <path d="M182.15 108.02c-.16 0-.28-6.3-.28-14.06 0-7.77.12-14.06.28-14.06.16 0 .28 6.3.28 14.06 0 7.76-.12 14.06-.28 14.06" fill="#f3f2f1"/>
  <path d="M56.97 108.02c-.15 0-.28-6.3-.28-14.06 0-7.77.13-14.06.28-14.06.16 0 .28 6.3.28 14.06 0 7.76-.12 14.06-.28 14.06" fill="#dadbd8"/>
  <path d="M184.83 108.02c-.15 0-.28-6.3-.28-14.06 0-7.77.13-14.06.28-14.06.16 0 .28 6.3.28 14.06 0 7.76-.12 14.06-.28 14.06" fill="#f3f2f1"/>
  <path d="M54.46 108.02c-.15 0-.28-6.3-.28-14.06 0-7.77.13-14.06.28-14.06.16 0 .28 6.3.28 14.06 0 7.76-.12 14.06-.28 14.06M145.06 84.53l-.03-.05 16.17 13.04.14.12-.17.05-2.16.56c-4.9 1.3-9.55 2.51-13.64 3.58l-.03.01h-.03l-12.37-5.26-3.5-1.5-.93-.4-.23-.1-.08-.05.08.03.24.1a211.51 211.51 0 014.46 1.83l12.4 5.19h-.06l13.65-3.6 2.15-.57-.04.16-16.13-13.09-.02-.02v-.03" fill="#dadbd8"/>
  <path d="M159.74 95.5l.88.82 1.18-.25-.51 1.1.6 1.04-1.2-.15-.8.9-.23-1.2-1.1-.48 1.06-.58.12-1.2M144.23 100.63l.6.5.76-.2-.3.72.44.65-.78-.05-.49.62-.19-.76-.73-.28.66-.41.03-.79M127.1 93.6l.96.07.6-.76.23.93.9.33-.8.52-.04.96-.74-.62-.93.27.36-.9-.54-.8M166.99 84.73l.96.06.6-.75.23.93.9.33-.8.51-.04.97-.75-.62-.92.27.35-.9-.53-.8M144.27 84.1l.62.04.38-.48.15.6.57.2-.51.33-.03.62-.47-.4-.59.17.23-.57-.35-.5" fill="#dadbd8"/>
  <path d="M168.34 85.4c0 .07-5.24-.1-11.68-.38a305.4 305.4 0 01-11.68-.61c0-.06 5.24.1 11.69.38 6.44.28 11.67.55 11.67.62M174.21 80.01H19.07c-2.04-4.6-2.54-8.98 0-12.9H174.2c2.04 4.69 1.86 8.96 0 12.9" fill="#dadbd8"/>
  <path d="M135.24 75.5H51.2v-4.7h84.05v4.7" fill="#e7e8e5"/>
  <path d="M25.02 80.09c-.05.04-.6-.5-1.23-1.57a11.32 11.32 0 01-.82-9.34c.43-1.16.88-1.78.94-1.75.08.04-.24.72-.56 1.87a13.34 13.34 0 00-.41 4.6c.16 1.8.7 3.37 1.2 4.44.52 1.08.95 1.69.88 1.75M28.38 80.09c-.05.04-.6-.5-1.23-1.57a11.31 11.31 0 01-.82-9.34c.43-1.16.88-1.78.93-1.75.09.04-.23.72-.55 1.87a13.34 13.34 0 00-.41 4.6c.16 1.8.7 3.37 1.2 4.44.52 1.08.95 1.69.88 1.75" fill="#dadbd8"/>
  <path d="M167.93 79.78c-.17-.06 1.1-2.75 1.1-6.3.04-3.57-1.2-6.28-1.02-6.34.1-.09 1.62 2.62 1.58 6.33 0 3.72-1.56 6.4-1.66 6.31M165.05 79.75c-.17-.04.48-2.76.46-6.18.01-3.42-.65-6.14-.48-6.18.13-.05 1.05 2.67 1.05 6.18.01 3.5-.9 6.23-1.03 6.18" fill="#f3f2f1"/>
  <path d="M231.91 0H338.4v138.93H232.64L231.91 0" fill="#dadbd8"/>
  <path d="M224.18.68h105.86V138.2H224.18V.68" fill="#fff"/>
  <path d="M329.51 137.68V1.2h-104.8v136.47zM330.56.16v138.57h-106.9V.16h106.9" fill="#dadbd8"/>
  <path d="M235.22 15.6h81.04v107.73h-81.04V15.6" fill="#fff"/>
  <path d="M235.06 15.58l.02.52.01 1.52.03 5.86.07 22.1.12 77.73-.25-.25 81.03-.03h.01l-.27.28.05-107.73.22.22-58.84-.11-16.39-.06-4.31-.03c-.98 0-1.5-.02-1.5-.02l1.45-.03 4.27-.02 16.34-.06 58.98-.12h.23v.23l.05 107.73v.27h-.28c-29.14 0-56.73-.02-81.04-.03h-.25v-.24l.13-77.9.06-22.03.03-5.82.02-1.49.01-.5" fill="#dadbd8"/>
  <path d="M223.94 138.2c-.06-.04.49-.93 1.43-2.32.94-1.4 2.27-3.3 3.8-5.37a116.5 116.5 0 014.04-5.2c1.09-1.28 1.8-2.05 1.85-2 .06.05-.54.9-1.54 2.25a18493.06 18493.06 0 01-7.84 10.54c-1.02 1.34-1.68 2.15-1.74 2.1M224.18.68c.13-.09 2.66 3.18 5.66 7.29 3 4.11 5.34 7.52 5.22 7.6-.12.1-2.65-3.16-5.66-7.28-3-4.11-5.34-7.52-5.22-7.6" fill="#dadbd8"/>
  <path d="M330.04.68L316.1 16.13" fill="#fff"/>
  <path d="M316.1 16.13c-.1-.1 2.92-3.64 6.77-7.9 3.84-4.27 7.05-7.65 7.17-7.55.1.1-2.92 3.64-6.77 7.9-3.84 4.27-7.06 7.65-7.17 7.55M330.04 138.2c-.12.1-3.19-3.12-6.86-7.19-3.67-4.07-6.56-7.45-6.45-7.55.11-.1 3.18 3.12 6.86 7.19 3.67 4.07 6.56 7.45 6.45 7.55M238.94 123.3s8.72-27 13.9-29.88c5.57-3.09 13.92-6.08 22.76-6.16 12-.1 17.71.78 24.75 5.62 8.12 5.6 13.63 30.15 13.63 30.15M263.12 42.86c-7.46.33-9.28 10.34-8.77 16.05.24 2.7 1.06 5.65-.3 8-.97 1.66-2.88 2.66-3.68 4.41-.98 2.13-.03 4.58.67 6.8.7 2.24 1.01 5.05-.77 6.57 4.24 1.1 8.5 2.2 12.87 2.43 4.37.22 8.9-.5 12.6-2.81" fill="#dadbd8"/>
  <path d="M257.8 62.84c-4.91-11.27 1.75-18.15 6.1-20.63 2.6-1.48 5.67-1.8 8.65-1.87 2.94-.08 5.91.04 8.76.77 2.85.74 5.59 2.11 7.6 4.26 3.58 3.8 4.41 9.46 4.1 14.67a40.93 40.93 0 01-5.15 17.56c-.39.69-.83 1.4-1.52 1.78-.7.38-1.7.3-2.11-.38" fill="#dadbd8"/>
  <path d="M274.4 101.5c5.06.34 9.48-4 10-11.8l2.7-39.63-.18 2.74a3.18 3.18 0 00-2.86-3.22l-15.7-1.61a9.56 9.56 0 00-10.52 8.94c-.36 6.03-.57 13.41.16 17.9 1.47 9.05 8.4 10.19 8.4 10.19l-.54 6.56a9.19 9.19 0 008.54 9.93" fill="#f3f2f1"/>
  <path d="M260.85 62.02c-.02.62.49 1.14 1.13 1.17.63.03 1.17-.44 1.19-1.05a1.16 1.16 0 00-1.12-1.17 1.11 1.11 0 00-1.2 1.05M259.45 60.75c.15.15 1.02-.5 2.27-.5 1.25-.02 2.17.62 2.3.47.07-.07-.08-.34-.48-.63a3.2 3.2 0 00-3.65.02c-.38.3-.5.57-.44.64M272.85 62.02c-.02.62.48 1.14 1.12 1.17.64.03 1.18-.44 1.2-1.05a1.16 1.16 0 00-1.12-1.17 1.11 1.11 0 00-1.2 1.05" fill="#dadbd8"/>
  <path d="M271.73 60.95c.14.15 1.02-.5 2.27-.5 1.25-.02 2.17.62 2.3.46.07-.06-.08-.34-.48-.62a3.18 3.18 0 00-3.65.02c-.38.3-.51.57-.44.64M267.22 70.22c0-.07-.77-.2-2.03-.36-.31-.03-.62-.1-.67-.3-.08-.24.06-.58.2-.95l.95-2.44c1.3-3.46 2.24-6.3 2.1-6.35-.14-.05-1.31 2.7-2.61 6.17l-.9 2.45c-.12.36-.32.77-.16 1.25a.8.8 0 00.53.46c.2.07.38.07.54.08 1.26.06 2.05.07 2.05 0" fill="#dadbd8"/>
  <path d="M266.4 85s6.1.38 12.11-3.26c0 0-3.23 6.27-12.29 5.45l.18-2.18" fill="#e7e8e5"/>
  <path d="M267.76 73.23c.45-.6 1.23-.92 2.02-.84.54.06 1.09.32 1.42.76.33.44.4 1.06.1 1.49-.33.47-1.04.58-1.64.42a4.76 4.76 0 01-1.95-1.32c-.09-.15-.1-.34 0-.47" fill="#dadbd8"/>
  <path d="M270.9 71.08c-.2-.01-.2 1.34-1.36 2.3-1.15.98-2.6.83-2.6 1.02-.03.08.31.26.92.27.6.02 1.48-.17 2.18-.76.71-.6 1.01-1.38 1.06-1.94.05-.56-.1-.9-.2-.9M271.16 58.76c.13.34 1.37.18 2.84.35 1.47.14 2.65.57 2.84.26.09-.14-.12-.46-.6-.79a4.73 4.73 0 00-2.1-.73c-.89-.1-1.7.05-2.22.27-.54.21-.81.48-.76.64M259.9 57.14c.22.28 1.08-.02 2.12-.03 1.03-.06 1.9.18 2.1-.12.1-.14-.04-.42-.43-.7-.37-.26-1-.48-1.72-.45-.7.02-1.32.28-1.68.57-.37.3-.49.59-.39.73" fill="#dadbd8"/>
  <path d="M264.9 41.67c8.77-4.93 18.19-1.48 25.28 5.64 1.56 1.58 2.97 3.42 5.01 4.3 2.2.94 5.14.79 6.44 2.8 1.54 2.34-.53 5.65.59 8.21 1.03 2.37 4.27 3.05 5.48 5.33.95 1.79.35 3.96-.1 5.93-.44 1.98-.6 4.35.87 5.73l-18.86 7.16c-.84.32-1.77.46-2.65.29-2.68-.54-2.87-3.02-2.62-5.07.19-1.53.52-3.16-.13-4.56-.76-1.66-2.71-2.55-3.4-4.24-1.22-2.99 2.16-6.1 1.75-9.3-.25-2-1.98-3.54-3.84-4.35-1.86-.8-3.9-1.07-5.83-1.7-4.45-1.41-8.11-5.49-10.01-10.02a4.89 4.89 0 012.03-6.15M813.45 224.9H643.73V47.98h169.72V224.9" fill="#dadbd8"/>
  <path d="M801.96 224.9H632.24V47.98h169.72V224.9" fill="#fafaf9"/>
  <path d="M632.29 224.85H801.9V48.03H632.29zm169.72.1H632.18V47.93h169.83v177.02" fill="#dadbd8"/>
  <path d="M779.14 201.12H655.05V71.76h124.1v129.36" fill="#fff"/>
  <path d="M655.05 201.98c.1.11-1.08 1.47-3.06 3.56-1.98 2.1-4.77 4.92-7.89 8-3.12 3.07-5.99 5.81-8.1 7.76-2.12 1.94-3.49 3.09-3.6 2.98-.1-.1 1.07-1.45 3.05-3.54a341.8 341.8 0 017.91-8.02c3.13-3.08 6-5.82 8.12-7.77 2.12-1.94 3.47-3.09 3.57-2.97M779.14 201.66c.12-.1 1.47 1.08 3.56 3.06a345.2 345.2 0 018 7.9c3.08 3.11 5.82 5.98 7.76 8.1 1.95 2.11 3.1 3.48 2.99 3.58-.11.11-1.46-1.06-3.55-3.04s-4.93-4.77-8-7.9c-3.1-3.14-5.84-6.01-7.78-8.13-1.95-2.12-3.1-3.47-2.98-3.57M778.8 72.1c-.1-.1 1.09-1.46 3.07-3.55 1.98-2.1 4.76-4.92 7.88-8 3.13-3.08 6-5.81 8.11-7.76 2.12-1.94 3.48-3.1 3.59-2.99.1.11-1.07 1.46-3.05 3.55-1.98 2.09-4.77 4.93-7.9 8.01-3.13 3.09-6 5.83-8.13 7.77-2.11 1.95-3.47 3.1-3.56 2.98M654.71 72.43c-.11.1-1.47-1.08-3.56-3.07-2.09-1.98-4.92-4.76-8-7.89-3.07-3.12-5.81-5.99-7.76-8.1-1.94-2.12-3.09-3.48-2.98-3.59.1-.1 1.45 1.07 3.54 3.05 2.1 1.98 4.93 4.77 8.02 7.9 3.08 3.13 5.83 6.01 7.77 8.13 1.95 2.11 3.09 3.47 2.97 3.57" fill="#dadbd8"/>
  <path d="M778.8 201.12l-.02-.63-.03-1.8-.06-6.99-.12-26.36-.24-93.58.48.48-123.75.07.54-.55-.08 129.36-.47-.47 89.6.24 25.18.12 6.65.06 1.73.02.6.03s-.18.02-.55.03l-1.67.02-6.57.06-25.06.12-89.9.24h-.48v-.47l-.08-129.36v-.55h.56l123.75.07h.48v.48c-.1 38.77-.2 71.15-.25 93.88l-.13 26.26-.05 6.9-.03 1.74c0 .4-.02.59-.02.58" fill="#dadbd8"/>
  <path d="M742.79 111.23a46.52 46.52 0 00-46.75-5.87s-2.32 30.73-2.15 44.11c.16 13.39 13.55 15.47 13.55 15.47l-.05 14.5 32.52 1.21 4.86-67.89-1.98-1.53" fill="#f3f2f1"/>
  <path d="M707.42 164.75s8.46.69 17.45-4.96c0 0-4.13 9.63-17.48 8.42l.03-3.46" fill="#dadbd8"/>
  <path d="M743.12 126.62c.23-.1 9.2-2.72 8.9 6.43-.29 9.15-9.42 6.97-9.42 6.71-.01-.26.52-13.14.52-13.14" fill="#f3f2f1"/>
  <path d="M745.5 136.38c.04-.03.16.12.42.25s.71.23 1.2.06c.97-.32 1.84-1.83 1.93-3.48.05-.83-.1-1.63-.37-2.3-.26-.67-.68-1.15-1.16-1.26a.81.81 0 00-.95.41c-.14.25-.08.44-.13.45-.03.02-.2-.16-.1-.53.03-.18.15-.4.37-.56.22-.18.55-.26.89-.2.7.06 1.32.73 1.62 1.46.34.74.53 1.64.47 2.57-.12 1.84-1.12 3.54-2.45 3.88a1.71 1.71 0 01-1.45-.3c-.28-.23-.32-.43-.29-.45M700.43 125.95c-.03 1.01.8 1.87 1.85 1.93a1.83 1.83 0 001.97-1.72c.03-1.01-.8-1.88-1.84-1.93a1.83 1.83 0 00-1.98 1.72" fill="#dadbd8"/>
  <path d="M698.58 124.19c.23.24 1.68-.83 3.74-.82 2.05-.03 3.56 1.03 3.79.78.1-.11-.14-.56-.8-1.04a5.25 5.25 0 00-6 .03c-.64.48-.85.93-.73 1.05M720.65 126.82c-.04 1 .79 1.87 1.84 1.93a1.83 1.83 0 001.97-1.73c.04-1-.79-1.87-1.84-1.93a1.83 1.83 0 00-1.97 1.73M718.8 124.57c.23.25 1.68-.82 3.74-.82 2.05-.02 3.56 1.04 3.78.78.11-.1-.13-.56-.79-1.04a5.24 5.24 0 00-6 .03c-.64.49-.85.94-.74 1.05M711.33 139.82c.01-.11-1.27-.33-3.34-.6-.52-.05-1.02-.16-1.11-.52-.13-.38.1-.94.35-1.55l1.55-4c2.16-5.7 3.72-10.38 3.5-10.46-.24-.09-2.17 4.46-4.33 10.15l-1.49 4.03c-.2.6-.54 1.27-.27 2.06.14.39.53.67.86.76.34.1.64.11.9.13 2.08.11 3.37.12 3.38 0M718.26 116.5c.2.57 2.26.3 4.67.6 2.42.24 4.37.94 4.69.44.14-.24-.2-.77-.98-1.3a7.82 7.82 0 00-3.48-1.22 7.8 7.8 0 00-3.65.43c-.89.35-1.33.8-1.25 1.06M699.33 118.23c.36.47 1.78-.02 3.49-.04 1.7-.08 3.14.32 3.47-.17.15-.24-.08-.7-.7-1.15a4.81 4.81 0 00-2.84-.76 4.81 4.81 0 00-2.78.93c-.6.48-.8.97-.64 1.2" fill="#dadbd8"/>
  <path d="M689.52 96.9a4.94 4.94 0 011.83-4.4c1.35-.98 3.44-.92 4.54.33-.63-2.23 1.2-4.81 3.52-4.96 2.18-.14 4.04 1.51 6.15 2.1 2.06.56 4.27.07 6.25-.73 1.98-.8 3.83-1.9 5.83-2.63a17.32 17.32 0 0113.02.52 17.31 17.31 0 018.87 9.53c2.93-.92 6.26.57 8.06 3.05 1.8 2.48 2.27 5.74 1.91 8.78a27.9 27.9 0 01-1.53 6l.02.52c-.14 7.36-.97 16-4.12 16.05-5.47.09-4.16-10.23-4.16-10.23-6.72-2.59-4.22-12.65-5.9-14.18-1.68-1.53-5.19-5.07-19.25 2.11-5.46 2.8-12.72 2.7-16.68 1.8l-.35-.06-.08-.02-.12-.05a12.66 12.66 0 01-3.6-1.53 7.13 7.13 0 01-2.98-3.3c-.54-1.4-.34-3.16.77-4.19a8.57 8.57 0 01-2-4.5M711.35 149.78c.02-.14.99.26 2.35-.29.66-.26 1.38-.8 1.78-1.62a3.54 3.54 0 00-.32-3.54c-.18-.19-.15-.18-.34-.15-.18.05-.47.18-.7.28l-.73.3-2.52.98c-1.45.54-2.36.82-2.4.72-.05-.1.79-.56 2.18-1.23a109.33 109.33 0 013.17-1.47c.26-.1.45-.22.8-.33.18-.05.42-.07.66.02.23.1.38.25.49.38a4.14 4.14 0 01.36 4.37 3.77 3.77 0 01-4.16 1.9c-.43-.13-.64-.27-.62-.32" fill="#dadbd8"/>
  <path d="M509.64 382.21a21.87 21.87 0 0121.3-18.35c46.04-.61 163.3-1.67 169.6 3.32 7.83 6.23 11.93 9.41 11.31 19.29-.56 9.07-10.45 165.72-10.45 165.72H481.96l27.68-169.98" fill="#33535f"/>
  <path d="M676.4 552.27l-.06-.46-.11-1.36-.39-5.23c-.17-2.27-.35-5.04-.45-8.27-.11-3.23-.32-6.9-.32-10.98l-.07-6.38c-.02-2.22.05-4.53.08-6.92.02-4.79.28-9.9.5-15.27.62-10.74 1.64-22.53 3.28-34.84 1.7-12.3 3.87-23.95 6.16-34.46 1.21-5.24 2.33-10.23 3.59-14.85.6-2.31 1.15-4.56 1.77-6.7l1.77-6.13c1.1-3.92 2.27-7.41 3.24-10.5.96-3.08 1.88-5.7 2.65-7.85l1.76-4.93.48-1.28c.1-.29.17-.43.18-.43.01 0-.03.16-.12.45l-.4 1.3c-.4 1.18-.94 2.85-1.64 4.98-.74 2.15-1.61 4.79-2.54 7.89-.93 3.08-2.08 6.58-3.14 10.5l-1.73 6.15c-.6 2.13-1.13 4.38-1.73 6.69-1.23 4.62-2.32 9.6-3.52 14.84a480.36 480.36 0 00-6.1 34.42 480.3 480.3 0 00-3.31 34.79c-.25 5.36-.53 10.46-.57 15.24-.04 2.39-.13 4.7-.13 6.9l.03 6.39c-.03 4.06.14 7.74.22 10.96.07 3.23.2 6 .33 8.28l.25 5.23.05 1.36v.47M553 442.7c-.01-.02.1-.06.33-.13.23-.05.58-.1 1.02-.05.89.06 2.22.58 3.21 1.9 1.04 1.28 1.3 3.52.33 5.46a6.55 6.55 0 01-5.55 3.76 5.47 5.47 0 01-3.5-.91 4.42 4.42 0 01-1.82-2.86 5.96 5.96 0 011.68-5.25c2.47-2.1 4.65-2.18 4.6-1.97 0 .02-.11.01-.33.06a9.62 9.62 0 00-3.92 2.26 5.53 5.53 0 00-1.4 4.78c.2.93.72 1.85 1.58 2.42.84.6 1.96.84 3.07.77a5.94 5.94 0 005.01-3.34c.9-1.75.73-3.71-.15-4.9a4.56 4.56 0 00-2.85-1.92 4.4 4.4 0 00-1.06-.06c-.16 0-.25.01-.26-.02M587.42 422.8c0 .06-.42.02-1.16-.02-1.02-.05-2.65-.1-4.74.09-3.6.31-8.6 1.6-13.14 4.79a27.74 27.74 0 00-9 10.72c-1.55 3.29-1.93 5.55-2.07 5.51-.04 0 .02-.57.25-1.58.22-1 .65-2.44 1.38-4.14a26.68 26.68 0 019.04-11.08 26.7 26.7 0 0113.5-4.71 23.5 23.5 0 014.37.11c1.02.14 1.57.28 1.57.32M523.77 463.56c-.04-.02.12-.43.5-1.13.39-.7 1.02-1.68 1.94-2.78 1.81-2.2 4.97-4.85 9.16-6.28a20.89 20.89 0 0111.09-.62c1.4.31 2.5.7 3.23 1.02.73.32 1.11.55 1.1.59-.05.12-1.66-.64-4.43-1.13-2.73-.5-6.72-.58-10.77.8a21.97 21.97 0 00-9 5.95c-1.9 2.07-2.71 3.65-2.82 3.58M566.23 469.01c-.05.07-.96-.48-2.25-1.63a25.04 25.04 0 01-7.2-11.21c-.5-1.66-.63-2.72-.55-2.73.21-.07 1.15 4.1 3.97 8.45 2.77 4.37 6.18 6.96 6.03 7.12M627.1 444.56c0-.02.1-.07.34-.13.22-.05.57-.1 1.02-.06.89.07 2.21.59 3.21 1.9 1.04 1.29 1.29 3.52.32 5.46a6.54 6.54 0 01-5.55 3.76 5.5 5.5 0 01-3.5-.91 4.43 4.43 0 01-1.8-2.85 5.96 5.96 0 011.67-5.26c2.47-2.1 4.65-2.18 4.6-1.97 0 .03-.12.01-.33.06a9.6 9.6 0 00-3.92 2.26 5.53 5.53 0 00-1.4 4.78c.2.93.71 1.85 1.58 2.42.84.6 1.95.85 3.07.78a5.96 5.96 0 005-3.35c.9-1.75.74-3.7-.14-4.9a4.34 4.34 0 00-3.92-1.98c-.16.01-.24.02-.25-.01M661.52 424.66c0 .06-.41.02-1.16-.02-1-.06-2.64-.11-4.73.08-3.6.32-8.6 1.6-13.15 4.79a27.75 27.75 0 00-8.99 10.72c-1.55 3.29-1.93 5.55-2.07 5.52-.04-.01.02-.58.25-1.58.22-1 .64-2.45 1.38-4.14a26.69 26.69 0 019.04-11.09 26.7 26.7 0 0113.5-4.7 23.6 23.6 0 014.36.1 6 6 0 011.57.32M597.87 465.42c-.03-.02.13-.43.52-1.13.38-.7 1.01-1.68 1.93-2.78a20.9 20.9 0 019.16-6.29 20.9 20.9 0 0111.09-.61c1.4.3 2.5.7 3.23 1.02.73.32 1.1.54 1.1.58-.06.12-1.66-.63-4.43-1.12-2.74-.5-6.72-.59-10.77.8a21.97 21.97 0 00-9.01 5.94c-1.9 2.08-2.7 3.66-2.82 3.59M640.34 470.87c-.05.07-.96-.49-2.26-1.63a25.01 25.01 0 01-7.2-11.22c-.5-1.65-.63-2.71-.54-2.73.21-.07 1.15 4.1 3.97 8.45 2.77 4.37 6.18 6.96 6.03 7.13" fill="#17282f"/>
  <path d="M719.62 333.67c-59.08-58.37-132.63-72.29-132.63-72.29-43.73 26.07-73.24 69.84-95.7 122.39 37.68 34.86 86.14 68.28 127.6 71.36 65.57-16.58 100.73-121.46 100.73-121.46" fill="#f03d5f"/>
  <path d="M651.71 438.4c-.79-7.8-1.53-15.28-2.18-22.12l16-5.32-1.06 12.04-.27 3.22c-.05.72-.05 1.1-.05 1.1l.15-1.1.34-3.2 1.25-12.29.02-.26-.24.08-16.19 5.27c-.8-8.45-1.48-15.92-1.96-21.88l-.39-5.54-.17-2.3-.02-.27a89.9 89.9 0 01-.2-4.89c0-17.75-13.32-53.27-30.33-68.8-13.58-12.4-52.13-18.67-67.15-20.7A183.48 183.48 0 01587 261.38s73.55 13.92 132.63 72.29c0 0-6.8 20.25-19.96 44.36l-.5.9c-11.3 20.52-27.2 43.69-47.45 59.48" fill="#9c2438"/>
  <path d="M698.56 380c0 .01-.06-.12-.14-.4l-.38-1.2-1.4-4.69c-1.23-4.13-2.99-10.11-5.2-17.64l.26.14-28.97 9.4.18-.18-.08.15-.35.1-.19-.19-.05-.21-.03-.31-.03-.6-.02-1.17v-2.38l.03-4.87c0-3.29 0-6.68-.04-10.16-.06-3.48-.15-7.04-.35-10.67-.21-3.63-.49-7.35-1.15-11.05l.42.27-26.34 6.12-16.06 3.73-.35.08-.07-.35-6.71-35.18.39.25a237.64 237.64 0 01-42.08 7.35l-.21.02-.03-.21-2.58-21.24-.66-5.66a296.34 296.34 0 00-.19-1.96l.1.5.2 1.44.78 5.65 2.8 21.21-.25-.2a242.25 242.25 0 0041.95-7.51l.33-.1.06.34 6.78 35.17-.42-.27 16.06-3.73 26.34-6.1.35-.09.06.35a94.8 94.8 0 011.14 11.13c.2 3.65.28 7.22.32 10.7a552.4 552.4 0 01-.02 15.04v3.54l.03.57.02.26.01.06c-.02.03.07-.02-.06.04l-.17.08-.06-.04-.17-.1-.15-.07.34-.1 29.02-9.24.21-.07.06.2 5 17.7 1.3 4.72.33 1.22.1.42" fill="#f03d5f"/>
  <path d="M687.26 398.58l-.13-.31-.35-.94-1.31-3.68-4.9-14.02.22.12-34.54 9.22-.32.09-.04-.33c-.82-6.35-1.74-13.17-2.75-20.36-1.03-7.18-2.1-14.75-3.48-22.53l.4.27L614.8 352l-17.12 3.97-.35.08-.07-.35-6.7-35.18.38.24a237.5 237.5 0 01-42.07 7.36l-.22.02-.02-.21c-1.1-9.07-1.99-16.27-2.6-21.24l-.65-5.66-.15-1.46c-.03-.33-.05-.5-.03-.5l.09.5.21 1.44.78 5.65 2.79 21.21-.24-.2a242.28 242.28 0 0041.95-7.51l.32-.1.07.34 6.77 35.17-.41-.27 17.11-3.98 25.29-5.86.34-.08.07.35c1.38 7.8 2.43 15.37 3.44 22.56 1 7.2 1.9 14.02 2.7 20.38l-.37-.25 34.6-9.02.16-.04.06.16 4.73 14.07 1.23 3.71a569.83 569.83 0 00.38 1.29" fill="#fafaf9"/>
  <path d="M664.15 427.32s0-.38.05-1.1l.27-3.22 1.08-12.3.22.18-35.81 11.9-.3.1-.07-.32-9.79-50.79.42.28-21.9 5.09-20.5 4.75-.35.08-.07-.35-6.7-35.18.38.24a237.31 237.31 0 01-42.08 7.36l-.2.02-.03-.21-2.6-21.25-.65-5.65-.16-1.46c-.03-.33-.04-.5-.03-.5l.1.5.2 1.44.78 5.64 2.79 21.22-.23-.18a242.52 242.52 0 0041.94-7.53l.33-.09.06.34 6.78 35.16-.42-.27 20.5-4.76 21.9-5.08.35-.08.06.35 9.68 50.8-.37-.21c14.77-4.8 27.08-8.82 35.89-11.69l.24-.08-.02.26a58134.64 58134.64 0 01-1.6 15.5c-.08.72-.14 1.09-.14 1.09" fill="#f03d5f"/>
  <path d="M616.47 454.9c0 .01-.04-.07-.08-.24l-.21-.76-.76-2.96-2.77-11.22-4.12-17.39c-1.54-6.71-3.32-14.25-4.91-22.54l.37.25-42.4 9.87-.34.09-.07-.36-.7-3.67-6.03-31.5.41.25a237.3 237.3 0 01-42.07 7.36l-.24.02-.02-.23-2.57-21.14-.66-5.72-.16-1.48-.03-.51c.01 0 .05.17.1.5l.22 1.48.79 5.7 2.78 21.11-.26-.2a242.83 242.83 0 0041.95-7.52l.34-.1.07.35 6.06 31.5.7 3.67-.42-.27 42.41-9.8.31-.08.06.32c1.56 8.27 3.31 15.82 4.8 22.54l4 17.42 2.59 11.26.66 2.98a174.57 174.57 0 00.2 1.03" fill="#fafaf9"/>
  <path d="M593.95 450.14c-.05.01-.22-.64-.5-1.85l-1.14-5.14c-.94-4.37-2.21-10.47-3.61-17.4l.41.28-3.98.93c-7.81 1.81-14.89 3.42-20.02 4.54l-6.08 1.3c-1.45.3-2.25.43-2.26.38 0-.04.77-.27 2.2-.64l6.03-1.52c5.1-1.25 12.16-2.92 19.97-4.74l3.99-.92.34-.08.07.36c1.38 6.91 2.57 13.03 3.39 17.42l.93 5.18c.2 1.22.3 1.9.26 1.9M544.78 425.85c-.05 0-.22-.67-.5-1.89l-1.1-5.18c-.91-4.38-2.11-10.45-3.4-17.15l-.23-1.2.43.27a201.93 201.93 0 01-16.27 3.7c-2.09.37-3.78.65-4.95.8a9.04 9.04 0 01-1.82.19c-.01-.05.62-.2 1.78-.44l4.9-1.02c4.14-.88 9.87-2.18 16.18-3.9l.36-.1.07.37.23 1.2c1.29 6.7 2.41 12.78 3.2 17.19l.89 5.22c.19 1.24.28 1.93.23 1.94M495.3 387.43c-.2.02-.59-1.85-.88-4.18-.3-2.34-.38-4.25-.2-4.27.2-.03.6 1.85.89 4.18.3 2.34.38 4.25.19 4.27" fill="#f03d5f"/>
  <path d="M708.52 360.52l-.08-.33-.2-.97-.7-3.8-2.54-14.4.23.16-20.15 3.23-.26.04-.05-.26-7.13-42.7.4.27-27.5 6.4-14.01 3.25-.33.07-.08-.32a765.21 765.21 0 01-7.83-34.16l.36.25-40.92 6.29-.2.03-.03-.2-1.85-15.34-.46-4.07a149.66 149.66 0 01-.13-1.4c.01 0 .04.1.08.34l.15 1.04.57 4.06 2.04 15.31-.23-.17 40.88-6.5.3-.05.06.3c2.1 10.53 4.9 22 7.88 34.1l-.42-.25 14.02-3.26 27.5-6.37.36-.08.05.35 7 42.72-.3-.22 20.17-3.1.19-.02.03.19 2.36 14.43.6 3.82a153.15 153.15 0 01.17 1.32" fill="#fafaf9"/>
  <path d="M713.02 332.68l-.37.14-1.1.33c-.96.33-2.42.64-4.22 1.31a86.44 86.44 0 00-14.84 6.6 103.53 103.53 0 00-19.44 14.14 133.84 133.84 0 00-19.3 22.23 200.33 200.33 0 00-14.8 25.54c-4 8.16-7.22 15.7-9.84 22.05-2.6 6.36-4.64 11.54-6.06 15.12l-1.64 4.11-.45 1.06c-.1.24-.16.36-.17.36-.01 0 .02-.13.1-.38l.39-1.09 1.52-4.16c1.34-3.6 3.3-8.82 5.86-15.2a337.5 337.5 0 019.7-22.15 195.94 195.94 0 0114.81-25.65 132.33 132.33 0 0119.45-22.32 101.8 101.8 0 0119.64-14.1 81.75 81.75 0 0114.98-6.41c1.82-.64 3.3-.91 4.28-1.2l1.12-.26c.25-.06.38-.09.38-.07" fill="#17282f"/>
  <path d="M289.76 214.36l.2 3.6c.5-.5 1.19-.82 1.95-.86a3.1 3.1 0 013.25 2.95 3.1 3.1 0 01-2.91 3.28c-.77.04-1.48-.2-2.04-.64l.19 3.61c.51-.5 1.2-.81 1.96-.85a3.1 3.1 0 013.25 2.95 3.1 3.1 0 01-2.92 3.28c-.76.04-1.48-.2-2.04-.64l.2 3.6c.5-.49 1.2-.8 1.96-.85a3.1 3.1 0 013.25 2.95 3.1 3.1 0 01-2.92 3.28c-.77.04-1.48-.2-2.04-.64l.2 3.61c.5-.5 1.19-.8 1.95-.85a3.1 3.1 0 013.25 2.95 3.1 3.1 0 01-2.92 3.28c-.76.04-1.47-.2-2.04-.64l.2 3.6a3.1 3.1 0 015.21 2.1 3.1 3.1 0 01-2.92 3.28c-.76.04-1.48-.2-2.04-.63l.2 3.6c.5-.49 1.2-.8 1.95-.85a3.1 3.1 0 013.26 2.95 3.1 3.1 0 01-2.92 3.28c-.77.04-1.48-.2-2.04-.64l.12 2.24 96.12-2.3-4.87-56-94.05 6" fill="#e7e8e5"/>
  <path d="M287.63 212.05l.2 3.6c.51-.5 1.2-.81 1.96-.85a3.1 3.1 0 013.25 2.95 3.1 3.1 0 01-2.92 3.28c-.76.04-1.48-.2-2.04-.64l.2 3.6c.5-.49 1.19-.8 1.95-.85a3.1 3.1 0 013.25 2.95 3.1 3.1 0 01-2.91 3.28c-.77.04-1.48-.2-2.04-.64l.19 3.61c.51-.5 1.2-.81 1.96-.85a3.1 3.1 0 013.25 2.95 3.1 3.1 0 01-2.92 3.28c-.76.04-1.47-.2-2.04-.64l.2 3.6c.5-.49 1.2-.8 1.96-.85a3.1 3.1 0 013.25 2.95 3.1 3.1 0 01-2.92 3.28c-.77.04-1.48-.2-2.04-.64l.2 3.61c.5-.49 1.19-.81 1.95-.85a3.1 3.1 0 013.25 2.95 3.1 3.1 0 01-2.91 3.28c-.77.04-1.48-.2-2.04-.64l.19 3.6a3.1 3.1 0 015.21 2.1 3.1 3.1 0 01-2.92 3.28c-.76.04-1.47-.2-2.04-.64l.12 2.24 96.1-5.14-2.8-52.3-96.1 5.14" fill="#f3f2f1"/>
  <path d="M384.29 217.26c0 .19-21.5 1.5-48.03 2.92-26.54 1.42-48.06 2.41-48.07 2.22-.01-.2 21.49-1.5 48.03-2.92 26.53-1.42 48.06-2.41 48.07-2.22M384.73 225.63c.02.19-21.5 1.5-48.02 2.91-26.55 1.42-48.07 2.42-48.08 2.23 0-.2 21.5-1.5 48.04-2.92 26.53-1.42 48.06-2.42 48.06-2.22M385.18 234c.01.19-21.5 1.5-48.03 2.91-26.54 1.42-48.06 2.42-48.07 2.23 0-.2 21.5-1.5 48.04-2.92 26.53-1.42 48.05-2.42 48.06-2.23M385.63 242.36c.01.2-21.5 1.5-48.03 2.92-26.54 1.42-48.06 2.42-48.07 2.22-.01-.19 21.5-1.5 48.03-2.91 26.54-1.42 48.06-2.42 48.07-2.23M386.08 250.73c0 .2-21.5 1.5-48.03 2.92-26.54 1.42-48.06 2.41-48.07 2.22-.01-.19 21.49-1.5 48.03-2.92 26.54-1.42 48.06-2.41 48.07-2.22" fill="#dadbd8"/>
  <path d="M303.46 263.66l-2.8-52.3.67-.04 2.8 52.3-.67.04" fill="#f03d5f"/>
  <path d="M312.5 263.17c-.2.01-.97-11.69-1.75-26.13-.77-14.44-1.24-26.16-1.05-26.17.2-.01.97 11.69 1.75 26.13.77 14.45 1.24 26.16 1.05 26.17M295.4 264.09c-.2 0-.98-11.7-1.75-26.13-.78-14.45-1.25-26.16-1.06-26.17.2-.02.98 11.68 1.75 26.13.77 14.44 1.24 26.16 1.05 26.17M321.87 262.67c-.2.01-.97-11.69-1.75-26.13-.77-14.45-1.24-26.16-1.05-26.17.2-.01.97 11.69 1.75 26.13.77 14.44 1.24 26.16 1.05 26.17M331.24 262.17c-.2.01-.97-11.69-1.75-26.13-.77-14.45-1.24-26.16-1.05-26.17.2-.01.97 11.69 1.75 26.13.77 14.44 1.24 26.16 1.05 26.17M340.6 261.67c-.18.01-.97-11.7-1.74-26.13-.77-14.45-1.24-26.16-1.05-26.17.19-.01.97 11.68 1.75 26.13.77 14.44 1.24 26.16 1.05 26.17M349.98 261.17c-.2 0-.98-11.7-1.75-26.13-.77-14.45-1.24-26.17-1.05-26.17.2-.02.97 11.68 1.75 26.13.77 14.44 1.24 26.16 1.05 26.17M359.35 260.67c-.2 0-.98-11.7-1.75-26.14-.77-14.44-1.24-26.16-1.05-26.17.19 0 .97 11.7 1.74 26.14.78 14.44 1.25 26.16 1.06 26.17M368.72 260.17c-.2 0-.98-11.7-1.75-26.14-.77-14.44-1.24-26.16-1.05-26.17.19 0 .97 11.7 1.74 26.14.78 14.44 1.25 26.15 1.06 26.17M378.09 259.66c-.2.01-.98-11.69-1.75-26.13s-1.24-26.16-1.05-26.17c.19 0 .97 11.69 1.74 26.14.78 14.44 1.25 26.15 1.06 26.16" fill="#dadbd8"/>
  <path d="M376.92 228c0 .01-.24.05-.68.1l-1.97.17-7.22.48a1944.27 1944.27 0 01-47.73 2.33c-6.1.19-9.9.2-9.9 0 3.65-.2 16.01-.81 33.74-1.7l23.86-1.12 7.24-.26 1.97-.04c.45 0 .69 0 .69.03M378.86 237.55c.01.19-15.5 1.06-34.62 1.93-19.14.88-34.65 1.44-34.66 1.25-.01-.2 15.49-1.06 34.63-1.94 19.13-.88 34.64-1.43 34.65-1.24M379.9 245.91c0 .2-15.5 1.06-34.64 1.94-19.13.88-34.65 1.43-34.66 1.24 0-.19 15.5-1.06 34.63-1.93 19.13-.88 34.65-1.44 34.66-1.25" fill="#17282f"/>
  <path d="M298.4 217.54c.41 2.07 1.32 4.18 3.06 5.39a5.66 5.66 0 006.7-.37 5.66 5.66 0 001.35-6.58 5.66 5.66 0 00-6.03-2.96" fill="#dadbd8"/>
  <path d="M298.16 217.52a4.37 4.37 0 108.73-.47 4.37 4.37 0 00-8.73.47" fill="#33535f"/>
  <path d="M295.65 215.9a2.62 2.62 0 105.24-.28 2.62 2.62 0 00-5.24.28" fill="#33535f"/>
  <path d="M298.1 218.33c.01-.1.4-.07.94-.27a2.5 2.5 0 001.49-1.45 2.7 2.7 0 00-.2-2.1c-.27-.5-.57-.74-.52-.84.04-.07.48.03.93.58.43.51.81 1.53.44 2.6a2.63 2.63 0 01-2.02 1.69c-.7.1-1.1-.13-1.07-.2" fill="#17282f"/>
  <path d="M300.29 214.16c.1-.17.75.03 1.48-.15.74-.16 1.24-.63 1.4-.51.18.07-.2.93-1.24 1.19-1.05.22-1.76-.39-1.64-.53M300.96 220.8c-.19.02-.37-.81-1.06-1.45-.68-.65-1.51-.79-1.5-.98-.06-.19 1.04-.39 1.98.48.91.88.77 1.99.58 1.95" fill="#17282f"/>
  <path d="M372.26 214.45c.42 2.08 1.33 4.19 3.07 5.39a5.66 5.66 0 006.7-.36 5.66 5.66 0 001.35-6.58 5.66 5.66 0 00-6.03-2.97" fill="#dadbd8"/>
  <path d="M380.7 213.27a4.23 4.23 0 11-8.43.45 4.23 4.23 0 018.44-.45" fill="#f03d5f"/>
  <path d="M382.95 211.45a2.54 2.54 0 11-5.06.27 2.54 2.54 0 015.06-.27" fill="#f03d5f"/>
  <path d="M380.85 214.04c.04.07-.32.34-1 .32a2.55 2.55 0 01-1.97-3.98c.38-.56.8-.7.84-.64.07.09-.2.35-.4.87-.2.5-.31 1.3.03 2.02.34.72 1.05 1.11 1.57 1.24.53.14.9.07.93.17" fill="#17282f"/>
  <path d="M378.31 210.25c.14.14-.48.8-1.52.7-1.04-.14-1.48-.94-1.32-1.03.15-.13.68.26 1.4.33.72.1 1.33-.15 1.44 0M378.35 216.7c-.18.06-.44-1 .35-1.94.81-.93 1.9-.84 1.87-.65.02.19-.76.41-1.34 1.1-.6.68-.69 1.5-.88 1.5" fill="#17282f"/>
  <path d="M217.09 338.94l78.57 10.01-1.06-28.75z" fill="#dadbd8"/>
  <path d="M292.47 345.8l-75.43-6.29 2.1-25.03 75.41 6.3-2.08 25.03" fill="#33535f"/>
  <path d="M283.95 328.28c-.02.2-12.66-.7-28.25-2s-28.2-2.52-28.2-2.7c.02-.2 12.67.7 28.26 2 15.58 1.3 28.2 2.51 28.19 2.7M283.8 334.82c-.01.19-12.66-.71-28.25-2.01-15.59-1.3-28.2-2.51-28.2-2.7.02-.2 12.67.7 28.26 2 15.58 1.3 28.2 2.52 28.2 2.7" fill="#17282f"/>
  <path d="M241.49 312.76l29.22 2.43-1.54 1.3 2 1.75-2.38 1.1 2.14 1.89-30.64-2.56 1.92-1.61-.95-1.74 1.64-.83-1.41-1.73" fill="#e7e8e5"/>
  <path d="M172.54 267.45a3.4 3.4 0 11-5.83 0h-3.94a3.4 3.4 0 11-5.83 0H153a3.4 3.4 0 11-5.84 0h-3.93a3.38 3.38 0 01-2.92 5.12 3.4 3.4 0 01-2.91-5.12h-3.94a3.38 3.38 0 01-2.92 5.12 3.4 3.4 0 01-2.91-5.12h-3.94a3.4 3.4 0 11-5.84 0h-2.46v70.17l61.38 3.37-2.93-73.54h-1.3" fill="#dadbd8"/>
  <g clip-path="url(#a)" transform="matrix(.13333 0 0 -.13333 0 562.68)">
    <path d="M1287.39 2228.58a25.44 25.44 0 10-43.77 0h-29.51a25.45 25.45 0 10-47.33-12.94 25.3 25.3 0 003.56 12.94h-29.52a25.3 25.3 0 003.57-12.94 25.45 25.45 0 00-50.9 0 25.3 25.3 0 003.57 12.94h-29.52a25.3 25.3 0 003.57-12.94 25.45 25.45 0 00-50.9 0 25.3 25.3 0 003.57 12.94h-29.52a25.34 25.34 0 003.57-12.94 25.45 25.45 0 10-50.9 0 25.3 25.3 0 003.57 12.94h-29.52a25.3 25.3 0 003.57-12.94 25.45 25.45 0 10-50.9 0c0 4.73 1.32 9.14 3.57 12.94h-18.5v-526.26h438.41v526.26h-9.74" fill="#f3f2f1"/>
    <path d="M902.36 1678.81c-1.44-.02-3.9 127.51-5.51 284.8-1.62 157.34-1.75 284.87-.31 284.89 1.43.01 3.9-127.49 5.52-284.84 1.6-157.29 1.74-284.84.3-284.85M937.3 1678.81c-1.42-.02-3.9 127.51-5.5 284.8-1.61 157.34-1.75 284.87-.32 284.89 1.45.01 3.91-127.49 5.52-284.84 1.6-157.29 1.75-284.84.3-284.85M1008.43 1678.81c-1.44-.02-3.91 127.51-5.52 284.8-1.61 157.34-1.75 284.87-.31 284.89 1.44.01 3.91-127.49 5.52-284.84 1.61-157.29 1.74-284.84.31-284.85M1079.54 1678.81c-1.44-.02-3.91 127.51-5.52 284.8-1.61 157.34-1.74 284.87-.3 284.89 1.43.01 3.9-127.49 5.51-284.84 1.61-157.29 1.75-284.84.31-284.85M1150.65 1678.81c-1.43-.02-3.9 127.51-5.51 284.8-1.61 157.34-1.75 284.87-.31 284.89 1.44.01 3.91-127.49 5.52-284.84 1.6-157.29 1.74-284.84.3-284.85M1218.13 1678.81c-1.44-.02-3.91 127.51-5.51 284.8-1.61 157.34-1.75 284.87-.32 284.89 1.45.01 3.91-127.49 5.52-284.84 1.61-157.29 1.75-284.84.31-284.85M1285.62 1678.81c-1.45-.02-3.92 127.51-5.52 284.8-1.61 157.34-1.75 284.87-.31 284.89 1.44.01 3.91-127.49 5.51-284.84 1.61-157.29 1.75-284.84.32-284.85M972.73 1679.53c-1.44-.02-3.9 127.51-5.51 284.8-1.61 157.35-1.75 284.87-.32 284.89 1.44.01 3.91-127.49 5.52-284.84 1.6-157.29 1.75-284.84.31-284.85M1043.1 1680.24c-1.44-.01-3.91 127.52-5.52 284.81-1.61 157.35-1.75 284.87-.3 284.88 1.43.02 3.9-127.48 5.51-284.82 1.61-157.3 1.75-284.85.31-284.87M1113.47 1680.96c-1.44-.01-3.91 127.51-5.52 284.81-1.61 157.34-1.74 284.87-.31 284.89 1.44.01 3.91-127.49 5.52-284.84 1.61-157.29 1.75-284.85.31-284.86M1183.84 1681.69c-1.44-.02-3.91 127.51-5.52 284.8-1.61 157.35-1.75 284.87-.31 284.88 1.44.02 3.91-127.49 5.52-284.83 1.61-157.29 1.74-284.84.31-284.85M1251.29 1678.08c-1.44-.01-3.91 127.52-5.51 284.81-1.61 157.35-1.75 284.87-.31 284.89 1.43.01 3.91-127.49 5.51-284.83 1.61-157.3 1.75-284.85.31-284.87" fill="#dadbd8"/>
    <path d="M1400.07 1749.88c.02-1.43-127.51-3.88-284.81-5.45-157.35-1.57-284.87-1.68-284.88-.23-.01 1.43 127.49 3.87 284.83 5.45 157.29 1.57 284.85 1.68 284.86.23M1403.02 1713.9c.02-1.43-127.51-3.87-284.8-5.45-157.35-1.57-284.88-1.67-284.9-.24 0 1.44 127.5 3.88 284.84 5.45 157.3 1.57 284.85 1.68 284.86.24M1399.37 1820.25c.01-1.43-127.51-3.88-284.81-5.45-157.34-1.57-284.87-1.68-284.88-.24-.02 1.44 127.48 3.88 284.83 5.45 157.29 1.57 284.85 1.68 284.86.24M1398.67 1890.62c.01-1.43-127.52-3.87-284.81-5.45-157.34-1.57-284.88-1.68-284.88-.24-.02 1.44 127.48 3.88 284.83 5.45 157.29 1.57 284.84 1.68 284.86.24M1397.96 1960.99c.02-1.44-127.51-3.88-284.81-5.45-157.34-1.57-284.87-1.68-284.88-.24-.02 1.44 127.49 3.88 284.84 5.45 157.29 1.57 284.84 1.68 284.85.24M1397.26 2031.36c.02-1.44-127.51-3.88-284.81-5.45-157.34-1.58-284.87-1.68-284.88-.24-.02 1.44 127.48 3.88 284.83 5.45 157.29 1.57 284.85 1.68 284.86.24M1396.56 2101.73c.01-1.44-127.52-3.88-284.81-5.45-157.35-1.58-284.88-1.68-284.89-.25 0 1.44 127.5 3.88 284.84 5.45 157.29 1.57 284.84 1.68 284.86.25M1395.85 2172.1c.02-1.44-127.51-3.88-284.81-5.45-157.34-1.57-284.86-1.69-284.88-.25-.01 1.44 127.49 3.88 284.84 5.45 157.29 1.58 284.84 1.68 284.85.25M1395.85 2200.28c.02-1.44-127.51-3.88-284.81-5.45-157.34-1.57-284.86-1.68-284.88-.24-.01 1.44 127.49 3.87 284.84 5.45 157.29 1.57 284.84 1.68 284.85.24M1395.85 2136.14c.02-1.44-127.51-3.88-284.81-5.45-157.34-1.57-284.86-1.68-284.88-.24-.01 1.43 127.49 3.87 284.84 5.45 157.29 1.57 284.84 1.68 284.85.24M1395.85 2066.34c.02-1.44-127.51-3.88-284.81-5.45-157.34-1.58-284.86-1.68-284.88-.25-.01 1.44 127.49 3.88 284.84 5.45 157.29 1.57 284.84 1.68 284.85.25M1395.85 1996.53c.02-1.44-127.51-3.88-284.81-5.45-157.34-1.57-284.86-1.69-284.88-.24-.01 1.43 127.49 3.87 284.84 5.45 157.29 1.57 284.84 1.68 284.85.24M1395.85 1926.73c.02-1.45-127.51-3.89-284.81-5.46-157.34-1.57-284.86-1.68-284.88-.24-.01 1.44 127.49 3.88 284.84 5.45 157.29 1.57 284.84 1.68 284.85.25M1395.85 1856.91c.02-1.43-127.51-3.87-284.81-5.45-157.34-1.57-284.86-1.68-284.88-.24-.01 1.44 127.49 3.88 284.84 5.45 157.29 1.57 284.84 1.68 284.85.24M1395.85 1787.11c.02-1.44-127.51-3.88-284.81-5.45-157.34-1.57-284.86-1.68-284.88-.25-.01 1.44 127.49 3.88 284.84 5.45 157.29 1.58 284.84 1.68 284.85.25" fill="#dadbd8"/>
  </g>
  <path d="M139.71 275.7c.42 2.08 1.33 4.19 3.07 5.39a5.66 5.66 0 006.7-.37 5.66 5.66 0 001.35-6.58 5.66 5.66 0 00-6.03-2.96" fill="#dadbd8"/>
  <path d="M139.6 275.68a4.37 4.37 0 108.73-.46 4.37 4.37 0 00-8.73.46" fill="#f03d5f"/>
  <path d="M137.1 274.07a2.62 2.62 0 105.23-.28 2.62 2.62 0 00-5.24.28" fill="#f03d5f"/>
  <path d="M139.53 276.5c.02-.11.42-.08.95-.28a2.5 2.5 0 001.5-1.45 2.7 2.7 0 00-.2-2.09c-.27-.5-.58-.75-.52-.84.03-.08.48.03.92.57.43.52.81 1.53.45 2.6a2.63 2.63 0 01-2.03 1.69c-.7.1-1.1-.13-1.07-.2" fill="#17282f"/>
  <path d="M141.73 272.32c.1-.17.75.03 1.49-.15.73-.16 1.24-.62 1.4-.51.17.07-.2.94-1.25 1.19-1.05.23-1.76-.38-1.64-.53M142.4 278.96c-.19.02-.37-.8-1.06-1.45-.67-.65-1.5-.78-1.5-.98-.05-.18 1.05-.39 1.98.48.92.88.78 1.99.59 1.95M166.4 290.6c0 .2-9.33.35-20.83.35-11.5 0-20.83-.16-20.83-.35 0-.19 9.32-.34 20.83-.34 11.5 0 20.83.15 20.83.34M166.4 294.93c0 .2-9.33.35-20.83.35-11.5 0-20.83-.15-20.83-.35 0-.19 9.32-.34 20.83-.34 11.5 0 20.83.15 20.83.34M166.4 299.27c0 .19-9.33.34-20.83.34-11.5 0-20.83-.15-20.83-.34 0-.2 9.32-.35 20.83-.35 11.5 0 20.83.15 20.83.35M166.4 303.6c0 .19-9.33.34-20.83.34-11.5 0-20.83-.15-20.83-.34 0-.2 9.32-.35 20.83-.35 11.5 0 20.83.15 20.83.35M166.4 307.93c0 .19-9.33.34-20.83.34-11.5 0-20.83-.15-20.83-.34 0-.2 9.32-.35 20.83-.35 11.5 0 20.83.15 20.83.35M166.4 312.26c0 .19-9.33.35-20.83.35-11.5 0-20.83-.16-20.83-.35 0-.2 9.32-.35 20.83-.35 11.5 0 20.83.16 20.83.35M166.4 316.59c0 .19-9.33.35-20.83.35-11.5 0-20.83-.16-20.83-.35 0-.2 9.32-.35 20.83-.35 11.5 0 20.83.16 20.83.35M63.5 515.96c-.63 0-1.2-.42-1.37-1.06l-47.4-180.67a1.42 1.42 0 112.74-.72l47.4 180.67a1.42 1.42 0 01-1.37 1.78M50.98 520.43c-.63 0-1.2-.42-1.37-1.06L2.2 338.7a1.42 1.42 0 112.74-.72l47.4 180.67a1.42 1.42 0 01-1.37 1.78M7.9 330.86l-2.28-1.7 121.72-163.8 111.03 21.26-.54 2.8-109.28-20.94L7.9 330.86" fill="#17282f"/>
  <path d="M18.38 333.9l-2.28-1.69 119.78-161.67 2.29 1.69L18.38 333.9" fill="#17282f"/>
  <path d="M124.3 172.88a8.05 8.05 0 1015.25-5.2 8.05 8.05 0 00-15.25 5.2M233.12 177.47l-2-11.57 8.58-.65.62 11.18-7.2 1.04" fill="#f03d5f"/>
  <path d="M233.12 177.47l-2-11.57 8.58-.65.62 11.18-7.2 1.04" fill="#ba2c42"/>
  <path d="M226.1 176.67l-7.9 42.93-20.01 56.74 112.72-16.26-45.5-49.52-18.99-36.82-20.31 2.93M0 335.66a8.94 8.94 0 1017.89 0 8.94 8.94 0 00-17.89 0M27.82 552.1c-.03-.6-.1-1.18-.1-1.78a35.78 35.78 0 1171.56 0c0 .6-.06 1.19-.09 1.78H27.82" fill="#f03d5f"/>
  <path d="M222.96 538.71c-.44.1-2.31 2 .37 5.03 2.67 3.03 18.83 11.3 21.8 6.36 3-4.95-4.2-8.4-4.2-8.4l-17.97-2.99" fill="#f8a58d"/>
  <path d="M240.7 533.38s16.67-1.85 23.47-.97c7.38.94 15.2-2.79 19.84-7.87 4.65-5.1 5.86-11.79 5.86-11.79l10.6-7.42s1.15-25.21-15.66-21.14l-19.64.7s-38.64 6.4-44.63 11.2c0 0-7.28 7.08-9.4 9.82-.8 1.04-1.49 11.42 5.9 14.97 0 0-4.35 5.57-.52 8.7l1.8 1.37s-2.49 5.55-.14 7.15c2.34 1.59 20.88 7.21 26.15 3.55 5.27-3.67-.83-7.9-3.63-8.27" fill="#f8a58d"/>
  <path d="M219.93 519.9c.01-.05.78.05 2.18.23 1.4.19 3.43.43 5.94.61 1.25.1 2.63.17 4.1.2 1.48.05 3.07-.02 4.76.11 1.68.15 3.53.47 5.1 1.62 1.5 1.1 2.79 3 2.5 5.14a4.4 4.4 0 01-1.5 2.64 7.75 7.75 0 01-2.51 1.4c-1.79.6-3.55.79-5.22.96-3.36.29-6.4.1-8.91-.17-2.52-.26-4.54-.6-5.93-.83a12.9 12.9 0 01-2.15-.46c0-.04.78.03 2.18.19 1.4.15 3.43.41 5.94.61 2.5.2 5.51.34 8.8.03 1.64-.19 3.4-.4 5.06-.97.82-.3 1.63-.7 2.29-1.28a3.72 3.72 0 001.26-2.22c.26-1.77-.85-3.49-2.21-4.5-1.38-1.02-3.14-1.37-4.75-1.52-1.64-.15-3.23-.1-4.72-.18a69.77 69.77 0 01-10.07-1.1c-1.39-.27-2.15-.47-2.14-.51" fill="#f68260"/>
  <path d="M218.58 507.85c0-.05.78.06 2.17.25 1.4.18 3.41.45 5.9.67 2.5.21 5.49.38 8.8.38 1.64.02 3.5-.09 5.27.8a4.2 4.2 0 012 2.13c.4.94.46 2 .28 3a7.14 7.14 0 01-3.37 4.61c-1.6 1.01-3.38 1.48-5.06 1.65-3.4.3-6.37-.23-8.87-.41l-5.93-.6a13.4 13.4 0 01-2.16-.32c0-.05.78-.03 2.18.04l5.95.39c2.5.11 5.5.58 8.76.26a11 11 0 004.76-1.58 6.5 6.5 0 003.05-4.17c.37-1.78-.35-3.68-1.9-4.4-1.52-.78-3.32-.73-4.96-.76a87.47 87.47 0 01-14.74-1.42 12.05 12.05 0 01-2.13-.52" fill="#f68260"/>
  <path d="M227.18 509.32c-.2.05-.66-1.41-1.52-3.07-.84-1.67-1.75-2.9-1.6-3.03.13-.13 1.33.96 2.22 2.71.9 1.75 1.08 3.36.9 3.4" fill="#f68260"/>
  <path d="M278.16 485.2l-15.76-2.1s-44.54-9.07-44.97-7.9c-.43 1.18-2.63 1.59-.98 6.36 1.64 4.77 27.34 9 28.49 10.52 1.14 1.52 1.96 10.37 12.05 14.42 10.1 4.06 16.35 2.7 16.35 2.7" fill="#f8a58d"/>
  <path d="M273.34 509.2c0 .01-.12.05-.34.1-.23.04-.57.1-1.03.14-.9.08-2.24.13-3.96 0a34.1 34.1 0 01-6.17-1.1 33.85 33.85 0 01-7.75-3 17.85 17.85 0 01-6.94-7.26c-.87-1.6-1.48-3.42-2.14-5.18a3.16 3.16 0 00-.3-.58c-.07-.12-.24-.2-.46-.3-.42-.18-.89-.33-1.35-.48-.94-.28-1.9-.54-2.88-.8-3.92-1.01-8.07-2-12.31-3.24a69.29 69.29 0 01-6.4-2.18 21.91 21.91 0 01-3.14-1.55c-.5-.3-.99-.68-1.43-1.13-.2-.24-.41-.49-.55-.81-.15-.31-.2-.58-.3-.87a6.52 6.52 0 01-.22-3.63c.18-.63.6-1.16.97-1.59.2-.21.36-.41.44-.6.03-.06-.03.02.1-.18.16-.16.2-.13.27-.15.14-.05.18-.04.28-.05h.46c2.34.15 4.53.54 6.72.88 4.36.72 8.54 1.5 12.53 2.25 7.97 1.52 15.13 2.96 21.13 4.2 1.5.3 2.94.63 4.28.85l3.87.55 6.18.88 3.9.58 1.01.17c.23.04.35.07.35.08 0 .02-.12.01-.35 0-.28-.03-.61-.07-1.03-.1l-3.92-.47c-1.72-.2-3.8-.46-6.2-.76l-3.88-.49c-1.38-.21-2.8-.53-4.3-.81l-21.16-4.05c-3.98-.73-8.17-1.5-12.52-2.2-2.17-.34-4.4-.73-6.63-.87h-.39l-.13.02-.04-.05-.06-.16-.06-.04c.53.2.14.08.25.13l-.03.06c-.14.33-.36.57-.54.79-.38.43-.69.83-.83 1.33-.3 1-.1 2.15.22 3.23.18.59.31 1.03.7 1.41.37.38.8.72 1.28 1.01.95.6 2 1.07 3.03 1.5 2.1.85 4.22 1.54 6.33 2.16 4.22 1.25 8.36 2.25 12.28 3.29.98.26 1.95.52 2.9.82.48.15.95.3 1.42.5.22.1.51.23.72.51.15.24.27.48.35.7.68 1.84 1.25 3.58 2.1 5.15a17.43 17.43 0 006.67 7.1 34.28 34.28 0 007.6 3.06c2.34.66 4.4 1.03 6.1 1.2 1.7.17 3.03.17 3.93.13.44-.02.79-.05 1.02-.08.23-.02.34-.03.35-.02M235.85 532.59c0-.04.59-.07 1.64.08a15.6 15.6 0 016.99 2.87c.87.7 1.82 1.68 1.97 3.09.16 1.42-.76 2.78-1.97 3.53-1.26.78-2.79.92-4.23.87a79.45 79.45 0 01-14.56-2.14 44.47 44.47 0 01-4.26-1.32 6.71 6.71 0 01-1.5-.65c.01-.05.57.11 1.58.4 1 .29 2.47.68 4.3 1.09 3.64.82 8.78 1.58 14.46 1.92 1.39.06 2.78-.09 3.85-.75 1.07-.65 1.8-1.78 1.7-2.9-.1-1.11-.9-2.03-1.7-2.7a14.22 14.22 0 00-2.54-1.6c-3.35-1.63-5.77-1.65-5.73-1.8" fill="#f68260"/>
  <path d="M351.78 441.56s19.75-32.5 24.19-53.96c4.44-21.46 27.37-55.49 34.77-64.37 7.4-8.87 37-19.23 37-19.23l10.9-5.89 84.53-7.43s56.22 5.92 73.24 21.46c17.01 15.53 30.33 51.05 30.33 68.8 0 17.76 17.18 171.52 17.18 171.52l-208.28-.27 4.67-75.81s-25.16-17.02-31.82-31.82c-6.65-14.8-2.95-7.4-2.95-7.4s-23.62 50.2-31.75 56.12c-8.14 5.92-102.73 34.95-102.73 34.95L278.1 478.6l73.68-37.03" fill="#f03d5f"/>
  <path d="M597.7 318.34c-2.29.7-30.5 73.57-32.49 80.2-1.98 6.63 0 48.39 0 48.39l9.28 17.23s-2.65 12.6-.66 18.56l-41.76 7.95s-10.6-7.29-20.54 0l-49.27 4.17s14.46.17 10.16 22.35c-4.22 21.73-7.43 26.5-7.43 26.5l173.14-3.95s19.23-.95 16.3-37.94c-2.93-36.99-11.19-139-11.19-139s-12.62-54.68-45.55-44.46" fill="#f03d5f"/>
  <path d="M564.82 441.1c-.02 0-.16-.3-.4-.9l-1.06-2.62c-.45-1.14-1-2.54-1.53-4.2-.54-1.66-1.24-3.52-1.8-5.65-.62-2.1-1.29-4.42-1.85-6.94-.65-2.5-1.15-5.22-1.7-8.07a148.32 148.32 0 01-2.02-18.79c-.24-6.7.03-13.1.57-18.89.34-2.88.62-5.63 1.09-8.17.22-1.28.39-2.51.63-3.69l.71-3.37c.41-2.16.97-4.07 1.4-5.76.42-1.7.86-3.13 1.25-4.3l.87-2.69c.2-.6.32-.92.35-.92.02.01-.06.34-.22.97l-.75 2.72a68.59 68.59 0 00-1.12 4.32c-.4 1.69-.92 3.6-1.3 5.76l-.67 3.37c-.22 1.17-.38 2.4-.58 3.68-.44 2.53-.7 5.27-1.02 8.15-.5 5.76-.75 12.12-.52 18.8.28 6.67 1.03 13 1.97 18.7.52 2.84 1 5.55 1.62 8.05.53 2.52 1.18 4.83 1.76 6.94.53 2.12 1.2 3.99 1.7 5.66.5 1.66 1 3.07 1.42 4.23l.92 2.66c.2.62.3.94.28.95M625.06 520.12c-.02.02-.17-.16-.44-.5l-1.16-1.54c-.49-.67-1.1-1.49-1.85-2.4-.75-.91-1.56-1.99-2.56-3.09a70.61 70.61 0 00-3.28-3.59c-1.18-1.28-2.56-2.55-3.97-3.9a99.84 99.84 0 00-9.97-8 99.76 99.76 0 00-10.99-6.5c-1.77-.85-3.44-1.69-5.06-2.34a70.36 70.36 0 00-4.52-1.8c-1.38-.55-2.67-.93-3.8-1.3-1.1-.4-2.09-.67-2.9-.9-.73-.2-1.33-.39-1.83-.54a2.48 2.48 0 01-.63-.23c0-.03.23 0 .66.1l1.88.42c.81.18 1.8.42 2.94.77 1.14.35 2.45.7 3.85 1.22 1.41.49 2.96 1.03 4.57 1.73 1.64.63 3.34 1.46 5.13 2.3a93.94 93.94 0 0111.1 6.5 94.2 94.2 0 0110 8.1c1.42 1.37 2.79 2.66 3.96 3.98a63.52 63.52 0 013.23 3.67c.99 1.12 1.77 2.22 2.5 3.17.73.93 1.3 1.78 1.76 2.48l1.06 1.6c.23.38.34.58.32.6M639.64 510.4c-.1.1-1.63-1.65-4.52-4a46.19 46.19 0 00-12.53-7.2 45.91 45.91 0 00-14.16-2.92c-3.72-.16-6.03.13-6.04 0-.01-.06.56-.15 1.6-.28.53-.07 1.17-.14 1.91-.17.75-.02 1.6-.1 2.54-.05 1.88 0 4.12.2 6.58.62 2.45.45 5.12 1.14 7.81 2.15a46.66 46.66 0 017.27 3.57 41.05 41.05 0 015.33 3.9c.74.6 1.33 1.2 1.87 1.73.55.5.98.98 1.32 1.38.7.8 1.06 1.24 1.02 1.27M623.63 486.04c-.08.12-2.13-1.5-5.86-3.35-.93-.45-1.96-.94-3.11-1.36-1.12-.48-2.38-.84-3.69-1.25a46.52 46.52 0 00-8.78-1.54c-3.16-.2-6.18-.03-8.9.33-1.36.23-2.65.41-3.83.74-1.2.25-2.28.6-3.27.92-3.94 1.32-6.19 2.65-6.26 2.51-.02-.04.53-.37 1.56-.95.5-.3 1.14-.63 1.91-.95.77-.33 1.63-.76 2.63-1.07 1-.36 2.08-.74 3.3-1.02 1.18-.35 2.5-.56 3.86-.82 2.76-.4 5.84-.59 9.05-.39 3.21.24 6.23.85 8.91 1.62 1.32.44 2.6.83 3.72 1.34 1.16.45 2.2.97 3.12 1.46.96.45 1.75.99 2.46 1.42.72.42 1.3.84 1.77 1.2a9.1 9.1 0 011.41 1.16M522.37 540.69c-.15-.05.87-2.79 1.23-7.42.23-2.31.17-5.09-.06-8.14a65.14 65.14 0 00-1.74-9.83c-.92-3.42-2.1-6.6-3.32-9.41a50.3 50.3 0 00-3.96-7.11c-2.6-3.86-4.82-5.76-4.7-5.88.03-.03.57.45 1.52 1.35.5.43 1.03 1.03 1.63 1.75l.97 1.14c.32.42.63.88.98 1.36a46.16 46.16 0 014.14 7.12 63.03 63.03 0 013.4 9.5 61.33 61.33 0 011.72 9.95c.2 3.1.2 5.9-.09 8.24l-.18 1.67-.3 1.46c-.17.92-.33 1.7-.55 2.33a11.3 11.3 0 01-.69 1.92M493.35 490.65c-.02 0-.04-.13-.09-.39l-.18-1.14-.63-4.39c-.54-3.81-1.25-9.34-2.07-16.17a1188.53 1188.53 0 01-7.82-107.31 820.03 820.03 0 01-.31-20.74l.01-1.16c0-.26.02-.39.03-.4.01 0 .03.14.04.4l.06 1.15.14 4.43.52 16.3c.48 13.76 1.36 32.76 2.89 53.71 1.53 20.95 3.4 39.88 4.93 53.56l1.85 16.2.5 4.4.11 1.15.02.4M425.33 438.12c-.04.02-.36-.7-.9-2.04a276.64 276.64 0 00-10.89-23.67l-9.22-17.78a225.89 225.89 0 01-2.7-5.45c-.62-1.3-.94-2.02-.9-2.04.05-.02.45.66 1.14 1.92l2.9 5.34c2.42 4.51 5.82 10.72 9.4 17.7a219.3 219.3 0 018.4 18.2c.94 2.38 1.67 4.33 2.12 5.69a14 14 0 01.65 2.13" fill="#17282f"/>
  <path d="M414.7 413.49a4.2 4.2 0 01-1.22-.24c-.76-.18-1.86-.5-3.2-.94a78.45 78.45 0 01-19.7-9.76 47.46 47.46 0 01-2.7-1.97c-.61-.5-.94-.78-.9-.82.05-.09 1.5.9 3.87 2.38 2.38 1.5 5.72 3.46 9.55 5.36 3.83 1.9 7.42 3.36 10.04 4.34 2.63 1 4.28 1.54 4.25 1.65M396.81 459.02a7.9 7.9 0 01-1.43-.87c-.89-.6-2.2-1.45-3.83-2.44-3.27-2-7.97-4.5-13.45-6.55a80.98 80.98 0 00-14.43-3.9 90.73 90.73 0 00-4.5-.67 7.9 7.9 0 01-1.65-.28c0-.05.6-.04 1.68.01 1.07.05 2.63.2 4.54.46a70.09 70.09 0 0128.07 10.5 50.02 50.02 0 013.73 2.65 7.7 7.7 0 011.27 1.1M540.97 290.8c.02 0 0 .37-.08 1.08l-.35 3.1c-.35 2.68-.83 6.56-1.64 11.33a144.9 144.9 0 01-3.74 16.58c-1.85 6.12-4.41 12.77-8.38 19.04a59.05 59.05 0 01-6.95 8.91l-.27.3-.25-.33a35.21 35.21 0 00-12.65-10.5 34.37 34.37 0 00-6.67-2.46c-2.16-.47-4.2-.8-6.06-.81-3.74-.1-6.7.55-8.65 1.22-1.94.67-2.96 1.18-2.98 1.12-.01-.02.23-.16.72-.4.5-.2 1.2-.63 2.18-.95a24.18 24.18 0 018.74-1.43c1.9 0 3.97.29 6.18.75 2.17.57 4.5 1.27 6.8 2.43a35.46 35.46 0 0112.94 10.62l-.52-.03a59.54 59.54 0 006.85-8.8c3.92-6.21 6.48-12.8 8.36-18.86 1.83-6.1 2.99-11.74 3.87-16.49.87-4.74 1.42-8.61 1.85-11.28l.48-3.07c.12-.7.2-1.07.22-1.07" fill="#17282f"/>
  <path d="M542.1 291.64l-12.84-17.03-13.95.44-45.36 23.97 72.16-7.38" fill="#f03d5f"/>
  <path d="M482.3 339.38c0 .02-.26.01-.74-.02-.48-.05-1.2-.13-2.1-.35-1.8-.38-4.31-1.4-7.15-3.06-1.42-.84-3-1.63-4.88-2.01-1.85-.4-3.92-.46-6.01-.01a14.07 14.07 0 00-10.07 8.75l-.72 1.96.05-2.09.04-1.63c.17-10.5.18-20.03.6-26.91.2-3.45.47-6.23.76-8.14a26.16 26.16 0 01.57-2.94c.06.01-.12 1.06-.3 2.98-.2 1.9-.4 4.68-.53 8.12-.3 6.88-.24 16.38-.4 26.9l-.05 1.64-.67-.13a14.63 14.63 0 0110.6-9.13c4.4-.93 8.53.4 11.25 2.23a27.9 27.9 0 006.98 3.22c1.76.49 2.78.55 2.77.62" fill="#17282f"/>
  <path d="M529.26 192.16v102.22c0 5.84-2.06 11.5-5.82 15.96a74.92 74.92 0 01-20.53 17l-20.62 11.62-17.06-15.23a24.8 24.8 0 01-8.25-17.52c-.3-7.45-.3-14.95-.3-14.95s-28.9-2.08-31.6-30.57c-1.29-13.42-1.7-40.9-1.76-66.23a55.43 55.43 0 0150.87-55.37l.82-.07a52.97 52.97 0 0154.25 53.14" fill="#f8a58d"/>
  <path d="M456.6 290.85s18.15-.02 36.32-13.65c0 0-7.1 21.26-35.77 21.05l-.55-7.4" fill="#f68260"/>
  <path d="M432.92 213.61a4.09 4.09 0 004.27 3.79 3.9 3.9 0 003.9-4.02 4.09 4.09 0 00-4.27-3.79c-2.25.07-4 1.87-3.9 4.02M430.6 205.96c.55.49 3.45-2.05 7.83-2.4 4.38-.41 7.78 1.57 8.21 1 .22-.26-.38-1.17-1.86-2.08a11.23 11.23 0 00-12.8 1.12c-1.27 1.14-1.65 2.14-1.38 2.36M474.63 211.85a4.09 4.09 0 004.27 3.78c2.25-.06 4-1.86 3.9-4.02a4.09 4.09 0 00-4.27-3.78 3.9 3.9 0 00-3.9 4.02M473.76 203.21c.55.49 3.45-2.05 7.83-2.4 4.38-.41 7.78 1.58 8.21 1 .21-.26-.38-1.17-1.87-2.08a11.21 11.21 0 00-12.8 1.12c-1.26 1.15-1.64 2.14-1.37 2.36M460.54 237.04c0-.25-2.76-.5-7.23-.7-1.12-.02-2.2-.15-2.45-.9-.33-.8.03-2.04.47-3.38l2.6-8.8c3.6-12.52 6.1-22.77 5.6-22.91-.51-.14-3.84 9.89-7.43 22.4l-2.46 8.84c-.32 1.31-.93 2.81-.22 4.44a2.82 2.82 0 001.98 1.49c.74.16 1.37.12 1.92.1 4.47-.12 7.22-.33 7.22-.58M473.7 239c-.73.02-.34 4.78-4.13 8.5-3.79 3.72-8.9 3.6-8.89 4.27-.04.3 1.2.83 3.35.71a11.9 11.9 0 007.44-3.3 10.35 10.35 0 003.16-7.1c.01-2-.61-3.13-.94-3.08M471.2 186.13c.54 1.15 4.87.22 10.06.42 5.2.09 9.47 1.25 10.06.13.27-.54-.55-1.6-2.32-2.62a16.72 16.72 0 00-7.62-1.98c-3.11-.08-5.9.65-7.71 1.56-1.82.92-2.7 1.94-2.47 2.49M431.16 193.14c.86.93 3.8-.35 7.42-.7 3.61-.48 6.76.11 7.38-.99.27-.53-.3-1.49-1.72-2.32a10.3 10.3 0 00-6.17-1.13 10.3 10.3 0 00-5.75 2.5c-1.2 1.12-1.54 2.18-1.16 2.64M495.7 163.44l.17.11a22.53 22.53 0 019.54 13.82l.13.57c1.79 8.05 2.27 16.34 4.14 24.37 1.86 8.02 1.52 14.16 9.56 15.96a10.7 10.7 0 0011.2-4.54c.7-1.11.7-2.5.7-3.82-.1-19.77 3.87-27.44 2.13-47.99a17.37 17.37 0 00-8.35-13.5c-4.56-2.72-10.07-5.48-14.66-2.83-4.6 2.67-10.05 12.12-13.44 16.22" fill="#17282f"/>
  <path d="M520.71 205.86c.47-.25 19.12-7.42 20.12 12.14.99 19.55-18.85 16.51-18.91 15.95-.06-.56-1.2-28.09-1.2-28.09" fill="#f8a58d"/>
  <path d="M527.52 226.24c.08-.06.35.22.94.46.57.23 1.55.35 2.55-.08 2.02-.86 3.6-4.23 3.51-7.76-.04-1.78-.5-3.46-1.2-4.83-.67-1.4-1.64-2.35-2.7-2.48a1.74 1.74 0 00-1.96 1.03c-.23.56-.09.95-.19.99-.05.05-.43-.3-.32-1.12.06-.4.27-.87.71-1.27.45-.4 1.13-.63 1.86-.6 1.51.04 2.94 1.35 3.7 2.86.87 1.5 1.42 3.39 1.47 5.39.07 3.95-1.76 7.74-4.54 8.7a3.66 3.66 0 01-3.15-.36c-.63-.46-.75-.89-.68-.93" fill="#f68260"/>
  <path d="M511.17 148.56c4.15-8.2-9.93-18.32-19.8-20.55-9.89-2.24-22.18 3.5-31.5 7.47-5.87 2.5-11.66 5.8-18.05 6.06-4.28.18-8.47-1.03-12.62-2.13-4.14-1.08-8.44-2.07-12.68-1.42-4.23.64-8.43 3.27-9.72 7.35-1.3 4.09 1.47 9.31 5.75 9.55-5.64-2.52-13.13 2.02-13.5 8.2-.37 6.16 6.5 11.57 12.42 9.76-2.95-1.87-6.92 1.95-6.29 5.39.63 3.43 3.98 5.7 7.28 6.83 8.43 2.9 17.82.97 26-2.56 8.19-3.53 15.63-8.59 23.72-12.32 8.1-3.74 21.62-10.35 30.24-8.1 6.35 1.67 11.25 8.75 14.6 6.82 3.24-1.86 5.08-5.57 5.45-9.28.37-3.72-.47-7.43-1.3-11.07" fill="#17282f"/>
  <path d="M410.15 154.55c.16-.11 1.12 1.36 3.4 3.46a26.97 26.97 0 0011.42 6.08c5.26 1.36 12.25 1.36 18.54-2.3 6.39-3.51 11.57-9.93 17.64-16.07 6.05-6.2 13.4-11.01 21.05-12.35 7.6-1.36 14.91.86 19.18 4.92 4.3 4.1 5.5 9.07 5.47 12.24-.01 1.62-.32 2.85-.54 3.65-.3.8-.48 1.2-.54 1.17-.19-.04.5-1.72.32-4.8-.18-3-1.55-7.6-5.63-11.25-4.03-3.6-10.85-5.54-17.94-4.17-7.13 1.34-14.1 5.91-20 11.96-5.96 6-11.3 12.6-18.15 16.27-6.8 3.83-14.3 3.65-19.76 2.05a26.03 26.03 0 01-11.58-6.86 18.25 18.25 0 01-2.28-2.87c-.45-.7-.66-1.1-.6-1.13M525.6 204.6c-.06.07-.88-.47-1.74-1.95a13.14 13.14 0 01-1.56-7c-.09-6.31 4.91-13.51 4.9-22.25.08-4.33-1.02-8.44-3.12-11.47a14.95 14.95 0 00-7.77-5.66 12.74 12.74 0 00-6.58-.34c-1.55.38-2.36.81-2.45.66-.05-.07.64-.74 2.23-1.38a12.18 12.18 0 017.17-.25c2.97.73 6.4 2.58 8.85 5.95 2.44 3.32 3.69 7.87 3.6 12.5-.01 4.67-1.35 9-2.74 12.61-1.38 3.64-2.52 6.88-2.72 9.71-.56 5.8 2.22 8.76 1.94 8.87" fill="#33535f"/>
  <path d="M521.2 233.35l-3.19-2.94a2.85 2.85 0 01-.15-4.03l11.92-12.87a2.85 2.85 0 014.03-.15l3.18 2.94a2.85 2.85 0 01.15 4.03l-11.92 12.87a2.85 2.85 0 01-4.03.15M646.88 385.33s.04.26.08.78l.17 2.3.63 8.93 2.28 33.8 3.45 52.21 1.02 15.54c.2 2.66.3 5.37.42 8.12.11 1.38 0 2.76-.03 4.16-.08 1.39-.01 2.8-.24 4.2l-.52 4.23-.9 4.23c-.4 1.4-.88 2.78-1.32 4.18-.61 1.33-1.12 2.73-1.84 4.03-2.8 5.2-7.15 10.04-13.22 12.04l-.03.01h-.04l-130.44-.03-41.36-.02h-.45l.12-.43 3.76-13.4 1.85-6.62c.62-2.2 1.25-4.35 1.54-6.57.67-4.42.22-8.95-1.14-13.1-.7-2.07-1.7-4.03-3.12-5.63a9.2 9.2 0 00-5.31-3.12l-2.74-.43 2.73-.23 49.27-4.14-.15.06c3.1-2.24 6.9-3.46 10.6-3.26 3.71.17 7.24 1.36 10.28 3.27l-.21-.05 41.77-7.91-.2.32c-.52-1.63-.65-3.3-.71-4.91-.05-1.62 0-3.21.13-4.77.25-3.12.69-6.11 1.27-9l.02.15-9.25-17.25-.02-.04v-.04a680.29 680.29 0 01-.78-35.76c.04-4.14.2-7.31.42-9.44.1-1.07.22-1.87.36-2.4l.18-.8s-.03.28-.13.8c-.13.54-.22 1.34-.3 2.4-.2 2.14-.32 5.3-.33 9.44-.04 8.26.24 20.38.95 35.74l-.02-.08 9.3 17.21.05.08-.02.08c-.56 2.86-1 5.85-1.23 8.94a41.94 41.94 0 00-.12 4.72c.06 1.6.2 3.23.7 4.77l.1.27-.28.05-41.75 8-.11.02-.1-.07c-2.93-1.82-6.41-3-9.99-3.15-3.58-.2-7.22.99-10.23 3.16l-.07.05h-.08l-49.26 4.2v-.66a9.79 9.79 0 015.76 3.34 16.88 16.88 0 013.25 5.85 29.28 29.28 0 011.18 13.41c-.3 2.27-.94 4.49-1.56 6.67l-1.85 6.61-3.75 13.4-.33-.44 41.36.02 130.44.1h-.08a19.88 19.88 0 007.57-4.66 28.23 28.23 0 005.27-7.05c.7-1.28 1.21-2.65 1.82-3.96.43-1.38.9-2.75 1.3-4.12l.9-4.17.52-4.2c.23-1.38.16-2.78.24-4.16.04-1.39.15-2.76.04-4.13-.12-2.73-.2-5.42-.4-8.09l-1-15.54-3.3-52.22-2.1-33.82-.54-8.94-.12-2.3-.03-.78M609.13 312.68c.02.05-.85.53-2.38 1.47-1.53.93-3.69 2.4-6.17 4.42-5 4.02-11 10.68-15.98 19.12-4.98 8.44-8.3 16.73-10.67 22.7l-2.76 7.1-.78 1.92c-.18.44-.29.66-.31.66-.02-.01.04-.25.18-.7l.65-1.98c.58-1.7 1.44-4.16 2.56-7.18 2.27-6.02 5.51-14.37 10.54-22.87 5.01-8.5 11.15-15.2 16.26-19.15 2.54-2 4.76-3.4 6.34-4.27.78-.46 1.42-.74 1.85-.96.43-.2.65-.3.67-.28" fill="#17282f"/>
  <path d="M533.8 489.2c-.82 0-1.6-.16-2.23-.65-1.29-1-1.35-3-.62-4.47.72-1.45 2.04-2.51 3.24-3.6 10.07-9.1 14.77-22.87 16.1-36.37 1.32-13.5-.3-27.1-.8-40.65-.5-13.2 1.66-26.82 7-38.9l-.37 2.3c-.47 2.55-.75 5.3-1.09 8.18-.54 5.8-.8 12.19-.57 18.9.28 6.7 1.05 13.05 2.03 18.78.54 2.85 1.04 5.57 1.69 8.07.56 2.52 1.23 4.83 1.84 6.94.57 2.13 1.27 4 1.8 5.65a61.68 61.68 0 001.54 4.2l1.05 2.62c.2.46.32.75.38.86l.23 5.88v.04l.03.04 9.21 17.18a76.6 76.6 0 00-1.25 8.92 42.79 42.79 0 00-.13 4.77c.06 1.53.18 3.1.64 4.64l-17.79 3.37c-6.66 1-13.34 1.93-19.97 3.09-.64.1-1.31.2-1.97.2m31-48.3a18.84 18.84 0 00-.46-1.34l.32.66.13.6v.09m-9.7-53.95c.05-4.15.27-8.12.59-11.84l.39-3.54c-.52 5.38-.86 10.48-.98 15.38" fill="#ba2c42"/>
  <path d="M564.79 441.06c-.06-.11-.19-.4-.38-.86l-1.05-2.62c-.45-1.14-1-2.54-1.53-4.2-.54-1.66-1.24-3.52-1.8-5.65-.62-2.1-1.29-4.42-1.85-6.94-.65-2.5-1.15-5.22-1.7-8.07a148.32 148.32 0 01-2.02-18.79c-.24-6.7.03-13.1.57-18.89.34-2.88.62-5.63 1.09-8.17l.38-2.31.44-.97c-.34 2.73-.63 5.39-.88 7.98-.13 1.15-.25 2.33-.4 3.54-.31 3.72-.53 7.7-.58 11.84-.3 11.87.65 22.61 3.27 33.45 1.48 6.1 2.91 12.63 5.98 19.15a107.57 107.57 0 01.45 1.35v.16" fill="#0f191d"/>
  <path d="M573.55 472.27c.12-1.38.28-2.74.48-4.08l-.48 4.08m-3.74-17.24l-4.4-8.16c-.08-1.47-.14-2.92-.2-4.34a81.82 81.82 0 004.6 12.5" fill="#ba2c42"/>
  <path d="M555.73 485.9l17.79-3.37a18.58 18.58 0 01-.64-4.64c-.05-1.62 0-3.21.13-4.77a76.6 76.6 0 011.25-8.92l-9.21-17.18-.02-.04v-.04c-.1-2.02-.17-3.98-.24-5.88v-.16l-.01-.09c.09.4.23.98.43 1.72.06 1.42.12 2.87.2 4.34l4.4 8.16c.82 1.8 1.76 3.7 2.84 5.7.64 1.2 1.56 2.17 1.84 3.43l-.46 4.03c-.2 1.34-.36 2.7-.48 4.08l-.3 2.52c-.34 2.64.58 7.93.58 7.93s-6.95 1.36-9.02 1.72c-3.02.52-6.05 1-9.08 1.46" fill="#0f191d"/>
  <path d="M455.21 351.3c-.14 0-.3-.04-.44-.1-.61-.23-.92-.9-1.16-1.51l-2.37-6-.15.45c.03-.41.09-.82.17-1.22l.1-.24a14.2 14.2 0 016.37-7.37c.22-.1.44-.2.66-.28 1.77-.68 3.63-.97 5.52-.97a21.65 21.65 0 017.6 1.44l.8.45a30.1 30.1 0 005.8 2.7c1.14.64 2.27 1.31 3.39 1.98-1.1.23-2.22.3-3.35.3-1.11 0-2.23-.07-3.35-.15a50.48 50.48 0 00-3.35-.15 15.42 15.42 0 00-13.98 8.43c-.5 1-1.28 2.23-2.26 2.23" fill="#ba2c42"/>
  <path d="M451.26 342.92c.72-3.34 3.32-6.17 6.47-7.61a14.2 14.2 0 00-6.38 7.37l-.09.24m26.86-4.27a30.1 30.1 0 01-5.81-2.7l-.8-.45c2.3.83 4.48 1.95 6.6 3.15" fill="#0f191d"/>
  <path d="M517.96 363.04h-.14c-.97-.11-1.43-1.24-1.67-2.18-1.3-4.92-2.51-10.07-5.73-14-3-3.66-7.49-5.87-12.1-6.97-4.58-1.09-9.34-1.18-14.06-1.26.3-.12.65-.24 1.02-.37a24.8 24.8 0 018.65-1.22c1.86.02 3.9.34 6.06.81a35.22 35.22 0 0118.52 11.92.5.5 0 000 .05l.02-.02.78 1 .25.33.27-.29c2.46-2.67 4.9-5.6 6.95-8.9 3.97-6.28 6.53-12.93 8.38-19.05a132.4 132.4 0 002.84-11.7c.4-.83.8-1.63 1.25-2.43-.16 9.9-.82 19.88-3.7 29.34-2.89 9.46-8.16 18.44-16.13 24.3-.44.32-.93.64-1.46.64m1.65-12.96l-.52-.66a24.38 24.38 0 004.7-4.36 69.06 69.06 0 01-4.18 5.02m-1.08-1.33a35.4 35.4 0 00-11.61-8.97 34.44 34.44 0 00-6.8-2.43c-.8-.17-1.6-.32-2.36-.43a36.74 36.74 0 0115.37 5.04c1.44.87 2.84 1.86 3.89 3.18a6.84 6.84 0 011.5 3.6m-34.55-10.2l-.52-.21c1.26-.4 2.53-.7 3.82-.95a19.48 19.48 0 00-3.3 1.15m44.54-.95a61.33 61.33 0 002.76-6.86c1.93-5.67 3.36-11.56 5.64-17.08-.64 2.86-1.41 5.9-2.36 9.07a84.3 84.3 0 01-6.04 14.87" fill="#ba2c42"/>
  <path d="M519.56 351.13l-.25-.32a32.4 32.4 0 00-.78-1l.56-.39.52.66a69.06 69.06 0 004.19-5.02 35.94 35.94 0 004.7-7.48 84.3 84.3 0 006.05-14.87c.95-3.17 1.72-6.21 2.36-9.07.34-.83.7-1.65 1.1-2.46a132.4 132.4 0 01-2.85 11.7c-1.85 6.13-4.41 12.78-8.38 19.05a59.05 59.05 0 01-6.95 8.91l-.27.3M518.5 349.77a35.22 35.22 0 00-11.85-9.47 34.37 34.37 0 00-6.67-2.46 30.17 30.17 0 00-6.77-.82 24.8 24.8 0 00-8.96 1.6h-.06l-.23-.1a19.48 19.48 0 013.3-1.15 36.67 36.67 0 0110.5-.46c.76.11 1.54.26 2.35.43 2.17.57 4.5 1.27 6.8 2.43a35.4 35.4 0 0111.6 8.97c.04.34.03.68 0 1.03" fill="#0f191d"/>
  <path d="M463.48 495.68h-16.33s-36.84-13.3-44.41-12.04c-6.83 1.15-31.8 17.74-36.7 21.02-.54.37-.95.9-1.18 1.51-1 2.7.31 5.71 2.98 6.81l.51.21-.22.75a8.88 8.88 0 00-.38 2.98c.19 3.5 4.9 4.57 6.7 1.55l-.95 1.68a4.11 4.11 0 00-.52 2.23l.09 1.52a4.1 4.1 0 007.1 2.55c3.18-3.49 10.02-10.47 14.65-11.24 4.11-.68 10.97-.77 15.12-.76 2.1.01 3.98 1.31 4.75 3.28-2.75.2-21.89 10.18-28.66 13.75a7.25 7.25 0 00-3.94 5.45c-.25 2.12.82 4.34 5.02 3.36 9-2.1 25.2-9.55 25.2-9.55s8.35-2.38 13.76 1.44c7.61 5.37 11.1 7.34 17.64 5.17a55.34 55.34 0 0011.36-5.28l12.88-1.28s12.18-30.44-4.47-35.1" fill="#f8a58d"/>
  <path d="M414.83 501.9c-.03.14-2.61-.69-6.92-.96-4.28-.3-10.36.2-16.41 2.79a36.52 36.52 0 00-13.37 9.92c-2.78 3.3-3.97 5.73-4.1 5.66-.03-.02.24-.64.83-1.7a31.1 31.1 0 012.9-4.28c2.68-3.4 7.29-7.6 13.47-10.24a35.1 35.1 0 0116.72-2.64c2.17.2 3.9.55 5.08.86 1.18.32 1.81.55 1.8.6M410.93 492.95c-.04.17-2.66-1.11-7.2-1.25-4.5-.2-10.84 1.16-16.76 4.74-5.92 3.6-10.35 8.16-13.5 11.43l-3.7 3.93c-.88.93-1.38 1.43-1.42 1.4-.03-.04.4-.6 1.21-1.58.82-.98 2.02-2.4 3.55-4.09 3.06-3.36 7.48-8.02 13.5-11.68 6.04-3.66 12.54-4.97 17.14-4.64 2.3.14 4.13.56 5.34.98.62.17 1.07.4 1.38.53.31.13.47.21.46.23" fill="#f68260"/>
  <path d="M623.63 122.57a54.53 54.53 0 00-44.72 85.7l-6.55 20.34 20.04-6.83a54.53 54.53 0 1031.23-99.2" fill="#fff"/>
  <path d="M609.25 176.68a4.7 4.7 0 11-9.4-.28 4.7 4.7 0 019.4.28M628.07 177.24a4.7 4.7 0 11-9.41-.28 4.7 4.7 0 019.4.28M646.9 175.46a4.7 4.7 0 11-8.28 4.45 4.7 4.7 0 018.28-4.45" fill="#17282f"/>
  <path d="M625.3 122.2c0-.02.33-.02.96.01l2.79.16c.61.05 1.3.07 2.06.16a3688.05 3688.05 0 005.31.92l3.2.9a52.03 52.03 0 0115.36 7.25 55.93 55.93 0 0115.63 16.17c4.42 7.12 7.72 16 8.37 25.9.02 2.47.24 4.99-.08 7.53-.12 1.27-.14 2.57-.36 3.84l-.7 3.87c-1.2 5.1-2.9 10.33-5.7 15.16a59 59 0 01-10.42 13.47 57.93 57.93 0 01-14.73 9.93 52.42 52.42 0 01-17.74 4.86c-1.55.26-3.12.21-4.7.26-1.58.06-3.16.07-4.74-.06a55.56 55.56 0 01-28.11-10l.56.07-19.48 7.15-1.15.42.36-1.17 6.28-20.4.08.5a55.24 55.24 0 01-9.56-23.82c-.6-4.09-.78-8.16-.39-12.07.14-1.96.3-3.9.72-5.77l.52-2.8c.2-.92.51-1.81.76-2.7a55.07 55.07 0 0122.42-30.67 52.7 52.7 0 0112.98-6.36l2.9-.94 2.76-.61 2.52-.55c.8-.13 1.59-.19 2.31-.28 1.46-.14 2.75-.35 3.87-.37l2.83-.01 1.73.01c.4 0 .59.02.59.04s-.2.04-.59.06l-1.72.09-2.82.1c-1.11.05-2.39.3-3.83.47a54.67 54.67 0 00-23.13 8.95 54.53 54.53 0 00-21.87 30.33c-.23.88-.53 1.76-.72 2.66l-.5 2.76c-.41 1.83-.55 3.74-.68 5.66-.37 3.84-.18 7.83.42 11.84a54.24 54.24 0 009.44 23.3l.17.24-.09.28-6.24 20.42-.79-.75 19.48-7.17.3-.11.27.18a54.35 54.35 0 0027.48 9.78c1.55.12 3.1.11 4.64.06 1.54-.05 3.08 0 4.6-.25 6.1-.54 11.99-2.21 17.34-4.74a56.8 56.8 0 0014.43-9.69 58.03 58.03 0 0010.24-13.16c2.75-4.72 4.42-9.83 5.62-14.84l.7-3.78c.23-1.25.25-2.52.38-3.77.32-2.5.1-4.97.1-7.4a55.67 55.67 0 00-8.08-25.48 55.57 55.57 0 00-15.28-16.06 52.41 52.41 0 00-15.1-7.37l-3.16-.94-2.83-.56-2.43-.47c-.74-.1-1.43-.15-2.03-.21l-2.78-.29a5.61 5.61 0 01-.94-.14M744.11 539.09c-3.43.48-6.77 2.15-8.85 4.91-2.08 2.77-2.73 6.68-1.24 9.8 1.49 3.13 5.25 5.13 8.6 4.21a5.05 5.05 0 004.78 4.67 5.05 5.05 0 004.94-4.5 5.97 5.97 0 006.6 1.53 5.97 5.97 0 003.56-5.78c-.1-1.52-.81-2.95-1-4.47-.2-1.65.23-3.33.19-5-.04-1.67-.76-3.53-2.35-4.07M675.71 548.12c5.16-3.31 11.07-5.26 17-6.8 4.32-1.1 8.94-2.01 13.18-.62a12.99 12.99 0 018.32 8.77c.42 1.55.52 3.27-.23 4.68-1 1.89-3.2 2.74-5.27 3.26-1.58.39-3.6.51-4.48-.86a6.2 6.2 0 01-4.32 2.3 6.18 6.18 0 01-4.62-1.6 6.12 6.12 0 01-7.1 3.3 6.12 6.12 0 01-4.17-6.61 6.46 6.46 0 01-5.7 2.8 5.3 5.3 0 01-4.69-4.04c-.42-2.18 1-4.62 3.15-5.13" fill="#17282f"/>
  <path d="M625.82 547.27a14.64 14.64 0 015.68-15.24c5.34-3.86 9.11-8.33 16.07-12.49 4.96-2.96 13.29-6.06 17.03-7.3 13.66-4.54 22.9-5.7 28.52-8.63a291.13 291.13 0 0014.35-8.28l69.77 5.4s8.4 51.53-4.31 56.56c0 0-59.11.63-63.75-1.43-5.04-2.24-81.96-2.2-81.73-1.68l-1.63-6.91" fill="#17282f"/>
  <path d="M663.57 537.43c-14.91 2.25-22.38 2.92-37.46 3.01-4.42.03-8.88-.03-13.2.86-2.63.54-5.28 1.48-7.2 3.35-1.94 1.86-3 4.81-2.04 7.32.95 2.51 4.26 4.02 6.54 2.6a5.46 5.46 0 004.23 4.28c2.09.4 4.38-.6 5.51-2.4.97 1.24 2.73 1.6 4.28 1.35 1.54-.26 2.95-1.02 4.37-1.69 6.09-2.84 12.55-2.14 19.27-2.1 11.73.1 25-.03 20.11 0" fill="#17282f"/>
  <path d="M667.98 554.02c0-.02.34-.04 1-.07h.04c.02.24 0 .07 0 .12h-.2l-.29.02-.66.02-1.65.03-10.67.12-7.49.01c-2.72 0-5.63-.14-8.7-.05-3.07.09-6.33.45-9.47 1.69-1.56.59-3.06 1.56-4.85 2.04-.9.25-1.87.34-2.82.16a4.14 4.14 0 01-2.53-1.45l.55-.03a5.8 5.8 0 01-5.76 2.57 5.8 5.8 0 01-4.6-4.56l.51.23c-1.68 1.06-4 .6-5.52-.68-1-.8-1.65-2.01-1.83-3.25a6.9 6.9 0 01.47-3.64c.9-2.3 2.86-3.96 4.94-4.93 2.1-.99 4.33-1.45 6.5-1.76 2.17-.3 4.31-.4 6.4-.44 8.3-.04 15.77-.1 22.03-.56 6.26-.43 11.3-1.09 14.78-1.52l4-.52 1.05-.12.36-.02c0 .01-.11.04-.34.09l-1.04.19-4 .64c-3.47.52-8.5 1.26-14.77 1.76-6.27.52-13.77.62-22.06.7-2.07.05-4.19.16-6.32.46-2.13.31-4.3.77-6.3 1.72-1.98.93-3.77 2.47-4.59 4.57-.86 2.03-.64 4.67 1.17 6.1 1.34 1.14 3.35 1.49 4.7.62l.44-.27.1.5a5.11 5.11 0 004.04 4.02 5.13 5.13 0 005.07-2.26l.25-.4.3.38c1.05 1.32 3.05 1.53 4.65 1.07 1.66-.43 3.15-1.38 4.79-2a28.2 28.2 0 019.68-1.68c3.1-.06 6.02.1 8.72.13l7.5.06 10.66.08 1.65.02.66.01h.42l.07.01v.12h-.05a6.48 6.48 0 01-.99-.05M761.32 551.28s.36.29.78 1.03c.4.73.84 1.98.64 3.6-.1.79-.35 1.67-.88 2.5a5.28 5.28 0 01-2.4 2.06 6.27 6.27 0 01-7.1-1.53l.5-.09a5.6 5.6 0 01-4.84 3.71 5.58 5.58 0 01-5.51-3.75l.4.22c-3.7.92-7.83-1.57-9.39-5.3-1.22-2.83-.7-6 .58-8.47 1.3-2.5 3.32-4.47 5.57-5.7a19.32 19.32 0 016.88-2.17c2.24-.3 4.36-.26 6.26-.1 3.82.33 6.83 1 8.92 1.38l2.4.47c.55.11.84.18.84.2 0 .03-.3 0-.86-.06a76.7 76.7 0 01-2.43-.34c-2.1-.3-5.13-.9-8.9-1.17-3.72-.22-8.44-.06-12.8 2.35a13.13 13.13 0 00-5.27 5.44c-1.2 2.34-1.67 5.32-.55 7.9 1.44 3.46 5.3 5.75 8.59 4.92l.3-.07.1.3a4.96 4.96 0 004.83 3.32 5.02 5.02 0 004.34-3.26l.16-.47.33.38a5.8 5.8 0 006.48 1.46c2-.8 2.92-2.7 3.13-4.18a5.99 5.99 0 00-.47-3.47c-.36-.75-.67-1.08-.63-1.1" fill="#33535f"/>
  <path d="M771.76 537.92c-.08.09-.8-.62-2.2-1.38-1.37-.76-3.5-1.5-5.9-1.39-2.4.13-4.44 1.08-5.73 1.98-1.3.9-1.96 1.68-2.04 1.6-.06-.04.45-.95 1.75-2a10.59 10.59 0 015.99-2.27c2.57-.13 4.82.75 6.19 1.66 1.39.9 2 1.76 1.94 1.8M675.45 556.28c-.01.02-.19-.1-.51-.35-.3-.28-.75-.7-1.15-1.37a8.23 8.23 0 01-.74-6.41c.74-2.75 3.1-5.42 6.26-7.25 3.17-1.9 7.07-2.96 10.84-4.64a36.73 36.73 0 0015.72-13.75 37.8 37.8 0 002.98-5.7c.58-1.41.86-2.21.92-2.2a2 2 0 01-.13.6c-.12.4-.26.98-.54 1.7-.5 1.44-1.4 3.5-2.81 5.86a36.03 36.03 0 01-15.86 14.13c-3.84 1.7-7.71 2.73-10.8 4.55-3.08 1.75-5.35 4.27-6.11 6.84a8.13 8.13 0 00.5 6.14c.73 1.32 1.5 1.8 1.43 1.85" fill="#33535f"/>
  <path d="M703.25 555.86c.06-.06.4.6 1.5 1.19 1.06.57 3 .96 5 .07 2-.85 3.54-3.4 3.46-6.3a8.84 8.84 0 00-1.23-4.29 11.36 11.36 0 00-3.32-3.52 15.87 15.87 0 00-8.96-2.7 28.3 28.3 0 00-7.73 1.19c-2.16.6-3.89 1.22-5.08 1.63-1.2.4-1.86.62-1.88.58-.02-.05.62-.35 1.78-.84a57.45 57.45 0 015.04-1.84 27.42 27.42 0 017.87-1.36c3.02-.03 6.44.76 9.36 2.77 1.46 1 2.66 2.3 3.51 3.75a9.41 9.41 0 011.28 4.63c.06 3.1-1.66 5.86-3.9 6.75-2.21.9-4.25.39-5.33-.29-.56-.33-.9-.71-1.11-.97-.2-.28-.28-.43-.26-.45" fill="#33535f"/>
  <path d="M695.46 556.83c.07-.04.64.87 2.23 1.44a6.4 6.4 0 002.78.47 3.72 3.72 0 002.68-1.8c.6-1.03.57-2.27.27-3.28a7.8 7.8 0 00-1.32-2.54c-1.02-1.33-1.78-2.08-1.7-2.16.06-.05.93.55 2.09 1.85.56.65 1.2 1.52 1.55 2.66.35 1.11.44 2.56-.29 3.82a4.26 4.26 0 01-3.21 2.08 6.36 6.36 0 01-3.04-.65 4.93 4.93 0 01-1.7-1.2c-.32-.4-.37-.68-.34-.7M684.27 554.33c.06.02-.05.39-.05 1.06-.01.66.13 1.64.73 2.66.57 1.01 1.67 2.02 3.18 2.33 1.48.33 3.3 0 4.7-1.09a6.46 6.46 0 002.28-4.3 7.07 7.07 0 00-.78-4.01c-1.12-2.13-2.52-2.93-2.42-3.04.02-.03.37.13.93.56.54.43 1.29 1.15 1.92 2.24a7.3 7.3 0 01.98 4.3 6.94 6.94 0 01-2.49 4.8A6.26 6.26 0 01688 561a5.24 5.24 0 01-3.47-2.71 5.03 5.03 0 01-.57-2.92c.09-.7.29-1.05.32-1.04" fill="#33535f"/>
  <path d="M711.97 507.33s14.75 16.25 33.05 14.2c18.3-2.06 32.38-19.81 32.38-19.81 2.81-4.48 1.65-9.1.77-12.5-.88-3.42-2.55-6.7-2.57-10.22-.02-3.01 1.19-5.87 2.05-8.76 1.94-6.46 2.24-13.27 2.53-20 .13-2.9-.03-6.34-2.47-7.89-1.51-.96-3.52-.83-5.16-.1-1.64.73-2.98 1.97-4.27 3.22a182.51 182.51 0 00-15.5 16.88c-7.4-5.26-18.55-4.36-25.01 2.02-7.84-3.29-10.42-14.26-18.44-17.07-1.74-.61-3.83-.72-5.3.39-1.96 1.46-2.06 4.3-1.99 6.73.33 10.97.73 22.26 5.2 32.29a21.72 21.72 0 004.28 19.78" fill="#17282f"/>
  <path d="M738.75 509.64a7.46 7.46 0 014.08-2.94 7.46 7.46 0 015.01.35c.4.18.78.4 1.03.74.25.34.33.84.09 1.2-.28-.45-1-.4-1.36-.02-.36.37-.45.92-.47 1.45-.02.52.01 1.05-.17 1.54a1.86 1.86 0 01-1.37 1.15c-.61.11-1.27-.11-1.7-.57-.37-.4-.54-.94-.79-1.43-.24-.5-.63-.98-1.17-1.08-.43-.07-.85.12-1.26.28-.4.16-.87.29-1.27.11-.4-.17-.59-.8-.23-1.05" fill="#33535f"/>
  <path d="M745.58 511.67c.1 0 .07.59.29 1.45.2.86.73 2.02 1.74 2.88a5.57 5.57 0 003.13 1.24c.89.07 1.45-.06 1.49.04.02.08-.51.4-1.5.45a5.2 5.2 0 01-3.56-1.2 5.18 5.18 0 01-1.78-3.32c-.11-.98.1-1.56.19-1.54" fill="#33535f"/>
  <path d="M745.67 510.8c.07-.03.47.62.5 1.8a5.6 5.6 0 01-1.72 4.18 5.59 5.59 0 01-4.29 1.45c-1.18-.12-1.8-.56-1.77-.62.04-.11.7.14 1.8.13 1.06 0 2.6-.36 3.78-1.46a5.74 5.74 0 001.72-3.69c.08-1.08-.12-1.75-.02-1.79M773.92 516.91c-.09.22-4.17-2-9.75-2.66-5.57-.71-10.07.45-10.1.22-.02-.08 1.07-.47 2.9-.78a26.1 26.1 0 0114.32 1.76c1.71.75 2.67 1.4 2.63 1.46M782.4 513.3c-.02.1-1.66-.3-4.34-.78a68.22 68.22 0 00-10.56-1.04c-4.15-.06-7.9.3-10.59.68-2.7.38-4.34.74-4.37.63a4.1 4.1 0 011.13-.4c.73-.2 1.82-.46 3.16-.72a54 54 0 0121.32.37c1.34.3 2.42.58 3.14.83.74.23 1.13.38 1.12.43M786.9 503.85c0 .1-2.01.01-5.26.02a71 71 0 00-12.57 1.04 44.93 44.93 0 00-11.95 3.9c-2.89 1.46-4.5 2.67-4.57 2.57-.03-.04.35-.38 1.08-.93.73-.54 1.83-1.28 3.27-2.07a40.34 40.34 0 0112.04-4.16c4.92-.9 9.46-.96 12.71-.85 1.63.06 2.94.16 3.85.26.9.09 1.4.17 1.4.22M710.46 525.03c-.03-.04.25-.31.78-.77.52-.47 1.33-1.09 2.37-1.8a36.85 36.85 0 0118.45-6.23c1.25-.07 2.27-.07 2.97-.02.7.05 1.1.1 1.09.14 0 .12-1.55.11-4.03.37-2.47.24-5.86.83-9.45 2.04a44.22 44.22 0 00-8.76 4.11c-2.12 1.3-3.35 2.25-3.42 2.16M709.34 517.63c-.02-.05.34-.23 1-.53.67-.3 1.66-.69 2.9-1.1a48.01 48.01 0 0120.2-2.19c1.3.15 2.36.3 3.07.47.72.15 1.1.25 1.1.3-.02.1-1.62-.11-4.2-.28a60.6 60.6 0 00-10.1.21 60.62 60.62 0 00-9.92 1.95c-2.5.71-4.01 1.27-4.05 1.17" fill="#33535f"/>
  <path d="M700.04 514.5c-.01-.04.48-.26 1.39-.62.9-.38 2.24-.83 3.93-1.32a56.87 56.87 0 0127.11-.95c1.71.38 3.08.74 4.01 1.05.93.3 1.44.48 1.43.53-.04.11-2.11-.48-5.53-1.1a65.55 65.55 0 00-13.5-.96c-5.3.2-10.03 1.05-13.4 1.9-3.37.85-5.4 1.59-5.44 1.47M735.59 496.23c.05.06-.62.8-2.05 1.46a9.24 9.24 0 01-6.06.53 9.22 9.22 0 01-5.03-3.4c-.94-1.29-1.16-2.26-1.09-2.28.1-.05.49.83 1.47 1.96a9.76 9.76 0 004.82 3.05c2.2.56 4.31.2 5.7-.31 1.4-.51 2.17-1.1 2.24-1M765.28 489.83c.07-.02.3.96-.23 2.41a7.38 7.38 0 01-4.07 4.16 14.17 14.17 0 01-5.72 1.06c-1.49 0-2.4-.1-2.4-.2s.92-.17 2.37-.3c1.45-.13 3.48-.3 5.47-1.19a7.5 7.5 0 003.9-3.71c.6-1.3.56-2.23.68-2.23M713.62 470.18c.81-.86 1.62-1.75 2.22-2.83.6-1.09.98-2.4.82-3.7a7.85 7.85 0 00-1.69-3.62 34.75 34.75 0 00-7.31-7.43s-2.11-1.6-3.06 0c-.63 1.06-.23 18.58 2.2 19.7 2.44 1.11 6.82-2.12 6.82-2.12M774.12 445.15c-3.9 3.05-5.4 8.3-8.3 12.3-.53.73-1.06 1.46-1.4 2.28-.35.82-.5 1.76-.23 2.61.28.88.97 1.56 1.68 2.16 1.54 1.3 3.3 2.36 5.16 3.13 0 0 4.05 1.25 5.1-2.43 1.07-3.67.6-22.1-2.01-20.05" fill="#33535f"/>
  <path d="M650.23 520.68c-4.7.72-15.53-1.07-18.7-4.34-3.3-3.4-2.28-8.39-.56-12.8 1.72-4.43 4.37-8.41 6.63-12.58 3.79-6.97 6.54-14.65 6.75-22.58.2-7.93-2.36-16.12-7.98-21.72-5.61-5.6-14.47-8.13-21.86-5.26-6.09 2.36-10.8 9.38-8.44 15.47 1.48 3.81 5.17 6.23 7.77 9.4a19.23 19.23 0 013.84 16.24c-1.4 6.11-5.72 11.2-7.36 17.26-2.49 9.22 2.03 19.46 9.65 25.24 7.62 5.78 17.74 7.51 27.24 6.4" fill="#17282f"/>
  <path d="M748.85 517.49s.58 3.56-.65 5.02a3.4 3.4 0 01-2.16 1.26c-1.25.13-2.46-.72-3.09-1.81a8.18 8.18 0 01-.85-3.66s3.17-1.15 3.63-3c0 0 1.27 1.99 3.12 2.19" fill="#f03d5f"/>
  <path d="M765 518.93a6 6 0 01-1.02 1.18c-.71.7-1.82 1.67-3.3 2.7a27.5 27.5 0 01-13.2 4.68 27.47 27.47 0 01-13.76-2.52 23.97 23.97 0 01-3.7-2.14 5.83 5.83 0 01-1.2-1c.08-.1 1.84 1.28 5.1 2.7 3.23 1.41 8.1 2.7 13.51 2.27 5.4-.44 10.01-2.49 12.97-4.4 3-1.92 4.52-3.57 4.6-3.47M745.97 542.95c.06.1-.92.6-2.13 1.81a10.69 10.69 0 00-2.98 5.8c-.4 2.55.3 4.92 1.08 6.42.78 1.52 1.57 2.29 1.48 2.37-.04.05-.97-.6-1.9-2.14a10.26 10.26 0 01-1.35-6.77 10.26 10.26 0 013.34-6.04c1.36-1.18 2.44-1.51 2.46-1.45M758.97 544.5c0 .13-1.1.02-2.6.72a8.1 8.1 0 00-4.14 4.67 11.7 11.7 0 00-.1 6.4c.41 1.64.85 2.6.75 2.65-.07.04-.67-.86-1.21-2.51a10.98 10.98 0 01-.1-6.76 8.07 8.07 0 014.6-4.9c1.69-.63 2.82-.33 2.8-.27M722.82 535.86c.07.05-.32.8-1.1 1.92a21.67 21.67 0 01-3.57 3.97 17.55 17.55 0 01-4.55 2.8c-1.27.52-2.1.7-2.12.62-.1-.22 3.13-1.3 6.22-3.95 3.06-2.67 4.92-5.5 5.12-5.36M706.7 495.8c0 .03-.26.23-.77.6-.5.37-1.28.87-2.28 1.51a79.75 79.75 0 01-8.91 4.74c-3.88 1.78-8.6 3.65-13.96 5.4-5.35 1.76-11.31 3.4-17.46 5.45-6.15 2.03-11.9 4.3-16.83 6.98-4.92 2.67-9 5.69-12.07 8.6a43 43 0 00-6.46 7.64c-1.3 1.99-1.86 3.18-1.93 3.14a28.59 28.59 0 011.7-3.29 40.33 40.33 0 016.35-7.85 56.25 56.25 0 0112.1-8.8c4.96-2.73 10.75-5.05 16.92-7.08 6.17-2.05 12.14-3.68 17.48-5.4a143.8 143.8 0 0013.96-5.23 92.75 92.75 0 0011.31-5.93c.54-.33.83-.5.84-.47M713.73 507.67c-.06.06-.94-.77-2.08-2.36a24.45 24.45 0 01-4.41-14.37c.05-1.95.32-3.14.4-3.12.23 0-.43 4.84 1.33 10.45 1.7 5.63 4.96 9.28 4.76 9.4" fill="#33535f"/>
  <path d="M233.13 552.85l-44.24-111.06a14.51 14.51 0 0113.43-20.02h137.83c6.22 0 11.74 3.96 13.74 9.85l38 112.02 44.39.21c3.6.02 6.52 5.3 6.52 8.9l-48.86-.56-160.81.66" fill="#17282f"/>
  <path d="M234.2 447.43c-3.14-.11-6.27.69-8.9 2.38-.87.56-1.73 1.23-2.43 2.02-2.36 2.64-6.57 7.81-4.9 15.87 1.68 8.05 6.88 9.16 9.3 9.43 2.42.26 19.36-4.55 19.36-4.55s6.14-5.22 3.96-12.07c-1.88-5.88-7.32-12.75-16.4-13.08" fill="#f03d5f"/>
  <path d="M226.13 474.72s.6 4.3 2.76 5.4c2.16 1.1 6.2.9 9.27.13 3.08-.78 7.68-2.54 8.22-4.93.54-2.4.08-5.3-.27-5.62-.35-.31-5.05-2.97-11.36-1.04-6.3 1.92-8.62 6.06-8.62 6.06" fill="#f3f2f1"/>
  <path d="M231.97 464.24a8.1 8.1 0 11.02-16.21 8.1 8.1 0 01-.02 16.21" fill="#f57797"/>
  <path d="M219.38 471.8a13.7 13.7 0 000 0m-1.62-5.31" fill="#6c7a7f"/>
  <path d="M219.38 471.8a13.7 13.7 0 01-.74-1.7c-.27-.8-.58-1.93-.85-3.45l-.03-.16c-.04-.3-.08-.6-.1-.88-.25-3.4 1.01-7.17 1.01-7.17a10.09 10.09 0 013 6.48c.17 2.43-.8 4.96-2.3 6.88" fill="#f57797"/>
  <path d="M251.07 463.83h-.02a9.72 9.72 0 00-.46-3.32 20.32 20.32 0 00-2.53-5.17 17.4 17.4 0 011.83 3.2c1.57 3.71 1.18 5.3 1.18 5.3m-5.77-11.75l-.02-.02.02.02" fill="#6c7a7f"/>
  <path d="M251.05 463.82a10.38 10.38 0 01-5.25-4.96 9.21 9.21 0 01-.52-6.8l.02.03a20.32 20.32 0 015.28 8.42c.37 1.16.5 2.27.47 3.31" fill="#f57797"/>
  <path d="M296.82 491.89a8.95 8.95 0 11-17.9 0 8.95 8.95 0 0117.9 0" fill="#f3f2f1"/>
  <path d="M823.18 552.18c0 .2-183.27.35-409.3.35-226.12 0-409.35-.15-409.35-.35 0-.19 183.23-.34 409.34-.34 226.04 0 409.31.15 409.31.34" fill="#17282f"/>
  <path d="M126.35 506.4c-13.04-7.56-20.02-25.15-20.54-39.54-.52-14.4 5.48-29.41 17.28-37.66 12.43-8.7 30.14-8.54 42.91-.35 12.78 8.18 20.26 23.62 19.69 38.78-.58 15.15-8.85 29.63-21.07 38.62" fill="#f03d5f"/>
  <path d="M147.16 507.79c-.09 0-.17-1.17-.24-3.3l-.26-8.97c-.2-7.58-.49-18.05-1-29.6-.5-11.56-1.13-22-1.6-29.58l-.53-8.96c-.12-2.12-.14-3.3-.05-3.3.08 0 .26 1.15.52 3.26.26 2.1.58 5.16.92 8.94a650.73 650.73 0 012.6 59.23c0 3.8-.05 6.86-.13 8.99-.07 2.12-.15 3.29-.23 3.29" fill="#fff"/>
  <path d="M109.67 463.6c-.03.34-2.1.44-4.64.23-2.54-.2-4.58-.65-4.55-.98.03-.34 2.1-.44 4.65-.24 2.53.21 4.57.65 4.54 1M110.38 450.69c-.13.3-1.93-.2-4-1.11-2.08-.92-3.65-1.92-3.51-2.23.13-.3 1.93.2 4 1.11 2.08.92 3.65 1.92 3.51 2.23M117.03 441.1c-.18.28-2.2-.67-4.29-2.4-2.1-1.74-3.41-3.55-3.17-3.77.25-.24 1.92 1.14 3.95 2.82 2.03 1.69 3.7 3.06 3.5 3.35M123.71 432.06c-.3.13-1.27-1.38-2.16-3.37-.88-2-1.35-3.74-1.04-3.87.31-.14 1.28 1.37 2.16 3.37.88 2 1.35 3.73 1.04 3.87M134.2 425.64c-.3.14-1.35-1.47-2.04-3.7-.7-2.22-.75-4.14-.42-4.2.34-.05.92 1.7 1.59 3.84.66 2.15 1.18 3.92.86 4.06M151.7 418.4c.3.12.11 1.5-.44 3.07-.56 1.58-1.27 2.77-1.6 2.66-.3-.11-.11-1.48.44-3.06.56-1.58 1.27-2.78 1.6-2.66M164.67 423.98c.23.24-.6 1.39-1.86 2.55-1.26 1.16-2.46 1.9-2.7 1.65-.22-.24.61-1.39 1.87-2.55 1.25-1.16 2.46-1.9 2.69-1.65M176.1 431.35c.18.28-.83 1.3-2.28 2.28-1.44.97-2.76 1.54-2.95 1.26-.19-.28.83-1.3 2.27-2.28 1.44-.97 2.76-1.54 2.95-1.26M184.2 442.35c.13.31-1.46 1.3-3.57 2.2-2.1.89-3.92 1.37-4.05 1.06-.14-.32 1.46-1.3 3.57-2.2 2.1-.9 3.92-1.37 4.05-1.06M187.4 454.35c.04.33-1.59.81-3.64 1.06-2.05.26-3.74.2-3.78-.14-.05-.34 1.58-.81 3.63-1.07 2.05-.25 3.75-.19 3.79.15M189.06 469.12c-.13.3-1.87-.15-3.87-1.02s-3.52-1.83-3.39-2.14c.13-.3 1.87.15 3.87 1.02s3.52 1.83 3.39 2.14M187.6 481.79c-.11.3-2.3-.22-4.6-1.72s-3.65-3.3-3.41-3.52c.25-.24 1.91 1.09 4.08 2.5 2.16 1.42 4.05 2.41 3.93 2.74M181 493.33c-.2.26-1.95-.77-3.62-2.58-1.69-1.8-2.58-3.62-2.3-3.8.28-.2 1.58 1.25 3.2 2.97 1.6 1.73 2.93 3.13 2.72 3.4M118.35 494.68c.15.3-1.68 1.56-4.1 2.82-2.41 1.26-4.5 2.04-4.65 1.73-.16-.3 1.67-1.56 4.1-2.81 2.4-1.26 4.5-2.04 4.65-1.74M112.63 484.25c.14.3-1.33 1.27-3.29 2.15-1.95.89-3.64 1.36-3.78 1.05-.14-.3 1.33-1.27 3.28-2.16 1.95-.88 3.65-1.35 3.79-1.04M108.42 475c.05.34-1.76.87-4.04 1.2-2.28.32-4.17.3-4.21-.03-.05-.33 1.76-.86 4.04-1.19 2.28-.32 4.16-.31 4.2.02M122.22 469.9c.1.32-1.67 1.15-4.02 1.4-2.35.28-4.26-.13-4.23-.46.02-.34 1.86-.49 4.1-.74 2.22-.25 4.05-.52 4.15-.2M133.68 458.5c.1.32-1.3 1.03-3.2 1.21-1.9.2-3.41-.23-3.37-.56.03-.34 1.5-.48 3.25-.65 1.76-.17 3.22-.33 3.32 0M135.87 449.37c-.11.32-1.63.08-3.4-.53-1.76-.6-3.1-1.36-3-1.68.12-.32 1.64-.08 3.4.53 1.77.6 3.11 1.36 3 1.68M140.07 440.13c-.23.23-1.28-.46-2.02-1.75-.75-1.3-.82-2.54-.5-2.63.33-.1.89.87 1.56 2.02.66 1.15 1.21 2.12.96 2.36M135 477.96c.09.32-1.23.93-2.93 1.34-.99.24-1.89.37-2.47.37l-.25-.72c.44-.08.73-.06.79.07.05.13-.12.36-.48.63l-.24-.72a11.3 11.3 0 012.36-.81c1.7-.42 3.15-.5 3.23-.16M137.37 494.15c.12.32-1.56 1.27-3.75 2.13-2.2.87-4.07 1.3-4.2 1-.12-.32 1.56-1.27 3.75-2.13 2.2-.87 4.07-1.31 4.2-1M124.42 486.96c.1.32-1.01.99-2.5 1.5-1.5.5-2.79.65-2.9.33-.1-.32 1.02-.99 2.5-1.5 1.5-.5 2.79-.65 2.9-.33M125.4 453.99c-.07.32-2.02.13-4.27-.67-2.25-.8-3.89-1.88-3.75-2.18.15-.3 1.97.25 4.16 1.02 2.18.78 3.95 1.5 3.87 1.83M156.74 450.4c.19.28-.9 1.34-2.45 2.35-1.54 1.02-2.94 1.61-3.12 1.33-.19-.28.91-1.33 2.45-2.35 1.54-1.01 2.94-1.6 3.12-1.33M158.45 466.67c.07.33-1.09.85-2.58 1.16-1.49.3-2.76.29-2.82-.04-.07-.33 1.08-.85 2.57-1.16 1.5-.3 2.76-.3 2.83.04M160.43 484.96c-.14.3-1.8-.16-3.71-1.05-1.9-.88-3.34-1.84-3.2-2.15.14-.3 1.8.16 3.71 1.05 1.9.88 3.34 1.84 3.2 2.15M156.24 502.77c-.26.21-1.34-.67-2.41-1.97-1.07-1.3-1.73-2.53-1.47-2.75.26-.21 1.34.67 2.41 1.97 1.07 1.3 1.73 2.53 1.47 2.75M155.38 438.43c.2.26-.5 1.15-1.73 1.76-1.22.62-2.36.65-2.45.33-.09-.33.8-.86 1.9-1.42 1.1-.55 2.07-.95 2.28-.67M170.73 454.83c.12.31-1.3 1.1-3.25 1.36-1.94.28-3.52-.09-3.5-.42.02-.34 1.52-.53 3.33-.79 1.82-.25 3.31-.47 3.42-.15M167.67 440.1c.16.3-1.26 1.3-3.26 1.94-2 .65-3.74.65-3.79.32-.05-.34 1.51-.87 3.42-1.48 1.9-.6 3.48-1.08 3.63-.77M174.09 477.64c0 .33-2.42.54-5.33.01-2.91-.52-5.1-1.57-4.98-1.88.1-.33 2.39.18 5.2.68 2.8.51 5.12.85 5.1 1.2M168.38 499.04c-.2.26-1.98-.79-3.75-2.57-1.78-1.78-2.82-3.56-2.55-3.76.27-.22 1.7 1.18 3.42 2.9 1.7 1.72 3.1 3.16 2.88 3.43" fill="#17282f"/>
  <path d="M143.3 422.7c.17.26-4.88 2.3-10.72 8.46-5.84 6.02-11.86 16.65-13.34 29.5-.71 6.37-.1 12.55.8 18.06.96 5.52 2.22 10.42 3.39 14.5s2.25 7.35 2.97 9.62c.73 2.27 1.11 3.53 1.03 3.56-.08.03-.61-1.18-1.48-3.4-.86-2.22-2.06-5.46-3.35-9.53a122.25 122.25 0 01-3.67-14.56c-.97-5.56-1.63-11.84-.9-18.4 1.51-13.14 7.81-23.97 13.93-29.95a38.33 38.33 0 017.99-6.25c1.01-.64 1.89-.98 2.44-1.26.58-.27.88-.4.9-.36" fill="#fff"/>
  <path d="M159.95 507.18c-.26-.13 2.75-4.76 5.5-13.12a74.25 74.25 0 003.28-33.74 63.5 63.5 0 00-5.2-18 42.47 42.47 0 00-8.88-12.35 32.35 32.35 0 00-8.69-5.5c-2.26-.93-3.61-1.16-3.6-1.26.01-.04.35-.02 1 .08.65.12 1.6.33 2.77.74 2.34.85 5.65 2.4 9.1 5.3a41.8 41.8 0 019.31 12.51 62.52 62.52 0 015.4 18.31 71.74 71.74 0 01-3.68 34.2c-.7 2.1-1.58 3.91-2.24 5.54-.79 1.58-1.44 2.95-2.03 4.03-1.24 2.15-1.96 3.3-2.04 3.26" fill="#fff"/>
  <path d="M112.63 504.3h67.35l.4 13.47h-67.75V504.3" fill="#17282f"/>
  <path d="M118.35 511.03l3.87 41.16h49.23l3.96-40.7-57.06-.46" fill="#17282f"/>
  <path d="M180.39 517.94c0 .33-15.17.6-33.87.6-18.71 0-33.88-.27-33.88-.6 0-.34 15.17-.61 33.88-.61 18.7 0 33.87.27 33.87.6M173.55 530.47c.06.04-.4.99-1.45 2.57a37.37 37.37 0 01-5.22 6.17l-.31.3-.3-.32a96.87 96.87 0 00-13.2-11.56l.74-.03-5.85 5.13-6.92 6.03-.38.33-.39-.32-11.24-9.46.65-.07-5.81 7.1c-1.4 1.66-2.22 2.56-2.29 2.5-.07-.05.6-1.06 1.88-2.81l5.5-7.35.28-.38.37.3 11.42 9.26h-.77l6.9-6.04 5.86-5.12.37-.31.38.28a86.22 86.22 0 0113.13 11.93l-.61-.03c5-4.53 7.06-8.24 7.26-8.1" fill="#33535f"/>
</svg>
