<svg xmlns="http://www.w3.org/2000/svg" id="Capa_1" x="0" y="0" version="1.1" viewBox="0 0 2800 1555" xml:space="preserve">
  <style>
    .st0{fill:#53456a}.st1{fill:#ccd6da}.st2{fill:#d6e9f6}.st3{fill:#b2acbf}.st4{fill:#c1d8e5}
  </style>
  <path d="M2584.4 1367h-64.8c-1.4 0-2.3-.7-2.7-2.2a13.2 13.2 0 00-7.4-8.4l-.8-.4c-.7-.4-.9-1-.6-1.6 2-3.8 3.3-7.7 4-11.8.2-.7.7-1 1.4-1.1l6.2-.2a41.6 41.6 0 0021.8-77c-1-.5-2.1-.2-3 .8-.7 1-.6 2.2.3 3 1 1 2.3 1.8 3.4 2.6a36.3 36.3 0 019.1 47.4c-8.3 13.8-21 19-36.7 18-1.3 0-2-.7-2.2-2-.3-1.9-.5-3.8-1-5.6a32 32 0 00-15.4-20.6 7.2 7.2 0 01-3.8-5.5l-5.3-28.3-1-5.7c0-.9.4-1.5 1.4-1.5 2.7 0 5.5.2 8.1-.6 9-2.8 15-8.6 16.6-18a21.4 21.4 0 00-10.1-23.2 22 22 0 00-25 .2c-1.3.9-2.4 2.4-3.8 2.7-1.8.5-2.9-1.6-4.3-2.6-13.2-8.8-31-2-34.7 13.5l-.7 3.7c-.4 1.7-.7 2-2.3 1.7-2.8-.5-5.6-1.2-8.4-1.6-3.2-.5-6.3-1.1-7.7-4.6 0-.2-.2-.3-.3-.4a11.8 11.8 0 00-12.7-3.2 11.4 11.4 0 00-7.5 10.7c0 6.3 4.6 11.5 11 11.6 3 0 5.2.9 7.5 2.5l16.8 11.2 12.7 8.5c1.3.9 2 1.8 1.7 3.6a503 503 0 00-4 20.7c-.4 1.7-1 3-2.6 3.7a33.6 33.6 0 00-17.9 30.7 35 35 0 004 16.1c.8 1.3.7 1.6-.8 2.1-4.1 1.6-7 4.4-8.4 8.6-.6 1.8-1.6 2.6-3.5 2.5h-354.7c-.6-.1-1.4 0-1.5-.8 0-.4.2-1 .4-1.3a22 22 0 004.3-8.5l17.4-56.3c19.8-63.9 39.5-127.7 59.4-191.5 4.2-13.6 6.6-27.3 6.3-41.5l-.4-27c-.3-16-.5-32-1.5-47.9-.1-1.3.1-2.5.5-3.7a282.6 282.6 0 0014.2-68.9c2-28-1.5-55.2-11-81.6a340.6 340.6 0 00-20.7-45.4c-7.6-14.2-15.9-28.1-24-42a895.4 895.4 0 01-36.5-66.5 501.2 501.2 0 01-28.9-73c-5.3-18-8.6-36.1-8.3-54.9a107 107 0 014-28.4 74 74 0 0146.8-51 86 86 0 0139.6-5.1 64.7 64.7 0 0141.7 18.3c2.3 2.3 5 4 8 5.2 8 3 15.5 2 21.9-3.8a20.3 20.3 0 006-21.5c-1-3.5-2.9-6.4-5.4-9a93.1 93.1 0 00-19.3-15.6 116.6 116.6 0 00-60-16.4c-15.4-.3-30.5 2.2-45.1 7.5a115.3 115.3 0 00-66 57.4 137 137 0 00-14.2 56.9c-1 23.7 2.4 46.9 9 69.6a542 542 0 0036.6 91.2 988 988 0 0032.5 58.7c8.8 14.9 17.8 29.7 26 44.9a262.6 262.6 0 0117.2 38c2 5.5 3.7 11.2 5 17l-.3.8-.7-.6-1.6-3c-2.6-4.5-5-9.2-7.7-13.8-5.2-9-10.6-17.9-17-26.1a265.9 265.9 0 00-56.9-54.7 248.8 248.8 0 00-133.2-46.2 229.5 229.5 0 00-75 8.4 209.4 209.4 0 00-119.7 84.7 12 12 0 01-4.6 4c-5.1 2.6-10 5.7-14.5 9.2-4.8 3.6-3.5 4-8.1-.2l-48.1-43.4c-1-.9-2-1.8-3-2.5-1.9-1.4-3.8-.4-4 2l.1 2.9 1.1 54.7c0 2.6-.6 4.4-2.8 6a62 62 0 00-19.9 27.2l-.8 2.3c-.4.8-1.1 1.1-2 1l-2.8-.7-17.6-4.5c-1.3-.4-2.5-.8-3.8-.7-1 .2-1.8.8-2 1.8-.2 1 .2 2 1.2 2.4 1.3.6 2.7 1 4 1.4 4.8 1.3 9.6 2.4 14.4 3.8 7.5 2 7 .2 5.7 8.8l-.2.9c-.3 1.8-.5 2-2.5 2.1l-21.6.9c-2.2 0-4.5 0-6.7.2-.8 0-1.6.1-2.3.4-1 .4-1.6 1.2-1.4 2.3a2 2 0 001.8 2h2.9l23-.7c8-.4 6.2-.7 7 6 .2 2.4 0 2.5-2.4 3.4l-16.8 5.7a26 26 0 00-3.5 1.4c-1 .6-1.3 1.9-.9 3a2 2 0 002.4 1.2l4.1-1.1c5.3-1.8 10.6-3.7 16-5.4 1.7-.6 2.2-.3 2.8 1.3l.7 2.3a66.6 66.6 0 0021.2 32.5c2 1.7 2.8 3.5 2.8 6.1v39.9a111 111 0 0043 89.3c1.6 1.1 2.8 2.3 3.1 4.5 1.2 8.9 2.6 17.7 4 26.6l6 40.8 7.3 47.4 7.1 47.9 7.3 47.9 7.4 49.8c.6 4.2 1 8.3 3.6 11.8.5.6 0 1.3-.7 1.4l-5.8.1h-389.7l-1.4-.2c-.6-.2-.7-.7-.5-1 .3-.6.9-1 1.3-1.4 3.3-3.2 5.1-7 5.6-11.4.1-1.8.5-3.5.8-5.2l11.9-76.4 10.2-64.4 9-58.3 8.5-54c1-6.2 1-6.1 5.5-10.5a110.7 110.7 0 0035.6-82.2c.2-13.6.1-27.2 0-40.8 0-2.4.7-4 2.6-5.7a67 67 0 0022-34.7l.6-2.3c.4-1.1 1-1.5 2.2-1.2l3.7 1.2 14 4.8 2.8.6c1.1 0 1.9-.5 2.1-1.6.3-1 .1-2-.8-2.5-1-.6-2-1-3-1.3l-15-5.1c-5.7-2-4.7-1-4.4-6.7.2-3.7.2-3.7 3.9-3.6h2.4a8847.6 8847.6 0 0025.9.8c1.2-.1 2.1-1 2.1-2.1 0-1-.8-2.2-2-2.4-.7-.2-1.5-.2-2.3-.2l-9.2-.3-18.2-.7c-2.7-.1-2.8-.3-3.3-3l-.9-5.3c-.2-1 .3-1.8 1.3-2.2l4.2-1.1 16.3-4.2 3.6-1.2a2 2 0 001.1-2.4c-.2-1-.9-1.8-2-1.8-1 0-2.2.2-3.3.5l-15.3 4-6 1.5c-1.2.2-1.9-.2-2.3-1.3l-1.3-3a61 61 0 00-19.5-25.1 4.4 4.4 0 01-2-4.1c.2-2.4.1-4.8.2-7.2l1-50v-3.8c-.3-2.4-2.2-3.1-4.2-1.7l-2.5 2.2-20 18c-10 9.2-20.2 18.3-30.3 27.4-1.9 1.7-2 1.7-4 .2-5.4-4.4-11-8.2-17.3-11.2a15.7 15.7 0 01-6.3-5.6 194.8 194.8 0 00-43.5-45.7 222 222 0 00-127-44.7 248.5 248.5 0 00-118.9 25.4 264 264 0 00-95.3 79.4 338 338 0 00-22.8 37.8c-.7 1.3-1 3-2.5 3.9-.6-1.7.1-3.3.5-4.8 3-12.2 7.3-23.9 12.6-35.2a477.9 477.9 0 0121.2-39.7c10.2-17.5 20.5-34.8 30.4-52.3a611.2 611.2 0 0044.4-95.6 275 275 0 0017.2-74.6c1.2-19.1-.1-38-5.5-56.5-8-27-23.2-49-46.8-64.8a126.5 126.5 0 00-60.5-21 124 124 0 00-51 6.1 98.2 98.2 0 00-40 24.9c-2.1 2.2-4 4.6-5.1 7.4a20.9 20.9 0 0019.7 29c6.2-.3 11.4-2.7 15.8-7.1a57.2 57.2 0 0123.6-14.2 85.1 85.1 0 0152.8 0 73.6 73.6 0 0150.6 50.2c4.5 14 5.5 28.3 4.4 42.7-1 14.4-3.8 28.5-8 42.4-6.6 22-15 43.4-24.7 64.4a786.8 786.8 0 01-36.6 68.5c-8.4 14.4-16.8 28.7-25 43.2a350 350 0 00-22 46.3 199.5 199.5 0 00-12.7 89c1.1 14 3.5 28 7 41.6 2 8.5 4 17 7.3 25.3.5 1.3.3 2.5.3 3.8-.4 9.5-1 19.1-1.2 28.7l-.9 40.8c-.2 9.5 0 18.9 1.6 28.2 1.2 7.5 3.3 14.7 5.5 21.9L950 1353c1.3 4.3 2 8.7 4.8 12.5.4.6 0 1.2-.8 1.3l-4.3.1H564.3c-1.5-.1-2-.6-1.7-2.1.4-3.2.5-6.4.3-9.6-.8-9.5-3.6-18-12.7-22.8-1.1-.6-1-1.2.3-2 5-2.6 8.4-6.8 10.3-12.1a42.2 42.2 0 001.8-19.4c0-.5-.2-1-.3-1.4-.2-1.5-1.2-2.2-2.5-2.5a50.4 50.4 0 00-16.2.4 22.8 22.8 0 00-19.2 18.4c-1 4.3-1 8.6-1 13 0 1.8-.3 2.2-2.2 2.2H505c-2.1 0-2.4-.4-2.5-2.6v-13.9l-.3-3.3c-.3-1-1.5-1.8-2.6-1.6-1 .1-1.8.7-2 1.8l-.2 4.3v13.4c0 1-.5 1.9-1.7 1.9h-13c-1.2 0-1.7-.8-1.7-1.9l-.1-3.3v-11c0-1.2 0-2.3-.2-3.4-.1-1.1-1-1.6-2-1.8-1-.2-2.3.5-2.5 1.6-.2 1-.3 2.2-.3 3.3v14.4c0 1.6-.5 2-2 2.1h-11.5c-2.6 0-2.8-.2-2.9-2.7V1313l-.1-3.4c-.2-1-1.4-2-2.4-2s-2.2.9-2.3 2c-.2 1.3-.2 2.5-.2 3.8v13.5c0 1.8-.4 2.2-2.3 2.2h-16.9c-.8-.2-1.4-.7-1.4-1.6l-.1-3.8V1301l-.1-3.8c-.2-1.7-1-2.5-2.9-2.6H428c-7.4.1-14.7 1.2-21.8 3.2a68.2 68.2 0 00-41 31c-1 1.8-1 3.5 0 5.4 1.2 2.5 2.5 4.8 4.1 7a64.3 64.3 0 0033.2 23.3c1.3.4 2.5.7 3.7 1.2.2 0 .5.5.4.7 0 .2-.4.4-.7.4l-5.3.2H251.7c-2.3.4-3 2.2-1.6 4.2.2.4.7.7 1 1h2338.6c0-.6.4-.8 1-.9v-3.8c-2-.8-4.2-.6-6.3-.6zm-2046.6-.4c-1.4.6-2.8.3-4.2.3H440c-5.6 0-5.3 0-5.3-5.2v-23c0-1.1 0-2.2.2-3.3 0-.7.6-1.1 1.2-1.2a5 5 0 011-.2h15.8c2.1 0 2.5.5 2.5 2.6v11.5l.2 3.4c.2 1.1 1.3 2 2.4 2 1 0 2.2-1 2.3-2l.1-3.4v-11.5c.1-2.1.5-2.5 2.6-2.5h11.6c1.8 0 2.2.4 2.2 2.3v12c0 1 0 2.2.3 3.3.2 1 1.5 1.9 2.5 1.7 1-.1 1.9-.7 2-1.7.2-1.1.2-2.3.2-3.4v-11.5c.1-2.4.5-2.7 3-2.8h11.4c1.6 0 2 .6 2.1 2.1v11.5c.1 1.3.1 2.6.3 3.8.1 1.3 1.1 2 2.3 2 1 0 2.2-.8 2.4-2l.2-2.8v-13c.1-.8.6-1.4 1.6-1.5h17.2c1.9 0 2.2.4 2.3 2.3l.1 7.7c.1 3.2 1 6.3 2 9.3a21 21 0 009 11l2.4 1.5s-.1.6-.3.7zm522.6.3H987c-2.4 0-2.7-.6-1.5-2.4a18.2 18.2 0 003.3-12.2l-8.9-58.8-9-61.2-10.2-67.3-2.8-19-.1-1.4c-.3-5.6-.2-4.8 4.3-5.2a90.6 90.6 0 0031-8.1l1.2-.5c.8-.3 1.3 0 1.6.6l1 3.2 49.2 172.9 14.5 51.2c.5 1.6 1 3.3 2 4.8 1.8 3.3 1.8 3.4-2.2 3.4zm167.8 0H1099c-1.5-.1-3.6.8-4.4-.8-.6-1.2 1.2-2.4 1.9-3.6 1.7-3.5 2.5-7.2 1.9-11.2l-8.5-60.8-7.2-51.2-6.2-44.7-5.3-37.5-4-29c-.7-5.5.3-10.8 2.6-15.9 1-2 2.1-3 4.4-3a88.6 88.6 0 0062.6-30.1c3.8-4.2 3-4.5 7 0a213.7 213.7 0 0150 107.1c3.5 20.4 7.4 40.6 11 61l10.2 55.6 9.6 53.3c.7 3.4 2.2 6.3 4.2 9 .6.8.2 1.7-.7 1.7zm56.8-.2l-3.8.2H1259c-1.4 0-2-.8-1.1-1.8 3.3-4 4.2-8.8 4.7-13.8a6408 6408 0 014.2-41.5l4.4-41 2.3-23c.2-2 .6-4 1-6 0-.3.3-.5.5-.8l.2 1 .4 20 2 79.2c.2 4 .5 8 .5 12 0 5 1.9 9.3 5.5 12.8.6.5 1.3 1 1.7 1.7.3.3.1 1-.4 1zm471.8.2H1738c-.7 0-1.2-1-.8-1.4 4-5 3.9-11 3.9-16.9l.7-90.7c0-1.2 0-2.5.2-3.8l.3-.9.5 1 .9 7.7c1.4 13.7 2.7 27.4 4.2 41 1 10.7 2.3 21.3 3.4 32 .6 6 1.4 12 1.8 18.1.4 4.5 1.8 8.4 4.6 11.9.3.3.5.8.5 1.2-.1.8-1 .8-1.5.8zm234.5-.7c-.3.5-.7.6-1.2.7H1789c-1 0-2.2.3-2.7-.5-.8-1.2.7-1.9 1.3-2.7 1.7-2.6 2.8-5.4 3.4-8.4l16.4-92 15-83.6a213.3 213.3 0 0145.7-98.6c1-1 1.8-2.2 2.9-3.2 1.3-1.3 2.1-3.2 4.2-3.7 1 1.5 1.2 3.3 1.8 5 1.7 5 4 9.7 7 14.1 10 15.1 23.5 26 40.4 32.6a48 48 0 0026.3 3.6c1.8-.3 3 .4 4.1 1.7 4 4.7 6.2 10 6.9 16l3.1 27.7 3.5 30 3.3 29.1c1 9.9 2.2 19.7 3.4 29.6l3.2 28.6 3.5 30.5c1.1 9.5 2.4 19 3.2 28.6.5 5.3 2 10 6 13.7.2.3.7.6.4 1.2zM2038 1258l-8 50.7c-2.2 13.1-4.2 26.2-6.5 39.3a19 19 0 004.5 17.3c.6.8.3 1.6-.7 1.6h-4.8v.2h-3.4c-.8 0-1.7.1-2.2-.6-.5-1 .4-1.5 1-2a17 17 0 004.3-9.4l.2-2.9c-.4-6.7 0-13.4.3-20.1.4-9.8.8-19.5 1-29.3l1.4-39.8 2.5-68.5 1.4-41.2.8-18.2c0-1.3.6-1.7 1.8-1.4 7.6 2.4 15.3 3.7 23.1 4.3 1.5 0 2 .7 2 2.2-.3 3-.6 6-1.1 9l-9.4 58.2-8.2 50.7z" class="st0"/>
  <path d="M1707.4 817.3c1.3.5 2.5-.2 3.7-.5a99.4 99.4 0 0184.5 12.2c1 .5 1.9 1.2 2.9 1.8.7.5 1.5.5 2.2-.1l2-2 47.5-46.9 2.8-2.6c1.6-1.3 3.8-.4 4 1.6.2 1.4.1 2.8.1 4.3v82c0 1.5 0 3 .2 4.4 0 .7.5 1.1 1.2 1l2.8-.8 14.5-5c1.2-.3 2.4-.8 3.7-1 1.5-.4 2.7.3 3 1.6.2 1-.3 2.2-1.4 2.7-1 .5-2 .8-3.1 1.2l-18.2 6.2c-2.6 1-2.6 1-2.6 3.8v5.7c0 1 .7 1.5 1.6 1.5h3.8a21573.3 21573.3 0 0029.8-1c1 .1 1.7.8 2 1.8.1 1-.6 2.4-1.7 2.6-1.3.3-2.6.3-3.8.4l-28.8 1.1c-2.5.1-2.9.5-3 2.8 0 6.4-.3 5 5.1 6.6 6 1.7 12 3.2 18.1 4.8a8 8 0 012.7 1c1 .4 1.2 1.4 1 2.4a2 2 0 01-2 1.6c-1.4 0-2.6-.3-3.9-.6l-15.3-4-4.2-1c-.7-.1-1.3.2-1.3 1l-.1 4.3v61c0 1.4 0 2.8-.3 4.2-.1 1-1.5 1.9-2.6 1.7-1-.3-1.8-.8-1.8-2l-.1-4.7V789.9c-.1-.5.1-1.3-.6-1.6-1-.5-1.4.3-2 .8l-1.4 1.4-43.6 43.2c-5.1 5-4.5 4.3-9.8.7a93.3 93.3 0 00-77.3-14.3 92.8 92.8 0 00-38.5 19.7c-3 2.6-3.5 2.5-6.4 0l-1.8-1.6-38.2-34.4-7.5-6.7c-.8-.7-1.4-2.1-2.6-1.7-1.3.4-.7 2-.7 3l.3 22 .7 29.3c0 2.2-.7 3.7-2.6 5.1a56.3 56.3 0 00-24 45.9 61.2 61.2 0 0022.5 49.4l2.6 2c.9.8 1.4 1.7 1.4 3v44.6a105.8 105.8 0 0040.5 84.4 104.3 104.3 0 0063.2 23.4c1.3 0 2.6 0 3.9.2 1 .1 1.8.8 2 1.8.3 1 .5 2.2.6 3.3l2.2 21.5 3.3 31.5c1 10.8 2.3 21.6 3.4 32.4l3.2 31.5 3.4 32 3.3 32 4.6 44.3 1.8 16.2c.8 5.8 4 9.6 9.6 11.5a14 14 0 0018.3-11.3l10.6-59.4 10.2-56.7c3.3-18.7 6.8-37.4 10-56.2a216.6 216.6 0 0151.8-109c6.6-7.6 14-14.4 22.5-20.1a84.3 84.3 0 0178.7-9.7l1.3.5c1.4.5 2.1 1.4 2.2 2.8v2.4a87.1 87.1 0 0084.1 84c2.8.1 3.5.7 3.8 3.4.4 3.1.3 6.3-.3 9.5l-7.2 45.5-7.3 44.5-7 43.5-7.3 45.5-4.1 25.6c-.3 2-.4 4.1.3 6.1 2 5.1 5.7 8.1 11 9 5.3 1 10-.4 13.7-4.8 1.4-1.7 2-3.7 2.6-5.6l9.8-31.7 67.8-218.9c3.6-11.5 5.6-23.3 5.4-35.4-.3-16.3-.7-32.6-.9-49a568 568 0 00-2-41.2 286.1 286.1 0 00-41.8-127.8c-4.7-7.5-9.2-15-14.7-22a264.1 264.1 0 00-47.7-47 244.8 244.8 0 00-141.7-51c-19.6-.8-39 1.2-58 5.5a214.4 214.4 0 00-89.7 42.9 193.6 193.6 0 00-32.6 33.7c-1 1.2-2.4 2.2-2.2 4-.4 0-.4.4-.1.3.6-.1 0 .3 0-.3z" class="st1"/>
  <path d="M1163.2 853.1V917c0 1.8.4 2 2.4 2.2h16.3c1.3 0 2.6 0 3.8.2 1.1.2 2 1.3 2 2.4.1 1-.7 2.2-1.9 2.3-1 .2-2.2.2-3.3.2h-16.8c-2.1 0-2.5.4-2.5 2.5v11.6c0 4.9-.1 4.6 4.7 4.7l15 .2c1 0 2.2-.1 3.2.5s1.3 1.4 1.2 2.4c-.1.9-.6 1.6-1.4 1.8-1 .3-2.2.4-3.3.4l-9.6-.3h-8.2c-.8 0-1.5.6-1.5 1.5v15.8c0 .9.5 1.5 1.4 1.6l3.9.1 13.9.2c1 0 1.9.1 2.8.4 1.1.3 1.9 1.5 1.7 2.6-.2 1-.9 1.8-2 1.9-1.7.2-3.4.2-5.2.2-3.8 0-7.6-.3-11.5-.3-1.5 0-3.4-.7-4.6.5-1.1 1-.4 2.8-.6 4.2l-.1.4c-.2 1.1-1.4 2-2.4 2-1-.1-2-1.1-2.2-2.3v-64.3l-.1-4.3c0-1.3-.7-1.6-2-1.4l-4.1 1-14.9 4a20 20 0 01-3.7.6c-1 0-2-.5-2.1-1.6-.2-1 0-2 1-2.5l2.6-1 17.6-4.6 4.2-1.1a2 2 0 001.4-1.8v-1.4c.2-5 .2-5.1-4.8-5.3a12919.1 12919.1 0 01-30.6-1.4c-1.2-.2-2-1.4-1.8-2.5a2 2 0 011.8-1.9h2.9l18.2.6 12.5.4c1 0 1.8-.6 1.8-1.8V881c.2-1.9-.6-2.9-2.4-3.5l-18.2-6.1-3.6-1.4c-1-.5-1.6-1.8-1.2-2.8.4-1 1.5-1.8 2.7-1.6l4 1.3 16.5 5.5c1.8.6 2.2.2 2.2-1.8V781.4c0-1 .4-2 1.3-2.4 1.2-.6 2.2-.2 3.1.6a36 36 0 013.5 3.3l45.4 44.9c4.8 4.7 3.5 4.2 8.5 1a98.5 98.5 0 0181.8-12.6l3.7 1c.3 0 .7 0 1-.2v-.8a189.8 189.8 0 00-25.4-28.7 207.9 207.9 0 00-85.4-47 213 213 0 00-29.6-6.1c-1.5-.2-2 .2-2 1.8l-.2 9.6v22c0 1.3 0 2.6-.3 3.8-.2 1.1-1.3 1.8-2.6 1.7a2 2 0 01-1.9-1.8 22 22 0 01-.2-3.3l.1-27.9V735c-.1-.9-.7-1.4-1.5-1.6a11 11 0 00-2-.3c-7-.5-14-1.2-21-1.1-4.7 0-4.7 0-4.8 4.7l-.4 30.7-.1 3.4c-.2 1-1.3 2-2.4 2-1 0-2.2-.8-2.3-2l-.2-3.3.3-20.7v-11.5c0-3-.2-3.2-3.3-3-6.1.6-12.2.8-18.2 1.7-8.8 1.4-7.7-.8-8 8.8-.2 7.8-.2 15.7-.3 23.5v2.9c-.2 1.8-1 3-2.5 3-1.5.1-2.4-1.2-2.5-3.4v-1.4l.2-14.4.2-14.4c0-2-.3-2.3-2.2-2-1 0-1.9.2-2.8.4a249 249 0 00-61.4 21.5 260.2 260.2 0 00-90.3 75.9 293.3 293.3 0 00-54.5 152c-1.2 14.4-1.5 28.8-1.9 43.2-.3 13-.6 26.2-.7 39.3a124.8 124.8 0 006.8 42l57 189.6c5.8 19.1 11.5 38.3 17.4 57.4 1.7 5.8 6 8.9 12 9.1 7 .3 12.2-2.7 14.4-8.2.7-1.7 1-3.4.8-5.2l-.7-5.2-7.2-48-7-47.9-8.3-54.5-7.4-49.8a44 44 0 01-.3-9.6c0-2.5 1-3.7 3.9-3.7 2 0 4.1-.3 6.2-.4 7.9-.6 15.5-2.5 22.8-5.4 5.4-2.2 5.7-2 1.4-6.3l-44.2-44-3-3.2c-.8-1-.8-2.3-.1-3.1.7-1 2.3-1.2 3.4-.3 1.1.9 2.1 2 3.1 3a96054.3 96054.3 0 0148 47.8c.7.7 1.7.8 2.6.4.8-.2 1.5-.6 2.2-1 5.7-3.6 11-7.7 15.7-12.5 1.5-1.5 1.4-1.8.2-3.2l-2.7-2.7-47.5-47.5c-1-1-2.1-2-3-3.2-.8-.9-.6-2.3.2-3 .8-.8 2.2-1 3.1-.2l3.2 3 47.1 47c1 1 1.8 2 2.8 2.8 1.4 1.3 1.9 1.3 3-.2 4-4.7 7.3-9.8 10-15.2 3.3-6.8 3.3-5.2-1.5-10l-43.1-43.2-3-3.2c-.6-.8-.3-2.4.6-3 .8-.6 1.9-.7 2.7-.1 1.1.8 2.1 1.9 3.2 2.9a161652.3 161652.3 0 0144.5 44.4c.7.6 1.5.3 1.8-.6 2-5.6 3.2-11.4 3.7-17.3l.6-8.7c.1-1.6.9-2.7 2.4-3.2 3.4-1 6.7-2.2 10.1-3a82.3 82.3 0 0169.1 12c2.7 1.7 5.3 3.6 7.8 5.6 2.4 2 4.6 4.5 7.3 6.2 2.8 2 4.6 4.7 6.8 7.2a212.1 212.1 0 0136 54.7c.4.8 1.1 1.1 2 1l4.1-1.2 21.8-5.8c1.3-.3 2.5-.8 3.8-.6 1 .1 1.8.7 2 1.8.1 1-.1 2-1 2.5-.7.4-1.5.6-2.3.8a989 989 0 01-9.7 2.7l-14.3 3.8c-3.7 1-3.8 1-2.4 4.4 2.7 6.5 5 13.1 7 19.9 1.5 5 1.3 4.3 6 3.2l19.5-5c1.4-.4 2.8-.7 4.2-.8 1 0 1.7.7 2 1.7.4 1 0 2-.9 2.5-.8.5-1.7.8-2.6 1l-11.2 3-11.6 3c-2.4.6-2.6.9-2.1 3.2l2.5 13.2 1.4 7.6c.4 2 .8 2.2 3 1.8l2.3-.7a12078.1 12078.1 0 0123.6-6.2c1.2-.2 2.3.5 2.6 1.6.4 1.1-.3 2.5-1.6 3-1.2.5-2.5.8-3.7 1.2l-20.8 5.7c-1 .2-1.8.5-2.7.9-.7.2-1 .8-1 1.5l.6 4.3 2.5 13.6 10 55.2c3.8 20.3 7.5 40.6 11.1 61l4 22a13.7 13.7 0 0015 11.5c7-.3 12-5.2 12.9-12.4a3917 3917 0 003.7-34.3l3.2-32 4.4-41 4.2-41.6 5.4-50.5 4.1-40.6c0-.8.2-1.6.4-2.4.3-1.4 1.2-2.2 2.7-2.3h2.9a107.4 107.4 0 00104.2-107v-45.1a4 4 0 011.8-3.6l2.2-1.8a61.3 61.3 0 0022.1-54.2 55.8 55.8 0 00-23.6-41c-1.8-1.3-2.6-2.7-2.6-4.8.2-5.5.1-10.9.2-16.3l.8-37-.1-2.8c-.1-.5-.7-.7-1.2-.4l-2.5 2-21.8 19.7-25.7 23.1c-2.2 2-3 2-5.4.2l-6-4.8a74 74 0 00-13.4-8.2c-3.3-1.7-3.5-1.5-3.6 2v7.1c0 1-.1 2-.4 2.8a2.3 2.3 0 01-2.6 1.7c-1-.3-1.8-.9-1.9-2l-.1-3.3v-10c0-1.5-.7-2.4-2-3-4.7-1.6-9.5-3-14.4-3.8-2-.3-2.4 0-2.4 1.9l-.2 13.4a31 31 0 01-.3 4.3c-.2 1.2-1.2 2-2.3 2-1.2 0-2.2-.7-2.4-2v-3.3l.2-14.9c0-2.4-.3-2.7-2.8-2.8-4.5-.1-9-.2-13.4 0-2.5 0-2.8.3-2.9 2.8l-.2 14.9c0 1 0 1.9-.2 2.8a2.6 2.6 0 01-2.7 2.2c-1.1-.2-2-1-2-2.4-.2-1.6-.2-3.2-.1-4.8l.2-13c0-1.2-.6-1.6-1.9-1.5l-1.4.3a94.3 94.3 0 00-37.3 15.7c-1.1.8-2.3 1.7-3.5 2.4-.9.6-1.9.6-2.7 0l-2.5-2.3-17-16.9-28-27.6-1.8-1.6-.9-.3c-.6.1-.7.6-.7 1.1v63.9z" class="st2"/>
  <path d="M2022.2 557.7c-.3-8.4.7-18.2 3.2-27.9a79.1 79.1 0 0153.5-58.5 90.3 90.3 0 0139.7-4.4 69.9 69.9 0 0143.8 19.5c2.3 2.3 5 3.8 8.2 4.8 11.8 3.7 22.3-7.3 20-18.3-.6-3.4-2.2-6.3-4.6-8.8a88 88 0 00-17.8-14.4 107.5 107.5 0 00-46-15.3 123 123 0 00-62.5 9.4 109.7 109.7 0 00-59.4 59.1 137.6 137.6 0 00-10.5 49.5 206 206 0 007 59.3 449 449 0 0019.3 56.2 672.3 672.3 0 0042.1 84c10.2 17.6 20.6 35 30.7 52.7a306 306 0 0119.2 39c5.3 13.4 9.2 27 10.8 41.3.5 4.2 1.6 8 3.1 12a283 283 0 0116.6 64.4l1.8 12.8c0 .2.3.3.6.5l.3-.3a282.8 282.8 0 0010-52.2c1.2-13.6 1.1-27.1-.5-40.7a195.5 195.5 0 00-10.9-44.1 316 316 0 00-22.9-48.5c-9-16-18.4-31.9-27.6-47.8a734.6 734.6 0 01-34.9-66.2 477 477 0 01-24.8-65.9 179.5 179.5 0 01-7.5-51.2z" class="st3"/>
  <path d="M1025.7 559.9a155 155 0 00-5.5-42.5 110 110 0 00-40.8-60 119.5 119.5 0 00-55-22.3 120 120 0 00-54 4.1 94.7 94.7 0 00-43.1 27.5 16 16 0 00.4 18.8 15.6 15.6 0 0018 5.5c3-1 5.6-3 7.9-5.2 7-7.1 15.4-12 24.8-15a90 90 0 0163.8 2.7 77.2 77.2 0 0144.5 45.7c4 10.3 5.9 21 6.4 31.8 1 18.3-1.6 36-6.2 53.7-4.5 17-10.6 33.5-17.2 49.8a631.4 631.4 0 01-39.3 79c-8.5 14.7-17.3 29.4-25.8 44.3a464 464 0 00-24.1 46.9 197.6 197.6 0 00-16.9 92.5 287.2 287.2 0 0010.7 57.9l.4.2.3-.2.3-1.4c1-7.1 2-14.3 3.2-21.4 3.4-19.7 8.8-39 16.4-57.5.7-1.8 1-3.6 1.2-5.6.1-4.4 1-8.9 1.7-13.3a186 186 0 0114.1-43.1c6-13.3 13.2-26 20.5-38.6 11.1-19.2 22.7-38.2 33.5-57.6 15.9-28.6 30-58 41.1-88.7l1.1-3.2a2 2 0 00-.4-2.2l-2.4-2.4-10.8-10.8-2.4-2.4c-1.2-1.4-1.3-3-.2-3.8 1-1 2.3-.8 3.8.5l2 2 9.6 9.5 2 2c.7.5 1.3.3 1.6-.4 1.3-3.8 2.4-7.6 3.8-11.3.8-2 .2-3.3-1.2-4.7-4.5-4.3-8.8-8.8-13.2-13.2-1-1-1.7-2-2.5-3-.5-.7-.3-1.5.2-2.2.6-1 1.5-1.1 2.5-.8.6.1 1.1.5 1.6 1 1 .8 1.8 1.7 2.7 2.6l10.6 10.5c1.1 1.2 1.8 1 2.3-.7l3-12c.6-2.2.2-3.7-1.4-5.2-4.2-4-8.2-8.1-12.2-12.2l-2.6-2.8c-.6-.9-.6-1.8 0-2.7.8-.8 1.7-1 2.7-.7 1 .2 1.6 1 2.3 1.6l9.1 9.2a48 48 0 002.5 2.3c.5.4 1.4.2 1.6-.4l.3-1.4a219 219 0 002.7-30.7z" class="st4"/>
  <path d="M2021 1243.3h.4v-8.6a9459.4 9459.4 0 013.6-100.6c.1-2-.5-3.3-2.5-4.1a92.2 92.2 0 01-53.7-76.4c-.1-1.8.7-4.2-.8-5.5-1.4-1.1-3.5-1.4-5.4-2-1-.4-2.1-.6-3.2-.9a81.3 81.3 0 00-32.3-1.7 87 87 0 00-45.8 23.7 4 4 0 00-1.4 4.2 50.7 50.7 0 007.4 18 80.2 80.2 0 0040.4 32.5 43 43 0 0023.5 2.6c2.6-.5 4.3.2 6 2a34.3 34.3 0 019.2 19.6c.8 6 1.4 12.1 2 18.1l3.3 29.1 4.4 37.6 4.2 37.7 4.4 37.6 4.2 37.7 1.3 10a12 12 0 008.5 10c3.2 1.3 6.6 1.4 9.9.4 5.5-1.6 8.8-5.8 8.6-10.7l.1-2 2.2-62.7 1.6-45.6z" class="st3"/>
  <path d="M1076.8 1044.5c-10.7 0-19.8 2-27.7 4.5-1.6.5-2.3 1.4-2.4 3.1-.2 3.2-.4 6.4-1 9.6a92 92 0 01-40.3 63.2c-4.9 3.3-4.6 1.9-3 7.9l63.1 221.8c.5 1.5.8 3 1.4 4.6 1.7 4.1 4.8 6.7 9.2 7.5 1.7.3 3.5.3 5.3.2a13 13 0 0012.1-15.2l-4.3-31.4-4-29.4-5.6-39.4-5.3-38-5.2-37.6-5.3-38c-.7-5-1.7-10-1.5-15.2a34 34 0 014.8-15.5c1-1.8 2.4-2.8 4.6-2.7h1.5a82.2 82.2 0 0061-29.8c2.7-3 2.7-3-.1-5.7-6.4-6-13.3-11-21-15.2a73.6 73.6 0 00-36.3-9.3zm220.6 319.8c5.3-.4 9.6-2.4 12.2-7.3.8-1.6 1-3.3 1.4-5l6.1-39.8 8.3-52.1 8-52.1 8.3-52.1 9-58.3c.2-1.2 1.2-2.9.2-3.6-1.3-1-2.5.8-3.6 1.5a112.2 112.2 0 01-56.7 18.6c-3.1.1-3.3.4-3.6 3.2a4991.7 4991.7 0 00-7.4 71 67 67 0 00-.5 8.2l.8 32.1 2 75.3 1 46c.1 2.2.2 4.4 1.3 6.5 2.8 5.4 7.5 7.6 13.2 8z" class="st4"/>
  <path d="M1736.8 1277.3h.3V1262l.2-49.9c0-4.2.2-8.3-.1-12.4-.6-7.2-1.5-14.4-2.2-21.5l-3.4-32.4-3.1-30c-.3-3-.7-3.4-3.5-3.5a108 108 0 01-51.5-15.2c-.8-.5-1.6-1-2.5-1.3-.4-.1-1 .1-1 .7l.1 3.3 4.1 27.5 6.3 41.7 6.2 41.3 6.3 41.7 6.2 41.2 7.3 48.4c.8 5.3 1.4 10.7 2.5 16 1 5.5 5.3 9 10.7 9.3h4.8c2.5 0 4.7-1 6.6-2.5 3.7-2.9 5.3-6.7 5.3-11.3 0-25.3.3-50.5.4-75.8z" class="st3"/>
  <path d="M2466.8 1366.2h40.3c1.5 0 3 0 4.4-.2.6 0 1-.8.7-1.4l-.8-1.2c-1.8-2.3-4.3-3-7.2-3-1.5 0-3-.3-3.5-2-.5-1.4.5-2.3 1.4-3.3 6.8-7 8.9-22.1 2.4-32.7a26.8 26.8 0 00-11.3-10.8 7.4 7.4 0 01-4.7-6.5c-.4-3.7-1.3-7.2-2-10.9l-5.1-27.3c-.3-1.4-.4-2.8-.4-4.3 0-1 1.2-2 2.3-1.9 1.3.2 2.5.6 3.7.9a17.7 17.7 0 0020.8-12.8 17.7 17.7 0 00-33.2-11.8 17 17 0 00-.2 14c.4 1.1 1 2.3 1.2 3.6.3 1-.7 2.3-1.8 2.4-1.3 0-2.6-.1-3.8-.4l-46.6-9c-4.2-.7-4.2-.7-6 3-.6 1.1-2.1 2-1.6 3.3.5 1.3 2 1.6 3 2.4l2.3 1.6c9 6 18 12.1 27.2 18.1 2 1.3 2.8 2.9 2.3 5.2l-2 9.9-2.9 15.5c-.3 2-1.2 3.3-3 4l-1.3.6c-18.7 10-19.4 33.2-9 44.2 1 1 1.5 2 .9 3.4s-2 1.5-3.3 1.6c-1 0-2.2 0-3.3.2a7.4 7.4 0 00-5.6 4c-.3.5.1 1.4.7 1.4l4.3.2h40.8z" class="st1"/>
  <path fill="#fff" d="M429.7 1331.6V1301c-.1-.7-.6-1.2-1.3-1.3H427c-7.8.5-15.6 1.7-23 4.3a62 62 0 00-31.5 24c-1.8 2.5-2.1 4.7-.1 7.3 1.3 1.6 2.3 3.4 3.6 5a57.5 57.5 0 0022 16.6 82.9 82.9 0 0029.2 6.6c2 0 2.4-.4 2.5-2.1V1331.6zm99.9-8.8v4.3c0 1.1.8 1.7 1.9 1.8 5.7.4 11.2-.1 16.4-2.4a15 15 0 008.2-7.7c2.5-5.4 3.2-11 2.7-16.9-.1-1.7-.7-2.2-2.4-2.4-5-.4-9.9.3-14.6 2a16.3 16.3 0 00-10.4 10.4 29.5 29.5 0 00-1.8 10.9zm-.1 17.6c0 3 .5 6.4 1.5 9.8a17 17 0 0011.7 11.7c4.5 1.5 9 1.8 13.7 1.6 1.7-.1 2.2-.6 2.4-2.4a34 34 0 00-2.1-15.5 16.2 16.2 0 00-10.1-9.6 34.4 34.4 0 00-11.3-2c-5.8 0-5.9 0-5.8 6.4z"/>
  <path d="M978.8 227c1.5 4.3 1 5.3-3.3 5.3H952c-3.7-.2-4.3-1-3-4.9v-.4h29.8zm-744 121c2.2 0 4.2-1.3 6.5-1 2.2.3 4.4 0 6.6 0h14.8c1.1 0 2.3 0 3.3.3 1 .2 1.6 1.1 1.6 2.2 0 1-.5 1.8-1.5 2-1 .3-2 .3-2.9.3l-22.9.1c-2 0-3.5-1.2-5.5-1v-3zm1706.2-3.4h-136.4c-2.6-.1-3.4-1-3.6-3.5v-49.9c0-5.8 0-5.9 5.9-5.9h57.1c6.4 0 5.9.5 5.9-6v-39.4c0-4.2 0-4.3-4.2-4.3h-20.1c-1.3 0-2.6 0-3.8-.3a2 2 0 01-1.5-2.2c0-1 .6-2 1.7-2.1 1.2-.2 2.5-.2 3.8-.2h159.8c1.6 0 3.2 0 4.8.2 1.1 0 1.8.8 2 1.8.2 1.4.2 2.9.2 4.3v42.2c0 6.5-.6 6 6 6h58.5c3.8.1 4.3.6 4.4 4.6v48c0 6.7 0 6.8-6.6 6.8h-134z" class="st0"/>
  <path d="M1941.8 235.6H1879c-4.2 0-4.3 0-4.3 4.3v40.8c0 4.6 0 4.6 5 4.6a253011.7 253011.7 0 00126.5-.1c.9-.1 1.4-.7 1.5-1.6v-45.1c0-2.5-.3-2.8-2.7-2.9h-63.3zm68.6 104.1h61.9c4.1 0 4.2-.1 4.2-4.3V295c0-5.2 0-5-5-5h-122.9c-1.1 0-2.2 0-3.3.2-1 0-1.5.6-1.6 1.5V334c0 6-.6 5.7 5.7 5.7h61z" class="st2"/>
  <path d="M1872.6 290.2h-62.4c-4.2 0-4.2 0-4.2 4.2v40.3c0 5.2-.2 5 5 5h122.8l3.4-.1c.9-.1 1.5-.6 1.5-1.6l.1-3.3v-39.4c0-5.4.3-5.1-5.3-5.1h-60.9z" class="st3"/>
  <path d="M1494 471.8h78.2c6.6 0 6.6 0 6.6 6.6v47c0 5.6-.1 5.7-5.6 5.7h-58.1c-5.4 0-5.2-.2-5.2 5.3v42.2c.1 1.5.6 2 2 2.2h19.7c1.1 0 2.3.1 3.4.3 1 .1 1.7.8 1.7 2 0 1-.4 1.8-1.3 2.2-.6.3-1.3.4-1.9.4h-158.8c-7.7 0-7.2-.4-7.2-7v-47.6c0-4.4.4-4.8 5-4.8h61c2 0 2.5-.5 2.7-2.5v-43.2l-.1-2.4c-.1-.9-.6-1.5-1.6-1.5l-3.3-.1h-16.8c-1.1 0-2.3 0-3.4-.3a2 2 0 01-1.6-2c0-1 .6-2 1.6-2.3 1.4-.2 2.9-.2 4.3-.2h78.7z" class="st0"/>
  <path d="M1438.6 580.8h64.7c1.2-.1 1.7-.8 1.7-2v-43.1c0-4.5 0-4.6-4.3-4.6h-122.8c-6.1 0-5.6-.5-5.6 5.8v37.9c0 6.4-.7 6 5.8 6h60.5z" class="st3"/>
  <path d="M1507.6 476.6H1443c-1 0-1.5.6-1.6 1.5l-.1 3.4v42.2c.1 2 .6 2.4 2.6 2.5h125.7c4.5 0 4.5 0 4.5-4.4V482c0-5.8.4-5.5-5.4-5.5h-61z" class="st2"/>
  <path d="M397.1 342.4H475c1.4 0 2.9 0 4.3.2 1.5.1 2.2 1 2.4 2.5v54.2c-.2 1.6-.9 2.3-2.6 2.4h-60.9c-5.2 0-5.3-.4-5.3 5.3v43.2c0 6.1 0 6.1-6.1 6.1h-134c-1.6-.2-2.3-1-2.4-2.6-.2-1-.1-2.2-.1-3.3v-47.5c0-5.8 0-6 5.9-6h57.6c5.2 0 5.3.6 5.3-5v-41.8c-.1-2.4-.5-2.7-3-2.8H318c-1.3 0-2.5 0-3.8-.2-1-.2-1.6-1-1.8-2 0-1.1.7-2.3 1.8-2.5 1.5-.2 3-.2 4.3-.2h78.6z" class="st0"/>
  <path d="M341.8 451.5h61.4c4.7 0 4.7 0 4.7-4.8v-39.3c0-6.2.3-5.6-5.8-5.6H279.8c-4.7 0-4.7 0-4.7 4.8v39.3c0 6-.5 5.6 5.8 5.6h61z" class="st0"/>
  <path d="M410 397h64.3c2-.2 2.5-.5 2.5-2.6v-44.1c0-2.5-.3-2.8-2.7-3H349c-1.1 0-2.3 0-3.4.2-.9 0-1.4.6-1.5 1.5l-.1 2.4v43.1c.2 2 .5 2.3 2.2 2.4H410z" class="st3"/>
  <path d="M2377.8 815.4h-67c-3.3-.2-4-.8-4-4l-.1-1.9v-48c0-5.3.2-5.5 5.7-5.5h131.4c5.4 0 5.6.2 5.6 5.8v48c0 5.3-.3 5.5-5.8 5.5h-65.7z" class="st0"/>
  <path d="M2377.5 810.5h63.9c2.6 0 2.8-.3 3-3.1V763.2c-.2-1.8-.6-2.3-2.3-2.4h-128.7c-1.4.2-1.8.7-2 2.2v45.6c.1 1 .7 1.8 1.8 1.9h64.4z" class="st2"/>
  <path d="M602 632h64.3c1.5 0 3 0 4.4.2 1.4 0 2.3 1 2.5 2.4V686c0 5.2-.3 5.5-5.3 5.5H536c-5.1 0-5.4-.2-5.4-5.4v-48.4c0-5.3.2-5.5 5.8-5.5H602z" class="st0"/>
  <path d="M601.5 686.6h63.9c2.6-.1 3-.4 3-3.2v-43.2c0-3-.3-3.2-3.3-3.3H540.3l-3.3.1c-1 0-1.4.7-1.5 1.6v44.6c0 3 .2 3.3 3.2 3.4h62.8z" class="st2"/>
  <path d="M1361 406.4h-64.8c-1.5 0-3 0-4.4-.2a2 2 0 01-1.8-1.8c-.2-1.1-.2-2.3-.2-3.4v-48.5c0-5.3.2-5.5 5.8-5.5h131l2.9.1c1.8.2 2.5 1 2.7 2.7l.1 3.4v47c0 6.2 0 6.2-6.1 6.2h-65.3z" class="st0"/>
  <path d="M1360.9 351.8h-60l-4.3.1c-1.4 0-1.9.6-2 2.1v45.2c.1 1.8.5 2.2 2.3 2.3h128c2 0 2.4-.4 2.5-2.6V354.3c-.1-1.9-.5-2.3-2.2-2.4h-64.3z" class="st2"/>
  <path d="M1655.5 536.5h11c.9 0 1.9 0 2.7.4a2 2 0 011.5 2.2 2 2 0 01-1.3 1.8c-1 .3-1.9.5-2.8.5h-23.4c-.8 0-1.6 0-2.4-.3-1-.3-1.5-1-1.6-2.1 0-1.2.7-2.2 2-2.3 1-.2 2.2-.2 3.3-.2h11zm-928 223.6H717c-1.1 0-2.3-.1-3.3-.3-1-.3-1.6-1.1-1.6-2.2a2 2 0 011.6-2 4 4 0 011.9-.4 6577.2 6577.2 0 0126.2.3c1.1.2 1.8 1.3 1.7 2.4 0 1.2-.8 1.8-1.8 2l-3.3.2h-11zm891-182.7h-11c-.9 0-1.9-.1-2.8-.3-1-.3-1.5-1.2-1.5-2.2 0-1 .6-1.9 1.6-2.1.8-.2 1.6-.2 2.4-.2a9118.2 9118.2 0 0125.8.1c1 .2 1.6 1 1.7 2 0 1.2-.7 2.3-1.8 2.5l-3.4.1h-11zm-372.8-229.1h-11c-1 0-2.2-.2-3.3-.4-.8-.2-1.3-1-1.4-1.7-.1-1.1.3-2 1.2-2.4a6 6 0 012.3-.4h24.4c.8 0 1.6.1 2.3.4 1 .4 1.4 1.3 1.2 2.4-.1.8-.6 1.5-1.4 1.7l-3.3.3h-11zM928 268.2h-12.4c-2.1 0-3-.7-3.1-2.2-.2-1.6.9-2.5 3.2-2.5h24.8c.6 0 1.3 0 1.9.2 1 .3 1.5 1.2 1.5 2.2 0 1-.6 1.9-1.6 2-.9.3-1.9.3-2.8.3H928zM412 954.5h-14c-1.2-.2-2-1-2.1-2.2 0-1.2.7-2.2 2-2.4l2.8-.1a8037.4 8037.4 0 0124.8.1c1 .2 2 1.4 1.9 2.4-.1 1-1 2-2.2 2.2H412zm38.3-317.6h-10.5l-2.9-.1c-1.1-.1-2-1.2-2.1-2.2 0-1 1-2.2 2-2.4l1.4-.1a6849.4 6849.4 0 0126.3.2c1.1.2 2 1.2 1.8 2.4-.1 1-.6 1.8-1.7 2l-2.9.2h-11.4zm2053 173.6h11c1 0 1.9.1 2.8.3.9.2 1.3.8 1.5 1.7.2 1-.3 2-1.2 2.4-.7.3-1.5.4-2.3.4a4941.5 4941.5 0 01-26.2-.2 2.2 2.2 0 01-1.7-2.5 2 2 0 011.8-1.9l2.9-.1h11.4zm-921.3-541h-11.4l-2.3-.1c-1.3-.2-2-1-2-2.3 0-1.1.8-2 2-2.3a9094.8 9094.8 0 0127.2 0c1.4.2 2.3 1.4 2.2 2.6 0 1-1 1.9-2.3 2l-3.3.1h-10zm84.2 638.6A34.3 34.3 0 011695 874l3.8-.5c.7 0 1.6 0 2.3.4a2 2 0 011.3 2.3c0 .8-.6 1.5-1.4 1.7-1.4.4-2.8.6-4.2.8a29.5 29.5 0 004.7 59c2.3.1 3.3 1 3.1 2.7-.1 1.4-1 2.1-3.2 2.1a34.6 34.6 0 01-35.2-34.3zm133-29.1c-.4 5.9-2.8 10.3-8 12.8a13.7 13.7 0 01-17-3.7c-.8-1.1-.7-2.5.3-3.5l1.8-1.6 14.5-11.8 1.9-1.4c1.2-.8 2.4-.6 3.4.5 2.2 2.5 3 5.6 3.1 8.8zm-163.9-.6c0-3.9 1.3-7.2 4-9.9 1.3-1.2 2.5-1.2 3.9 0l2 2 11.8 12.6c.7.8 1.5 1.6 2.1 2.5.7 1 .6 2.3-.2 3.1a14 14 0 01-23.6-10.3zm85.2 10h10.5c2.1 0 4 1 3 4.1a14 14 0 01-6 7.3c-.4.4-1 .9-1.6 1-3.8.6-4 3.3-3.9 6.4.2 2.4 0 4.8 0 7.2 0 1-.2 1.9-.8 2.6-1 1.1-3.2.8-3.6-.6a9 9 0 01-.4-2.8v-8.2c0-2-.4-3.2-2.6-3.8-3-.9-5.1-3.2-7.2-5.5a8 8 0 01-1.4-2.5c-1-2.7 0-4.2 3-4.4l11-.5v-.3zM1349.3 908a34.6 34.6 0 01-36.4 34.4c-1.3-.2-2.2-1-2.2-2.2 0-1.3.8-2.3 2.3-2.5l3.4-.2a28 28 0 0016.7-6.4 28.2 28.2 0 0010.2-30.8c-3.2-12.1-11.7-19.1-23.9-21.6l-4.7-.7c-1-.3-1.7-1-1.7-2 0-1.3.7-2.3 1.9-2.5.6-.1 1.3-.2 1.9-.1a34.7 34.7 0 0132.5 34.6zm-118.9-14.6a13.4 13.4 0 01-12.6-8.1c-2.3-5-1.8-10 1.4-14.5 1.6-2.2 3.2-2.4 5.2-.6 5.3 4.9 10.6 9.8 15.7 14.8 2 1.7 1.8 3-.1 4.8-2.7 2.5-6 3.6-9.6 3.6zm149.8-13.4a13 13 0 01-8.1 11.2c-5 2.3-10 2-14.5-1.4-2.2-1.6-2.4-3.1-.5-5.2 4.8-5.3 9.7-10.5 14.7-15.7 1.8-1.8 3-1.7 4.8.2 2.3 2.4 3.6 6 3.6 11zm-85.1 8.7c3.9.2 7.7.3 11.5.6 2.2.2 3 1.5 2.5 3.7-.3 1.4-1 2.7-2 3.7-2.1 2-4.1 4.2-7 5-2 .5-2.4 1.7-2.4 3.5a246 246 0 01-.3 11c-.2.9-.9 1.3-1.7 1.4-1 .2-2-.3-2.4-1.2-.3-.7-.4-1.5-.4-2.3V905c0-1.8-.4-3-2.3-3.6-3-.8-5.3-3-7.3-5.3a8 8 0 01-2-4.7c-.2-1.7.6-2.8 2.3-3h11.5v.3zm1204.5 355.7c0 5.2-4 9-9.3 8.8a9.1 9.1 0 01-8.7-9c0-4.9 4.2-9 9.2-9 5 0 9 4.1 8.8 9.2zm-38.6 22c0-3.3 2.6-5.6 5.9-5.5 3 .1 5.4 2.5 5.4 5.5.1 3-2.6 5.8-5.7 5.8a5.6 5.6 0 01-5.6-5.8zm-2046.2 63.9a10.7 10.7 0 11-21.4.1 11 11 0 0110.7-10.7c5.8 0 10.6 4.7 10.7 10.6z" class="st0"/>
</svg>
