<?xml version="1.0" encoding="utf-8"?>
<!-- Generator: Adobe Illustrator 18.1.0, SVG Export Plug-In . SVG Version: 6.00 Build 0)  -->
<svg version="1.1" id="Layer_1" xmlns="http://www.w3.org/2000/svg" xmlns:xlink="http://www.w3.org/1999/xlink" x="0px" y="0px"
	 viewBox="-362.4 459.1 500 500" enable-background="new -362.4 459.1 500 500" xml:space="preserve">
<radialGradient id="SVGID_1_" cx="-1002.9115" cy="1088.6691" r="0.6375" gradientTransform="matrix(545.6736 0 0 -528.3113 547071.625 575749.0625)" gradientUnits="userSpaceOnUse">
	<stop  offset="0" style="stop-color:#423325;stop-opacity:0.98"/>
	<stop  offset="1" style="stop-color:#1C0A00"/>
</radialGradient>
<path fill="url(#SVGID_1_)" d="M-341.6,493h457.7v445.3h-457.7V493z"/>
<path fill="#FF7F18" d="M-341.6,493h457.7v445.3h-457.7V493z M-362.4,959.1H137V472.2h-499.4V959.1z M-35.3,645.8
	c0-1.7,0.6-2.5,2.5-2.5h32.7c1.7,0,2.5,0.6,2.5,2.5v164.2c0,1.7-0.4,2.5-2.5,2.5h-32.3c-2.1,0-2.7-1-2.7-2.7v-164H-35.3L-35.3,645.8
	z M-37.6,598.5c0-13.3,9.4-21.2,21.2-21.2c12.7,0,21.2,8.5,21.2,21.2c0,13.7-8.9,21.2-21.6,21.2C-28.8,619.8-37.6,612.3-37.6,598.5z
	 M-131.2,714.2c-5.8-23.1-19.6-73.4-24.8-97.8h-0.4c-4.4,24.3-15.4,65.5-24.1,97.8H-131.2L-131.2,714.2z M-189,747.9l-16.4,62.4
	c-0.4,1.7-1,2.1-3.1,2.1h-30.6c-2.1,0-2.5-0.6-2.1-3.1l59.1-206.8c1-3.7,1.7-7.1,2.1-17.3c0-1.5,0.6-2.1,1.7-2.1h43.7
	c1.5,0,2.1,0.4,2.5,2.1l66.2,224.5c0.4,1.7,0,2.7-1.7,2.7h-34.5c-1.7,0-2.7-0.4-3.1-1.9l-17.1-62.6H-189L-189,747.9z"/>
</svg>
