<svg xmlns="http://www.w3.org/2000/svg" fill="none" viewBox="0 0 24 24">
  <path fill="#fff" fill-rule="evenodd" d="M24 12a12 12 0 11-24 0 12 12 0 0124 0zm-4.83 5.91v-4.95c0-2.64-1.41-3.88-3.3-3.88-1.53 0-2.2.84-2.58 1.43v.03h-.02l.01-.03V9.29h-2.86c.03.8 0 8.62 0 8.62h2.86V13.1c-.01-.23.02-.47.1-.7.2-.51.67-1.04 1.46-1.04 1.04 0 1.46.79 1.46 1.95v4.61h2.87zM5.79 6.61c0-.84.64-1.48 1.62-1.48.99 0 1.59.64 1.6 1.49 0 .83-.62 1.49-1.62 1.49h-.01c-.97 0-1.6-.66-1.6-1.5zm3.04 11.3H5.96V9.28h2.87v8.63z" clip-rule="evenodd"/>
</svg>
