<svg width="24" height="24" xmlns="http://www.w3.org/2000/svg" fill-rule="evenodd" clip-rule="evenodd" stroke-linejoin="round" stroke-miterlimit="1.41">
  <path fill="#fff" d="M18.38 22.78c.33.23.74.28 1.11.14.37-.14.64-.45.73-.84.86-4.08 2.97-14.42 3.76-18.13a.78.78 0 00-.26-.76.8.8 0 00-.8-.14C18.74 4.6 5.83 9.45.55 11.4a.83.83 0 00-.54.8c.01.35.25.66.6.76 2.36.71 5.47 1.7 5.47 1.7l2.2 6.61c.1.28.32.5.6.58.3.07.6 0 .82-.21l3.1-2.92s3.57 2.62 5.6 4.06zm-11-8.68l1.67 5.54.38-3.5 10.18-9.2c.1-.1.12-.26.03-.37a.28.28 0 00-.37-.06l-11.9 7.6z"/>
</svg>
